<?xml version="1.0" encoding="UTF-8" standalone="no"?>
<svg width="500px" height="1000px" viewBox="0 0 500 1000" version="1.1" xmlns="http://www.w3.org/2000/svg" xmlns:xlink="http://www.w3.org/1999/xlink">
    <!-- Generator: Sketch 41 (35326) - http://www.bohemiancoding.com/sketch -->
    <title>flower</title>
    <desc>Created with Sketch.</desc>
    <defs></defs>
    <g id="Page-1" stroke="none" stroke-width="1" fill="none" fill-rule="evenodd">
        <g id="flower" fill="#000000">
            <g id="Page-1">
                <path d="M101.057772,0 L101.057772,100 L0,100 L0,400 L101.057772,400 L100,500 L200,500 L200,1000 L300,1000 L300,700 L400,700 L400,600 L300,600 L300,500 L400,500 L400,400 L500,400 L500,100 L400,100 L400,0 L101.057772,0 Z M300,200 L300,100 L200,100 L200,200 L100,200 L100,300 L200,300 L200,400 L300,400 L300,300 L400,300 L400,200 L300,200 Z M200,200 L300,200 L300,300 L200,300 L200,200 Z" id="Combined-Shape"></path>
            </g>
        </g>
    </g>
</svg>