G04 MADE WITH FRITZING*
G04 WWW.FRITZING.ORG*
G04 DOUBLE SIDED*
G04 HOLES PLATED*
G04 CONTOUR ON CENTER OF CONTOUR VECTOR*
%ASAXBY*%
%FSLAX23Y23*%
%MOIN*%
%OFA0B0*%
%SFA1.0B1.0*%
%ADD10C,0.010000*%
%ADD11C,0.005000*%
%ADD12R,0.001000X0.001000*%
%LNSILK0*%
G90*
G70*
G54D10*
X1747Y1074D02*
X1747Y670D01*
D02*
X1747Y670D02*
X1307Y670D01*
D02*
X1307Y1074D02*
X1747Y1074D01*
G54D11*
D02*
X1387Y670D02*
X1387Y1074D01*
G54D10*
D02*
X547Y670D02*
X107Y670D01*
D02*
X107Y670D02*
X107Y1074D01*
D02*
X107Y1074D02*
X547Y1074D01*
G54D11*
D02*
X187Y670D02*
X187Y1074D01*
G54D10*
D02*
X1020Y40D02*
X616Y40D01*
D02*
X616Y40D02*
X616Y480D01*
G54D11*
D02*
X616Y400D02*
X1020Y400D01*
G54D12*
X375Y1893D02*
X1537Y1893D01*
X360Y1892D02*
X1552Y1892D01*
X350Y1891D02*
X1562Y1891D01*
X342Y1890D02*
X1570Y1890D01*
X335Y1889D02*
X1577Y1889D01*
X328Y1888D02*
X1584Y1888D01*
X323Y1887D02*
X1589Y1887D01*
X317Y1886D02*
X1595Y1886D01*
X313Y1885D02*
X374Y1885D01*
X1538Y1885D02*
X1599Y1885D01*
X308Y1884D02*
X359Y1884D01*
X1553Y1884D02*
X1604Y1884D01*
X304Y1883D02*
X349Y1883D01*
X1563Y1883D02*
X1608Y1883D01*
X299Y1882D02*
X341Y1882D01*
X1571Y1882D02*
X1613Y1882D01*
X295Y1881D02*
X334Y1881D01*
X1578Y1881D02*
X1617Y1881D01*
X292Y1880D02*
X328Y1880D01*
X1584Y1880D02*
X1620Y1880D01*
X288Y1879D02*
X322Y1879D01*
X1590Y1879D02*
X1624Y1879D01*
X284Y1878D02*
X317Y1878D01*
X1595Y1878D02*
X1628Y1878D01*
X281Y1877D02*
X312Y1877D01*
X1600Y1877D02*
X1631Y1877D01*
X278Y1876D02*
X307Y1876D01*
X1605Y1876D02*
X1634Y1876D01*
X275Y1875D02*
X303Y1875D01*
X1609Y1875D02*
X1637Y1875D01*
X272Y1874D02*
X299Y1874D01*
X1613Y1874D02*
X1640Y1874D01*
X269Y1873D02*
X295Y1873D01*
X1617Y1873D02*
X1643Y1873D01*
X266Y1872D02*
X291Y1872D01*
X1621Y1872D02*
X1646Y1872D01*
X263Y1871D02*
X287Y1871D01*
X1625Y1871D02*
X1649Y1871D01*
X260Y1870D02*
X284Y1870D01*
X1628Y1870D02*
X1652Y1870D01*
X257Y1869D02*
X281Y1869D01*
X1631Y1869D02*
X1655Y1869D01*
X254Y1868D02*
X277Y1868D01*
X1635Y1868D02*
X1658Y1868D01*
X252Y1867D02*
X274Y1867D01*
X1638Y1867D02*
X1660Y1867D01*
X249Y1866D02*
X271Y1866D01*
X1641Y1866D02*
X1663Y1866D01*
X247Y1865D02*
X268Y1865D01*
X1644Y1865D02*
X1665Y1865D01*
X244Y1864D02*
X265Y1864D01*
X1647Y1864D02*
X1668Y1864D01*
X242Y1863D02*
X262Y1863D01*
X1650Y1863D02*
X1670Y1863D01*
X239Y1862D02*
X260Y1862D01*
X1652Y1862D02*
X1673Y1862D01*
X237Y1861D02*
X257Y1861D01*
X1655Y1861D02*
X1675Y1861D01*
X235Y1860D02*
X254Y1860D01*
X1658Y1860D02*
X1677Y1860D01*
X233Y1859D02*
X252Y1859D01*
X1660Y1859D02*
X1679Y1859D01*
X230Y1858D02*
X249Y1858D01*
X1663Y1858D02*
X1682Y1858D01*
X228Y1857D02*
X247Y1857D01*
X1665Y1857D02*
X1684Y1857D01*
X226Y1856D02*
X244Y1856D01*
X1668Y1856D02*
X1686Y1856D01*
X224Y1855D02*
X242Y1855D01*
X1670Y1855D02*
X1688Y1855D01*
X222Y1854D02*
X240Y1854D01*
X1672Y1854D02*
X1690Y1854D01*
X220Y1853D02*
X237Y1853D01*
X1675Y1853D02*
X1692Y1853D01*
X218Y1852D02*
X235Y1852D01*
X1677Y1852D02*
X1694Y1852D01*
X216Y1851D02*
X233Y1851D01*
X1679Y1851D02*
X1696Y1851D01*
X214Y1850D02*
X231Y1850D01*
X1681Y1850D02*
X1698Y1850D01*
X212Y1849D02*
X228Y1849D01*
X1684Y1849D02*
X1700Y1849D01*
X210Y1848D02*
X226Y1848D01*
X1686Y1848D02*
X1702Y1848D01*
X208Y1847D02*
X224Y1847D01*
X1688Y1847D02*
X1704Y1847D01*
X206Y1846D02*
X222Y1846D01*
X1690Y1846D02*
X1706Y1846D01*
X204Y1845D02*
X220Y1845D01*
X1692Y1845D02*
X1708Y1845D01*
X202Y1844D02*
X218Y1844D01*
X1694Y1844D02*
X1710Y1844D01*
X201Y1843D02*
X216Y1843D01*
X1696Y1843D02*
X1711Y1843D01*
X199Y1842D02*
X214Y1842D01*
X1698Y1842D02*
X1713Y1842D01*
X197Y1841D02*
X212Y1841D01*
X1700Y1841D02*
X1715Y1841D01*
X195Y1840D02*
X210Y1840D01*
X1702Y1840D02*
X1717Y1840D01*
X194Y1839D02*
X209Y1839D01*
X1703Y1839D02*
X1718Y1839D01*
X192Y1838D02*
X207Y1838D01*
X1705Y1838D02*
X1720Y1838D01*
X190Y1837D02*
X205Y1837D01*
X1707Y1837D02*
X1722Y1837D01*
X188Y1836D02*
X203Y1836D01*
X1709Y1836D02*
X1724Y1836D01*
X187Y1835D02*
X201Y1835D01*
X1711Y1835D02*
X1725Y1835D01*
X185Y1834D02*
X200Y1834D01*
X1712Y1834D02*
X1727Y1834D01*
X184Y1833D02*
X198Y1833D01*
X1714Y1833D02*
X1728Y1833D01*
X182Y1832D02*
X196Y1832D01*
X1716Y1832D02*
X1730Y1832D01*
X181Y1831D02*
X194Y1831D01*
X1718Y1831D02*
X1731Y1831D01*
X179Y1830D02*
X193Y1830D01*
X1719Y1830D02*
X1733Y1830D01*
X177Y1829D02*
X191Y1829D01*
X1721Y1829D02*
X1735Y1829D01*
X176Y1828D02*
X190Y1828D01*
X1722Y1828D02*
X1736Y1828D01*
X174Y1827D02*
X188Y1827D01*
X1724Y1827D02*
X1738Y1827D01*
X173Y1826D02*
X186Y1826D01*
X1726Y1826D02*
X1739Y1826D01*
X171Y1825D02*
X185Y1825D01*
X1727Y1825D02*
X1741Y1825D01*
X170Y1824D02*
X183Y1824D01*
X1729Y1824D02*
X1742Y1824D01*
X169Y1823D02*
X182Y1823D01*
X1730Y1823D02*
X1743Y1823D01*
X167Y1822D02*
X180Y1822D01*
X1732Y1822D02*
X1745Y1822D01*
X166Y1821D02*
X179Y1821D01*
X1733Y1821D02*
X1746Y1821D01*
X164Y1820D02*
X177Y1820D01*
X1735Y1820D02*
X1748Y1820D01*
X163Y1819D02*
X176Y1819D01*
X1736Y1819D02*
X1749Y1819D01*
X161Y1818D02*
X174Y1818D01*
X1738Y1818D02*
X1751Y1818D01*
X160Y1817D02*
X173Y1817D01*
X1739Y1817D02*
X1752Y1817D01*
X159Y1816D02*
X171Y1816D01*
X1741Y1816D02*
X1753Y1816D01*
X157Y1815D02*
X170Y1815D01*
X1742Y1815D02*
X1755Y1815D01*
X156Y1814D02*
X169Y1814D01*
X1743Y1814D02*
X1756Y1814D01*
X155Y1813D02*
X167Y1813D01*
X1745Y1813D02*
X1757Y1813D01*
X153Y1812D02*
X166Y1812D01*
X1746Y1812D02*
X1759Y1812D01*
X152Y1811D02*
X164Y1811D01*
X1748Y1811D02*
X1760Y1811D01*
X151Y1810D02*
X163Y1810D01*
X1749Y1810D02*
X1761Y1810D01*
X150Y1809D02*
X161Y1809D01*
X1751Y1809D02*
X1762Y1809D01*
X148Y1808D02*
X160Y1808D01*
X1752Y1808D02*
X1764Y1808D01*
X147Y1807D02*
X159Y1807D01*
X1753Y1807D02*
X1765Y1807D01*
X146Y1806D02*
X158Y1806D01*
X1754Y1806D02*
X1766Y1806D01*
X144Y1805D02*
X156Y1805D01*
X1756Y1805D02*
X1768Y1805D01*
X143Y1804D02*
X155Y1804D01*
X1757Y1804D02*
X1769Y1804D01*
X142Y1803D02*
X154Y1803D01*
X1758Y1803D02*
X1770Y1803D01*
X141Y1802D02*
X152Y1802D01*
X1760Y1802D02*
X1771Y1802D01*
X140Y1801D02*
X151Y1801D01*
X1761Y1801D02*
X1772Y1801D01*
X138Y1800D02*
X150Y1800D01*
X1762Y1800D02*
X1774Y1800D01*
X137Y1799D02*
X149Y1799D01*
X1763Y1799D02*
X1775Y1799D01*
X136Y1798D02*
X147Y1798D01*
X1765Y1798D02*
X1776Y1798D01*
X135Y1797D02*
X146Y1797D01*
X1766Y1797D02*
X1777Y1797D01*
X134Y1796D02*
X145Y1796D01*
X1767Y1796D02*
X1778Y1796D01*
X133Y1795D02*
X144Y1795D01*
X1768Y1795D02*
X1779Y1795D01*
X131Y1794D02*
X143Y1794D01*
X1769Y1794D02*
X1781Y1794D01*
X130Y1793D02*
X142Y1793D01*
X1770Y1793D02*
X1782Y1793D01*
X129Y1792D02*
X140Y1792D01*
X1772Y1792D02*
X1783Y1792D01*
X128Y1791D02*
X139Y1791D01*
X1773Y1791D02*
X1784Y1791D01*
X127Y1790D02*
X138Y1790D01*
X1774Y1790D02*
X1785Y1790D01*
X126Y1789D02*
X137Y1789D01*
X1775Y1789D02*
X1786Y1789D01*
X125Y1788D02*
X136Y1788D01*
X1776Y1788D02*
X1787Y1788D01*
X124Y1787D02*
X135Y1787D01*
X1777Y1787D02*
X1788Y1787D01*
X123Y1786D02*
X133Y1786D01*
X1779Y1786D02*
X1789Y1786D01*
X122Y1785D02*
X132Y1785D01*
X1780Y1785D02*
X1790Y1785D01*
X121Y1784D02*
X131Y1784D01*
X1781Y1784D02*
X1791Y1784D01*
X120Y1783D02*
X130Y1783D01*
X1782Y1783D02*
X1792Y1783D01*
X119Y1782D02*
X129Y1782D01*
X1783Y1782D02*
X1793Y1782D01*
X117Y1781D02*
X128Y1781D01*
X1784Y1781D02*
X1795Y1781D01*
X116Y1780D02*
X127Y1780D01*
X1785Y1780D02*
X1796Y1780D01*
X115Y1779D02*
X126Y1779D01*
X1786Y1779D02*
X1797Y1779D01*
X114Y1778D02*
X125Y1778D01*
X1787Y1778D02*
X1798Y1778D01*
X113Y1777D02*
X124Y1777D01*
X1788Y1777D02*
X1799Y1777D01*
X112Y1776D02*
X123Y1776D01*
X1789Y1776D02*
X1800Y1776D01*
X111Y1775D02*
X122Y1775D01*
X1790Y1775D02*
X1801Y1775D01*
X111Y1774D02*
X121Y1774D01*
X1791Y1774D02*
X1801Y1774D01*
X110Y1773D02*
X120Y1773D01*
X1792Y1773D02*
X1802Y1773D01*
X109Y1772D02*
X119Y1772D01*
X1793Y1772D02*
X1803Y1772D01*
X108Y1771D02*
X118Y1771D01*
X1794Y1771D02*
X1804Y1771D01*
X107Y1770D02*
X117Y1770D01*
X1795Y1770D02*
X1805Y1770D01*
X106Y1769D02*
X116Y1769D01*
X1796Y1769D02*
X1806Y1769D01*
X105Y1768D02*
X115Y1768D01*
X1797Y1768D02*
X1807Y1768D01*
X104Y1767D02*
X114Y1767D01*
X1798Y1767D02*
X1808Y1767D01*
X103Y1766D02*
X113Y1766D01*
X1799Y1766D02*
X1809Y1766D01*
X102Y1765D02*
X112Y1765D01*
X1800Y1765D02*
X1810Y1765D01*
X101Y1764D02*
X111Y1764D01*
X1801Y1764D02*
X1811Y1764D01*
X100Y1763D02*
X110Y1763D01*
X1802Y1763D02*
X1812Y1763D01*
X99Y1762D02*
X109Y1762D01*
X1803Y1762D02*
X1813Y1762D01*
X98Y1761D02*
X108Y1761D01*
X1804Y1761D02*
X1814Y1761D01*
X98Y1760D02*
X107Y1760D01*
X1805Y1760D02*
X1814Y1760D01*
X97Y1759D02*
X106Y1759D01*
X1806Y1759D02*
X1815Y1759D01*
X96Y1758D02*
X105Y1758D01*
X1807Y1758D02*
X1816Y1758D01*
X95Y1757D02*
X105Y1757D01*
X1807Y1757D02*
X1817Y1757D01*
X94Y1756D02*
X104Y1756D01*
X1808Y1756D02*
X1818Y1756D01*
X93Y1755D02*
X103Y1755D01*
X1809Y1755D02*
X1819Y1755D01*
X92Y1754D02*
X102Y1754D01*
X1810Y1754D02*
X1820Y1754D01*
X91Y1753D02*
X101Y1753D01*
X1811Y1753D02*
X1821Y1753D01*
X91Y1752D02*
X100Y1752D01*
X1812Y1752D02*
X1821Y1752D01*
X90Y1751D02*
X99Y1751D01*
X1813Y1751D02*
X1822Y1751D01*
X89Y1750D02*
X98Y1750D01*
X1814Y1750D02*
X1823Y1750D01*
X88Y1749D02*
X98Y1749D01*
X1814Y1749D02*
X1824Y1749D01*
X87Y1748D02*
X97Y1748D01*
X1815Y1748D02*
X1825Y1748D01*
X87Y1747D02*
X96Y1747D01*
X1816Y1747D02*
X1825Y1747D01*
X86Y1746D02*
X95Y1746D01*
X1817Y1746D02*
X1826Y1746D01*
X85Y1745D02*
X94Y1745D01*
X1818Y1745D02*
X1827Y1745D01*
X84Y1744D02*
X93Y1744D01*
X1819Y1744D02*
X1828Y1744D01*
X83Y1743D02*
X93Y1743D01*
X1819Y1743D02*
X1829Y1743D01*
X83Y1742D02*
X92Y1742D01*
X1820Y1742D02*
X1829Y1742D01*
X82Y1741D02*
X91Y1741D01*
X1821Y1741D02*
X1830Y1741D01*
X81Y1740D02*
X90Y1740D01*
X1822Y1740D02*
X1831Y1740D01*
X80Y1739D02*
X89Y1739D01*
X1823Y1739D02*
X1832Y1739D01*
X79Y1738D02*
X89Y1738D01*
X1823Y1738D02*
X1833Y1738D01*
X79Y1737D02*
X88Y1737D01*
X1824Y1737D02*
X1833Y1737D01*
X78Y1736D02*
X87Y1736D01*
X1825Y1736D02*
X1834Y1736D01*
X77Y1735D02*
X86Y1735D01*
X1826Y1735D02*
X1835Y1735D01*
X76Y1734D02*
X85Y1734D01*
X1827Y1734D02*
X1836Y1734D01*
X76Y1733D02*
X85Y1733D01*
X1827Y1733D02*
X1836Y1733D01*
X75Y1732D02*
X84Y1732D01*
X1828Y1732D02*
X1837Y1732D01*
X74Y1731D02*
X83Y1731D01*
X1829Y1731D02*
X1838Y1731D01*
X74Y1730D02*
X82Y1730D01*
X1830Y1730D02*
X1838Y1730D01*
X73Y1729D02*
X82Y1729D01*
X1830Y1729D02*
X1839Y1729D01*
X72Y1728D02*
X81Y1728D01*
X1831Y1728D02*
X1840Y1728D01*
X71Y1727D02*
X80Y1727D01*
X1832Y1727D02*
X1841Y1727D01*
X71Y1726D02*
X79Y1726D01*
X1833Y1726D02*
X1841Y1726D01*
X70Y1725D02*
X79Y1725D01*
X1833Y1725D02*
X1842Y1725D01*
X69Y1724D02*
X78Y1724D01*
X1834Y1724D02*
X1843Y1724D01*
X69Y1723D02*
X77Y1723D01*
X1835Y1723D02*
X1843Y1723D01*
X68Y1722D02*
X77Y1722D01*
X1835Y1722D02*
X1844Y1722D01*
X67Y1721D02*
X76Y1721D01*
X1836Y1721D02*
X1845Y1721D01*
X66Y1720D02*
X75Y1720D01*
X1837Y1720D02*
X1846Y1720D01*
X66Y1719D02*
X74Y1719D01*
X1838Y1719D02*
X1846Y1719D01*
X65Y1718D02*
X74Y1718D01*
X1838Y1718D02*
X1847Y1718D01*
X65Y1717D02*
X73Y1717D01*
X1839Y1717D02*
X1847Y1717D01*
X64Y1716D02*
X72Y1716D01*
X1840Y1716D02*
X1848Y1716D01*
X63Y1715D02*
X72Y1715D01*
X1840Y1715D02*
X1849Y1715D01*
X63Y1714D02*
X71Y1714D01*
X1841Y1714D02*
X1849Y1714D01*
X62Y1713D02*
X70Y1713D01*
X1842Y1713D02*
X1850Y1713D01*
X61Y1712D02*
X70Y1712D01*
X1842Y1712D02*
X1851Y1712D01*
X61Y1711D02*
X69Y1711D01*
X1843Y1711D02*
X1851Y1711D01*
X60Y1710D02*
X68Y1710D01*
X1844Y1710D02*
X1852Y1710D01*
X59Y1709D02*
X68Y1709D01*
X1844Y1709D02*
X1853Y1709D01*
X59Y1708D02*
X67Y1708D01*
X1845Y1708D02*
X1853Y1708D01*
X58Y1707D02*
X66Y1707D01*
X1846Y1707D02*
X1854Y1707D01*
X57Y1706D02*
X66Y1706D01*
X1846Y1706D02*
X1855Y1706D01*
X57Y1705D02*
X65Y1705D01*
X1847Y1705D02*
X1855Y1705D01*
X56Y1704D02*
X65Y1704D01*
X1847Y1704D02*
X1856Y1704D01*
X56Y1703D02*
X64Y1703D01*
X1848Y1703D02*
X1856Y1703D01*
X55Y1702D02*
X63Y1702D01*
X1849Y1702D02*
X1857Y1702D01*
X55Y1701D02*
X63Y1701D01*
X1849Y1701D02*
X1857Y1701D01*
X54Y1700D02*
X62Y1700D01*
X1850Y1700D02*
X1858Y1700D01*
X53Y1699D02*
X61Y1699D01*
X1851Y1699D02*
X1859Y1699D01*
X53Y1698D02*
X61Y1698D01*
X1851Y1698D02*
X1859Y1698D01*
X52Y1697D02*
X60Y1697D01*
X1852Y1697D02*
X1860Y1697D01*
X52Y1696D02*
X60Y1696D01*
X1852Y1696D02*
X1860Y1696D01*
X51Y1695D02*
X59Y1695D01*
X1853Y1695D02*
X1861Y1695D01*
X50Y1694D02*
X59Y1694D01*
X1853Y1694D02*
X1862Y1694D01*
X50Y1693D02*
X58Y1693D01*
X1854Y1693D02*
X1862Y1693D01*
X49Y1692D02*
X57Y1692D01*
X1855Y1692D02*
X1863Y1692D01*
X49Y1691D02*
X57Y1691D01*
X1855Y1691D02*
X1863Y1691D01*
X48Y1690D02*
X56Y1690D01*
X1856Y1690D02*
X1864Y1690D01*
X48Y1689D02*
X56Y1689D01*
X1856Y1689D02*
X1864Y1689D01*
X47Y1688D02*
X55Y1688D01*
X1857Y1688D02*
X1865Y1688D01*
X47Y1687D02*
X54Y1687D01*
X1858Y1687D02*
X1865Y1687D01*
X46Y1686D02*
X54Y1686D01*
X1858Y1686D02*
X1866Y1686D01*
X45Y1685D02*
X53Y1685D01*
X1859Y1685D02*
X1867Y1685D01*
X45Y1684D02*
X53Y1684D01*
X1859Y1684D02*
X1867Y1684D01*
X44Y1683D02*
X52Y1683D01*
X1860Y1683D02*
X1868Y1683D01*
X44Y1682D02*
X52Y1682D01*
X1860Y1682D02*
X1868Y1682D01*
X43Y1681D02*
X51Y1681D01*
X1861Y1681D02*
X1869Y1681D01*
X43Y1680D02*
X51Y1680D01*
X1861Y1680D02*
X1869Y1680D01*
X42Y1679D02*
X50Y1679D01*
X1862Y1679D02*
X1870Y1679D01*
X42Y1678D02*
X50Y1678D01*
X1862Y1678D02*
X1870Y1678D01*
X41Y1677D02*
X49Y1677D01*
X1863Y1677D02*
X1871Y1677D01*
X41Y1676D02*
X49Y1676D01*
X1863Y1676D02*
X1871Y1676D01*
X40Y1675D02*
X48Y1675D01*
X1864Y1675D02*
X1872Y1675D01*
X40Y1674D02*
X48Y1674D01*
X1864Y1674D02*
X1872Y1674D01*
X39Y1673D02*
X47Y1673D01*
X1865Y1673D02*
X1873Y1673D01*
X39Y1672D02*
X47Y1672D01*
X1865Y1672D02*
X1873Y1672D01*
X38Y1671D02*
X46Y1671D01*
X1866Y1671D02*
X1874Y1671D01*
X38Y1670D02*
X46Y1670D01*
X1866Y1670D02*
X1874Y1670D01*
X37Y1669D02*
X45Y1669D01*
X1867Y1669D02*
X1875Y1669D01*
X37Y1668D02*
X45Y1668D01*
X1867Y1668D02*
X1875Y1668D01*
X36Y1667D02*
X44Y1667D01*
X1868Y1667D02*
X1876Y1667D01*
X36Y1666D02*
X44Y1666D01*
X1868Y1666D02*
X1876Y1666D01*
X36Y1665D02*
X43Y1665D01*
X1869Y1665D02*
X1876Y1665D01*
X35Y1664D02*
X43Y1664D01*
X1869Y1664D02*
X1877Y1664D01*
X35Y1663D02*
X42Y1663D01*
X1870Y1663D02*
X1877Y1663D01*
X34Y1662D02*
X42Y1662D01*
X1870Y1662D02*
X1878Y1662D01*
X34Y1661D02*
X41Y1661D01*
X1871Y1661D02*
X1878Y1661D01*
X33Y1660D02*
X41Y1660D01*
X1871Y1660D02*
X1879Y1660D01*
X33Y1659D02*
X40Y1659D01*
X1872Y1659D02*
X1879Y1659D01*
X32Y1658D02*
X40Y1658D01*
X1872Y1658D02*
X1880Y1658D01*
X32Y1657D02*
X40Y1657D01*
X1872Y1657D02*
X1880Y1657D01*
X31Y1656D02*
X39Y1656D01*
X1873Y1656D02*
X1881Y1656D01*
X31Y1655D02*
X39Y1655D01*
X1873Y1655D02*
X1881Y1655D01*
X31Y1654D02*
X38Y1654D01*
X1874Y1654D02*
X1881Y1654D01*
X30Y1653D02*
X38Y1653D01*
X1874Y1653D02*
X1882Y1653D01*
X30Y1652D02*
X37Y1652D01*
X1875Y1652D02*
X1882Y1652D01*
X29Y1651D02*
X37Y1651D01*
X1875Y1651D02*
X1883Y1651D01*
X29Y1650D02*
X36Y1650D01*
X1876Y1650D02*
X1883Y1650D01*
X29Y1649D02*
X36Y1649D01*
X1876Y1649D02*
X1883Y1649D01*
X28Y1648D02*
X36Y1648D01*
X1876Y1648D02*
X1884Y1648D01*
X28Y1647D02*
X35Y1647D01*
X1877Y1647D02*
X1884Y1647D01*
X27Y1646D02*
X35Y1646D01*
X1877Y1646D02*
X1885Y1646D01*
X27Y1645D02*
X34Y1645D01*
X1878Y1645D02*
X1885Y1645D01*
X27Y1644D02*
X34Y1644D01*
X1878Y1644D02*
X1885Y1644D01*
X26Y1643D02*
X34Y1643D01*
X1878Y1643D02*
X1886Y1643D01*
X26Y1642D02*
X33Y1642D01*
X1879Y1642D02*
X1886Y1642D01*
X25Y1641D02*
X33Y1641D01*
X1879Y1641D02*
X1887Y1641D01*
X25Y1640D02*
X32Y1640D01*
X1880Y1640D02*
X1887Y1640D01*
X25Y1639D02*
X32Y1639D01*
X1880Y1639D02*
X1887Y1639D01*
X24Y1638D02*
X32Y1638D01*
X1880Y1638D02*
X1888Y1638D01*
X24Y1637D02*
X31Y1637D01*
X1881Y1637D02*
X1888Y1637D01*
X24Y1636D02*
X31Y1636D01*
X1881Y1636D02*
X1888Y1636D01*
X23Y1635D02*
X30Y1635D01*
X1882Y1635D02*
X1889Y1635D01*
X23Y1634D02*
X30Y1634D01*
X1882Y1634D02*
X1889Y1634D01*
X22Y1633D02*
X30Y1633D01*
X1882Y1633D02*
X1890Y1633D01*
X22Y1632D02*
X29Y1632D01*
X1883Y1632D02*
X1890Y1632D01*
X22Y1631D02*
X29Y1631D01*
X1883Y1631D02*
X1890Y1631D01*
X21Y1630D02*
X29Y1630D01*
X1883Y1630D02*
X1891Y1630D01*
X21Y1629D02*
X28Y1629D01*
X1884Y1629D02*
X1891Y1629D01*
X21Y1628D02*
X28Y1628D01*
X1884Y1628D02*
X1891Y1628D01*
X20Y1627D02*
X28Y1627D01*
X1884Y1627D02*
X1892Y1627D01*
X20Y1626D02*
X27Y1626D01*
X1885Y1626D02*
X1892Y1626D01*
X20Y1625D02*
X27Y1625D01*
X1885Y1625D02*
X1892Y1625D01*
X19Y1624D02*
X27Y1624D01*
X1885Y1624D02*
X1893Y1624D01*
X19Y1623D02*
X26Y1623D01*
X1886Y1623D02*
X1893Y1623D01*
X19Y1622D02*
X26Y1622D01*
X1886Y1622D02*
X1893Y1622D01*
X18Y1621D02*
X26Y1621D01*
X1886Y1621D02*
X1894Y1621D01*
X18Y1620D02*
X25Y1620D01*
X1887Y1620D02*
X1894Y1620D01*
X18Y1619D02*
X25Y1619D01*
X1887Y1619D02*
X1894Y1619D01*
X17Y1618D02*
X25Y1618D01*
X1887Y1618D02*
X1895Y1618D01*
X17Y1617D02*
X24Y1617D01*
X1888Y1617D02*
X1895Y1617D01*
X17Y1616D02*
X24Y1616D01*
X1888Y1616D02*
X1895Y1616D01*
X17Y1615D02*
X24Y1615D01*
X1888Y1615D02*
X1895Y1615D01*
X16Y1614D02*
X23Y1614D01*
X1889Y1614D02*
X1896Y1614D01*
X16Y1613D02*
X23Y1613D01*
X1889Y1613D02*
X1896Y1613D01*
X16Y1612D02*
X23Y1612D01*
X1889Y1612D02*
X1896Y1612D01*
X15Y1611D02*
X23Y1611D01*
X1889Y1611D02*
X1897Y1611D01*
X15Y1610D02*
X22Y1610D01*
X1890Y1610D02*
X1897Y1610D01*
X15Y1609D02*
X22Y1609D01*
X1890Y1609D02*
X1897Y1609D01*
X14Y1608D02*
X22Y1608D01*
X1890Y1608D02*
X1898Y1608D01*
X14Y1607D02*
X21Y1607D01*
X1891Y1607D02*
X1898Y1607D01*
X14Y1606D02*
X21Y1606D01*
X1891Y1606D02*
X1898Y1606D01*
X14Y1605D02*
X21Y1605D01*
X1891Y1605D02*
X1898Y1605D01*
X13Y1604D02*
X21Y1604D01*
X1891Y1604D02*
X1899Y1604D01*
X13Y1603D02*
X20Y1603D01*
X1892Y1603D02*
X1899Y1603D01*
X13Y1602D02*
X20Y1602D01*
X1892Y1602D02*
X1899Y1602D01*
X13Y1601D02*
X20Y1601D01*
X1892Y1601D02*
X1899Y1601D01*
X12Y1600D02*
X19Y1600D01*
X1893Y1600D02*
X1900Y1600D01*
X12Y1599D02*
X19Y1599D01*
X1893Y1599D02*
X1900Y1599D01*
X12Y1598D02*
X19Y1598D01*
X1893Y1598D02*
X1900Y1598D01*
X12Y1597D02*
X19Y1597D01*
X1893Y1597D02*
X1900Y1597D01*
X11Y1596D02*
X18Y1596D01*
X1894Y1596D02*
X1901Y1596D01*
X11Y1595D02*
X18Y1595D01*
X1894Y1595D02*
X1901Y1595D01*
X11Y1594D02*
X18Y1594D01*
X1894Y1594D02*
X1901Y1594D01*
X11Y1593D02*
X18Y1593D01*
X1894Y1593D02*
X1901Y1593D01*
X10Y1592D02*
X17Y1592D01*
X1895Y1592D02*
X1902Y1592D01*
X10Y1591D02*
X17Y1591D01*
X1895Y1591D02*
X1902Y1591D01*
X10Y1590D02*
X17Y1590D01*
X1895Y1590D02*
X1902Y1590D01*
X10Y1589D02*
X17Y1589D01*
X1895Y1589D02*
X1902Y1589D01*
X9Y1588D02*
X16Y1588D01*
X1896Y1588D02*
X1903Y1588D01*
X9Y1587D02*
X16Y1587D01*
X1896Y1587D02*
X1903Y1587D01*
X9Y1586D02*
X16Y1586D01*
X1896Y1586D02*
X1903Y1586D01*
X9Y1585D02*
X16Y1585D01*
X1896Y1585D02*
X1903Y1585D01*
X9Y1584D02*
X16Y1584D01*
X1896Y1584D02*
X1903Y1584D01*
X8Y1583D02*
X15Y1583D01*
X1897Y1583D02*
X1904Y1583D01*
X8Y1582D02*
X15Y1582D01*
X1897Y1582D02*
X1904Y1582D01*
X8Y1581D02*
X15Y1581D01*
X1897Y1581D02*
X1904Y1581D01*
X8Y1580D02*
X15Y1580D01*
X1897Y1580D02*
X1904Y1580D01*
X7Y1579D02*
X15Y1579D01*
X1897Y1579D02*
X1905Y1579D01*
X7Y1578D02*
X14Y1578D01*
X1898Y1578D02*
X1905Y1578D01*
X7Y1577D02*
X14Y1577D01*
X1898Y1577D02*
X1905Y1577D01*
X7Y1576D02*
X14Y1576D01*
X1898Y1576D02*
X1905Y1576D01*
X7Y1575D02*
X14Y1575D01*
X1898Y1575D02*
X1905Y1575D01*
X7Y1574D02*
X14Y1574D01*
X1898Y1574D02*
X1905Y1574D01*
X6Y1573D02*
X13Y1573D01*
X1899Y1573D02*
X1906Y1573D01*
X6Y1572D02*
X13Y1572D01*
X1899Y1572D02*
X1906Y1572D01*
X6Y1571D02*
X13Y1571D01*
X1899Y1571D02*
X1906Y1571D01*
X6Y1570D02*
X13Y1570D01*
X1899Y1570D02*
X1906Y1570D01*
X6Y1569D02*
X13Y1569D01*
X1899Y1569D02*
X1906Y1569D01*
X5Y1568D02*
X13Y1568D01*
X1899Y1568D02*
X1907Y1568D01*
X5Y1567D02*
X12Y1567D01*
X1900Y1567D02*
X1907Y1567D01*
X5Y1566D02*
X12Y1566D01*
X1900Y1566D02*
X1907Y1566D01*
X5Y1565D02*
X12Y1565D01*
X1900Y1565D02*
X1907Y1565D01*
X5Y1564D02*
X12Y1564D01*
X1900Y1564D02*
X1907Y1564D01*
X5Y1563D02*
X12Y1563D01*
X1900Y1563D02*
X1907Y1563D01*
X4Y1562D02*
X12Y1562D01*
X1900Y1562D02*
X1908Y1562D01*
X4Y1561D02*
X11Y1561D01*
X1901Y1561D02*
X1908Y1561D01*
X4Y1560D02*
X11Y1560D01*
X1901Y1560D02*
X1908Y1560D01*
X4Y1559D02*
X11Y1559D01*
X1901Y1559D02*
X1908Y1559D01*
X4Y1558D02*
X11Y1558D01*
X1901Y1558D02*
X1908Y1558D01*
X4Y1557D02*
X11Y1557D01*
X1901Y1557D02*
X1908Y1557D01*
X4Y1556D02*
X11Y1556D01*
X1901Y1556D02*
X1908Y1556D01*
X3Y1555D02*
X11Y1555D01*
X1901Y1555D02*
X1909Y1555D01*
X3Y1554D02*
X10Y1554D01*
X1902Y1554D02*
X1909Y1554D01*
X3Y1553D02*
X10Y1553D01*
X1902Y1553D02*
X1909Y1553D01*
X3Y1552D02*
X10Y1552D01*
X1902Y1552D02*
X1909Y1552D01*
X3Y1551D02*
X10Y1551D01*
X1902Y1551D02*
X1909Y1551D01*
X3Y1550D02*
X10Y1550D01*
X1902Y1550D02*
X1909Y1550D01*
X3Y1549D02*
X10Y1549D01*
X1902Y1549D02*
X1909Y1549D01*
X3Y1548D02*
X10Y1548D01*
X1902Y1548D02*
X1909Y1548D01*
X2Y1547D02*
X10Y1547D01*
X1902Y1547D02*
X1910Y1547D01*
X2Y1546D02*
X9Y1546D01*
X1903Y1546D02*
X1910Y1546D01*
X2Y1545D02*
X9Y1545D01*
X1903Y1545D02*
X1910Y1545D01*
X2Y1544D02*
X9Y1544D01*
X1903Y1544D02*
X1910Y1544D01*
X2Y1543D02*
X9Y1543D01*
X1903Y1543D02*
X1910Y1543D01*
X2Y1542D02*
X9Y1542D01*
X1903Y1542D02*
X1910Y1542D01*
X2Y1541D02*
X9Y1541D01*
X1903Y1541D02*
X1910Y1541D01*
X2Y1540D02*
X9Y1540D01*
X1903Y1540D02*
X1910Y1540D01*
X2Y1539D02*
X9Y1539D01*
X1903Y1539D02*
X1910Y1539D01*
X2Y1538D02*
X9Y1538D01*
X1903Y1538D02*
X1910Y1538D01*
X1Y1537D02*
X9Y1537D01*
X1903Y1537D02*
X1911Y1537D01*
X1Y1536D02*
X8Y1536D01*
X1904Y1536D02*
X1911Y1536D01*
X1Y1535D02*
X8Y1535D01*
X1904Y1535D02*
X1911Y1535D01*
X1Y1534D02*
X8Y1534D01*
X1904Y1534D02*
X1911Y1534D01*
X1Y1533D02*
X8Y1533D01*
X1904Y1533D02*
X1911Y1533D01*
X1Y1532D02*
X8Y1532D01*
X1904Y1532D02*
X1911Y1532D01*
X1Y1531D02*
X8Y1531D01*
X1904Y1531D02*
X1911Y1531D01*
X1Y1530D02*
X8Y1530D01*
X1904Y1530D02*
X1911Y1530D01*
X1Y1529D02*
X8Y1529D01*
X1904Y1529D02*
X1911Y1529D01*
X1Y1528D02*
X8Y1528D01*
X1904Y1528D02*
X1911Y1528D01*
X1Y1527D02*
X8Y1527D01*
X1904Y1527D02*
X1911Y1527D01*
X1Y1526D02*
X8Y1526D01*
X1904Y1526D02*
X1911Y1526D01*
X1Y1525D02*
X8Y1525D01*
X1904Y1525D02*
X1911Y1525D01*
X1Y1524D02*
X8Y1524D01*
X1904Y1524D02*
X1911Y1524D01*
X0Y1523D02*
X8Y1523D01*
X1904Y1523D02*
X1912Y1523D01*
X0Y1522D02*
X7Y1522D01*
X1905Y1522D02*
X1912Y1522D01*
X0Y1521D02*
X7Y1521D01*
X1905Y1521D02*
X1912Y1521D01*
X0Y1520D02*
X7Y1520D01*
X1905Y1520D02*
X1912Y1520D01*
X0Y1519D02*
X7Y1519D01*
X1905Y1519D02*
X1912Y1519D01*
X0Y1518D02*
X7Y1518D01*
X1905Y1518D02*
X1912Y1518D01*
X0Y1517D02*
X7Y1517D01*
X1905Y1517D02*
X1912Y1517D01*
X0Y1516D02*
X7Y1516D01*
X1905Y1516D02*
X1912Y1516D01*
X0Y1515D02*
X7Y1515D01*
X1905Y1515D02*
X1912Y1515D01*
X0Y1514D02*
X7Y1514D01*
X1905Y1514D02*
X1912Y1514D01*
X0Y1513D02*
X7Y1513D01*
X1905Y1513D02*
X1912Y1513D01*
X0Y1512D02*
X7Y1512D01*
X1905Y1512D02*
X1912Y1512D01*
X0Y1511D02*
X7Y1511D01*
X1905Y1511D02*
X1912Y1511D01*
X0Y1510D02*
X7Y1510D01*
X1905Y1510D02*
X1912Y1510D01*
X0Y1509D02*
X7Y1509D01*
X1905Y1509D02*
X1912Y1509D01*
X0Y1508D02*
X7Y1508D01*
X1905Y1508D02*
X1912Y1508D01*
X0Y1507D02*
X7Y1507D01*
X1905Y1507D02*
X1912Y1507D01*
X0Y1506D02*
X7Y1506D01*
X1905Y1506D02*
X1912Y1506D01*
X0Y1505D02*
X7Y1505D01*
X1905Y1505D02*
X1912Y1505D01*
X0Y1504D02*
X7Y1504D01*
X1905Y1504D02*
X1912Y1504D01*
X0Y1503D02*
X7Y1503D01*
X1905Y1503D02*
X1912Y1503D01*
X0Y1502D02*
X7Y1502D01*
X1905Y1502D02*
X1912Y1502D01*
X0Y1501D02*
X7Y1501D01*
X1905Y1501D02*
X1912Y1501D01*
X0Y1500D02*
X7Y1500D01*
X1905Y1500D02*
X1912Y1500D01*
X0Y1499D02*
X7Y1499D01*
X1905Y1499D02*
X1912Y1499D01*
X0Y1498D02*
X7Y1498D01*
X1905Y1498D02*
X1912Y1498D01*
X0Y1497D02*
X7Y1497D01*
X1905Y1497D02*
X1912Y1497D01*
X0Y1496D02*
X7Y1496D01*
X1905Y1496D02*
X1912Y1496D01*
X0Y1495D02*
X7Y1495D01*
X1905Y1495D02*
X1912Y1495D01*
X0Y1494D02*
X7Y1494D01*
X1905Y1494D02*
X1912Y1494D01*
X0Y1493D02*
X7Y1493D01*
X1905Y1493D02*
X1912Y1493D01*
X0Y1492D02*
X7Y1492D01*
X1905Y1492D02*
X1912Y1492D01*
X0Y1491D02*
X7Y1491D01*
X1905Y1491D02*
X1912Y1491D01*
X0Y1490D02*
X7Y1490D01*
X1905Y1490D02*
X1912Y1490D01*
X0Y1489D02*
X7Y1489D01*
X1905Y1489D02*
X1912Y1489D01*
X0Y1488D02*
X7Y1488D01*
X1905Y1488D02*
X1912Y1488D01*
X0Y1487D02*
X7Y1487D01*
X1905Y1487D02*
X1912Y1487D01*
X0Y1486D02*
X7Y1486D01*
X1905Y1486D02*
X1912Y1486D01*
X0Y1485D02*
X7Y1485D01*
X1905Y1485D02*
X1912Y1485D01*
X0Y1484D02*
X7Y1484D01*
X1905Y1484D02*
X1912Y1484D01*
X0Y1483D02*
X7Y1483D01*
X1905Y1483D02*
X1912Y1483D01*
X0Y1482D02*
X7Y1482D01*
X1905Y1482D02*
X1912Y1482D01*
X0Y1481D02*
X7Y1481D01*
X1905Y1481D02*
X1912Y1481D01*
X0Y1480D02*
X7Y1480D01*
X1905Y1480D02*
X1912Y1480D01*
X0Y1479D02*
X7Y1479D01*
X1905Y1479D02*
X1912Y1479D01*
X0Y1478D02*
X7Y1478D01*
X1905Y1478D02*
X1912Y1478D01*
X0Y1477D02*
X7Y1477D01*
X1905Y1477D02*
X1912Y1477D01*
X0Y1476D02*
X7Y1476D01*
X1905Y1476D02*
X1912Y1476D01*
X0Y1475D02*
X7Y1475D01*
X1905Y1475D02*
X1912Y1475D01*
X0Y1474D02*
X7Y1474D01*
X1905Y1474D02*
X1912Y1474D01*
X0Y1473D02*
X7Y1473D01*
X1905Y1473D02*
X1912Y1473D01*
X0Y1472D02*
X7Y1472D01*
X1905Y1472D02*
X1912Y1472D01*
X0Y1471D02*
X7Y1471D01*
X1905Y1471D02*
X1912Y1471D01*
X0Y1470D02*
X7Y1470D01*
X1905Y1470D02*
X1912Y1470D01*
X0Y1469D02*
X7Y1469D01*
X1905Y1469D02*
X1912Y1469D01*
X0Y1468D02*
X7Y1468D01*
X1905Y1468D02*
X1912Y1468D01*
X0Y1467D02*
X7Y1467D01*
X1905Y1467D02*
X1912Y1467D01*
X0Y1466D02*
X7Y1466D01*
X1905Y1466D02*
X1912Y1466D01*
X0Y1465D02*
X7Y1465D01*
X1905Y1465D02*
X1912Y1465D01*
X0Y1464D02*
X7Y1464D01*
X1905Y1464D02*
X1912Y1464D01*
X0Y1463D02*
X7Y1463D01*
X1905Y1463D02*
X1912Y1463D01*
X0Y1462D02*
X7Y1462D01*
X1905Y1462D02*
X1912Y1462D01*
X0Y1461D02*
X7Y1461D01*
X1905Y1461D02*
X1912Y1461D01*
X0Y1460D02*
X7Y1460D01*
X1905Y1460D02*
X1912Y1460D01*
X0Y1459D02*
X7Y1459D01*
X1905Y1459D02*
X1912Y1459D01*
X0Y1458D02*
X7Y1458D01*
X1905Y1458D02*
X1912Y1458D01*
X0Y1457D02*
X7Y1457D01*
X1905Y1457D02*
X1912Y1457D01*
X0Y1456D02*
X7Y1456D01*
X1905Y1456D02*
X1912Y1456D01*
X0Y1455D02*
X7Y1455D01*
X1905Y1455D02*
X1912Y1455D01*
X0Y1454D02*
X7Y1454D01*
X1905Y1454D02*
X1912Y1454D01*
X0Y1453D02*
X7Y1453D01*
X1905Y1453D02*
X1912Y1453D01*
X0Y1452D02*
X7Y1452D01*
X1905Y1452D02*
X1912Y1452D01*
X0Y1451D02*
X7Y1451D01*
X1905Y1451D02*
X1912Y1451D01*
X0Y1450D02*
X7Y1450D01*
X1905Y1450D02*
X1912Y1450D01*
X0Y1449D02*
X7Y1449D01*
X1905Y1449D02*
X1912Y1449D01*
X0Y1448D02*
X7Y1448D01*
X1905Y1448D02*
X1912Y1448D01*
X0Y1447D02*
X7Y1447D01*
X1905Y1447D02*
X1912Y1447D01*
X0Y1446D02*
X7Y1446D01*
X1905Y1446D02*
X1912Y1446D01*
X0Y1445D02*
X7Y1445D01*
X1905Y1445D02*
X1912Y1445D01*
X0Y1444D02*
X7Y1444D01*
X1905Y1444D02*
X1912Y1444D01*
X0Y1443D02*
X7Y1443D01*
X1905Y1443D02*
X1912Y1443D01*
X0Y1442D02*
X7Y1442D01*
X1905Y1442D02*
X1912Y1442D01*
X0Y1441D02*
X7Y1441D01*
X1905Y1441D02*
X1912Y1441D01*
X0Y1440D02*
X7Y1440D01*
X1905Y1440D02*
X1912Y1440D01*
X0Y1439D02*
X7Y1439D01*
X1905Y1439D02*
X1912Y1439D01*
X0Y1438D02*
X7Y1438D01*
X1905Y1438D02*
X1912Y1438D01*
X0Y1437D02*
X7Y1437D01*
X1905Y1437D02*
X1912Y1437D01*
X0Y1436D02*
X7Y1436D01*
X1905Y1436D02*
X1912Y1436D01*
X0Y1435D02*
X7Y1435D01*
X1905Y1435D02*
X1912Y1435D01*
X0Y1434D02*
X7Y1434D01*
X1905Y1434D02*
X1912Y1434D01*
X0Y1433D02*
X7Y1433D01*
X1905Y1433D02*
X1912Y1433D01*
X0Y1432D02*
X7Y1432D01*
X1905Y1432D02*
X1912Y1432D01*
X0Y1431D02*
X7Y1431D01*
X1905Y1431D02*
X1912Y1431D01*
X0Y1430D02*
X7Y1430D01*
X1905Y1430D02*
X1912Y1430D01*
X0Y1429D02*
X7Y1429D01*
X1905Y1429D02*
X1912Y1429D01*
X0Y1428D02*
X7Y1428D01*
X1905Y1428D02*
X1912Y1428D01*
X0Y1427D02*
X7Y1427D01*
X1905Y1427D02*
X1912Y1427D01*
X0Y1426D02*
X7Y1426D01*
X1905Y1426D02*
X1912Y1426D01*
X0Y1425D02*
X7Y1425D01*
X1905Y1425D02*
X1912Y1425D01*
X0Y1424D02*
X7Y1424D01*
X1905Y1424D02*
X1912Y1424D01*
X0Y1423D02*
X7Y1423D01*
X1905Y1423D02*
X1912Y1423D01*
X0Y1422D02*
X7Y1422D01*
X1905Y1422D02*
X1912Y1422D01*
X0Y1421D02*
X7Y1421D01*
X1905Y1421D02*
X1912Y1421D01*
X0Y1420D02*
X7Y1420D01*
X1905Y1420D02*
X1912Y1420D01*
X0Y1419D02*
X7Y1419D01*
X1905Y1419D02*
X1912Y1419D01*
X0Y1418D02*
X7Y1418D01*
X1905Y1418D02*
X1912Y1418D01*
X0Y1417D02*
X7Y1417D01*
X1905Y1417D02*
X1912Y1417D01*
X0Y1416D02*
X7Y1416D01*
X1905Y1416D02*
X1912Y1416D01*
X0Y1415D02*
X7Y1415D01*
X1905Y1415D02*
X1912Y1415D01*
X0Y1414D02*
X7Y1414D01*
X1905Y1414D02*
X1912Y1414D01*
X0Y1413D02*
X7Y1413D01*
X1905Y1413D02*
X1912Y1413D01*
X0Y1412D02*
X7Y1412D01*
X1905Y1412D02*
X1912Y1412D01*
X0Y1411D02*
X7Y1411D01*
X1905Y1411D02*
X1912Y1411D01*
X0Y1410D02*
X7Y1410D01*
X1905Y1410D02*
X1912Y1410D01*
X0Y1409D02*
X7Y1409D01*
X1905Y1409D02*
X1912Y1409D01*
X0Y1408D02*
X7Y1408D01*
X1905Y1408D02*
X1912Y1408D01*
X0Y1407D02*
X7Y1407D01*
X1905Y1407D02*
X1912Y1407D01*
X0Y1406D02*
X7Y1406D01*
X1905Y1406D02*
X1912Y1406D01*
X0Y1405D02*
X7Y1405D01*
X1905Y1405D02*
X1912Y1405D01*
X0Y1404D02*
X7Y1404D01*
X1905Y1404D02*
X1912Y1404D01*
X0Y1403D02*
X7Y1403D01*
X1905Y1403D02*
X1912Y1403D01*
X0Y1402D02*
X7Y1402D01*
X1905Y1402D02*
X1912Y1402D01*
X0Y1401D02*
X7Y1401D01*
X1905Y1401D02*
X1912Y1401D01*
X0Y1400D02*
X7Y1400D01*
X1905Y1400D02*
X1912Y1400D01*
X0Y1399D02*
X7Y1399D01*
X1905Y1399D02*
X1912Y1399D01*
X0Y1398D02*
X7Y1398D01*
X1905Y1398D02*
X1912Y1398D01*
X0Y1397D02*
X7Y1397D01*
X1905Y1397D02*
X1912Y1397D01*
X0Y1396D02*
X7Y1396D01*
X1905Y1396D02*
X1912Y1396D01*
X0Y1395D02*
X7Y1395D01*
X1905Y1395D02*
X1912Y1395D01*
X0Y1394D02*
X7Y1394D01*
X1905Y1394D02*
X1912Y1394D01*
X0Y1393D02*
X7Y1393D01*
X1905Y1393D02*
X1912Y1393D01*
X0Y1392D02*
X7Y1392D01*
X1905Y1392D02*
X1912Y1392D01*
X0Y1391D02*
X7Y1391D01*
X1905Y1391D02*
X1912Y1391D01*
X0Y1390D02*
X7Y1390D01*
X1905Y1390D02*
X1912Y1390D01*
X0Y1389D02*
X7Y1389D01*
X1905Y1389D02*
X1912Y1389D01*
X0Y1388D02*
X7Y1388D01*
X1905Y1388D02*
X1912Y1388D01*
X0Y1387D02*
X7Y1387D01*
X1905Y1387D02*
X1912Y1387D01*
X0Y1386D02*
X7Y1386D01*
X1905Y1386D02*
X1912Y1386D01*
X0Y1385D02*
X7Y1385D01*
X1905Y1385D02*
X1912Y1385D01*
X0Y1384D02*
X7Y1384D01*
X1905Y1384D02*
X1912Y1384D01*
X0Y1383D02*
X7Y1383D01*
X1905Y1383D02*
X1912Y1383D01*
X0Y1382D02*
X7Y1382D01*
X1905Y1382D02*
X1912Y1382D01*
X0Y1381D02*
X7Y1381D01*
X1905Y1381D02*
X1912Y1381D01*
X0Y1380D02*
X7Y1380D01*
X1905Y1380D02*
X1912Y1380D01*
X0Y1379D02*
X7Y1379D01*
X1905Y1379D02*
X1912Y1379D01*
X0Y1378D02*
X7Y1378D01*
X1905Y1378D02*
X1912Y1378D01*
X0Y1377D02*
X7Y1377D01*
X1905Y1377D02*
X1912Y1377D01*
X0Y1376D02*
X7Y1376D01*
X1905Y1376D02*
X1912Y1376D01*
X0Y1375D02*
X7Y1375D01*
X1905Y1375D02*
X1912Y1375D01*
X0Y1374D02*
X7Y1374D01*
X1905Y1374D02*
X1912Y1374D01*
X0Y1373D02*
X7Y1373D01*
X1905Y1373D02*
X1912Y1373D01*
X0Y1372D02*
X7Y1372D01*
X1905Y1372D02*
X1912Y1372D01*
X0Y1371D02*
X7Y1371D01*
X1905Y1371D02*
X1912Y1371D01*
X0Y1370D02*
X7Y1370D01*
X1905Y1370D02*
X1912Y1370D01*
X0Y1369D02*
X7Y1369D01*
X1905Y1369D02*
X1912Y1369D01*
X0Y1368D02*
X7Y1368D01*
X1905Y1368D02*
X1912Y1368D01*
X0Y1367D02*
X7Y1367D01*
X1905Y1367D02*
X1912Y1367D01*
X0Y1366D02*
X7Y1366D01*
X1905Y1366D02*
X1912Y1366D01*
X0Y1365D02*
X7Y1365D01*
X1905Y1365D02*
X1912Y1365D01*
X0Y1364D02*
X7Y1364D01*
X1905Y1364D02*
X1912Y1364D01*
X0Y1363D02*
X7Y1363D01*
X1905Y1363D02*
X1912Y1363D01*
X0Y1362D02*
X7Y1362D01*
X1905Y1362D02*
X1912Y1362D01*
X0Y1361D02*
X7Y1361D01*
X1905Y1361D02*
X1912Y1361D01*
X0Y1360D02*
X7Y1360D01*
X1905Y1360D02*
X1912Y1360D01*
X0Y1359D02*
X7Y1359D01*
X1905Y1359D02*
X1912Y1359D01*
X0Y1358D02*
X7Y1358D01*
X1905Y1358D02*
X1912Y1358D01*
X0Y1357D02*
X7Y1357D01*
X1905Y1357D02*
X1912Y1357D01*
X0Y1356D02*
X7Y1356D01*
X1905Y1356D02*
X1912Y1356D01*
X0Y1355D02*
X7Y1355D01*
X1905Y1355D02*
X1912Y1355D01*
X0Y1354D02*
X7Y1354D01*
X1905Y1354D02*
X1912Y1354D01*
X0Y1353D02*
X7Y1353D01*
X1905Y1353D02*
X1912Y1353D01*
X0Y1352D02*
X7Y1352D01*
X1905Y1352D02*
X1912Y1352D01*
X0Y1351D02*
X7Y1351D01*
X1905Y1351D02*
X1912Y1351D01*
X0Y1350D02*
X7Y1350D01*
X1905Y1350D02*
X1912Y1350D01*
X0Y1349D02*
X7Y1349D01*
X1905Y1349D02*
X1912Y1349D01*
X0Y1348D02*
X7Y1348D01*
X1905Y1348D02*
X1912Y1348D01*
X0Y1347D02*
X7Y1347D01*
X1905Y1347D02*
X1912Y1347D01*
X0Y1346D02*
X7Y1346D01*
X1905Y1346D02*
X1912Y1346D01*
X0Y1345D02*
X7Y1345D01*
X1905Y1345D02*
X1912Y1345D01*
X0Y1344D02*
X7Y1344D01*
X1905Y1344D02*
X1912Y1344D01*
X0Y1343D02*
X7Y1343D01*
X1905Y1343D02*
X1912Y1343D01*
X0Y1342D02*
X7Y1342D01*
X1905Y1342D02*
X1912Y1342D01*
X0Y1341D02*
X7Y1341D01*
X1905Y1341D02*
X1912Y1341D01*
X0Y1340D02*
X7Y1340D01*
X1905Y1340D02*
X1912Y1340D01*
X0Y1339D02*
X7Y1339D01*
X1905Y1339D02*
X1912Y1339D01*
X0Y1338D02*
X7Y1338D01*
X1905Y1338D02*
X1912Y1338D01*
X0Y1337D02*
X7Y1337D01*
X1905Y1337D02*
X1912Y1337D01*
X0Y1336D02*
X7Y1336D01*
X1905Y1336D02*
X1912Y1336D01*
X0Y1335D02*
X7Y1335D01*
X1905Y1335D02*
X1912Y1335D01*
X0Y1334D02*
X7Y1334D01*
X1905Y1334D02*
X1912Y1334D01*
X0Y1333D02*
X7Y1333D01*
X1905Y1333D02*
X1912Y1333D01*
X0Y1332D02*
X7Y1332D01*
X1905Y1332D02*
X1912Y1332D01*
X0Y1331D02*
X7Y1331D01*
X1905Y1331D02*
X1912Y1331D01*
X0Y1330D02*
X7Y1330D01*
X1905Y1330D02*
X1912Y1330D01*
X0Y1329D02*
X7Y1329D01*
X1905Y1329D02*
X1912Y1329D01*
X0Y1328D02*
X7Y1328D01*
X1905Y1328D02*
X1912Y1328D01*
X0Y1327D02*
X7Y1327D01*
X1905Y1327D02*
X1912Y1327D01*
X0Y1326D02*
X7Y1326D01*
X1905Y1326D02*
X1912Y1326D01*
X0Y1325D02*
X7Y1325D01*
X1905Y1325D02*
X1912Y1325D01*
X0Y1324D02*
X7Y1324D01*
X1905Y1324D02*
X1912Y1324D01*
X0Y1323D02*
X7Y1323D01*
X1905Y1323D02*
X1912Y1323D01*
X0Y1322D02*
X7Y1322D01*
X1905Y1322D02*
X1912Y1322D01*
X0Y1321D02*
X7Y1321D01*
X1905Y1321D02*
X1912Y1321D01*
X0Y1320D02*
X7Y1320D01*
X1905Y1320D02*
X1912Y1320D01*
X0Y1319D02*
X7Y1319D01*
X1905Y1319D02*
X1912Y1319D01*
X0Y1318D02*
X7Y1318D01*
X1905Y1318D02*
X1912Y1318D01*
X0Y1317D02*
X7Y1317D01*
X1905Y1317D02*
X1912Y1317D01*
X0Y1316D02*
X7Y1316D01*
X1905Y1316D02*
X1912Y1316D01*
X0Y1315D02*
X7Y1315D01*
X1905Y1315D02*
X1912Y1315D01*
X0Y1314D02*
X7Y1314D01*
X1905Y1314D02*
X1912Y1314D01*
X0Y1313D02*
X7Y1313D01*
X1905Y1313D02*
X1912Y1313D01*
X0Y1312D02*
X7Y1312D01*
X1905Y1312D02*
X1912Y1312D01*
X0Y1311D02*
X7Y1311D01*
X1905Y1311D02*
X1912Y1311D01*
X0Y1310D02*
X7Y1310D01*
X1905Y1310D02*
X1912Y1310D01*
X0Y1309D02*
X7Y1309D01*
X1905Y1309D02*
X1912Y1309D01*
X0Y1308D02*
X7Y1308D01*
X1905Y1308D02*
X1912Y1308D01*
X0Y1307D02*
X7Y1307D01*
X1905Y1307D02*
X1912Y1307D01*
X0Y1306D02*
X7Y1306D01*
X1905Y1306D02*
X1912Y1306D01*
X0Y1305D02*
X7Y1305D01*
X1905Y1305D02*
X1912Y1305D01*
X0Y1304D02*
X7Y1304D01*
X1905Y1304D02*
X1912Y1304D01*
X0Y1303D02*
X7Y1303D01*
X1905Y1303D02*
X1912Y1303D01*
X0Y1302D02*
X7Y1302D01*
X1905Y1302D02*
X1912Y1302D01*
X0Y1301D02*
X7Y1301D01*
X1905Y1301D02*
X1912Y1301D01*
X0Y1300D02*
X7Y1300D01*
X1905Y1300D02*
X1912Y1300D01*
X0Y1299D02*
X7Y1299D01*
X1905Y1299D02*
X1912Y1299D01*
X0Y1298D02*
X7Y1298D01*
X1905Y1298D02*
X1912Y1298D01*
X0Y1297D02*
X7Y1297D01*
X1905Y1297D02*
X1912Y1297D01*
X0Y1296D02*
X7Y1296D01*
X1905Y1296D02*
X1912Y1296D01*
X0Y1295D02*
X7Y1295D01*
X1905Y1295D02*
X1912Y1295D01*
X0Y1294D02*
X7Y1294D01*
X1905Y1294D02*
X1912Y1294D01*
X0Y1293D02*
X7Y1293D01*
X1905Y1293D02*
X1912Y1293D01*
X0Y1292D02*
X7Y1292D01*
X1905Y1292D02*
X1912Y1292D01*
X0Y1291D02*
X7Y1291D01*
X1905Y1291D02*
X1912Y1291D01*
X0Y1290D02*
X7Y1290D01*
X1905Y1290D02*
X1912Y1290D01*
X0Y1289D02*
X7Y1289D01*
X1905Y1289D02*
X1912Y1289D01*
X0Y1288D02*
X7Y1288D01*
X1905Y1288D02*
X1912Y1288D01*
X0Y1287D02*
X7Y1287D01*
X1905Y1287D02*
X1912Y1287D01*
X0Y1286D02*
X7Y1286D01*
X1905Y1286D02*
X1912Y1286D01*
X0Y1285D02*
X7Y1285D01*
X1905Y1285D02*
X1912Y1285D01*
X0Y1284D02*
X7Y1284D01*
X1905Y1284D02*
X1912Y1284D01*
X0Y1283D02*
X7Y1283D01*
X1905Y1283D02*
X1912Y1283D01*
X0Y1282D02*
X7Y1282D01*
X1905Y1282D02*
X1912Y1282D01*
X0Y1281D02*
X7Y1281D01*
X1905Y1281D02*
X1912Y1281D01*
X0Y1280D02*
X7Y1280D01*
X1905Y1280D02*
X1912Y1280D01*
X0Y1279D02*
X7Y1279D01*
X1905Y1279D02*
X1912Y1279D01*
X0Y1278D02*
X7Y1278D01*
X1905Y1278D02*
X1912Y1278D01*
X0Y1277D02*
X7Y1277D01*
X1905Y1277D02*
X1912Y1277D01*
X0Y1276D02*
X7Y1276D01*
X1905Y1276D02*
X1912Y1276D01*
X0Y1275D02*
X7Y1275D01*
X1905Y1275D02*
X1912Y1275D01*
X0Y1274D02*
X7Y1274D01*
X1905Y1274D02*
X1912Y1274D01*
X0Y1273D02*
X7Y1273D01*
X1905Y1273D02*
X1912Y1273D01*
X0Y1272D02*
X7Y1272D01*
X1905Y1272D02*
X1912Y1272D01*
X0Y1271D02*
X7Y1271D01*
X1905Y1271D02*
X1912Y1271D01*
X0Y1270D02*
X7Y1270D01*
X1905Y1270D02*
X1912Y1270D01*
X0Y1269D02*
X7Y1269D01*
X1905Y1269D02*
X1912Y1269D01*
X0Y1268D02*
X7Y1268D01*
X1905Y1268D02*
X1912Y1268D01*
X0Y1267D02*
X7Y1267D01*
X1905Y1267D02*
X1912Y1267D01*
X0Y1266D02*
X7Y1266D01*
X1905Y1266D02*
X1912Y1266D01*
X0Y1265D02*
X7Y1265D01*
X1905Y1265D02*
X1912Y1265D01*
X0Y1264D02*
X7Y1264D01*
X1905Y1264D02*
X1912Y1264D01*
X0Y1263D02*
X7Y1263D01*
X1905Y1263D02*
X1912Y1263D01*
X0Y1262D02*
X7Y1262D01*
X1905Y1262D02*
X1912Y1262D01*
X0Y1261D02*
X7Y1261D01*
X1905Y1261D02*
X1912Y1261D01*
X0Y1260D02*
X7Y1260D01*
X1905Y1260D02*
X1912Y1260D01*
X0Y1259D02*
X7Y1259D01*
X1905Y1259D02*
X1912Y1259D01*
X0Y1258D02*
X7Y1258D01*
X1905Y1258D02*
X1912Y1258D01*
X0Y1257D02*
X7Y1257D01*
X1905Y1257D02*
X1912Y1257D01*
X0Y1256D02*
X7Y1256D01*
X1905Y1256D02*
X1912Y1256D01*
X0Y1255D02*
X7Y1255D01*
X1905Y1255D02*
X1912Y1255D01*
X0Y1254D02*
X7Y1254D01*
X1905Y1254D02*
X1912Y1254D01*
X0Y1253D02*
X7Y1253D01*
X1905Y1253D02*
X1912Y1253D01*
X0Y1252D02*
X7Y1252D01*
X1905Y1252D02*
X1912Y1252D01*
X0Y1251D02*
X7Y1251D01*
X1905Y1251D02*
X1912Y1251D01*
X0Y1250D02*
X7Y1250D01*
X1905Y1250D02*
X1912Y1250D01*
X0Y1249D02*
X7Y1249D01*
X1905Y1249D02*
X1912Y1249D01*
X0Y1248D02*
X7Y1248D01*
X1905Y1248D02*
X1912Y1248D01*
X0Y1247D02*
X7Y1247D01*
X1905Y1247D02*
X1912Y1247D01*
X0Y1246D02*
X7Y1246D01*
X1905Y1246D02*
X1912Y1246D01*
X0Y1245D02*
X7Y1245D01*
X1905Y1245D02*
X1912Y1245D01*
X0Y1244D02*
X7Y1244D01*
X1905Y1244D02*
X1912Y1244D01*
X0Y1243D02*
X7Y1243D01*
X1905Y1243D02*
X1912Y1243D01*
X0Y1242D02*
X7Y1242D01*
X1905Y1242D02*
X1912Y1242D01*
X0Y1241D02*
X7Y1241D01*
X1905Y1241D02*
X1912Y1241D01*
X0Y1240D02*
X7Y1240D01*
X1905Y1240D02*
X1912Y1240D01*
X0Y1239D02*
X7Y1239D01*
X1905Y1239D02*
X1912Y1239D01*
X0Y1238D02*
X7Y1238D01*
X1905Y1238D02*
X1912Y1238D01*
X0Y1237D02*
X7Y1237D01*
X1905Y1237D02*
X1912Y1237D01*
X0Y1236D02*
X7Y1236D01*
X1905Y1236D02*
X1912Y1236D01*
X0Y1235D02*
X7Y1235D01*
X1905Y1235D02*
X1912Y1235D01*
X0Y1234D02*
X7Y1234D01*
X1905Y1234D02*
X1912Y1234D01*
X0Y1233D02*
X7Y1233D01*
X1905Y1233D02*
X1912Y1233D01*
X0Y1232D02*
X7Y1232D01*
X1905Y1232D02*
X1912Y1232D01*
X0Y1231D02*
X7Y1231D01*
X1905Y1231D02*
X1912Y1231D01*
X0Y1230D02*
X7Y1230D01*
X1905Y1230D02*
X1912Y1230D01*
X0Y1229D02*
X7Y1229D01*
X1905Y1229D02*
X1912Y1229D01*
X0Y1228D02*
X7Y1228D01*
X1905Y1228D02*
X1912Y1228D01*
X0Y1227D02*
X7Y1227D01*
X1905Y1227D02*
X1912Y1227D01*
X0Y1226D02*
X7Y1226D01*
X1905Y1226D02*
X1912Y1226D01*
X0Y1225D02*
X7Y1225D01*
X1905Y1225D02*
X1912Y1225D01*
X0Y1224D02*
X7Y1224D01*
X1905Y1224D02*
X1912Y1224D01*
X0Y1223D02*
X7Y1223D01*
X1905Y1223D02*
X1912Y1223D01*
X0Y1222D02*
X7Y1222D01*
X1905Y1222D02*
X1912Y1222D01*
X0Y1221D02*
X7Y1221D01*
X1905Y1221D02*
X1912Y1221D01*
X0Y1220D02*
X7Y1220D01*
X1905Y1220D02*
X1912Y1220D01*
X0Y1219D02*
X7Y1219D01*
X1905Y1219D02*
X1912Y1219D01*
X0Y1218D02*
X7Y1218D01*
X1905Y1218D02*
X1912Y1218D01*
X0Y1217D02*
X7Y1217D01*
X1905Y1217D02*
X1912Y1217D01*
X0Y1216D02*
X7Y1216D01*
X1905Y1216D02*
X1912Y1216D01*
X0Y1215D02*
X7Y1215D01*
X1905Y1215D02*
X1912Y1215D01*
X0Y1214D02*
X7Y1214D01*
X1905Y1214D02*
X1912Y1214D01*
X0Y1213D02*
X7Y1213D01*
X1905Y1213D02*
X1912Y1213D01*
X0Y1212D02*
X7Y1212D01*
X1905Y1212D02*
X1912Y1212D01*
X0Y1211D02*
X7Y1211D01*
X1905Y1211D02*
X1912Y1211D01*
X0Y1210D02*
X7Y1210D01*
X1905Y1210D02*
X1912Y1210D01*
X0Y1209D02*
X7Y1209D01*
X1905Y1209D02*
X1912Y1209D01*
X0Y1208D02*
X7Y1208D01*
X1905Y1208D02*
X1912Y1208D01*
X0Y1207D02*
X7Y1207D01*
X1905Y1207D02*
X1912Y1207D01*
X0Y1206D02*
X7Y1206D01*
X1905Y1206D02*
X1912Y1206D01*
X0Y1205D02*
X7Y1205D01*
X1905Y1205D02*
X1912Y1205D01*
X0Y1204D02*
X7Y1204D01*
X1905Y1204D02*
X1912Y1204D01*
X0Y1203D02*
X7Y1203D01*
X1905Y1203D02*
X1912Y1203D01*
X0Y1202D02*
X7Y1202D01*
X1905Y1202D02*
X1912Y1202D01*
X0Y1201D02*
X7Y1201D01*
X1905Y1201D02*
X1912Y1201D01*
X0Y1200D02*
X7Y1200D01*
X1905Y1200D02*
X1912Y1200D01*
X0Y1199D02*
X7Y1199D01*
X1905Y1199D02*
X1912Y1199D01*
X0Y1198D02*
X7Y1198D01*
X1905Y1198D02*
X1912Y1198D01*
X0Y1197D02*
X7Y1197D01*
X1905Y1197D02*
X1912Y1197D01*
X0Y1196D02*
X7Y1196D01*
X1905Y1196D02*
X1912Y1196D01*
X0Y1195D02*
X7Y1195D01*
X1905Y1195D02*
X1912Y1195D01*
X0Y1194D02*
X7Y1194D01*
X1905Y1194D02*
X1912Y1194D01*
X0Y1193D02*
X7Y1193D01*
X1905Y1193D02*
X1912Y1193D01*
X0Y1192D02*
X7Y1192D01*
X1905Y1192D02*
X1912Y1192D01*
X0Y1191D02*
X7Y1191D01*
X1905Y1191D02*
X1912Y1191D01*
X0Y1190D02*
X7Y1190D01*
X1905Y1190D02*
X1912Y1190D01*
X0Y1189D02*
X7Y1189D01*
X1905Y1189D02*
X1912Y1189D01*
X0Y1188D02*
X7Y1188D01*
X1905Y1188D02*
X1912Y1188D01*
X0Y1187D02*
X7Y1187D01*
X1905Y1187D02*
X1912Y1187D01*
X0Y1186D02*
X7Y1186D01*
X1905Y1186D02*
X1912Y1186D01*
X0Y1185D02*
X7Y1185D01*
X1905Y1185D02*
X1912Y1185D01*
X0Y1184D02*
X7Y1184D01*
X1905Y1184D02*
X1912Y1184D01*
X0Y1183D02*
X7Y1183D01*
X1905Y1183D02*
X1912Y1183D01*
X0Y1182D02*
X7Y1182D01*
X1905Y1182D02*
X1912Y1182D01*
X0Y1181D02*
X7Y1181D01*
X1905Y1181D02*
X1912Y1181D01*
X0Y1180D02*
X7Y1180D01*
X1905Y1180D02*
X1912Y1180D01*
X0Y1179D02*
X7Y1179D01*
X1905Y1179D02*
X1912Y1179D01*
X0Y1178D02*
X7Y1178D01*
X1905Y1178D02*
X1912Y1178D01*
X0Y1177D02*
X7Y1177D01*
X1905Y1177D02*
X1912Y1177D01*
X0Y1176D02*
X7Y1176D01*
X1905Y1176D02*
X1912Y1176D01*
X0Y1175D02*
X7Y1175D01*
X1905Y1175D02*
X1912Y1175D01*
X0Y1174D02*
X7Y1174D01*
X1905Y1174D02*
X1912Y1174D01*
X0Y1173D02*
X7Y1173D01*
X1905Y1173D02*
X1912Y1173D01*
X0Y1172D02*
X7Y1172D01*
X1905Y1172D02*
X1912Y1172D01*
X0Y1171D02*
X7Y1171D01*
X1905Y1171D02*
X1912Y1171D01*
X0Y1170D02*
X7Y1170D01*
X1905Y1170D02*
X1912Y1170D01*
X0Y1169D02*
X7Y1169D01*
X1905Y1169D02*
X1912Y1169D01*
X0Y1168D02*
X7Y1168D01*
X1905Y1168D02*
X1912Y1168D01*
X0Y1167D02*
X7Y1167D01*
X1905Y1167D02*
X1912Y1167D01*
X0Y1166D02*
X7Y1166D01*
X1905Y1166D02*
X1912Y1166D01*
X0Y1165D02*
X7Y1165D01*
X1905Y1165D02*
X1912Y1165D01*
X0Y1164D02*
X7Y1164D01*
X1905Y1164D02*
X1912Y1164D01*
X0Y1163D02*
X7Y1163D01*
X1905Y1163D02*
X1912Y1163D01*
X0Y1162D02*
X7Y1162D01*
X1905Y1162D02*
X1912Y1162D01*
X0Y1161D02*
X7Y1161D01*
X1905Y1161D02*
X1912Y1161D01*
X0Y1160D02*
X7Y1160D01*
X1905Y1160D02*
X1912Y1160D01*
X0Y1159D02*
X7Y1159D01*
X1905Y1159D02*
X1912Y1159D01*
X0Y1158D02*
X7Y1158D01*
X1905Y1158D02*
X1912Y1158D01*
X0Y1157D02*
X7Y1157D01*
X1905Y1157D02*
X1912Y1157D01*
X0Y1156D02*
X7Y1156D01*
X1905Y1156D02*
X1912Y1156D01*
X0Y1155D02*
X7Y1155D01*
X1905Y1155D02*
X1912Y1155D01*
X0Y1154D02*
X7Y1154D01*
X1905Y1154D02*
X1912Y1154D01*
X0Y1153D02*
X7Y1153D01*
X1905Y1153D02*
X1912Y1153D01*
X0Y1152D02*
X7Y1152D01*
X1905Y1152D02*
X1912Y1152D01*
X0Y1151D02*
X7Y1151D01*
X1905Y1151D02*
X1912Y1151D01*
X0Y1150D02*
X7Y1150D01*
X1905Y1150D02*
X1912Y1150D01*
X0Y1149D02*
X7Y1149D01*
X1905Y1149D02*
X1912Y1149D01*
X0Y1148D02*
X7Y1148D01*
X1905Y1148D02*
X1912Y1148D01*
X0Y1147D02*
X7Y1147D01*
X1905Y1147D02*
X1912Y1147D01*
X0Y1146D02*
X7Y1146D01*
X1905Y1146D02*
X1912Y1146D01*
X0Y1145D02*
X7Y1145D01*
X1905Y1145D02*
X1912Y1145D01*
X0Y1144D02*
X7Y1144D01*
X1905Y1144D02*
X1912Y1144D01*
X0Y1143D02*
X7Y1143D01*
X1905Y1143D02*
X1912Y1143D01*
X0Y1142D02*
X7Y1142D01*
X1905Y1142D02*
X1912Y1142D01*
X0Y1141D02*
X7Y1141D01*
X1905Y1141D02*
X1912Y1141D01*
X0Y1140D02*
X7Y1140D01*
X1905Y1140D02*
X1912Y1140D01*
X0Y1139D02*
X7Y1139D01*
X1905Y1139D02*
X1912Y1139D01*
X0Y1138D02*
X7Y1138D01*
X1905Y1138D02*
X1912Y1138D01*
X0Y1137D02*
X7Y1137D01*
X1905Y1137D02*
X1912Y1137D01*
X0Y1136D02*
X7Y1136D01*
X1905Y1136D02*
X1912Y1136D01*
X0Y1135D02*
X7Y1135D01*
X1905Y1135D02*
X1912Y1135D01*
X0Y1134D02*
X7Y1134D01*
X1905Y1134D02*
X1912Y1134D01*
X0Y1133D02*
X7Y1133D01*
X1905Y1133D02*
X1912Y1133D01*
X0Y1132D02*
X7Y1132D01*
X1905Y1132D02*
X1912Y1132D01*
X0Y1131D02*
X7Y1131D01*
X1905Y1131D02*
X1912Y1131D01*
X0Y1130D02*
X7Y1130D01*
X1905Y1130D02*
X1912Y1130D01*
X0Y1129D02*
X7Y1129D01*
X1905Y1129D02*
X1912Y1129D01*
X0Y1128D02*
X7Y1128D01*
X1905Y1128D02*
X1912Y1128D01*
X0Y1127D02*
X7Y1127D01*
X1905Y1127D02*
X1912Y1127D01*
X0Y1126D02*
X7Y1126D01*
X1905Y1126D02*
X1912Y1126D01*
X0Y1125D02*
X7Y1125D01*
X1905Y1125D02*
X1912Y1125D01*
X0Y1124D02*
X7Y1124D01*
X1905Y1124D02*
X1912Y1124D01*
X0Y1123D02*
X7Y1123D01*
X1905Y1123D02*
X1912Y1123D01*
X0Y1122D02*
X7Y1122D01*
X1905Y1122D02*
X1912Y1122D01*
X0Y1121D02*
X7Y1121D01*
X1905Y1121D02*
X1912Y1121D01*
X0Y1120D02*
X7Y1120D01*
X1905Y1120D02*
X1912Y1120D01*
X0Y1119D02*
X7Y1119D01*
X1905Y1119D02*
X1912Y1119D01*
X0Y1118D02*
X7Y1118D01*
X1905Y1118D02*
X1912Y1118D01*
X0Y1117D02*
X7Y1117D01*
X1905Y1117D02*
X1912Y1117D01*
X0Y1116D02*
X7Y1116D01*
X1905Y1116D02*
X1912Y1116D01*
X0Y1115D02*
X7Y1115D01*
X1905Y1115D02*
X1912Y1115D01*
X0Y1114D02*
X7Y1114D01*
X1905Y1114D02*
X1912Y1114D01*
X0Y1113D02*
X7Y1113D01*
X1905Y1113D02*
X1912Y1113D01*
X0Y1112D02*
X7Y1112D01*
X1905Y1112D02*
X1912Y1112D01*
X0Y1111D02*
X7Y1111D01*
X1905Y1111D02*
X1912Y1111D01*
X0Y1110D02*
X7Y1110D01*
X1905Y1110D02*
X1912Y1110D01*
X0Y1109D02*
X7Y1109D01*
X1905Y1109D02*
X1912Y1109D01*
X0Y1108D02*
X7Y1108D01*
X1905Y1108D02*
X1912Y1108D01*
X0Y1107D02*
X7Y1107D01*
X1905Y1107D02*
X1912Y1107D01*
X0Y1106D02*
X7Y1106D01*
X1905Y1106D02*
X1912Y1106D01*
X0Y1105D02*
X7Y1105D01*
X1905Y1105D02*
X1912Y1105D01*
X0Y1104D02*
X7Y1104D01*
X1905Y1104D02*
X1912Y1104D01*
X0Y1103D02*
X7Y1103D01*
X1905Y1103D02*
X1912Y1103D01*
X0Y1102D02*
X7Y1102D01*
X1905Y1102D02*
X1912Y1102D01*
X0Y1101D02*
X7Y1101D01*
X1905Y1101D02*
X1912Y1101D01*
X0Y1100D02*
X7Y1100D01*
X1905Y1100D02*
X1912Y1100D01*
X0Y1099D02*
X7Y1099D01*
X1905Y1099D02*
X1912Y1099D01*
X0Y1098D02*
X7Y1098D01*
X1905Y1098D02*
X1912Y1098D01*
X0Y1097D02*
X7Y1097D01*
X1905Y1097D02*
X1912Y1097D01*
X0Y1096D02*
X7Y1096D01*
X1905Y1096D02*
X1912Y1096D01*
X0Y1095D02*
X7Y1095D01*
X1905Y1095D02*
X1912Y1095D01*
X0Y1094D02*
X7Y1094D01*
X1905Y1094D02*
X1912Y1094D01*
X0Y1093D02*
X7Y1093D01*
X1905Y1093D02*
X1912Y1093D01*
X0Y1092D02*
X7Y1092D01*
X1905Y1092D02*
X1912Y1092D01*
X0Y1091D02*
X7Y1091D01*
X1905Y1091D02*
X1912Y1091D01*
X0Y1090D02*
X7Y1090D01*
X1905Y1090D02*
X1912Y1090D01*
X0Y1089D02*
X7Y1089D01*
X1905Y1089D02*
X1912Y1089D01*
X0Y1088D02*
X7Y1088D01*
X1905Y1088D02*
X1912Y1088D01*
X0Y1087D02*
X7Y1087D01*
X1905Y1087D02*
X1912Y1087D01*
X0Y1086D02*
X7Y1086D01*
X1905Y1086D02*
X1912Y1086D01*
X0Y1085D02*
X7Y1085D01*
X1905Y1085D02*
X1912Y1085D01*
X0Y1084D02*
X7Y1084D01*
X1905Y1084D02*
X1912Y1084D01*
X0Y1083D02*
X7Y1083D01*
X1905Y1083D02*
X1912Y1083D01*
X0Y1082D02*
X7Y1082D01*
X1905Y1082D02*
X1912Y1082D01*
X0Y1081D02*
X7Y1081D01*
X1905Y1081D02*
X1912Y1081D01*
X0Y1080D02*
X7Y1080D01*
X1905Y1080D02*
X1912Y1080D01*
X0Y1079D02*
X7Y1079D01*
X1905Y1079D02*
X1912Y1079D01*
X0Y1078D02*
X7Y1078D01*
X1905Y1078D02*
X1912Y1078D01*
X0Y1077D02*
X7Y1077D01*
X1905Y1077D02*
X1912Y1077D01*
X0Y1076D02*
X7Y1076D01*
X1905Y1076D02*
X1912Y1076D01*
X0Y1075D02*
X7Y1075D01*
X1905Y1075D02*
X1912Y1075D01*
X0Y1074D02*
X7Y1074D01*
X542Y1074D02*
X551Y1074D01*
X1301Y1074D02*
X1310Y1074D01*
X1905Y1074D02*
X1912Y1074D01*
X0Y1073D02*
X7Y1073D01*
X542Y1073D02*
X551Y1073D01*
X1301Y1073D02*
X1310Y1073D01*
X1905Y1073D02*
X1912Y1073D01*
X0Y1072D02*
X7Y1072D01*
X542Y1072D02*
X551Y1072D01*
X1301Y1072D02*
X1310Y1072D01*
X1905Y1072D02*
X1912Y1072D01*
X0Y1071D02*
X7Y1071D01*
X542Y1071D02*
X551Y1071D01*
X1301Y1071D02*
X1310Y1071D01*
X1905Y1071D02*
X1912Y1071D01*
X0Y1070D02*
X7Y1070D01*
X542Y1070D02*
X551Y1070D01*
X1301Y1070D02*
X1310Y1070D01*
X1905Y1070D02*
X1912Y1070D01*
X0Y1069D02*
X7Y1069D01*
X542Y1069D02*
X551Y1069D01*
X1301Y1069D02*
X1310Y1069D01*
X1905Y1069D02*
X1912Y1069D01*
X0Y1068D02*
X7Y1068D01*
X542Y1068D02*
X551Y1068D01*
X1301Y1068D02*
X1310Y1068D01*
X1905Y1068D02*
X1912Y1068D01*
X0Y1067D02*
X7Y1067D01*
X542Y1067D02*
X551Y1067D01*
X1301Y1067D02*
X1310Y1067D01*
X1905Y1067D02*
X1912Y1067D01*
X0Y1066D02*
X7Y1066D01*
X542Y1066D02*
X551Y1066D01*
X1301Y1066D02*
X1310Y1066D01*
X1905Y1066D02*
X1912Y1066D01*
X0Y1065D02*
X7Y1065D01*
X542Y1065D02*
X551Y1065D01*
X1301Y1065D02*
X1310Y1065D01*
X1905Y1065D02*
X1912Y1065D01*
X0Y1064D02*
X7Y1064D01*
X542Y1064D02*
X551Y1064D01*
X1301Y1064D02*
X1310Y1064D01*
X1905Y1064D02*
X1912Y1064D01*
X0Y1063D02*
X7Y1063D01*
X542Y1063D02*
X551Y1063D01*
X1301Y1063D02*
X1310Y1063D01*
X1905Y1063D02*
X1912Y1063D01*
X0Y1062D02*
X7Y1062D01*
X542Y1062D02*
X551Y1062D01*
X1301Y1062D02*
X1310Y1062D01*
X1905Y1062D02*
X1912Y1062D01*
X0Y1061D02*
X7Y1061D01*
X542Y1061D02*
X551Y1061D01*
X1301Y1061D02*
X1310Y1061D01*
X1905Y1061D02*
X1912Y1061D01*
X0Y1060D02*
X7Y1060D01*
X542Y1060D02*
X551Y1060D01*
X1301Y1060D02*
X1310Y1060D01*
X1905Y1060D02*
X1912Y1060D01*
X0Y1059D02*
X7Y1059D01*
X542Y1059D02*
X551Y1059D01*
X1301Y1059D02*
X1310Y1059D01*
X1905Y1059D02*
X1912Y1059D01*
X0Y1058D02*
X7Y1058D01*
X542Y1058D02*
X551Y1058D01*
X1301Y1058D02*
X1310Y1058D01*
X1905Y1058D02*
X1912Y1058D01*
X0Y1057D02*
X7Y1057D01*
X542Y1057D02*
X551Y1057D01*
X1301Y1057D02*
X1310Y1057D01*
X1905Y1057D02*
X1912Y1057D01*
X0Y1056D02*
X7Y1056D01*
X542Y1056D02*
X551Y1056D01*
X1301Y1056D02*
X1310Y1056D01*
X1905Y1056D02*
X1912Y1056D01*
X0Y1055D02*
X7Y1055D01*
X542Y1055D02*
X551Y1055D01*
X1301Y1055D02*
X1310Y1055D01*
X1905Y1055D02*
X1912Y1055D01*
X0Y1054D02*
X7Y1054D01*
X542Y1054D02*
X551Y1054D01*
X1301Y1054D02*
X1310Y1054D01*
X1905Y1054D02*
X1912Y1054D01*
X0Y1053D02*
X7Y1053D01*
X542Y1053D02*
X551Y1053D01*
X1301Y1053D02*
X1310Y1053D01*
X1905Y1053D02*
X1912Y1053D01*
X0Y1052D02*
X7Y1052D01*
X542Y1052D02*
X551Y1052D01*
X1301Y1052D02*
X1310Y1052D01*
X1905Y1052D02*
X1912Y1052D01*
X0Y1051D02*
X7Y1051D01*
X542Y1051D02*
X551Y1051D01*
X1301Y1051D02*
X1310Y1051D01*
X1905Y1051D02*
X1912Y1051D01*
X0Y1050D02*
X7Y1050D01*
X542Y1050D02*
X551Y1050D01*
X1301Y1050D02*
X1310Y1050D01*
X1905Y1050D02*
X1912Y1050D01*
X0Y1049D02*
X7Y1049D01*
X542Y1049D02*
X551Y1049D01*
X1301Y1049D02*
X1310Y1049D01*
X1905Y1049D02*
X1912Y1049D01*
X0Y1048D02*
X7Y1048D01*
X542Y1048D02*
X551Y1048D01*
X1301Y1048D02*
X1310Y1048D01*
X1905Y1048D02*
X1912Y1048D01*
X0Y1047D02*
X7Y1047D01*
X542Y1047D02*
X551Y1047D01*
X1301Y1047D02*
X1310Y1047D01*
X1905Y1047D02*
X1912Y1047D01*
X0Y1046D02*
X7Y1046D01*
X542Y1046D02*
X551Y1046D01*
X1301Y1046D02*
X1310Y1046D01*
X1905Y1046D02*
X1912Y1046D01*
X0Y1045D02*
X7Y1045D01*
X542Y1045D02*
X551Y1045D01*
X1301Y1045D02*
X1310Y1045D01*
X1905Y1045D02*
X1912Y1045D01*
X0Y1044D02*
X7Y1044D01*
X542Y1044D02*
X551Y1044D01*
X1301Y1044D02*
X1310Y1044D01*
X1905Y1044D02*
X1912Y1044D01*
X0Y1043D02*
X7Y1043D01*
X542Y1043D02*
X551Y1043D01*
X1301Y1043D02*
X1310Y1043D01*
X1905Y1043D02*
X1912Y1043D01*
X0Y1042D02*
X7Y1042D01*
X542Y1042D02*
X551Y1042D01*
X1301Y1042D02*
X1310Y1042D01*
X1905Y1042D02*
X1912Y1042D01*
X0Y1041D02*
X7Y1041D01*
X542Y1041D02*
X551Y1041D01*
X1301Y1041D02*
X1310Y1041D01*
X1905Y1041D02*
X1912Y1041D01*
X0Y1040D02*
X7Y1040D01*
X542Y1040D02*
X551Y1040D01*
X1301Y1040D02*
X1310Y1040D01*
X1905Y1040D02*
X1912Y1040D01*
X0Y1039D02*
X7Y1039D01*
X542Y1039D02*
X551Y1039D01*
X1301Y1039D02*
X1310Y1039D01*
X1905Y1039D02*
X1912Y1039D01*
X0Y1038D02*
X7Y1038D01*
X542Y1038D02*
X551Y1038D01*
X1301Y1038D02*
X1310Y1038D01*
X1905Y1038D02*
X1912Y1038D01*
X0Y1037D02*
X7Y1037D01*
X542Y1037D02*
X551Y1037D01*
X1301Y1037D02*
X1310Y1037D01*
X1905Y1037D02*
X1912Y1037D01*
X0Y1036D02*
X7Y1036D01*
X542Y1036D02*
X551Y1036D01*
X1301Y1036D02*
X1310Y1036D01*
X1905Y1036D02*
X1912Y1036D01*
X0Y1035D02*
X7Y1035D01*
X542Y1035D02*
X551Y1035D01*
X1301Y1035D02*
X1310Y1035D01*
X1905Y1035D02*
X1912Y1035D01*
X0Y1034D02*
X7Y1034D01*
X542Y1034D02*
X551Y1034D01*
X1301Y1034D02*
X1310Y1034D01*
X1905Y1034D02*
X1912Y1034D01*
X0Y1033D02*
X7Y1033D01*
X542Y1033D02*
X551Y1033D01*
X1301Y1033D02*
X1310Y1033D01*
X1905Y1033D02*
X1912Y1033D01*
X0Y1032D02*
X7Y1032D01*
X542Y1032D02*
X551Y1032D01*
X1301Y1032D02*
X1310Y1032D01*
X1905Y1032D02*
X1912Y1032D01*
X0Y1031D02*
X7Y1031D01*
X542Y1031D02*
X551Y1031D01*
X1301Y1031D02*
X1310Y1031D01*
X1905Y1031D02*
X1912Y1031D01*
X0Y1030D02*
X7Y1030D01*
X542Y1030D02*
X551Y1030D01*
X1301Y1030D02*
X1310Y1030D01*
X1905Y1030D02*
X1912Y1030D01*
X0Y1029D02*
X7Y1029D01*
X542Y1029D02*
X551Y1029D01*
X1301Y1029D02*
X1310Y1029D01*
X1905Y1029D02*
X1912Y1029D01*
X0Y1028D02*
X7Y1028D01*
X542Y1028D02*
X551Y1028D01*
X1301Y1028D02*
X1310Y1028D01*
X1905Y1028D02*
X1912Y1028D01*
X0Y1027D02*
X7Y1027D01*
X542Y1027D02*
X551Y1027D01*
X1301Y1027D02*
X1310Y1027D01*
X1905Y1027D02*
X1912Y1027D01*
X0Y1026D02*
X7Y1026D01*
X542Y1026D02*
X551Y1026D01*
X1301Y1026D02*
X1310Y1026D01*
X1905Y1026D02*
X1912Y1026D01*
X0Y1025D02*
X7Y1025D01*
X542Y1025D02*
X551Y1025D01*
X1301Y1025D02*
X1310Y1025D01*
X1905Y1025D02*
X1912Y1025D01*
X0Y1024D02*
X7Y1024D01*
X542Y1024D02*
X551Y1024D01*
X1301Y1024D02*
X1310Y1024D01*
X1905Y1024D02*
X1912Y1024D01*
X0Y1023D02*
X7Y1023D01*
X542Y1023D02*
X551Y1023D01*
X1301Y1023D02*
X1310Y1023D01*
X1905Y1023D02*
X1912Y1023D01*
X0Y1022D02*
X7Y1022D01*
X542Y1022D02*
X551Y1022D01*
X1301Y1022D02*
X1310Y1022D01*
X1905Y1022D02*
X1912Y1022D01*
X0Y1021D02*
X7Y1021D01*
X542Y1021D02*
X551Y1021D01*
X1301Y1021D02*
X1310Y1021D01*
X1905Y1021D02*
X1912Y1021D01*
X0Y1020D02*
X7Y1020D01*
X542Y1020D02*
X551Y1020D01*
X1301Y1020D02*
X1310Y1020D01*
X1905Y1020D02*
X1912Y1020D01*
X0Y1019D02*
X7Y1019D01*
X542Y1019D02*
X551Y1019D01*
X1301Y1019D02*
X1310Y1019D01*
X1905Y1019D02*
X1912Y1019D01*
X0Y1018D02*
X7Y1018D01*
X542Y1018D02*
X551Y1018D01*
X1301Y1018D02*
X1310Y1018D01*
X1905Y1018D02*
X1912Y1018D01*
X0Y1017D02*
X7Y1017D01*
X542Y1017D02*
X551Y1017D01*
X1301Y1017D02*
X1310Y1017D01*
X1905Y1017D02*
X1912Y1017D01*
X0Y1016D02*
X7Y1016D01*
X542Y1016D02*
X551Y1016D01*
X1301Y1016D02*
X1310Y1016D01*
X1905Y1016D02*
X1912Y1016D01*
X0Y1015D02*
X7Y1015D01*
X542Y1015D02*
X551Y1015D01*
X1301Y1015D02*
X1310Y1015D01*
X1905Y1015D02*
X1912Y1015D01*
X0Y1014D02*
X7Y1014D01*
X542Y1014D02*
X551Y1014D01*
X1301Y1014D02*
X1310Y1014D01*
X1905Y1014D02*
X1912Y1014D01*
X0Y1013D02*
X7Y1013D01*
X542Y1013D02*
X551Y1013D01*
X1301Y1013D02*
X1310Y1013D01*
X1905Y1013D02*
X1912Y1013D01*
X0Y1012D02*
X7Y1012D01*
X542Y1012D02*
X551Y1012D01*
X1301Y1012D02*
X1310Y1012D01*
X1905Y1012D02*
X1912Y1012D01*
X0Y1011D02*
X7Y1011D01*
X542Y1011D02*
X551Y1011D01*
X1301Y1011D02*
X1310Y1011D01*
X1905Y1011D02*
X1912Y1011D01*
X0Y1010D02*
X7Y1010D01*
X542Y1010D02*
X551Y1010D01*
X1301Y1010D02*
X1310Y1010D01*
X1905Y1010D02*
X1912Y1010D01*
X0Y1009D02*
X7Y1009D01*
X542Y1009D02*
X551Y1009D01*
X1301Y1009D02*
X1310Y1009D01*
X1905Y1009D02*
X1912Y1009D01*
X0Y1008D02*
X7Y1008D01*
X542Y1008D02*
X551Y1008D01*
X1301Y1008D02*
X1310Y1008D01*
X1905Y1008D02*
X1912Y1008D01*
X0Y1007D02*
X7Y1007D01*
X542Y1007D02*
X551Y1007D01*
X1301Y1007D02*
X1310Y1007D01*
X1905Y1007D02*
X1912Y1007D01*
X0Y1006D02*
X7Y1006D01*
X542Y1006D02*
X551Y1006D01*
X1301Y1006D02*
X1310Y1006D01*
X1905Y1006D02*
X1912Y1006D01*
X0Y1005D02*
X7Y1005D01*
X542Y1005D02*
X551Y1005D01*
X1301Y1005D02*
X1310Y1005D01*
X1905Y1005D02*
X1912Y1005D01*
X0Y1004D02*
X7Y1004D01*
X542Y1004D02*
X551Y1004D01*
X1301Y1004D02*
X1310Y1004D01*
X1905Y1004D02*
X1912Y1004D01*
X0Y1003D02*
X7Y1003D01*
X542Y1003D02*
X551Y1003D01*
X1301Y1003D02*
X1310Y1003D01*
X1905Y1003D02*
X1912Y1003D01*
X0Y1002D02*
X7Y1002D01*
X542Y1002D02*
X551Y1002D01*
X1301Y1002D02*
X1310Y1002D01*
X1905Y1002D02*
X1912Y1002D01*
X0Y1001D02*
X7Y1001D01*
X542Y1001D02*
X551Y1001D01*
X1301Y1001D02*
X1310Y1001D01*
X1905Y1001D02*
X1912Y1001D01*
X0Y1000D02*
X7Y1000D01*
X542Y1000D02*
X551Y1000D01*
X1301Y1000D02*
X1310Y1000D01*
X1905Y1000D02*
X1912Y1000D01*
X0Y999D02*
X7Y999D01*
X542Y999D02*
X551Y999D01*
X1301Y999D02*
X1310Y999D01*
X1905Y999D02*
X1912Y999D01*
X0Y998D02*
X7Y998D01*
X542Y998D02*
X551Y998D01*
X1301Y998D02*
X1310Y998D01*
X1905Y998D02*
X1912Y998D01*
X0Y997D02*
X7Y997D01*
X542Y997D02*
X551Y997D01*
X1301Y997D02*
X1310Y997D01*
X1905Y997D02*
X1912Y997D01*
X0Y996D02*
X7Y996D01*
X542Y996D02*
X551Y996D01*
X1301Y996D02*
X1310Y996D01*
X1905Y996D02*
X1912Y996D01*
X0Y995D02*
X7Y995D01*
X542Y995D02*
X551Y995D01*
X1301Y995D02*
X1310Y995D01*
X1905Y995D02*
X1912Y995D01*
X0Y994D02*
X7Y994D01*
X542Y994D02*
X551Y994D01*
X1301Y994D02*
X1310Y994D01*
X1905Y994D02*
X1912Y994D01*
X0Y993D02*
X7Y993D01*
X542Y993D02*
X551Y993D01*
X1301Y993D02*
X1310Y993D01*
X1905Y993D02*
X1912Y993D01*
X0Y992D02*
X7Y992D01*
X542Y992D02*
X551Y992D01*
X1301Y992D02*
X1310Y992D01*
X1905Y992D02*
X1912Y992D01*
X0Y991D02*
X7Y991D01*
X542Y991D02*
X551Y991D01*
X1301Y991D02*
X1310Y991D01*
X1905Y991D02*
X1912Y991D01*
X0Y990D02*
X7Y990D01*
X542Y990D02*
X551Y990D01*
X1301Y990D02*
X1310Y990D01*
X1905Y990D02*
X1912Y990D01*
X0Y989D02*
X7Y989D01*
X542Y989D02*
X551Y989D01*
X1301Y989D02*
X1310Y989D01*
X1905Y989D02*
X1912Y989D01*
X0Y988D02*
X7Y988D01*
X542Y988D02*
X551Y988D01*
X1301Y988D02*
X1310Y988D01*
X1905Y988D02*
X1912Y988D01*
X0Y987D02*
X7Y987D01*
X542Y987D02*
X551Y987D01*
X1301Y987D02*
X1310Y987D01*
X1905Y987D02*
X1912Y987D01*
X0Y986D02*
X7Y986D01*
X542Y986D02*
X551Y986D01*
X1301Y986D02*
X1310Y986D01*
X1905Y986D02*
X1912Y986D01*
X0Y985D02*
X7Y985D01*
X542Y985D02*
X551Y985D01*
X1301Y985D02*
X1310Y985D01*
X1905Y985D02*
X1912Y985D01*
X0Y984D02*
X7Y984D01*
X542Y984D02*
X551Y984D01*
X1301Y984D02*
X1310Y984D01*
X1905Y984D02*
X1912Y984D01*
X0Y983D02*
X7Y983D01*
X542Y983D02*
X551Y983D01*
X1301Y983D02*
X1310Y983D01*
X1905Y983D02*
X1912Y983D01*
X0Y982D02*
X7Y982D01*
X542Y982D02*
X551Y982D01*
X1301Y982D02*
X1310Y982D01*
X1905Y982D02*
X1912Y982D01*
X0Y981D02*
X7Y981D01*
X542Y981D02*
X551Y981D01*
X1301Y981D02*
X1310Y981D01*
X1905Y981D02*
X1912Y981D01*
X0Y980D02*
X7Y980D01*
X542Y980D02*
X551Y980D01*
X1301Y980D02*
X1310Y980D01*
X1905Y980D02*
X1912Y980D01*
X0Y979D02*
X7Y979D01*
X542Y979D02*
X551Y979D01*
X1301Y979D02*
X1310Y979D01*
X1905Y979D02*
X1912Y979D01*
X0Y978D02*
X7Y978D01*
X542Y978D02*
X551Y978D01*
X1301Y978D02*
X1310Y978D01*
X1905Y978D02*
X1912Y978D01*
X0Y977D02*
X7Y977D01*
X542Y977D02*
X551Y977D01*
X1301Y977D02*
X1310Y977D01*
X1905Y977D02*
X1912Y977D01*
X0Y976D02*
X7Y976D01*
X542Y976D02*
X551Y976D01*
X1301Y976D02*
X1310Y976D01*
X1905Y976D02*
X1912Y976D01*
X0Y975D02*
X7Y975D01*
X542Y975D02*
X551Y975D01*
X1301Y975D02*
X1310Y975D01*
X1905Y975D02*
X1912Y975D01*
X0Y974D02*
X7Y974D01*
X542Y974D02*
X551Y974D01*
X1301Y974D02*
X1310Y974D01*
X1905Y974D02*
X1912Y974D01*
X0Y973D02*
X7Y973D01*
X542Y973D02*
X551Y973D01*
X1301Y973D02*
X1310Y973D01*
X1905Y973D02*
X1912Y973D01*
X0Y972D02*
X7Y972D01*
X542Y972D02*
X551Y972D01*
X1301Y972D02*
X1310Y972D01*
X1905Y972D02*
X1912Y972D01*
X0Y971D02*
X7Y971D01*
X542Y971D02*
X551Y971D01*
X1301Y971D02*
X1310Y971D01*
X1905Y971D02*
X1912Y971D01*
X0Y970D02*
X7Y970D01*
X542Y970D02*
X551Y970D01*
X1301Y970D02*
X1310Y970D01*
X1905Y970D02*
X1912Y970D01*
X0Y969D02*
X7Y969D01*
X542Y969D02*
X551Y969D01*
X1301Y969D02*
X1310Y969D01*
X1905Y969D02*
X1912Y969D01*
X0Y968D02*
X7Y968D01*
X542Y968D02*
X551Y968D01*
X1301Y968D02*
X1310Y968D01*
X1905Y968D02*
X1912Y968D01*
X0Y967D02*
X7Y967D01*
X542Y967D02*
X551Y967D01*
X1301Y967D02*
X1310Y967D01*
X1905Y967D02*
X1912Y967D01*
X0Y966D02*
X7Y966D01*
X542Y966D02*
X551Y966D01*
X1301Y966D02*
X1310Y966D01*
X1905Y966D02*
X1912Y966D01*
X0Y965D02*
X7Y965D01*
X542Y965D02*
X551Y965D01*
X1301Y965D02*
X1310Y965D01*
X1905Y965D02*
X1912Y965D01*
X0Y964D02*
X7Y964D01*
X542Y964D02*
X551Y964D01*
X1301Y964D02*
X1310Y964D01*
X1905Y964D02*
X1912Y964D01*
X0Y963D02*
X7Y963D01*
X542Y963D02*
X551Y963D01*
X1301Y963D02*
X1310Y963D01*
X1905Y963D02*
X1912Y963D01*
X0Y962D02*
X7Y962D01*
X542Y962D02*
X551Y962D01*
X1301Y962D02*
X1310Y962D01*
X1905Y962D02*
X1912Y962D01*
X0Y961D02*
X7Y961D01*
X542Y961D02*
X551Y961D01*
X1301Y961D02*
X1310Y961D01*
X1905Y961D02*
X1912Y961D01*
X0Y960D02*
X7Y960D01*
X542Y960D02*
X551Y960D01*
X1301Y960D02*
X1310Y960D01*
X1905Y960D02*
X1912Y960D01*
X0Y959D02*
X7Y959D01*
X542Y959D02*
X551Y959D01*
X1301Y959D02*
X1310Y959D01*
X1905Y959D02*
X1912Y959D01*
X0Y958D02*
X7Y958D01*
X542Y958D02*
X551Y958D01*
X1301Y958D02*
X1310Y958D01*
X1905Y958D02*
X1912Y958D01*
X0Y957D02*
X7Y957D01*
X542Y957D02*
X551Y957D01*
X1301Y957D02*
X1310Y957D01*
X1905Y957D02*
X1912Y957D01*
X0Y956D02*
X7Y956D01*
X542Y956D02*
X551Y956D01*
X1301Y956D02*
X1310Y956D01*
X1905Y956D02*
X1912Y956D01*
X0Y955D02*
X7Y955D01*
X542Y955D02*
X551Y955D01*
X1301Y955D02*
X1310Y955D01*
X1905Y955D02*
X1912Y955D01*
X0Y954D02*
X7Y954D01*
X542Y954D02*
X551Y954D01*
X1301Y954D02*
X1310Y954D01*
X1905Y954D02*
X1912Y954D01*
X0Y953D02*
X7Y953D01*
X542Y953D02*
X551Y953D01*
X1301Y953D02*
X1310Y953D01*
X1905Y953D02*
X1912Y953D01*
X0Y952D02*
X7Y952D01*
X542Y952D02*
X551Y952D01*
X1301Y952D02*
X1310Y952D01*
X1905Y952D02*
X1912Y952D01*
X0Y951D02*
X7Y951D01*
X542Y951D02*
X551Y951D01*
X1301Y951D02*
X1310Y951D01*
X1905Y951D02*
X1912Y951D01*
X0Y950D02*
X7Y950D01*
X542Y950D02*
X551Y950D01*
X1301Y950D02*
X1310Y950D01*
X1905Y950D02*
X1912Y950D01*
X0Y949D02*
X7Y949D01*
X542Y949D02*
X551Y949D01*
X1301Y949D02*
X1310Y949D01*
X1905Y949D02*
X1912Y949D01*
X0Y948D02*
X7Y948D01*
X542Y948D02*
X551Y948D01*
X1301Y948D02*
X1310Y948D01*
X1905Y948D02*
X1912Y948D01*
X0Y947D02*
X7Y947D01*
X542Y947D02*
X551Y947D01*
X1301Y947D02*
X1310Y947D01*
X1905Y947D02*
X1912Y947D01*
X0Y946D02*
X7Y946D01*
X542Y946D02*
X551Y946D01*
X1301Y946D02*
X1310Y946D01*
X1905Y946D02*
X1912Y946D01*
X0Y945D02*
X7Y945D01*
X542Y945D02*
X551Y945D01*
X1301Y945D02*
X1310Y945D01*
X1905Y945D02*
X1912Y945D01*
X0Y944D02*
X7Y944D01*
X542Y944D02*
X551Y944D01*
X1301Y944D02*
X1310Y944D01*
X1905Y944D02*
X1912Y944D01*
X0Y943D02*
X7Y943D01*
X542Y943D02*
X551Y943D01*
X1301Y943D02*
X1310Y943D01*
X1905Y943D02*
X1912Y943D01*
X0Y942D02*
X7Y942D01*
X542Y942D02*
X551Y942D01*
X1301Y942D02*
X1310Y942D01*
X1905Y942D02*
X1912Y942D01*
X0Y941D02*
X7Y941D01*
X542Y941D02*
X551Y941D01*
X1301Y941D02*
X1310Y941D01*
X1905Y941D02*
X1912Y941D01*
X0Y940D02*
X7Y940D01*
X542Y940D02*
X551Y940D01*
X1301Y940D02*
X1310Y940D01*
X1905Y940D02*
X1912Y940D01*
X0Y939D02*
X7Y939D01*
X542Y939D02*
X551Y939D01*
X1301Y939D02*
X1310Y939D01*
X1905Y939D02*
X1912Y939D01*
X0Y938D02*
X7Y938D01*
X542Y938D02*
X551Y938D01*
X1301Y938D02*
X1310Y938D01*
X1905Y938D02*
X1912Y938D01*
X0Y937D02*
X7Y937D01*
X542Y937D02*
X551Y937D01*
X1301Y937D02*
X1310Y937D01*
X1905Y937D02*
X1912Y937D01*
X0Y936D02*
X7Y936D01*
X542Y936D02*
X551Y936D01*
X1301Y936D02*
X1310Y936D01*
X1905Y936D02*
X1912Y936D01*
X0Y935D02*
X7Y935D01*
X542Y935D02*
X551Y935D01*
X1301Y935D02*
X1310Y935D01*
X1905Y935D02*
X1912Y935D01*
X0Y934D02*
X7Y934D01*
X542Y934D02*
X551Y934D01*
X1301Y934D02*
X1310Y934D01*
X1905Y934D02*
X1912Y934D01*
X0Y933D02*
X7Y933D01*
X542Y933D02*
X551Y933D01*
X1301Y933D02*
X1310Y933D01*
X1905Y933D02*
X1912Y933D01*
X0Y932D02*
X7Y932D01*
X542Y932D02*
X551Y932D01*
X1301Y932D02*
X1310Y932D01*
X1905Y932D02*
X1912Y932D01*
X0Y931D02*
X7Y931D01*
X542Y931D02*
X551Y931D01*
X1301Y931D02*
X1310Y931D01*
X1905Y931D02*
X1912Y931D01*
X0Y930D02*
X7Y930D01*
X542Y930D02*
X551Y930D01*
X1301Y930D02*
X1310Y930D01*
X1905Y930D02*
X1912Y930D01*
X0Y929D02*
X7Y929D01*
X542Y929D02*
X551Y929D01*
X1301Y929D02*
X1310Y929D01*
X1905Y929D02*
X1912Y929D01*
X0Y928D02*
X7Y928D01*
X542Y928D02*
X551Y928D01*
X1301Y928D02*
X1310Y928D01*
X1905Y928D02*
X1912Y928D01*
X0Y927D02*
X7Y927D01*
X542Y927D02*
X551Y927D01*
X1301Y927D02*
X1310Y927D01*
X1905Y927D02*
X1912Y927D01*
X0Y926D02*
X7Y926D01*
X542Y926D02*
X551Y926D01*
X1301Y926D02*
X1310Y926D01*
X1905Y926D02*
X1912Y926D01*
X0Y925D02*
X7Y925D01*
X542Y925D02*
X551Y925D01*
X1301Y925D02*
X1310Y925D01*
X1905Y925D02*
X1912Y925D01*
X0Y924D02*
X7Y924D01*
X542Y924D02*
X551Y924D01*
X1301Y924D02*
X1310Y924D01*
X1905Y924D02*
X1912Y924D01*
X0Y923D02*
X7Y923D01*
X542Y923D02*
X551Y923D01*
X1301Y923D02*
X1310Y923D01*
X1905Y923D02*
X1912Y923D01*
X0Y922D02*
X7Y922D01*
X542Y922D02*
X551Y922D01*
X1301Y922D02*
X1310Y922D01*
X1905Y922D02*
X1912Y922D01*
X0Y921D02*
X7Y921D01*
X542Y921D02*
X551Y921D01*
X1301Y921D02*
X1310Y921D01*
X1905Y921D02*
X1912Y921D01*
X0Y920D02*
X7Y920D01*
X542Y920D02*
X551Y920D01*
X1301Y920D02*
X1310Y920D01*
X1905Y920D02*
X1912Y920D01*
X0Y919D02*
X7Y919D01*
X542Y919D02*
X551Y919D01*
X1301Y919D02*
X1310Y919D01*
X1905Y919D02*
X1912Y919D01*
X0Y918D02*
X7Y918D01*
X542Y918D02*
X551Y918D01*
X1301Y918D02*
X1310Y918D01*
X1905Y918D02*
X1912Y918D01*
X0Y917D02*
X7Y917D01*
X542Y917D02*
X551Y917D01*
X1301Y917D02*
X1310Y917D01*
X1905Y917D02*
X1912Y917D01*
X0Y916D02*
X7Y916D01*
X542Y916D02*
X551Y916D01*
X1301Y916D02*
X1310Y916D01*
X1905Y916D02*
X1912Y916D01*
X0Y915D02*
X7Y915D01*
X542Y915D02*
X551Y915D01*
X1301Y915D02*
X1310Y915D01*
X1905Y915D02*
X1912Y915D01*
X0Y914D02*
X7Y914D01*
X542Y914D02*
X551Y914D01*
X1301Y914D02*
X1310Y914D01*
X1905Y914D02*
X1912Y914D01*
X0Y913D02*
X7Y913D01*
X542Y913D02*
X551Y913D01*
X1301Y913D02*
X1310Y913D01*
X1905Y913D02*
X1912Y913D01*
X0Y912D02*
X7Y912D01*
X542Y912D02*
X551Y912D01*
X1301Y912D02*
X1310Y912D01*
X1905Y912D02*
X1912Y912D01*
X0Y911D02*
X7Y911D01*
X542Y911D02*
X551Y911D01*
X1301Y911D02*
X1310Y911D01*
X1905Y911D02*
X1912Y911D01*
X0Y910D02*
X7Y910D01*
X542Y910D02*
X551Y910D01*
X1301Y910D02*
X1310Y910D01*
X1905Y910D02*
X1912Y910D01*
X0Y909D02*
X7Y909D01*
X542Y909D02*
X551Y909D01*
X1301Y909D02*
X1310Y909D01*
X1905Y909D02*
X1912Y909D01*
X0Y908D02*
X7Y908D01*
X542Y908D02*
X551Y908D01*
X1301Y908D02*
X1310Y908D01*
X1905Y908D02*
X1912Y908D01*
X0Y907D02*
X7Y907D01*
X542Y907D02*
X551Y907D01*
X1301Y907D02*
X1310Y907D01*
X1905Y907D02*
X1912Y907D01*
X0Y906D02*
X7Y906D01*
X542Y906D02*
X551Y906D01*
X1301Y906D02*
X1310Y906D01*
X1905Y906D02*
X1912Y906D01*
X0Y905D02*
X7Y905D01*
X543Y905D02*
X551Y905D01*
X1301Y905D02*
X1310Y905D01*
X1905Y905D02*
X1912Y905D01*
X0Y904D02*
X7Y904D01*
X544Y904D02*
X551Y904D01*
X1301Y904D02*
X1310Y904D01*
X1905Y904D02*
X1912Y904D01*
X0Y903D02*
X7Y903D01*
X545Y903D02*
X551Y903D01*
X1301Y903D02*
X1310Y903D01*
X1905Y903D02*
X1912Y903D01*
X0Y902D02*
X7Y902D01*
X547Y902D02*
X551Y902D01*
X1301Y902D02*
X1310Y902D01*
X1905Y902D02*
X1912Y902D01*
X0Y901D02*
X7Y901D01*
X547Y901D02*
X551Y901D01*
X1301Y901D02*
X1310Y901D01*
X1905Y901D02*
X1912Y901D01*
X0Y900D02*
X7Y900D01*
X548Y900D02*
X551Y900D01*
X1301Y900D02*
X1310Y900D01*
X1905Y900D02*
X1912Y900D01*
X0Y899D02*
X7Y899D01*
X549Y899D02*
X551Y899D01*
X1301Y899D02*
X1310Y899D01*
X1905Y899D02*
X1912Y899D01*
X0Y898D02*
X7Y898D01*
X550Y898D02*
X551Y898D01*
X1301Y898D02*
X1310Y898D01*
X1905Y898D02*
X1912Y898D01*
X0Y897D02*
X7Y897D01*
X551Y897D02*
X551Y897D01*
X1301Y897D02*
X1310Y897D01*
X1905Y897D02*
X1912Y897D01*
X0Y896D02*
X7Y896D01*
X1301Y896D02*
X1310Y896D01*
X1905Y896D02*
X1912Y896D01*
X0Y895D02*
X7Y895D01*
X1302Y895D02*
X1310Y895D01*
X1905Y895D02*
X1912Y895D01*
X0Y894D02*
X7Y894D01*
X1303Y894D02*
X1310Y894D01*
X1905Y894D02*
X1912Y894D01*
X0Y893D02*
X7Y893D01*
X1303Y893D02*
X1310Y893D01*
X1905Y893D02*
X1912Y893D01*
X0Y892D02*
X7Y892D01*
X1304Y892D02*
X1310Y892D01*
X1905Y892D02*
X1912Y892D01*
X0Y891D02*
X7Y891D01*
X1304Y891D02*
X1310Y891D01*
X1905Y891D02*
X1912Y891D01*
X0Y890D02*
X7Y890D01*
X1305Y890D02*
X1310Y890D01*
X1905Y890D02*
X1912Y890D01*
X0Y889D02*
X7Y889D01*
X1305Y889D02*
X1310Y889D01*
X1905Y889D02*
X1912Y889D01*
X0Y888D02*
X7Y888D01*
X1306Y888D02*
X1310Y888D01*
X1905Y888D02*
X1912Y888D01*
X0Y887D02*
X7Y887D01*
X1306Y887D02*
X1310Y887D01*
X1905Y887D02*
X1912Y887D01*
X0Y886D02*
X7Y886D01*
X1307Y886D02*
X1310Y886D01*
X1905Y886D02*
X1912Y886D01*
X0Y885D02*
X7Y885D01*
X1307Y885D02*
X1310Y885D01*
X1905Y885D02*
X1912Y885D01*
X0Y884D02*
X7Y884D01*
X1307Y884D02*
X1310Y884D01*
X1905Y884D02*
X1912Y884D01*
X0Y883D02*
X7Y883D01*
X1307Y883D02*
X1310Y883D01*
X1905Y883D02*
X1912Y883D01*
X0Y882D02*
X7Y882D01*
X1308Y882D02*
X1310Y882D01*
X1905Y882D02*
X1912Y882D01*
X0Y881D02*
X7Y881D01*
X1308Y881D02*
X1310Y881D01*
X1905Y881D02*
X1912Y881D01*
X0Y880D02*
X7Y880D01*
X1308Y880D02*
X1310Y880D01*
X1905Y880D02*
X1912Y880D01*
X0Y879D02*
X7Y879D01*
X1308Y879D02*
X1310Y879D01*
X1905Y879D02*
X1912Y879D01*
X0Y878D02*
X7Y878D01*
X1309Y878D02*
X1310Y878D01*
X1905Y878D02*
X1912Y878D01*
X0Y877D02*
X7Y877D01*
X1309Y877D02*
X1310Y877D01*
X1905Y877D02*
X1912Y877D01*
X0Y876D02*
X7Y876D01*
X1309Y876D02*
X1310Y876D01*
X1905Y876D02*
X1912Y876D01*
X0Y875D02*
X7Y875D01*
X1309Y875D02*
X1310Y875D01*
X1905Y875D02*
X1912Y875D01*
X0Y874D02*
X7Y874D01*
X1309Y874D02*
X1310Y874D01*
X1905Y874D02*
X1912Y874D01*
X0Y873D02*
X7Y873D01*
X1309Y873D02*
X1310Y873D01*
X1905Y873D02*
X1912Y873D01*
X0Y872D02*
X7Y872D01*
X1309Y872D02*
X1310Y872D01*
X1905Y872D02*
X1912Y872D01*
X0Y871D02*
X7Y871D01*
X1309Y871D02*
X1310Y871D01*
X1905Y871D02*
X1912Y871D01*
X0Y870D02*
X7Y870D01*
X1309Y870D02*
X1310Y870D01*
X1905Y870D02*
X1912Y870D01*
X0Y869D02*
X7Y869D01*
X1309Y869D02*
X1310Y869D01*
X1905Y869D02*
X1912Y869D01*
X0Y868D02*
X7Y868D01*
X1309Y868D02*
X1310Y868D01*
X1905Y868D02*
X1912Y868D01*
X0Y867D02*
X7Y867D01*
X1309Y867D02*
X1310Y867D01*
X1905Y867D02*
X1912Y867D01*
X0Y866D02*
X7Y866D01*
X1309Y866D02*
X1310Y866D01*
X1905Y866D02*
X1912Y866D01*
X0Y865D02*
X7Y865D01*
X1308Y865D02*
X1310Y865D01*
X1905Y865D02*
X1912Y865D01*
X0Y864D02*
X7Y864D01*
X1308Y864D02*
X1310Y864D01*
X1905Y864D02*
X1912Y864D01*
X0Y863D02*
X7Y863D01*
X1308Y863D02*
X1310Y863D01*
X1905Y863D02*
X1912Y863D01*
X0Y862D02*
X7Y862D01*
X1308Y862D02*
X1310Y862D01*
X1905Y862D02*
X1912Y862D01*
X0Y861D02*
X7Y861D01*
X1308Y861D02*
X1310Y861D01*
X1905Y861D02*
X1912Y861D01*
X0Y860D02*
X7Y860D01*
X1307Y860D02*
X1310Y860D01*
X1905Y860D02*
X1912Y860D01*
X0Y859D02*
X7Y859D01*
X1307Y859D02*
X1310Y859D01*
X1905Y859D02*
X1912Y859D01*
X0Y858D02*
X7Y858D01*
X1307Y858D02*
X1310Y858D01*
X1905Y858D02*
X1912Y858D01*
X0Y857D02*
X7Y857D01*
X1306Y857D02*
X1310Y857D01*
X1905Y857D02*
X1912Y857D01*
X0Y856D02*
X7Y856D01*
X1306Y856D02*
X1310Y856D01*
X1905Y856D02*
X1912Y856D01*
X0Y855D02*
X7Y855D01*
X1306Y855D02*
X1310Y855D01*
X1905Y855D02*
X1912Y855D01*
X0Y854D02*
X7Y854D01*
X1305Y854D02*
X1310Y854D01*
X1905Y854D02*
X1912Y854D01*
X0Y853D02*
X7Y853D01*
X1305Y853D02*
X1310Y853D01*
X1905Y853D02*
X1912Y853D01*
X0Y852D02*
X7Y852D01*
X1304Y852D02*
X1310Y852D01*
X1905Y852D02*
X1912Y852D01*
X0Y851D02*
X7Y851D01*
X1304Y851D02*
X1310Y851D01*
X1905Y851D02*
X1912Y851D01*
X0Y850D02*
X7Y850D01*
X1303Y850D02*
X1310Y850D01*
X1905Y850D02*
X1912Y850D01*
X0Y849D02*
X7Y849D01*
X1303Y849D02*
X1310Y849D01*
X1905Y849D02*
X1912Y849D01*
X0Y848D02*
X7Y848D01*
X1302Y848D02*
X1310Y848D01*
X1905Y848D02*
X1912Y848D01*
X0Y847D02*
X7Y847D01*
X551Y847D02*
X551Y847D01*
X1301Y847D02*
X1310Y847D01*
X1905Y847D02*
X1912Y847D01*
X0Y846D02*
X7Y846D01*
X551Y846D02*
X551Y846D01*
X1301Y846D02*
X1310Y846D01*
X1905Y846D02*
X1912Y846D01*
X0Y845D02*
X7Y845D01*
X550Y845D02*
X551Y845D01*
X1301Y845D02*
X1310Y845D01*
X1905Y845D02*
X1912Y845D01*
X0Y844D02*
X7Y844D01*
X549Y844D02*
X551Y844D01*
X1301Y844D02*
X1310Y844D01*
X1905Y844D02*
X1912Y844D01*
X0Y843D02*
X7Y843D01*
X548Y843D02*
X551Y843D01*
X1301Y843D02*
X1310Y843D01*
X1905Y843D02*
X1912Y843D01*
X0Y842D02*
X7Y842D01*
X547Y842D02*
X551Y842D01*
X1301Y842D02*
X1310Y842D01*
X1905Y842D02*
X1912Y842D01*
X0Y841D02*
X7Y841D01*
X546Y841D02*
X551Y841D01*
X1301Y841D02*
X1310Y841D01*
X1905Y841D02*
X1912Y841D01*
X0Y840D02*
X7Y840D01*
X545Y840D02*
X551Y840D01*
X1301Y840D02*
X1310Y840D01*
X1905Y840D02*
X1912Y840D01*
X0Y839D02*
X7Y839D01*
X544Y839D02*
X551Y839D01*
X1301Y839D02*
X1310Y839D01*
X1905Y839D02*
X1912Y839D01*
X0Y838D02*
X7Y838D01*
X543Y838D02*
X551Y838D01*
X1301Y838D02*
X1310Y838D01*
X1905Y838D02*
X1912Y838D01*
X0Y837D02*
X7Y837D01*
X542Y837D02*
X551Y837D01*
X1301Y837D02*
X1310Y837D01*
X1905Y837D02*
X1912Y837D01*
X0Y836D02*
X7Y836D01*
X542Y836D02*
X551Y836D01*
X1301Y836D02*
X1310Y836D01*
X1905Y836D02*
X1912Y836D01*
X0Y835D02*
X7Y835D01*
X542Y835D02*
X551Y835D01*
X1301Y835D02*
X1310Y835D01*
X1905Y835D02*
X1912Y835D01*
X0Y834D02*
X7Y834D01*
X542Y834D02*
X551Y834D01*
X1301Y834D02*
X1310Y834D01*
X1905Y834D02*
X1912Y834D01*
X0Y833D02*
X7Y833D01*
X542Y833D02*
X551Y833D01*
X1301Y833D02*
X1310Y833D01*
X1905Y833D02*
X1912Y833D01*
X0Y832D02*
X7Y832D01*
X542Y832D02*
X551Y832D01*
X1301Y832D02*
X1310Y832D01*
X1905Y832D02*
X1912Y832D01*
X0Y831D02*
X7Y831D01*
X542Y831D02*
X551Y831D01*
X1301Y831D02*
X1310Y831D01*
X1905Y831D02*
X1912Y831D01*
X0Y830D02*
X7Y830D01*
X542Y830D02*
X551Y830D01*
X1301Y830D02*
X1310Y830D01*
X1905Y830D02*
X1912Y830D01*
X0Y829D02*
X7Y829D01*
X542Y829D02*
X551Y829D01*
X1301Y829D02*
X1310Y829D01*
X1905Y829D02*
X1912Y829D01*
X0Y828D02*
X7Y828D01*
X542Y828D02*
X551Y828D01*
X1301Y828D02*
X1310Y828D01*
X1905Y828D02*
X1912Y828D01*
X0Y827D02*
X7Y827D01*
X542Y827D02*
X551Y827D01*
X1301Y827D02*
X1310Y827D01*
X1905Y827D02*
X1912Y827D01*
X0Y826D02*
X7Y826D01*
X542Y826D02*
X551Y826D01*
X1301Y826D02*
X1310Y826D01*
X1905Y826D02*
X1912Y826D01*
X0Y825D02*
X7Y825D01*
X542Y825D02*
X551Y825D01*
X1301Y825D02*
X1310Y825D01*
X1905Y825D02*
X1912Y825D01*
X0Y824D02*
X7Y824D01*
X542Y824D02*
X551Y824D01*
X1301Y824D02*
X1310Y824D01*
X1905Y824D02*
X1912Y824D01*
X0Y823D02*
X7Y823D01*
X542Y823D02*
X551Y823D01*
X1301Y823D02*
X1310Y823D01*
X1905Y823D02*
X1912Y823D01*
X0Y822D02*
X7Y822D01*
X542Y822D02*
X551Y822D01*
X1301Y822D02*
X1310Y822D01*
X1905Y822D02*
X1912Y822D01*
X0Y821D02*
X7Y821D01*
X542Y821D02*
X551Y821D01*
X1301Y821D02*
X1310Y821D01*
X1905Y821D02*
X1912Y821D01*
X0Y820D02*
X7Y820D01*
X542Y820D02*
X551Y820D01*
X1301Y820D02*
X1310Y820D01*
X1905Y820D02*
X1912Y820D01*
X0Y819D02*
X7Y819D01*
X542Y819D02*
X551Y819D01*
X1301Y819D02*
X1310Y819D01*
X1905Y819D02*
X1912Y819D01*
X0Y818D02*
X7Y818D01*
X542Y818D02*
X551Y818D01*
X1301Y818D02*
X1310Y818D01*
X1905Y818D02*
X1912Y818D01*
X0Y817D02*
X7Y817D01*
X542Y817D02*
X551Y817D01*
X1301Y817D02*
X1310Y817D01*
X1905Y817D02*
X1912Y817D01*
X0Y816D02*
X7Y816D01*
X542Y816D02*
X551Y816D01*
X1301Y816D02*
X1310Y816D01*
X1905Y816D02*
X1912Y816D01*
X0Y815D02*
X7Y815D01*
X542Y815D02*
X551Y815D01*
X1301Y815D02*
X1310Y815D01*
X1905Y815D02*
X1912Y815D01*
X0Y814D02*
X7Y814D01*
X542Y814D02*
X551Y814D01*
X1301Y814D02*
X1310Y814D01*
X1905Y814D02*
X1912Y814D01*
X0Y813D02*
X7Y813D01*
X542Y813D02*
X551Y813D01*
X1301Y813D02*
X1310Y813D01*
X1905Y813D02*
X1912Y813D01*
X0Y812D02*
X7Y812D01*
X542Y812D02*
X551Y812D01*
X1301Y812D02*
X1310Y812D01*
X1905Y812D02*
X1912Y812D01*
X0Y811D02*
X7Y811D01*
X542Y811D02*
X551Y811D01*
X1301Y811D02*
X1310Y811D01*
X1905Y811D02*
X1912Y811D01*
X0Y810D02*
X7Y810D01*
X542Y810D02*
X551Y810D01*
X1301Y810D02*
X1310Y810D01*
X1905Y810D02*
X1912Y810D01*
X0Y809D02*
X7Y809D01*
X542Y809D02*
X551Y809D01*
X1301Y809D02*
X1310Y809D01*
X1905Y809D02*
X1912Y809D01*
X0Y808D02*
X7Y808D01*
X542Y808D02*
X551Y808D01*
X1301Y808D02*
X1310Y808D01*
X1905Y808D02*
X1912Y808D01*
X0Y807D02*
X7Y807D01*
X542Y807D02*
X551Y807D01*
X1301Y807D02*
X1310Y807D01*
X1905Y807D02*
X1912Y807D01*
X0Y806D02*
X7Y806D01*
X542Y806D02*
X551Y806D01*
X1301Y806D02*
X1310Y806D01*
X1905Y806D02*
X1912Y806D01*
X0Y805D02*
X7Y805D01*
X542Y805D02*
X551Y805D01*
X1301Y805D02*
X1310Y805D01*
X1905Y805D02*
X1912Y805D01*
X0Y804D02*
X7Y804D01*
X542Y804D02*
X551Y804D01*
X1301Y804D02*
X1310Y804D01*
X1905Y804D02*
X1912Y804D01*
X0Y803D02*
X7Y803D01*
X542Y803D02*
X551Y803D01*
X1301Y803D02*
X1310Y803D01*
X1905Y803D02*
X1912Y803D01*
X0Y802D02*
X7Y802D01*
X542Y802D02*
X551Y802D01*
X1301Y802D02*
X1310Y802D01*
X1905Y802D02*
X1912Y802D01*
X0Y801D02*
X7Y801D01*
X542Y801D02*
X551Y801D01*
X1301Y801D02*
X1310Y801D01*
X1905Y801D02*
X1912Y801D01*
X0Y800D02*
X7Y800D01*
X542Y800D02*
X551Y800D01*
X1301Y800D02*
X1310Y800D01*
X1905Y800D02*
X1912Y800D01*
X0Y799D02*
X7Y799D01*
X542Y799D02*
X551Y799D01*
X1301Y799D02*
X1310Y799D01*
X1905Y799D02*
X1912Y799D01*
X0Y798D02*
X7Y798D01*
X542Y798D02*
X551Y798D01*
X1301Y798D02*
X1310Y798D01*
X1905Y798D02*
X1912Y798D01*
X0Y797D02*
X7Y797D01*
X542Y797D02*
X551Y797D01*
X1301Y797D02*
X1310Y797D01*
X1905Y797D02*
X1912Y797D01*
X0Y796D02*
X7Y796D01*
X542Y796D02*
X551Y796D01*
X1301Y796D02*
X1310Y796D01*
X1905Y796D02*
X1912Y796D01*
X0Y795D02*
X7Y795D01*
X542Y795D02*
X551Y795D01*
X1301Y795D02*
X1310Y795D01*
X1905Y795D02*
X1912Y795D01*
X0Y794D02*
X7Y794D01*
X542Y794D02*
X551Y794D01*
X1301Y794D02*
X1310Y794D01*
X1905Y794D02*
X1912Y794D01*
X0Y793D02*
X7Y793D01*
X542Y793D02*
X551Y793D01*
X1301Y793D02*
X1310Y793D01*
X1905Y793D02*
X1912Y793D01*
X0Y792D02*
X7Y792D01*
X542Y792D02*
X551Y792D01*
X1301Y792D02*
X1310Y792D01*
X1905Y792D02*
X1912Y792D01*
X0Y791D02*
X7Y791D01*
X542Y791D02*
X551Y791D01*
X1301Y791D02*
X1310Y791D01*
X1905Y791D02*
X1912Y791D01*
X0Y790D02*
X7Y790D01*
X542Y790D02*
X551Y790D01*
X1301Y790D02*
X1310Y790D01*
X1905Y790D02*
X1912Y790D01*
X0Y789D02*
X7Y789D01*
X542Y789D02*
X551Y789D01*
X1301Y789D02*
X1310Y789D01*
X1905Y789D02*
X1912Y789D01*
X0Y788D02*
X7Y788D01*
X542Y788D02*
X551Y788D01*
X1301Y788D02*
X1310Y788D01*
X1905Y788D02*
X1912Y788D01*
X0Y787D02*
X7Y787D01*
X542Y787D02*
X551Y787D01*
X1301Y787D02*
X1310Y787D01*
X1905Y787D02*
X1912Y787D01*
X0Y786D02*
X7Y786D01*
X542Y786D02*
X551Y786D01*
X1301Y786D02*
X1310Y786D01*
X1905Y786D02*
X1912Y786D01*
X0Y785D02*
X7Y785D01*
X542Y785D02*
X551Y785D01*
X1301Y785D02*
X1310Y785D01*
X1905Y785D02*
X1912Y785D01*
X0Y784D02*
X7Y784D01*
X542Y784D02*
X551Y784D01*
X1301Y784D02*
X1310Y784D01*
X1905Y784D02*
X1912Y784D01*
X0Y783D02*
X7Y783D01*
X542Y783D02*
X551Y783D01*
X1301Y783D02*
X1310Y783D01*
X1905Y783D02*
X1912Y783D01*
X0Y782D02*
X7Y782D01*
X542Y782D02*
X551Y782D01*
X1301Y782D02*
X1310Y782D01*
X1905Y782D02*
X1912Y782D01*
X0Y781D02*
X7Y781D01*
X542Y781D02*
X551Y781D01*
X1301Y781D02*
X1310Y781D01*
X1905Y781D02*
X1912Y781D01*
X0Y780D02*
X7Y780D01*
X542Y780D02*
X551Y780D01*
X1301Y780D02*
X1310Y780D01*
X1905Y780D02*
X1912Y780D01*
X0Y779D02*
X7Y779D01*
X542Y779D02*
X551Y779D01*
X1301Y779D02*
X1310Y779D01*
X1905Y779D02*
X1912Y779D01*
X0Y778D02*
X7Y778D01*
X542Y778D02*
X551Y778D01*
X1301Y778D02*
X1310Y778D01*
X1905Y778D02*
X1912Y778D01*
X0Y777D02*
X7Y777D01*
X542Y777D02*
X551Y777D01*
X1301Y777D02*
X1310Y777D01*
X1905Y777D02*
X1912Y777D01*
X0Y776D02*
X7Y776D01*
X542Y776D02*
X551Y776D01*
X1301Y776D02*
X1310Y776D01*
X1905Y776D02*
X1912Y776D01*
X0Y775D02*
X7Y775D01*
X542Y775D02*
X551Y775D01*
X1301Y775D02*
X1310Y775D01*
X1905Y775D02*
X1912Y775D01*
X0Y774D02*
X7Y774D01*
X542Y774D02*
X551Y774D01*
X1301Y774D02*
X1310Y774D01*
X1905Y774D02*
X1912Y774D01*
X0Y773D02*
X7Y773D01*
X542Y773D02*
X551Y773D01*
X1301Y773D02*
X1310Y773D01*
X1905Y773D02*
X1912Y773D01*
X0Y772D02*
X7Y772D01*
X542Y772D02*
X551Y772D01*
X1301Y772D02*
X1310Y772D01*
X1905Y772D02*
X1912Y772D01*
X0Y771D02*
X7Y771D01*
X542Y771D02*
X551Y771D01*
X1301Y771D02*
X1310Y771D01*
X1905Y771D02*
X1912Y771D01*
X0Y770D02*
X7Y770D01*
X542Y770D02*
X551Y770D01*
X1301Y770D02*
X1310Y770D01*
X1905Y770D02*
X1912Y770D01*
X0Y769D02*
X7Y769D01*
X542Y769D02*
X551Y769D01*
X1301Y769D02*
X1310Y769D01*
X1905Y769D02*
X1912Y769D01*
X0Y768D02*
X7Y768D01*
X542Y768D02*
X551Y768D01*
X1301Y768D02*
X1310Y768D01*
X1905Y768D02*
X1912Y768D01*
X0Y767D02*
X7Y767D01*
X542Y767D02*
X551Y767D01*
X1301Y767D02*
X1310Y767D01*
X1905Y767D02*
X1912Y767D01*
X0Y766D02*
X7Y766D01*
X542Y766D02*
X551Y766D01*
X1301Y766D02*
X1310Y766D01*
X1905Y766D02*
X1912Y766D01*
X0Y765D02*
X7Y765D01*
X542Y765D02*
X551Y765D01*
X1301Y765D02*
X1310Y765D01*
X1905Y765D02*
X1912Y765D01*
X0Y764D02*
X7Y764D01*
X542Y764D02*
X551Y764D01*
X1301Y764D02*
X1310Y764D01*
X1905Y764D02*
X1912Y764D01*
X0Y763D02*
X7Y763D01*
X542Y763D02*
X551Y763D01*
X1301Y763D02*
X1310Y763D01*
X1905Y763D02*
X1912Y763D01*
X0Y762D02*
X7Y762D01*
X542Y762D02*
X551Y762D01*
X1301Y762D02*
X1310Y762D01*
X1905Y762D02*
X1912Y762D01*
X0Y761D02*
X7Y761D01*
X542Y761D02*
X551Y761D01*
X1301Y761D02*
X1310Y761D01*
X1905Y761D02*
X1912Y761D01*
X0Y760D02*
X7Y760D01*
X542Y760D02*
X551Y760D01*
X1301Y760D02*
X1310Y760D01*
X1905Y760D02*
X1912Y760D01*
X0Y759D02*
X7Y759D01*
X542Y759D02*
X551Y759D01*
X1301Y759D02*
X1310Y759D01*
X1905Y759D02*
X1912Y759D01*
X0Y758D02*
X7Y758D01*
X542Y758D02*
X551Y758D01*
X1301Y758D02*
X1310Y758D01*
X1905Y758D02*
X1912Y758D01*
X0Y757D02*
X7Y757D01*
X542Y757D02*
X551Y757D01*
X1301Y757D02*
X1310Y757D01*
X1905Y757D02*
X1912Y757D01*
X0Y756D02*
X7Y756D01*
X542Y756D02*
X551Y756D01*
X1301Y756D02*
X1310Y756D01*
X1905Y756D02*
X1912Y756D01*
X0Y755D02*
X7Y755D01*
X543Y755D02*
X551Y755D01*
X1301Y755D02*
X1310Y755D01*
X1905Y755D02*
X1912Y755D01*
X0Y754D02*
X7Y754D01*
X544Y754D02*
X551Y754D01*
X1301Y754D02*
X1310Y754D01*
X1905Y754D02*
X1912Y754D01*
X0Y753D02*
X7Y753D01*
X545Y753D02*
X551Y753D01*
X1301Y753D02*
X1310Y753D01*
X1905Y753D02*
X1912Y753D01*
X0Y752D02*
X7Y752D01*
X547Y752D02*
X551Y752D01*
X1301Y752D02*
X1310Y752D01*
X1905Y752D02*
X1912Y752D01*
X0Y751D02*
X7Y751D01*
X548Y751D02*
X551Y751D01*
X1301Y751D02*
X1310Y751D01*
X1905Y751D02*
X1912Y751D01*
X0Y750D02*
X7Y750D01*
X548Y750D02*
X551Y750D01*
X1301Y750D02*
X1310Y750D01*
X1905Y750D02*
X1912Y750D01*
X0Y749D02*
X7Y749D01*
X549Y749D02*
X551Y749D01*
X1301Y749D02*
X1310Y749D01*
X1905Y749D02*
X1912Y749D01*
X0Y748D02*
X7Y748D01*
X550Y748D02*
X551Y748D01*
X1301Y748D02*
X1310Y748D01*
X1905Y748D02*
X1912Y748D01*
X0Y747D02*
X7Y747D01*
X551Y747D02*
X551Y747D01*
X1301Y747D02*
X1310Y747D01*
X1905Y747D02*
X1912Y747D01*
X0Y746D02*
X7Y746D01*
X1301Y746D02*
X1310Y746D01*
X1905Y746D02*
X1912Y746D01*
X0Y745D02*
X7Y745D01*
X1302Y745D02*
X1310Y745D01*
X1905Y745D02*
X1912Y745D01*
X0Y744D02*
X7Y744D01*
X1303Y744D02*
X1310Y744D01*
X1905Y744D02*
X1912Y744D01*
X0Y743D02*
X7Y743D01*
X1303Y743D02*
X1310Y743D01*
X1905Y743D02*
X1912Y743D01*
X0Y742D02*
X7Y742D01*
X1304Y742D02*
X1310Y742D01*
X1905Y742D02*
X1912Y742D01*
X0Y741D02*
X7Y741D01*
X1304Y741D02*
X1310Y741D01*
X1905Y741D02*
X1912Y741D01*
X0Y740D02*
X7Y740D01*
X1305Y740D02*
X1310Y740D01*
X1905Y740D02*
X1912Y740D01*
X0Y739D02*
X7Y739D01*
X1305Y739D02*
X1310Y739D01*
X1905Y739D02*
X1912Y739D01*
X0Y738D02*
X7Y738D01*
X1306Y738D02*
X1310Y738D01*
X1905Y738D02*
X1912Y738D01*
X0Y737D02*
X7Y737D01*
X1306Y737D02*
X1310Y737D01*
X1905Y737D02*
X1912Y737D01*
X0Y736D02*
X7Y736D01*
X1307Y736D02*
X1310Y736D01*
X1905Y736D02*
X1912Y736D01*
X0Y735D02*
X7Y735D01*
X1307Y735D02*
X1310Y735D01*
X1905Y735D02*
X1912Y735D01*
X0Y734D02*
X7Y734D01*
X1307Y734D02*
X1310Y734D01*
X1905Y734D02*
X1912Y734D01*
X0Y733D02*
X7Y733D01*
X1307Y733D02*
X1310Y733D01*
X1905Y733D02*
X1912Y733D01*
X0Y732D02*
X7Y732D01*
X1308Y732D02*
X1310Y732D01*
X1905Y732D02*
X1912Y732D01*
X0Y731D02*
X7Y731D01*
X1308Y731D02*
X1310Y731D01*
X1905Y731D02*
X1912Y731D01*
X0Y730D02*
X7Y730D01*
X1308Y730D02*
X1310Y730D01*
X1905Y730D02*
X1912Y730D01*
X0Y729D02*
X7Y729D01*
X1308Y729D02*
X1310Y729D01*
X1905Y729D02*
X1912Y729D01*
X0Y728D02*
X7Y728D01*
X1309Y728D02*
X1310Y728D01*
X1905Y728D02*
X1912Y728D01*
X0Y727D02*
X7Y727D01*
X1309Y727D02*
X1310Y727D01*
X1905Y727D02*
X1912Y727D01*
X0Y726D02*
X7Y726D01*
X1309Y726D02*
X1310Y726D01*
X1905Y726D02*
X1912Y726D01*
X0Y725D02*
X7Y725D01*
X1309Y725D02*
X1310Y725D01*
X1905Y725D02*
X1912Y725D01*
X0Y724D02*
X7Y724D01*
X1309Y724D02*
X1310Y724D01*
X1905Y724D02*
X1912Y724D01*
X0Y723D02*
X7Y723D01*
X1309Y723D02*
X1310Y723D01*
X1905Y723D02*
X1912Y723D01*
X0Y722D02*
X7Y722D01*
X1309Y722D02*
X1310Y722D01*
X1905Y722D02*
X1912Y722D01*
X0Y721D02*
X7Y721D01*
X1309Y721D02*
X1310Y721D01*
X1905Y721D02*
X1912Y721D01*
X0Y720D02*
X7Y720D01*
X1309Y720D02*
X1310Y720D01*
X1905Y720D02*
X1912Y720D01*
X0Y719D02*
X7Y719D01*
X1309Y719D02*
X1310Y719D01*
X1905Y719D02*
X1912Y719D01*
X0Y718D02*
X7Y718D01*
X1309Y718D02*
X1310Y718D01*
X1905Y718D02*
X1912Y718D01*
X0Y717D02*
X7Y717D01*
X1309Y717D02*
X1310Y717D01*
X1905Y717D02*
X1912Y717D01*
X0Y716D02*
X7Y716D01*
X1309Y716D02*
X1310Y716D01*
X1905Y716D02*
X1912Y716D01*
X0Y715D02*
X7Y715D01*
X1308Y715D02*
X1310Y715D01*
X1905Y715D02*
X1912Y715D01*
X0Y714D02*
X7Y714D01*
X1308Y714D02*
X1310Y714D01*
X1905Y714D02*
X1912Y714D01*
X0Y713D02*
X7Y713D01*
X1308Y713D02*
X1310Y713D01*
X1905Y713D02*
X1912Y713D01*
X0Y712D02*
X7Y712D01*
X1308Y712D02*
X1310Y712D01*
X1905Y712D02*
X1912Y712D01*
X0Y711D02*
X7Y711D01*
X1308Y711D02*
X1310Y711D01*
X1905Y711D02*
X1912Y711D01*
X0Y710D02*
X7Y710D01*
X1307Y710D02*
X1310Y710D01*
X1905Y710D02*
X1912Y710D01*
X0Y709D02*
X7Y709D01*
X1307Y709D02*
X1310Y709D01*
X1905Y709D02*
X1912Y709D01*
X0Y708D02*
X7Y708D01*
X1307Y708D02*
X1310Y708D01*
X1905Y708D02*
X1912Y708D01*
X0Y707D02*
X7Y707D01*
X1306Y707D02*
X1310Y707D01*
X1905Y707D02*
X1912Y707D01*
X0Y706D02*
X7Y706D01*
X1306Y706D02*
X1310Y706D01*
X1905Y706D02*
X1912Y706D01*
X0Y705D02*
X7Y705D01*
X1306Y705D02*
X1310Y705D01*
X1905Y705D02*
X1912Y705D01*
X0Y704D02*
X7Y704D01*
X1305Y704D02*
X1310Y704D01*
X1905Y704D02*
X1912Y704D01*
X0Y703D02*
X7Y703D01*
X1305Y703D02*
X1310Y703D01*
X1905Y703D02*
X1912Y703D01*
X0Y702D02*
X7Y702D01*
X1304Y702D02*
X1310Y702D01*
X1905Y702D02*
X1912Y702D01*
X0Y701D02*
X7Y701D01*
X1304Y701D02*
X1310Y701D01*
X1905Y701D02*
X1912Y701D01*
X0Y700D02*
X7Y700D01*
X1303Y700D02*
X1310Y700D01*
X1905Y700D02*
X1912Y700D01*
X0Y699D02*
X7Y699D01*
X1302Y699D02*
X1310Y699D01*
X1905Y699D02*
X1912Y699D01*
X0Y698D02*
X7Y698D01*
X1302Y698D02*
X1310Y698D01*
X1905Y698D02*
X1912Y698D01*
X0Y697D02*
X7Y697D01*
X551Y697D02*
X551Y697D01*
X1301Y697D02*
X1310Y697D01*
X1905Y697D02*
X1912Y697D01*
X0Y696D02*
X7Y696D01*
X551Y696D02*
X551Y696D01*
X1301Y696D02*
X1310Y696D01*
X1905Y696D02*
X1912Y696D01*
X0Y695D02*
X7Y695D01*
X550Y695D02*
X551Y695D01*
X1301Y695D02*
X1310Y695D01*
X1905Y695D02*
X1912Y695D01*
X0Y694D02*
X7Y694D01*
X549Y694D02*
X551Y694D01*
X1301Y694D02*
X1310Y694D01*
X1905Y694D02*
X1912Y694D01*
X0Y693D02*
X7Y693D01*
X548Y693D02*
X551Y693D01*
X1301Y693D02*
X1310Y693D01*
X1905Y693D02*
X1912Y693D01*
X0Y692D02*
X7Y692D01*
X547Y692D02*
X551Y692D01*
X1301Y692D02*
X1310Y692D01*
X1905Y692D02*
X1912Y692D01*
X0Y691D02*
X7Y691D01*
X546Y691D02*
X551Y691D01*
X1301Y691D02*
X1310Y691D01*
X1905Y691D02*
X1912Y691D01*
X0Y690D02*
X7Y690D01*
X545Y690D02*
X551Y690D01*
X1301Y690D02*
X1310Y690D01*
X1905Y690D02*
X1912Y690D01*
X0Y689D02*
X7Y689D01*
X544Y689D02*
X551Y689D01*
X1301Y689D02*
X1310Y689D01*
X1905Y689D02*
X1912Y689D01*
X0Y688D02*
X7Y688D01*
X543Y688D02*
X551Y688D01*
X1301Y688D02*
X1310Y688D01*
X1905Y688D02*
X1912Y688D01*
X0Y687D02*
X7Y687D01*
X542Y687D02*
X551Y687D01*
X1301Y687D02*
X1310Y687D01*
X1905Y687D02*
X1912Y687D01*
X0Y686D02*
X7Y686D01*
X542Y686D02*
X551Y686D01*
X1301Y686D02*
X1310Y686D01*
X1905Y686D02*
X1912Y686D01*
X0Y685D02*
X7Y685D01*
X542Y685D02*
X551Y685D01*
X1301Y685D02*
X1310Y685D01*
X1905Y685D02*
X1912Y685D01*
X0Y684D02*
X7Y684D01*
X542Y684D02*
X551Y684D01*
X1301Y684D02*
X1310Y684D01*
X1905Y684D02*
X1912Y684D01*
X0Y683D02*
X7Y683D01*
X542Y683D02*
X551Y683D01*
X1301Y683D02*
X1310Y683D01*
X1905Y683D02*
X1912Y683D01*
X0Y682D02*
X7Y682D01*
X542Y682D02*
X551Y682D01*
X1301Y682D02*
X1310Y682D01*
X1905Y682D02*
X1912Y682D01*
X0Y681D02*
X7Y681D01*
X542Y681D02*
X551Y681D01*
X1301Y681D02*
X1310Y681D01*
X1905Y681D02*
X1912Y681D01*
X0Y680D02*
X7Y680D01*
X542Y680D02*
X551Y680D01*
X1301Y680D02*
X1310Y680D01*
X1905Y680D02*
X1912Y680D01*
X0Y679D02*
X7Y679D01*
X542Y679D02*
X551Y679D01*
X1301Y679D02*
X1310Y679D01*
X1905Y679D02*
X1912Y679D01*
X0Y678D02*
X7Y678D01*
X542Y678D02*
X551Y678D01*
X1301Y678D02*
X1310Y678D01*
X1905Y678D02*
X1912Y678D01*
X0Y677D02*
X7Y677D01*
X542Y677D02*
X551Y677D01*
X1301Y677D02*
X1310Y677D01*
X1905Y677D02*
X1912Y677D01*
X0Y676D02*
X7Y676D01*
X542Y676D02*
X551Y676D01*
X1301Y676D02*
X1310Y676D01*
X1905Y676D02*
X1912Y676D01*
X0Y675D02*
X7Y675D01*
X542Y675D02*
X551Y675D01*
X1301Y675D02*
X1310Y675D01*
X1905Y675D02*
X1912Y675D01*
X0Y674D02*
X7Y674D01*
X542Y674D02*
X551Y674D01*
X1301Y674D02*
X1310Y674D01*
X1905Y674D02*
X1912Y674D01*
X0Y673D02*
X7Y673D01*
X542Y673D02*
X551Y673D01*
X1301Y673D02*
X1310Y673D01*
X1905Y673D02*
X1912Y673D01*
X0Y672D02*
X7Y672D01*
X542Y672D02*
X551Y672D01*
X1301Y672D02*
X1310Y672D01*
X1905Y672D02*
X1912Y672D01*
X0Y671D02*
X7Y671D01*
X1905Y671D02*
X1912Y671D01*
X0Y670D02*
X7Y670D01*
X1905Y670D02*
X1912Y670D01*
X0Y669D02*
X7Y669D01*
X1905Y669D02*
X1912Y669D01*
X0Y668D02*
X7Y668D01*
X1905Y668D02*
X1912Y668D01*
X0Y667D02*
X7Y667D01*
X1905Y667D02*
X1912Y667D01*
X0Y666D02*
X7Y666D01*
X1905Y666D02*
X1912Y666D01*
X0Y665D02*
X7Y665D01*
X1905Y665D02*
X1912Y665D01*
X0Y664D02*
X7Y664D01*
X1905Y664D02*
X1912Y664D01*
X0Y663D02*
X7Y663D01*
X1905Y663D02*
X1912Y663D01*
X0Y662D02*
X7Y662D01*
X1905Y662D02*
X1912Y662D01*
X0Y661D02*
X7Y661D01*
X1905Y661D02*
X1912Y661D01*
X0Y660D02*
X7Y660D01*
X1905Y660D02*
X1912Y660D01*
X0Y659D02*
X7Y659D01*
X1905Y659D02*
X1912Y659D01*
X0Y658D02*
X7Y658D01*
X1905Y658D02*
X1912Y658D01*
X0Y657D02*
X7Y657D01*
X1905Y657D02*
X1912Y657D01*
X0Y656D02*
X7Y656D01*
X1905Y656D02*
X1912Y656D01*
X0Y655D02*
X7Y655D01*
X1905Y655D02*
X1912Y655D01*
X0Y654D02*
X7Y654D01*
X1905Y654D02*
X1912Y654D01*
X0Y653D02*
X7Y653D01*
X1905Y653D02*
X1912Y653D01*
X0Y652D02*
X7Y652D01*
X1905Y652D02*
X1912Y652D01*
X0Y651D02*
X7Y651D01*
X1905Y651D02*
X1912Y651D01*
X0Y650D02*
X7Y650D01*
X1905Y650D02*
X1912Y650D01*
X0Y649D02*
X7Y649D01*
X1905Y649D02*
X1912Y649D01*
X0Y648D02*
X7Y648D01*
X1905Y648D02*
X1912Y648D01*
X0Y647D02*
X7Y647D01*
X1905Y647D02*
X1912Y647D01*
X0Y646D02*
X7Y646D01*
X1905Y646D02*
X1912Y646D01*
X0Y645D02*
X7Y645D01*
X1905Y645D02*
X1912Y645D01*
X0Y644D02*
X7Y644D01*
X1905Y644D02*
X1912Y644D01*
X0Y643D02*
X7Y643D01*
X1905Y643D02*
X1912Y643D01*
X0Y642D02*
X7Y642D01*
X1905Y642D02*
X1912Y642D01*
X0Y641D02*
X7Y641D01*
X1905Y641D02*
X1912Y641D01*
X0Y640D02*
X7Y640D01*
X1905Y640D02*
X1912Y640D01*
X0Y639D02*
X7Y639D01*
X1905Y639D02*
X1912Y639D01*
X0Y638D02*
X7Y638D01*
X1905Y638D02*
X1912Y638D01*
X0Y637D02*
X7Y637D01*
X1905Y637D02*
X1912Y637D01*
X0Y636D02*
X7Y636D01*
X1905Y636D02*
X1912Y636D01*
X0Y635D02*
X7Y635D01*
X1905Y635D02*
X1912Y635D01*
X0Y634D02*
X7Y634D01*
X1905Y634D02*
X1912Y634D01*
X0Y633D02*
X7Y633D01*
X1905Y633D02*
X1912Y633D01*
X0Y632D02*
X7Y632D01*
X1905Y632D02*
X1912Y632D01*
X0Y631D02*
X7Y631D01*
X1905Y631D02*
X1912Y631D01*
X0Y630D02*
X7Y630D01*
X1905Y630D02*
X1912Y630D01*
X0Y629D02*
X7Y629D01*
X1905Y629D02*
X1912Y629D01*
X0Y628D02*
X7Y628D01*
X1905Y628D02*
X1912Y628D01*
X0Y627D02*
X7Y627D01*
X1905Y627D02*
X1912Y627D01*
X0Y626D02*
X7Y626D01*
X1905Y626D02*
X1912Y626D01*
X0Y625D02*
X7Y625D01*
X1905Y625D02*
X1912Y625D01*
X0Y624D02*
X7Y624D01*
X1905Y624D02*
X1912Y624D01*
X0Y623D02*
X7Y623D01*
X1905Y623D02*
X1912Y623D01*
X0Y622D02*
X7Y622D01*
X1905Y622D02*
X1912Y622D01*
X0Y621D02*
X7Y621D01*
X1905Y621D02*
X1912Y621D01*
X0Y620D02*
X7Y620D01*
X1905Y620D02*
X1912Y620D01*
X0Y619D02*
X7Y619D01*
X1905Y619D02*
X1912Y619D01*
X0Y618D02*
X7Y618D01*
X1905Y618D02*
X1912Y618D01*
X0Y617D02*
X7Y617D01*
X1905Y617D02*
X1912Y617D01*
X0Y616D02*
X7Y616D01*
X1905Y616D02*
X1912Y616D01*
X0Y615D02*
X7Y615D01*
X1905Y615D02*
X1912Y615D01*
X0Y614D02*
X7Y614D01*
X1905Y614D02*
X1912Y614D01*
X0Y613D02*
X7Y613D01*
X1905Y613D02*
X1912Y613D01*
X0Y612D02*
X7Y612D01*
X1905Y612D02*
X1912Y612D01*
X0Y611D02*
X7Y611D01*
X1905Y611D02*
X1912Y611D01*
X0Y610D02*
X7Y610D01*
X1905Y610D02*
X1912Y610D01*
X0Y609D02*
X7Y609D01*
X1905Y609D02*
X1912Y609D01*
X0Y608D02*
X7Y608D01*
X1905Y608D02*
X1912Y608D01*
X0Y607D02*
X7Y607D01*
X1905Y607D02*
X1912Y607D01*
X0Y606D02*
X7Y606D01*
X1905Y606D02*
X1912Y606D01*
X0Y605D02*
X7Y605D01*
X1905Y605D02*
X1912Y605D01*
X0Y604D02*
X7Y604D01*
X1905Y604D02*
X1912Y604D01*
X0Y603D02*
X7Y603D01*
X1905Y603D02*
X1912Y603D01*
X0Y602D02*
X7Y602D01*
X1905Y602D02*
X1912Y602D01*
X0Y601D02*
X7Y601D01*
X1905Y601D02*
X1912Y601D01*
X0Y600D02*
X7Y600D01*
X1905Y600D02*
X1912Y600D01*
X0Y599D02*
X7Y599D01*
X1905Y599D02*
X1912Y599D01*
X0Y598D02*
X7Y598D01*
X1905Y598D02*
X1912Y598D01*
X0Y597D02*
X7Y597D01*
X1905Y597D02*
X1912Y597D01*
X0Y596D02*
X7Y596D01*
X1905Y596D02*
X1912Y596D01*
X0Y595D02*
X7Y595D01*
X1905Y595D02*
X1912Y595D01*
X0Y594D02*
X7Y594D01*
X1905Y594D02*
X1912Y594D01*
X0Y593D02*
X7Y593D01*
X1905Y593D02*
X1912Y593D01*
X0Y592D02*
X7Y592D01*
X1905Y592D02*
X1912Y592D01*
X0Y591D02*
X7Y591D01*
X1905Y591D02*
X1912Y591D01*
X0Y590D02*
X7Y590D01*
X1905Y590D02*
X1912Y590D01*
X0Y589D02*
X7Y589D01*
X1905Y589D02*
X1912Y589D01*
X0Y588D02*
X7Y588D01*
X1905Y588D02*
X1912Y588D01*
X0Y587D02*
X7Y587D01*
X1905Y587D02*
X1912Y587D01*
X0Y586D02*
X7Y586D01*
X1905Y586D02*
X1912Y586D01*
X0Y585D02*
X7Y585D01*
X1905Y585D02*
X1912Y585D01*
X0Y584D02*
X7Y584D01*
X1905Y584D02*
X1912Y584D01*
X0Y583D02*
X7Y583D01*
X1905Y583D02*
X1912Y583D01*
X0Y582D02*
X7Y582D01*
X1905Y582D02*
X1912Y582D01*
X0Y581D02*
X7Y581D01*
X1905Y581D02*
X1912Y581D01*
X0Y580D02*
X7Y580D01*
X1905Y580D02*
X1912Y580D01*
X0Y579D02*
X7Y579D01*
X1905Y579D02*
X1912Y579D01*
X0Y578D02*
X7Y578D01*
X1905Y578D02*
X1912Y578D01*
X0Y577D02*
X7Y577D01*
X1905Y577D02*
X1912Y577D01*
X0Y576D02*
X7Y576D01*
X1905Y576D02*
X1912Y576D01*
X0Y575D02*
X7Y575D01*
X1905Y575D02*
X1912Y575D01*
X0Y574D02*
X7Y574D01*
X1905Y574D02*
X1912Y574D01*
X0Y573D02*
X7Y573D01*
X1905Y573D02*
X1912Y573D01*
X0Y572D02*
X7Y572D01*
X1905Y572D02*
X1912Y572D01*
X0Y571D02*
X7Y571D01*
X1905Y571D02*
X1912Y571D01*
X0Y570D02*
X7Y570D01*
X1905Y570D02*
X1912Y570D01*
X0Y569D02*
X7Y569D01*
X1905Y569D02*
X1912Y569D01*
X0Y568D02*
X7Y568D01*
X1905Y568D02*
X1912Y568D01*
X0Y567D02*
X7Y567D01*
X1905Y567D02*
X1912Y567D01*
X0Y566D02*
X7Y566D01*
X1905Y566D02*
X1912Y566D01*
X0Y565D02*
X7Y565D01*
X1905Y565D02*
X1912Y565D01*
X0Y564D02*
X7Y564D01*
X1905Y564D02*
X1912Y564D01*
X0Y563D02*
X7Y563D01*
X1905Y563D02*
X1912Y563D01*
X0Y562D02*
X7Y562D01*
X1905Y562D02*
X1912Y562D01*
X0Y561D02*
X7Y561D01*
X1905Y561D02*
X1912Y561D01*
X0Y560D02*
X7Y560D01*
X1905Y560D02*
X1912Y560D01*
X0Y559D02*
X7Y559D01*
X1905Y559D02*
X1912Y559D01*
X0Y558D02*
X7Y558D01*
X1905Y558D02*
X1912Y558D01*
X0Y557D02*
X7Y557D01*
X1905Y557D02*
X1912Y557D01*
X0Y556D02*
X7Y556D01*
X1905Y556D02*
X1912Y556D01*
X0Y555D02*
X7Y555D01*
X1905Y555D02*
X1912Y555D01*
X0Y554D02*
X7Y554D01*
X1905Y554D02*
X1912Y554D01*
X0Y553D02*
X7Y553D01*
X1905Y553D02*
X1912Y553D01*
X0Y552D02*
X7Y552D01*
X1905Y552D02*
X1912Y552D01*
X0Y551D02*
X7Y551D01*
X1905Y551D02*
X1912Y551D01*
X0Y550D02*
X7Y550D01*
X1905Y550D02*
X1912Y550D01*
X0Y549D02*
X7Y549D01*
X1905Y549D02*
X1912Y549D01*
X0Y548D02*
X7Y548D01*
X1905Y548D02*
X1912Y548D01*
X0Y547D02*
X7Y547D01*
X1905Y547D02*
X1912Y547D01*
X0Y546D02*
X7Y546D01*
X1905Y546D02*
X1912Y546D01*
X0Y545D02*
X7Y545D01*
X1905Y545D02*
X1912Y545D01*
X0Y544D02*
X7Y544D01*
X1905Y544D02*
X1912Y544D01*
X0Y543D02*
X7Y543D01*
X1905Y543D02*
X1912Y543D01*
X0Y542D02*
X7Y542D01*
X1905Y542D02*
X1912Y542D01*
X0Y541D02*
X7Y541D01*
X1905Y541D02*
X1912Y541D01*
X0Y540D02*
X7Y540D01*
X1905Y540D02*
X1912Y540D01*
X0Y539D02*
X7Y539D01*
X1905Y539D02*
X1912Y539D01*
X0Y538D02*
X7Y538D01*
X1905Y538D02*
X1912Y538D01*
X0Y537D02*
X7Y537D01*
X1905Y537D02*
X1912Y537D01*
X0Y536D02*
X7Y536D01*
X1905Y536D02*
X1912Y536D01*
X0Y535D02*
X7Y535D01*
X1905Y535D02*
X1912Y535D01*
X0Y534D02*
X7Y534D01*
X1905Y534D02*
X1912Y534D01*
X0Y533D02*
X7Y533D01*
X1905Y533D02*
X1912Y533D01*
X0Y532D02*
X7Y532D01*
X1905Y532D02*
X1912Y532D01*
X0Y531D02*
X7Y531D01*
X1905Y531D02*
X1912Y531D01*
X0Y530D02*
X7Y530D01*
X1905Y530D02*
X1912Y530D01*
X0Y529D02*
X7Y529D01*
X1905Y529D02*
X1912Y529D01*
X0Y528D02*
X7Y528D01*
X1905Y528D02*
X1912Y528D01*
X0Y527D02*
X7Y527D01*
X1905Y527D02*
X1912Y527D01*
X0Y526D02*
X7Y526D01*
X1905Y526D02*
X1912Y526D01*
X0Y525D02*
X7Y525D01*
X1905Y525D02*
X1912Y525D01*
X0Y524D02*
X7Y524D01*
X1905Y524D02*
X1912Y524D01*
X0Y523D02*
X7Y523D01*
X1905Y523D02*
X1912Y523D01*
X0Y522D02*
X7Y522D01*
X1905Y522D02*
X1912Y522D01*
X0Y521D02*
X7Y521D01*
X1905Y521D02*
X1912Y521D01*
X0Y520D02*
X7Y520D01*
X1905Y520D02*
X1912Y520D01*
X0Y519D02*
X7Y519D01*
X1905Y519D02*
X1912Y519D01*
X0Y518D02*
X7Y518D01*
X1905Y518D02*
X1912Y518D01*
X0Y517D02*
X7Y517D01*
X1905Y517D02*
X1912Y517D01*
X0Y516D02*
X7Y516D01*
X1905Y516D02*
X1912Y516D01*
X0Y515D02*
X7Y515D01*
X1905Y515D02*
X1912Y515D01*
X0Y514D02*
X7Y514D01*
X1905Y514D02*
X1912Y514D01*
X0Y513D02*
X7Y513D01*
X1905Y513D02*
X1912Y513D01*
X0Y512D02*
X7Y512D01*
X1905Y512D02*
X1912Y512D01*
X0Y511D02*
X7Y511D01*
X1905Y511D02*
X1912Y511D01*
X0Y510D02*
X7Y510D01*
X1905Y510D02*
X1912Y510D01*
X0Y509D02*
X7Y509D01*
X1905Y509D02*
X1912Y509D01*
X0Y508D02*
X7Y508D01*
X1905Y508D02*
X1912Y508D01*
X0Y507D02*
X7Y507D01*
X1905Y507D02*
X1912Y507D01*
X0Y506D02*
X7Y506D01*
X1905Y506D02*
X1912Y506D01*
X0Y505D02*
X7Y505D01*
X1905Y505D02*
X1912Y505D01*
X0Y504D02*
X7Y504D01*
X1905Y504D02*
X1912Y504D01*
X0Y503D02*
X7Y503D01*
X1905Y503D02*
X1912Y503D01*
X0Y502D02*
X7Y502D01*
X1905Y502D02*
X1912Y502D01*
X0Y501D02*
X7Y501D01*
X1905Y501D02*
X1912Y501D01*
X0Y500D02*
X7Y500D01*
X1905Y500D02*
X1912Y500D01*
X0Y499D02*
X7Y499D01*
X1905Y499D02*
X1912Y499D01*
X0Y498D02*
X7Y498D01*
X1905Y498D02*
X1912Y498D01*
X0Y497D02*
X7Y497D01*
X1905Y497D02*
X1912Y497D01*
X0Y496D02*
X7Y496D01*
X1905Y496D02*
X1912Y496D01*
X0Y495D02*
X7Y495D01*
X1905Y495D02*
X1912Y495D01*
X0Y494D02*
X7Y494D01*
X1905Y494D02*
X1912Y494D01*
X0Y493D02*
X7Y493D01*
X1905Y493D02*
X1912Y493D01*
X0Y492D02*
X7Y492D01*
X1905Y492D02*
X1912Y492D01*
X0Y491D02*
X7Y491D01*
X1905Y491D02*
X1912Y491D01*
X0Y490D02*
X7Y490D01*
X1905Y490D02*
X1912Y490D01*
X0Y489D02*
X7Y489D01*
X1905Y489D02*
X1912Y489D01*
X0Y488D02*
X7Y488D01*
X1905Y488D02*
X1912Y488D01*
X0Y487D02*
X7Y487D01*
X1905Y487D02*
X1912Y487D01*
X0Y486D02*
X7Y486D01*
X616Y486D02*
X693Y486D01*
X739Y486D02*
X993Y486D01*
X1905Y486D02*
X1912Y486D01*
X0Y485D02*
X7Y485D01*
X616Y485D02*
X694Y485D01*
X738Y485D02*
X994Y485D01*
X1905Y485D02*
X1912Y485D01*
X0Y484D02*
X7Y484D01*
X616Y484D02*
X696Y484D01*
X736Y484D02*
X996Y484D01*
X1905Y484D02*
X1912Y484D01*
X0Y483D02*
X7Y483D01*
X616Y483D02*
X698Y483D01*
X734Y483D02*
X998Y483D01*
X1905Y483D02*
X1912Y483D01*
X0Y482D02*
X7Y482D01*
X616Y482D02*
X701Y482D01*
X731Y482D02*
X1000Y482D01*
X1905Y482D02*
X1912Y482D01*
X0Y481D02*
X7Y481D01*
X616Y481D02*
X704Y481D01*
X728Y481D02*
X1004Y481D01*
X1905Y481D02*
X1912Y481D01*
X0Y480D02*
X7Y480D01*
X616Y480D02*
X708Y480D01*
X724Y480D02*
X1008Y480D01*
X1024Y480D02*
X1024Y480D01*
X1905Y480D02*
X1912Y480D01*
X0Y479D02*
X7Y479D01*
X616Y479D02*
X1024Y479D01*
X1905Y479D02*
X1912Y479D01*
X0Y478D02*
X7Y478D01*
X616Y478D02*
X1024Y478D01*
X1905Y478D02*
X1912Y478D01*
X0Y477D02*
X7Y477D01*
X616Y477D02*
X1024Y477D01*
X1905Y477D02*
X1912Y477D01*
X0Y476D02*
X7Y476D01*
X1015Y476D02*
X1024Y476D01*
X1905Y476D02*
X1912Y476D01*
X0Y475D02*
X7Y475D01*
X1015Y475D02*
X1024Y475D01*
X1905Y475D02*
X1912Y475D01*
X0Y474D02*
X7Y474D01*
X1015Y474D02*
X1024Y474D01*
X1905Y474D02*
X1912Y474D01*
X0Y473D02*
X7Y473D01*
X1015Y473D02*
X1024Y473D01*
X1905Y473D02*
X1912Y473D01*
X0Y472D02*
X7Y472D01*
X1015Y472D02*
X1024Y472D01*
X1905Y472D02*
X1912Y472D01*
X0Y471D02*
X7Y471D01*
X1015Y471D02*
X1024Y471D01*
X1905Y471D02*
X1912Y471D01*
X0Y470D02*
X7Y470D01*
X1015Y470D02*
X1024Y470D01*
X1905Y470D02*
X1912Y470D01*
X0Y469D02*
X7Y469D01*
X1015Y469D02*
X1024Y469D01*
X1905Y469D02*
X1912Y469D01*
X0Y468D02*
X7Y468D01*
X1015Y468D02*
X1024Y468D01*
X1905Y468D02*
X1912Y468D01*
X0Y467D02*
X7Y467D01*
X1015Y467D02*
X1024Y467D01*
X1905Y467D02*
X1912Y467D01*
X0Y466D02*
X7Y466D01*
X1015Y466D02*
X1024Y466D01*
X1905Y466D02*
X1912Y466D01*
X0Y465D02*
X7Y465D01*
X1015Y465D02*
X1024Y465D01*
X1905Y465D02*
X1912Y465D01*
X0Y464D02*
X7Y464D01*
X1015Y464D02*
X1024Y464D01*
X1905Y464D02*
X1912Y464D01*
X0Y463D02*
X7Y463D01*
X1015Y463D02*
X1024Y463D01*
X1905Y463D02*
X1912Y463D01*
X0Y462D02*
X7Y462D01*
X1015Y462D02*
X1024Y462D01*
X1905Y462D02*
X1912Y462D01*
X0Y461D02*
X7Y461D01*
X1015Y461D02*
X1024Y461D01*
X1905Y461D02*
X1912Y461D01*
X0Y460D02*
X7Y460D01*
X1015Y460D02*
X1024Y460D01*
X1905Y460D02*
X1912Y460D01*
X0Y459D02*
X7Y459D01*
X1015Y459D02*
X1024Y459D01*
X1905Y459D02*
X1912Y459D01*
X0Y458D02*
X7Y458D01*
X1015Y458D02*
X1024Y458D01*
X1905Y458D02*
X1912Y458D01*
X0Y457D02*
X7Y457D01*
X1015Y457D02*
X1024Y457D01*
X1905Y457D02*
X1912Y457D01*
X0Y456D02*
X7Y456D01*
X1015Y456D02*
X1024Y456D01*
X1905Y456D02*
X1912Y456D01*
X0Y455D02*
X7Y455D01*
X1015Y455D02*
X1024Y455D01*
X1905Y455D02*
X1912Y455D01*
X0Y454D02*
X7Y454D01*
X1015Y454D02*
X1024Y454D01*
X1905Y454D02*
X1912Y454D01*
X0Y453D02*
X7Y453D01*
X1015Y453D02*
X1024Y453D01*
X1905Y453D02*
X1912Y453D01*
X0Y452D02*
X7Y452D01*
X1015Y452D02*
X1024Y452D01*
X1905Y452D02*
X1912Y452D01*
X0Y451D02*
X7Y451D01*
X1015Y451D02*
X1024Y451D01*
X1905Y451D02*
X1912Y451D01*
X0Y450D02*
X7Y450D01*
X1015Y450D02*
X1024Y450D01*
X1905Y450D02*
X1912Y450D01*
X0Y449D02*
X7Y449D01*
X1015Y449D02*
X1024Y449D01*
X1905Y449D02*
X1912Y449D01*
X0Y448D02*
X7Y448D01*
X1015Y448D02*
X1024Y448D01*
X1905Y448D02*
X1912Y448D01*
X0Y447D02*
X7Y447D01*
X1015Y447D02*
X1024Y447D01*
X1905Y447D02*
X1912Y447D01*
X0Y446D02*
X7Y446D01*
X1015Y446D02*
X1024Y446D01*
X1905Y446D02*
X1912Y446D01*
X0Y445D02*
X7Y445D01*
X1015Y445D02*
X1024Y445D01*
X1905Y445D02*
X1912Y445D01*
X0Y444D02*
X7Y444D01*
X1015Y444D02*
X1024Y444D01*
X1905Y444D02*
X1912Y444D01*
X0Y443D02*
X7Y443D01*
X1015Y443D02*
X1024Y443D01*
X1905Y443D02*
X1912Y443D01*
X0Y442D02*
X7Y442D01*
X1015Y442D02*
X1024Y442D01*
X1905Y442D02*
X1912Y442D01*
X0Y441D02*
X7Y441D01*
X1015Y441D02*
X1024Y441D01*
X1905Y441D02*
X1912Y441D01*
X0Y440D02*
X7Y440D01*
X1015Y440D02*
X1024Y440D01*
X1905Y440D02*
X1912Y440D01*
X0Y439D02*
X7Y439D01*
X1015Y439D02*
X1024Y439D01*
X1905Y439D02*
X1912Y439D01*
X0Y438D02*
X7Y438D01*
X1015Y438D02*
X1024Y438D01*
X1905Y438D02*
X1912Y438D01*
X0Y437D02*
X7Y437D01*
X1015Y437D02*
X1024Y437D01*
X1905Y437D02*
X1912Y437D01*
X0Y436D02*
X7Y436D01*
X1015Y436D02*
X1024Y436D01*
X1905Y436D02*
X1912Y436D01*
X0Y435D02*
X7Y435D01*
X1015Y435D02*
X1024Y435D01*
X1905Y435D02*
X1912Y435D01*
X0Y434D02*
X7Y434D01*
X1015Y434D02*
X1024Y434D01*
X1905Y434D02*
X1912Y434D01*
X0Y433D02*
X7Y433D01*
X1015Y433D02*
X1024Y433D01*
X1905Y433D02*
X1912Y433D01*
X0Y432D02*
X7Y432D01*
X1015Y432D02*
X1024Y432D01*
X1905Y432D02*
X1912Y432D01*
X0Y431D02*
X7Y431D01*
X1015Y431D02*
X1024Y431D01*
X1905Y431D02*
X1912Y431D01*
X0Y430D02*
X7Y430D01*
X1015Y430D02*
X1024Y430D01*
X1905Y430D02*
X1912Y430D01*
X0Y429D02*
X7Y429D01*
X1015Y429D02*
X1024Y429D01*
X1905Y429D02*
X1912Y429D01*
X0Y428D02*
X7Y428D01*
X1015Y428D02*
X1024Y428D01*
X1905Y428D02*
X1912Y428D01*
X0Y427D02*
X7Y427D01*
X1015Y427D02*
X1024Y427D01*
X1905Y427D02*
X1912Y427D01*
X0Y426D02*
X7Y426D01*
X1015Y426D02*
X1024Y426D01*
X1905Y426D02*
X1912Y426D01*
X0Y425D02*
X7Y425D01*
X1015Y425D02*
X1024Y425D01*
X1905Y425D02*
X1912Y425D01*
X0Y424D02*
X7Y424D01*
X1015Y424D02*
X1024Y424D01*
X1905Y424D02*
X1912Y424D01*
X0Y423D02*
X7Y423D01*
X1015Y423D02*
X1024Y423D01*
X1905Y423D02*
X1912Y423D01*
X0Y422D02*
X7Y422D01*
X1015Y422D02*
X1024Y422D01*
X1905Y422D02*
X1912Y422D01*
X0Y421D02*
X7Y421D01*
X1015Y421D02*
X1024Y421D01*
X1905Y421D02*
X1912Y421D01*
X0Y420D02*
X7Y420D01*
X1015Y420D02*
X1024Y420D01*
X1905Y420D02*
X1912Y420D01*
X0Y419D02*
X7Y419D01*
X1015Y419D02*
X1024Y419D01*
X1905Y419D02*
X1912Y419D01*
X0Y418D02*
X7Y418D01*
X1015Y418D02*
X1024Y418D01*
X1905Y418D02*
X1912Y418D01*
X0Y417D02*
X7Y417D01*
X1015Y417D02*
X1024Y417D01*
X1905Y417D02*
X1912Y417D01*
X0Y416D02*
X7Y416D01*
X1015Y416D02*
X1024Y416D01*
X1905Y416D02*
X1912Y416D01*
X0Y415D02*
X7Y415D01*
X1015Y415D02*
X1024Y415D01*
X1905Y415D02*
X1912Y415D01*
X0Y414D02*
X7Y414D01*
X1015Y414D02*
X1024Y414D01*
X1905Y414D02*
X1912Y414D01*
X0Y413D02*
X7Y413D01*
X1015Y413D02*
X1024Y413D01*
X1905Y413D02*
X1912Y413D01*
X0Y412D02*
X7Y412D01*
X1015Y412D02*
X1024Y412D01*
X1905Y412D02*
X1912Y412D01*
X0Y411D02*
X7Y411D01*
X1015Y411D02*
X1024Y411D01*
X1905Y411D02*
X1912Y411D01*
X0Y410D02*
X7Y410D01*
X1015Y410D02*
X1024Y410D01*
X1905Y410D02*
X1912Y410D01*
X0Y409D02*
X7Y409D01*
X1015Y409D02*
X1024Y409D01*
X1905Y409D02*
X1912Y409D01*
X0Y408D02*
X7Y408D01*
X1015Y408D02*
X1024Y408D01*
X1905Y408D02*
X1912Y408D01*
X0Y407D02*
X7Y407D01*
X1015Y407D02*
X1024Y407D01*
X1905Y407D02*
X1912Y407D01*
X0Y406D02*
X7Y406D01*
X1015Y406D02*
X1024Y406D01*
X1905Y406D02*
X1912Y406D01*
X0Y405D02*
X7Y405D01*
X1015Y405D02*
X1024Y405D01*
X1905Y405D02*
X1912Y405D01*
X0Y404D02*
X7Y404D01*
X1015Y404D02*
X1024Y404D01*
X1905Y404D02*
X1912Y404D01*
X0Y403D02*
X7Y403D01*
X1015Y403D02*
X1024Y403D01*
X1905Y403D02*
X1912Y403D01*
X0Y402D02*
X7Y402D01*
X1015Y402D02*
X1024Y402D01*
X1905Y402D02*
X1912Y402D01*
X0Y401D02*
X7Y401D01*
X1015Y401D02*
X1024Y401D01*
X1905Y401D02*
X1912Y401D01*
X0Y400D02*
X7Y400D01*
X1015Y400D02*
X1024Y400D01*
X1905Y400D02*
X1912Y400D01*
X0Y399D02*
X7Y399D01*
X1015Y399D02*
X1024Y399D01*
X1905Y399D02*
X1912Y399D01*
X0Y398D02*
X7Y398D01*
X1015Y398D02*
X1024Y398D01*
X1905Y398D02*
X1912Y398D01*
X0Y397D02*
X7Y397D01*
X1015Y397D02*
X1024Y397D01*
X1905Y397D02*
X1912Y397D01*
X0Y396D02*
X7Y396D01*
X1015Y396D02*
X1024Y396D01*
X1905Y396D02*
X1912Y396D01*
X0Y395D02*
X7Y395D01*
X1015Y395D02*
X1024Y395D01*
X1905Y395D02*
X1912Y395D01*
X0Y394D02*
X7Y394D01*
X1015Y394D02*
X1024Y394D01*
X1905Y394D02*
X1912Y394D01*
X0Y393D02*
X7Y393D01*
X1015Y393D02*
X1024Y393D01*
X1905Y393D02*
X1912Y393D01*
X0Y392D02*
X7Y392D01*
X1015Y392D02*
X1024Y392D01*
X1905Y392D02*
X1912Y392D01*
X0Y391D02*
X7Y391D01*
X1015Y391D02*
X1024Y391D01*
X1905Y391D02*
X1912Y391D01*
X0Y390D02*
X7Y390D01*
X1015Y390D02*
X1024Y390D01*
X1905Y390D02*
X1912Y390D01*
X0Y389D02*
X7Y389D01*
X1015Y389D02*
X1024Y389D01*
X1905Y389D02*
X1912Y389D01*
X0Y388D02*
X7Y388D01*
X1015Y388D02*
X1024Y388D01*
X1905Y388D02*
X1912Y388D01*
X0Y387D02*
X7Y387D01*
X1015Y387D02*
X1024Y387D01*
X1905Y387D02*
X1912Y387D01*
X0Y386D02*
X7Y386D01*
X1015Y386D02*
X1024Y386D01*
X1905Y386D02*
X1912Y386D01*
X0Y385D02*
X7Y385D01*
X1015Y385D02*
X1024Y385D01*
X1905Y385D02*
X1912Y385D01*
X0Y384D02*
X7Y384D01*
X1015Y384D02*
X1024Y384D01*
X1905Y384D02*
X1912Y384D01*
X0Y383D02*
X7Y383D01*
X1015Y383D02*
X1024Y383D01*
X1905Y383D02*
X1912Y383D01*
X0Y382D02*
X7Y382D01*
X1015Y382D02*
X1024Y382D01*
X1905Y382D02*
X1912Y382D01*
X0Y381D02*
X7Y381D01*
X1015Y381D02*
X1024Y381D01*
X1905Y381D02*
X1912Y381D01*
X0Y380D02*
X7Y380D01*
X1015Y380D02*
X1024Y380D01*
X1905Y380D02*
X1912Y380D01*
X0Y379D02*
X7Y379D01*
X1015Y379D02*
X1024Y379D01*
X1905Y379D02*
X1912Y379D01*
X0Y378D02*
X7Y378D01*
X1015Y378D02*
X1024Y378D01*
X1905Y378D02*
X1912Y378D01*
X0Y377D02*
X7Y377D01*
X1015Y377D02*
X1024Y377D01*
X1905Y377D02*
X1912Y377D01*
X0Y376D02*
X7Y376D01*
X1015Y376D02*
X1024Y376D01*
X1905Y376D02*
X1912Y376D01*
X0Y375D02*
X7Y375D01*
X1015Y375D02*
X1024Y375D01*
X1905Y375D02*
X1912Y375D01*
X0Y374D02*
X7Y374D01*
X1015Y374D02*
X1024Y374D01*
X1905Y374D02*
X1912Y374D01*
X0Y373D02*
X7Y373D01*
X1015Y373D02*
X1024Y373D01*
X1905Y373D02*
X1912Y373D01*
X0Y372D02*
X8Y372D01*
X1015Y372D02*
X1024Y372D01*
X1904Y372D02*
X1912Y372D01*
X1Y371D02*
X8Y371D01*
X1015Y371D02*
X1024Y371D01*
X1904Y371D02*
X1911Y371D01*
X1Y370D02*
X8Y370D01*
X1015Y370D02*
X1024Y370D01*
X1904Y370D02*
X1911Y370D01*
X1Y369D02*
X8Y369D01*
X1015Y369D02*
X1024Y369D01*
X1904Y369D02*
X1911Y369D01*
X1Y368D02*
X8Y368D01*
X1015Y368D02*
X1024Y368D01*
X1904Y368D02*
X1911Y368D01*
X1Y367D02*
X8Y367D01*
X1015Y367D02*
X1024Y367D01*
X1904Y367D02*
X1911Y367D01*
X1Y366D02*
X8Y366D01*
X1015Y366D02*
X1024Y366D01*
X1904Y366D02*
X1911Y366D01*
X1Y365D02*
X8Y365D01*
X1015Y365D02*
X1024Y365D01*
X1904Y365D02*
X1911Y365D01*
X1Y364D02*
X8Y364D01*
X1015Y364D02*
X1024Y364D01*
X1904Y364D02*
X1911Y364D01*
X1Y363D02*
X8Y363D01*
X1015Y363D02*
X1024Y363D01*
X1904Y363D02*
X1911Y363D01*
X1Y362D02*
X8Y362D01*
X1015Y362D02*
X1024Y362D01*
X1904Y362D02*
X1911Y362D01*
X1Y361D02*
X8Y361D01*
X1015Y361D02*
X1024Y361D01*
X1904Y361D02*
X1911Y361D01*
X1Y360D02*
X8Y360D01*
X1015Y360D02*
X1024Y360D01*
X1904Y360D02*
X1911Y360D01*
X1Y359D02*
X8Y359D01*
X1015Y359D02*
X1024Y359D01*
X1904Y359D02*
X1911Y359D01*
X1Y358D02*
X9Y358D01*
X1015Y358D02*
X1024Y358D01*
X1903Y358D02*
X1911Y358D01*
X2Y357D02*
X9Y357D01*
X1015Y357D02*
X1024Y357D01*
X1903Y357D02*
X1910Y357D01*
X2Y356D02*
X9Y356D01*
X1015Y356D02*
X1024Y356D01*
X1903Y356D02*
X1910Y356D01*
X2Y355D02*
X9Y355D01*
X1015Y355D02*
X1024Y355D01*
X1903Y355D02*
X1910Y355D01*
X2Y354D02*
X9Y354D01*
X1015Y354D02*
X1024Y354D01*
X1903Y354D02*
X1910Y354D01*
X2Y353D02*
X9Y353D01*
X1015Y353D02*
X1024Y353D01*
X1903Y353D02*
X1910Y353D01*
X2Y352D02*
X9Y352D01*
X1015Y352D02*
X1024Y352D01*
X1903Y352D02*
X1910Y352D01*
X2Y351D02*
X9Y351D01*
X1015Y351D02*
X1024Y351D01*
X1903Y351D02*
X1910Y351D01*
X2Y350D02*
X9Y350D01*
X1015Y350D02*
X1024Y350D01*
X1903Y350D02*
X1910Y350D01*
X2Y349D02*
X9Y349D01*
X1015Y349D02*
X1024Y349D01*
X1903Y349D02*
X1910Y349D01*
X2Y348D02*
X10Y348D01*
X1015Y348D02*
X1024Y348D01*
X1902Y348D02*
X1910Y348D01*
X3Y347D02*
X10Y347D01*
X1015Y347D02*
X1024Y347D01*
X1902Y347D02*
X1909Y347D01*
X3Y346D02*
X10Y346D01*
X1015Y346D02*
X1024Y346D01*
X1902Y346D02*
X1909Y346D01*
X3Y345D02*
X10Y345D01*
X1015Y345D02*
X1024Y345D01*
X1902Y345D02*
X1909Y345D01*
X3Y344D02*
X10Y344D01*
X1015Y344D02*
X1024Y344D01*
X1902Y344D02*
X1909Y344D01*
X3Y343D02*
X10Y343D01*
X1015Y343D02*
X1024Y343D01*
X1902Y343D02*
X1909Y343D01*
X3Y342D02*
X10Y342D01*
X1015Y342D02*
X1024Y342D01*
X1902Y342D02*
X1909Y342D01*
X3Y341D02*
X10Y341D01*
X1015Y341D02*
X1024Y341D01*
X1902Y341D02*
X1909Y341D01*
X3Y340D02*
X11Y340D01*
X1015Y340D02*
X1024Y340D01*
X1901Y340D02*
X1909Y340D01*
X4Y339D02*
X11Y339D01*
X1015Y339D02*
X1024Y339D01*
X1901Y339D02*
X1908Y339D01*
X4Y338D02*
X11Y338D01*
X1015Y338D02*
X1024Y338D01*
X1901Y338D02*
X1908Y338D01*
X4Y337D02*
X11Y337D01*
X1015Y337D02*
X1024Y337D01*
X1901Y337D02*
X1908Y337D01*
X4Y336D02*
X11Y336D01*
X1015Y336D02*
X1024Y336D01*
X1901Y336D02*
X1908Y336D01*
X4Y335D02*
X11Y335D01*
X1015Y335D02*
X1024Y335D01*
X1901Y335D02*
X1908Y335D01*
X4Y334D02*
X11Y334D01*
X1015Y334D02*
X1024Y334D01*
X1901Y334D02*
X1908Y334D01*
X4Y333D02*
X12Y333D01*
X1015Y333D02*
X1024Y333D01*
X1900Y333D02*
X1908Y333D01*
X5Y332D02*
X12Y332D01*
X1015Y332D02*
X1024Y332D01*
X1900Y332D02*
X1907Y332D01*
X5Y331D02*
X12Y331D01*
X1015Y331D02*
X1024Y331D01*
X1900Y331D02*
X1907Y331D01*
X5Y330D02*
X12Y330D01*
X1015Y330D02*
X1024Y330D01*
X1900Y330D02*
X1907Y330D01*
X5Y329D02*
X12Y329D01*
X1015Y329D02*
X1024Y329D01*
X1900Y329D02*
X1907Y329D01*
X5Y328D02*
X12Y328D01*
X1015Y328D02*
X1024Y328D01*
X1900Y328D02*
X1907Y328D01*
X5Y327D02*
X13Y327D01*
X1015Y327D02*
X1024Y327D01*
X1899Y327D02*
X1907Y327D01*
X6Y326D02*
X13Y326D01*
X1015Y326D02*
X1024Y326D01*
X1899Y326D02*
X1906Y326D01*
X6Y325D02*
X13Y325D01*
X1015Y325D02*
X1024Y325D01*
X1899Y325D02*
X1906Y325D01*
X6Y324D02*
X13Y324D01*
X1015Y324D02*
X1024Y324D01*
X1899Y324D02*
X1906Y324D01*
X6Y323D02*
X13Y323D01*
X1015Y323D02*
X1024Y323D01*
X1899Y323D02*
X1906Y323D01*
X6Y322D02*
X13Y322D01*
X1015Y322D02*
X1024Y322D01*
X1899Y322D02*
X1906Y322D01*
X7Y321D02*
X14Y321D01*
X1015Y321D02*
X1024Y321D01*
X1898Y321D02*
X1905Y321D01*
X7Y320D02*
X14Y320D01*
X1015Y320D02*
X1024Y320D01*
X1898Y320D02*
X1905Y320D01*
X7Y319D02*
X14Y319D01*
X1015Y319D02*
X1024Y319D01*
X1898Y319D02*
X1905Y319D01*
X7Y318D02*
X14Y318D01*
X1015Y318D02*
X1024Y318D01*
X1898Y318D02*
X1905Y318D01*
X7Y317D02*
X14Y317D01*
X1015Y317D02*
X1024Y317D01*
X1898Y317D02*
X1905Y317D01*
X7Y316D02*
X15Y316D01*
X1015Y316D02*
X1024Y316D01*
X1897Y316D02*
X1905Y316D01*
X8Y315D02*
X15Y315D01*
X1015Y315D02*
X1024Y315D01*
X1897Y315D02*
X1904Y315D01*
X8Y314D02*
X15Y314D01*
X1015Y314D02*
X1024Y314D01*
X1897Y314D02*
X1904Y314D01*
X8Y313D02*
X15Y313D01*
X1015Y313D02*
X1024Y313D01*
X1897Y313D02*
X1904Y313D01*
X8Y312D02*
X15Y312D01*
X1015Y312D02*
X1024Y312D01*
X1897Y312D02*
X1904Y312D01*
X9Y311D02*
X16Y311D01*
X1015Y311D02*
X1024Y311D01*
X1896Y311D02*
X1903Y311D01*
X9Y310D02*
X16Y310D01*
X1015Y310D02*
X1024Y310D01*
X1896Y310D02*
X1903Y310D01*
X9Y309D02*
X16Y309D01*
X1015Y309D02*
X1024Y309D01*
X1896Y309D02*
X1903Y309D01*
X9Y308D02*
X16Y308D01*
X1015Y308D02*
X1024Y308D01*
X1896Y308D02*
X1903Y308D01*
X9Y307D02*
X16Y307D01*
X1015Y307D02*
X1024Y307D01*
X1896Y307D02*
X1903Y307D01*
X10Y306D02*
X17Y306D01*
X1015Y306D02*
X1024Y306D01*
X1895Y306D02*
X1902Y306D01*
X10Y305D02*
X17Y305D01*
X1015Y305D02*
X1024Y305D01*
X1895Y305D02*
X1902Y305D01*
X10Y304D02*
X17Y304D01*
X1015Y304D02*
X1024Y304D01*
X1895Y304D02*
X1902Y304D01*
X10Y303D02*
X17Y303D01*
X1015Y303D02*
X1024Y303D01*
X1895Y303D02*
X1902Y303D01*
X11Y302D02*
X18Y302D01*
X1015Y302D02*
X1024Y302D01*
X1894Y302D02*
X1901Y302D01*
X11Y301D02*
X18Y301D01*
X1015Y301D02*
X1024Y301D01*
X1894Y301D02*
X1901Y301D01*
X11Y300D02*
X18Y300D01*
X1015Y300D02*
X1024Y300D01*
X1894Y300D02*
X1901Y300D01*
X11Y299D02*
X18Y299D01*
X1015Y299D02*
X1024Y299D01*
X1894Y299D02*
X1901Y299D01*
X12Y298D02*
X19Y298D01*
X1015Y298D02*
X1024Y298D01*
X1893Y298D02*
X1900Y298D01*
X12Y297D02*
X19Y297D01*
X1015Y297D02*
X1024Y297D01*
X1893Y297D02*
X1900Y297D01*
X12Y296D02*
X19Y296D01*
X1015Y296D02*
X1024Y296D01*
X1893Y296D02*
X1900Y296D01*
X12Y295D02*
X19Y295D01*
X1015Y295D02*
X1024Y295D01*
X1893Y295D02*
X1900Y295D01*
X13Y294D02*
X20Y294D01*
X1015Y294D02*
X1024Y294D01*
X1892Y294D02*
X1899Y294D01*
X13Y293D02*
X20Y293D01*
X1015Y293D02*
X1024Y293D01*
X1892Y293D02*
X1899Y293D01*
X13Y292D02*
X20Y292D01*
X1015Y292D02*
X1024Y292D01*
X1892Y292D02*
X1899Y292D01*
X13Y291D02*
X21Y291D01*
X1015Y291D02*
X1024Y291D01*
X1891Y291D02*
X1899Y291D01*
X14Y290D02*
X21Y290D01*
X1015Y290D02*
X1024Y290D01*
X1891Y290D02*
X1898Y290D01*
X14Y289D02*
X21Y289D01*
X1015Y289D02*
X1024Y289D01*
X1891Y289D02*
X1898Y289D01*
X14Y288D02*
X21Y288D01*
X1015Y288D02*
X1024Y288D01*
X1891Y288D02*
X1898Y288D01*
X14Y287D02*
X22Y287D01*
X1015Y287D02*
X1024Y287D01*
X1890Y287D02*
X1898Y287D01*
X15Y286D02*
X22Y286D01*
X1015Y286D02*
X1024Y286D01*
X1890Y286D02*
X1897Y286D01*
X15Y285D02*
X22Y285D01*
X1015Y285D02*
X1024Y285D01*
X1890Y285D02*
X1897Y285D01*
X15Y284D02*
X23Y284D01*
X1015Y284D02*
X1024Y284D01*
X1889Y284D02*
X1897Y284D01*
X16Y283D02*
X23Y283D01*
X1015Y283D02*
X1024Y283D01*
X1889Y283D02*
X1896Y283D01*
X16Y282D02*
X23Y282D01*
X1015Y282D02*
X1024Y282D01*
X1889Y282D02*
X1896Y282D01*
X16Y281D02*
X23Y281D01*
X1015Y281D02*
X1024Y281D01*
X1889Y281D02*
X1896Y281D01*
X17Y280D02*
X24Y280D01*
X1015Y280D02*
X1024Y280D01*
X1888Y280D02*
X1895Y280D01*
X17Y279D02*
X24Y279D01*
X1015Y279D02*
X1024Y279D01*
X1888Y279D02*
X1895Y279D01*
X17Y278D02*
X24Y278D01*
X1015Y278D02*
X1024Y278D01*
X1888Y278D02*
X1895Y278D01*
X17Y277D02*
X25Y277D01*
X1015Y277D02*
X1024Y277D01*
X1887Y277D02*
X1895Y277D01*
X18Y276D02*
X25Y276D01*
X1015Y276D02*
X1024Y276D01*
X1887Y276D02*
X1894Y276D01*
X18Y275D02*
X25Y275D01*
X1015Y275D02*
X1024Y275D01*
X1887Y275D02*
X1894Y275D01*
X18Y274D02*
X26Y274D01*
X1015Y274D02*
X1024Y274D01*
X1886Y274D02*
X1894Y274D01*
X19Y273D02*
X26Y273D01*
X1015Y273D02*
X1024Y273D01*
X1886Y273D02*
X1893Y273D01*
X19Y272D02*
X26Y272D01*
X1015Y272D02*
X1024Y272D01*
X1886Y272D02*
X1893Y272D01*
X19Y271D02*
X27Y271D01*
X1015Y271D02*
X1024Y271D01*
X1885Y271D02*
X1893Y271D01*
X20Y270D02*
X27Y270D01*
X1015Y270D02*
X1024Y270D01*
X1885Y270D02*
X1892Y270D01*
X20Y269D02*
X27Y269D01*
X1015Y269D02*
X1024Y269D01*
X1885Y269D02*
X1892Y269D01*
X20Y268D02*
X28Y268D01*
X1015Y268D02*
X1024Y268D01*
X1884Y268D02*
X1892Y268D01*
X21Y267D02*
X28Y267D01*
X1015Y267D02*
X1024Y267D01*
X1884Y267D02*
X1891Y267D01*
X21Y266D02*
X28Y266D01*
X1015Y266D02*
X1024Y266D01*
X1884Y266D02*
X1891Y266D01*
X21Y265D02*
X29Y265D01*
X1015Y265D02*
X1024Y265D01*
X1883Y265D02*
X1891Y265D01*
X22Y264D02*
X29Y264D01*
X1015Y264D02*
X1024Y264D01*
X1883Y264D02*
X1890Y264D01*
X22Y263D02*
X29Y263D01*
X1015Y263D02*
X1024Y263D01*
X1883Y263D02*
X1890Y263D01*
X22Y262D02*
X30Y262D01*
X1015Y262D02*
X1024Y262D01*
X1882Y262D02*
X1890Y262D01*
X23Y261D02*
X30Y261D01*
X1015Y261D02*
X1024Y261D01*
X1882Y261D02*
X1889Y261D01*
X23Y260D02*
X30Y260D01*
X1015Y260D02*
X1024Y260D01*
X1882Y260D02*
X1889Y260D01*
X24Y259D02*
X31Y259D01*
X1015Y259D02*
X1024Y259D01*
X1881Y259D02*
X1888Y259D01*
X24Y258D02*
X31Y258D01*
X1015Y258D02*
X1024Y258D01*
X1881Y258D02*
X1888Y258D01*
X24Y257D02*
X32Y257D01*
X1015Y257D02*
X1024Y257D01*
X1880Y257D02*
X1888Y257D01*
X25Y256D02*
X32Y256D01*
X1015Y256D02*
X1024Y256D01*
X1880Y256D02*
X1887Y256D01*
X25Y255D02*
X32Y255D01*
X1015Y255D02*
X1024Y255D01*
X1880Y255D02*
X1887Y255D01*
X25Y254D02*
X33Y254D01*
X1015Y254D02*
X1024Y254D01*
X1879Y254D02*
X1887Y254D01*
X26Y253D02*
X33Y253D01*
X1015Y253D02*
X1024Y253D01*
X1879Y253D02*
X1886Y253D01*
X26Y252D02*
X34Y252D01*
X1015Y252D02*
X1024Y252D01*
X1878Y252D02*
X1886Y252D01*
X27Y251D02*
X34Y251D01*
X1015Y251D02*
X1024Y251D01*
X1878Y251D02*
X1885Y251D01*
X27Y250D02*
X34Y250D01*
X1015Y250D02*
X1024Y250D01*
X1878Y250D02*
X1885Y250D01*
X27Y249D02*
X35Y249D01*
X1015Y249D02*
X1024Y249D01*
X1877Y249D02*
X1885Y249D01*
X28Y248D02*
X35Y248D01*
X1015Y248D02*
X1024Y248D01*
X1877Y248D02*
X1884Y248D01*
X28Y247D02*
X36Y247D01*
X1015Y247D02*
X1024Y247D01*
X1876Y247D02*
X1884Y247D01*
X29Y246D02*
X36Y246D01*
X1015Y246D02*
X1024Y246D01*
X1876Y246D02*
X1883Y246D01*
X29Y245D02*
X36Y245D01*
X1015Y245D02*
X1024Y245D01*
X1876Y245D02*
X1883Y245D01*
X29Y244D02*
X37Y244D01*
X1015Y244D02*
X1024Y244D01*
X1875Y244D02*
X1883Y244D01*
X30Y243D02*
X37Y243D01*
X1015Y243D02*
X1024Y243D01*
X1875Y243D02*
X1882Y243D01*
X30Y242D02*
X38Y242D01*
X1015Y242D02*
X1024Y242D01*
X1874Y242D02*
X1882Y242D01*
X31Y241D02*
X38Y241D01*
X1015Y241D02*
X1024Y241D01*
X1874Y241D02*
X1881Y241D01*
X31Y240D02*
X39Y240D01*
X1015Y240D02*
X1024Y240D01*
X1873Y240D02*
X1881Y240D01*
X31Y239D02*
X39Y239D01*
X1015Y239D02*
X1024Y239D01*
X1873Y239D02*
X1881Y239D01*
X32Y238D02*
X40Y238D01*
X1015Y238D02*
X1024Y238D01*
X1872Y238D02*
X1880Y238D01*
X32Y237D02*
X40Y237D01*
X1015Y237D02*
X1024Y237D01*
X1872Y237D02*
X1880Y237D01*
X33Y236D02*
X40Y236D01*
X1015Y236D02*
X1024Y236D01*
X1872Y236D02*
X1879Y236D01*
X33Y235D02*
X41Y235D01*
X1015Y235D02*
X1024Y235D01*
X1871Y235D02*
X1879Y235D01*
X34Y234D02*
X41Y234D01*
X1015Y234D02*
X1024Y234D01*
X1871Y234D02*
X1878Y234D01*
X34Y233D02*
X42Y233D01*
X1015Y233D02*
X1024Y233D01*
X1870Y233D02*
X1878Y233D01*
X35Y232D02*
X42Y232D01*
X1015Y232D02*
X1024Y232D01*
X1870Y232D02*
X1877Y232D01*
X35Y231D02*
X43Y231D01*
X1015Y231D02*
X1024Y231D01*
X1869Y231D02*
X1877Y231D01*
X36Y230D02*
X43Y230D01*
X1015Y230D02*
X1024Y230D01*
X1869Y230D02*
X1876Y230D01*
X36Y229D02*
X44Y229D01*
X1015Y229D02*
X1024Y229D01*
X1868Y229D02*
X1876Y229D01*
X36Y228D02*
X44Y228D01*
X1015Y228D02*
X1024Y228D01*
X1868Y228D02*
X1876Y228D01*
X37Y227D02*
X45Y227D01*
X1015Y227D02*
X1024Y227D01*
X1867Y227D02*
X1875Y227D01*
X37Y226D02*
X45Y226D01*
X1015Y226D02*
X1024Y226D01*
X1867Y226D02*
X1875Y226D01*
X38Y225D02*
X46Y225D01*
X1015Y225D02*
X1024Y225D01*
X1866Y225D02*
X1874Y225D01*
X38Y224D02*
X46Y224D01*
X1015Y224D02*
X1024Y224D01*
X1866Y224D02*
X1874Y224D01*
X39Y223D02*
X47Y223D01*
X1015Y223D02*
X1024Y223D01*
X1865Y223D02*
X1873Y223D01*
X39Y222D02*
X47Y222D01*
X1015Y222D02*
X1024Y222D01*
X1865Y222D02*
X1873Y222D01*
X40Y221D02*
X48Y221D01*
X1015Y221D02*
X1024Y221D01*
X1864Y221D02*
X1872Y221D01*
X40Y220D02*
X48Y220D01*
X1015Y220D02*
X1024Y220D01*
X1864Y220D02*
X1872Y220D01*
X41Y219D02*
X49Y219D01*
X1015Y219D02*
X1024Y219D01*
X1863Y219D02*
X1871Y219D01*
X41Y218D02*
X49Y218D01*
X1015Y218D02*
X1024Y218D01*
X1863Y218D02*
X1871Y218D01*
X42Y217D02*
X50Y217D01*
X1015Y217D02*
X1024Y217D01*
X1862Y217D02*
X1870Y217D01*
X42Y216D02*
X50Y216D01*
X1015Y216D02*
X1024Y216D01*
X1862Y216D02*
X1870Y216D01*
X43Y215D02*
X51Y215D01*
X1015Y215D02*
X1024Y215D01*
X1861Y215D02*
X1869Y215D01*
X43Y214D02*
X51Y214D01*
X1015Y214D02*
X1024Y214D01*
X1861Y214D02*
X1869Y214D01*
X44Y213D02*
X52Y213D01*
X1015Y213D02*
X1024Y213D01*
X1860Y213D02*
X1868Y213D01*
X44Y212D02*
X52Y212D01*
X1015Y212D02*
X1024Y212D01*
X1860Y212D02*
X1868Y212D01*
X45Y211D02*
X53Y211D01*
X1015Y211D02*
X1024Y211D01*
X1859Y211D02*
X1867Y211D01*
X45Y210D02*
X53Y210D01*
X1015Y210D02*
X1024Y210D01*
X1859Y210D02*
X1867Y210D01*
X46Y209D02*
X54Y209D01*
X1015Y209D02*
X1024Y209D01*
X1858Y209D02*
X1866Y209D01*
X47Y208D02*
X54Y208D01*
X1015Y208D02*
X1024Y208D01*
X1858Y208D02*
X1865Y208D01*
X47Y207D02*
X55Y207D01*
X1015Y207D02*
X1024Y207D01*
X1857Y207D02*
X1865Y207D01*
X48Y206D02*
X56Y206D01*
X1015Y206D02*
X1024Y206D01*
X1856Y206D02*
X1864Y206D01*
X48Y205D02*
X56Y205D01*
X1015Y205D02*
X1024Y205D01*
X1856Y205D02*
X1864Y205D01*
X49Y204D02*
X57Y204D01*
X1015Y204D02*
X1024Y204D01*
X1855Y204D02*
X1863Y204D01*
X49Y203D02*
X57Y203D01*
X1015Y203D02*
X1024Y203D01*
X1855Y203D02*
X1863Y203D01*
X50Y202D02*
X58Y202D01*
X1015Y202D02*
X1024Y202D01*
X1854Y202D02*
X1862Y202D01*
X50Y201D02*
X59Y201D01*
X1015Y201D02*
X1024Y201D01*
X1853Y201D02*
X1862Y201D01*
X51Y200D02*
X59Y200D01*
X1015Y200D02*
X1024Y200D01*
X1853Y200D02*
X1861Y200D01*
X52Y199D02*
X60Y199D01*
X1015Y199D02*
X1024Y199D01*
X1852Y199D02*
X1860Y199D01*
X52Y198D02*
X60Y198D01*
X1015Y198D02*
X1024Y198D01*
X1852Y198D02*
X1860Y198D01*
X53Y197D02*
X61Y197D01*
X1015Y197D02*
X1024Y197D01*
X1851Y197D02*
X1859Y197D01*
X53Y196D02*
X61Y196D01*
X1015Y196D02*
X1024Y196D01*
X1851Y196D02*
X1859Y196D01*
X54Y195D02*
X62Y195D01*
X1015Y195D02*
X1024Y195D01*
X1850Y195D02*
X1858Y195D01*
X55Y194D02*
X63Y194D01*
X1015Y194D02*
X1024Y194D01*
X1849Y194D02*
X1857Y194D01*
X55Y193D02*
X63Y193D01*
X1015Y193D02*
X1024Y193D01*
X1849Y193D02*
X1857Y193D01*
X56Y192D02*
X64Y192D01*
X1015Y192D02*
X1024Y192D01*
X1848Y192D02*
X1856Y192D01*
X56Y191D02*
X65Y191D01*
X1015Y191D02*
X1024Y191D01*
X1847Y191D02*
X1856Y191D01*
X57Y190D02*
X65Y190D01*
X1015Y190D02*
X1024Y190D01*
X1847Y190D02*
X1855Y190D01*
X57Y189D02*
X66Y189D01*
X1015Y189D02*
X1024Y189D01*
X1846Y189D02*
X1855Y189D01*
X58Y188D02*
X66Y188D01*
X1015Y188D02*
X1024Y188D01*
X1846Y188D02*
X1854Y188D01*
X59Y187D02*
X67Y187D01*
X1015Y187D02*
X1024Y187D01*
X1845Y187D02*
X1853Y187D01*
X59Y186D02*
X68Y186D01*
X1015Y186D02*
X1024Y186D01*
X1844Y186D02*
X1853Y186D01*
X60Y185D02*
X68Y185D01*
X1015Y185D02*
X1024Y185D01*
X1844Y185D02*
X1852Y185D01*
X61Y184D02*
X69Y184D01*
X1015Y184D02*
X1024Y184D01*
X1843Y184D02*
X1851Y184D01*
X61Y183D02*
X70Y183D01*
X1015Y183D02*
X1024Y183D01*
X1842Y183D02*
X1851Y183D01*
X62Y182D02*
X70Y182D01*
X1015Y182D02*
X1024Y182D01*
X1842Y182D02*
X1850Y182D01*
X63Y181D02*
X71Y181D01*
X1015Y181D02*
X1024Y181D01*
X1841Y181D02*
X1849Y181D01*
X63Y180D02*
X72Y180D01*
X1015Y180D02*
X1024Y180D01*
X1840Y180D02*
X1849Y180D01*
X64Y179D02*
X72Y179D01*
X1015Y179D02*
X1024Y179D01*
X1840Y179D02*
X1848Y179D01*
X65Y178D02*
X73Y178D01*
X1015Y178D02*
X1024Y178D01*
X1839Y178D02*
X1847Y178D01*
X65Y177D02*
X74Y177D01*
X1015Y177D02*
X1024Y177D01*
X1838Y177D02*
X1847Y177D01*
X66Y176D02*
X74Y176D01*
X1015Y176D02*
X1024Y176D01*
X1838Y176D02*
X1846Y176D01*
X66Y175D02*
X75Y175D01*
X1015Y175D02*
X1024Y175D01*
X1837Y175D02*
X1846Y175D01*
X67Y174D02*
X76Y174D01*
X1015Y174D02*
X1024Y174D01*
X1836Y174D02*
X1845Y174D01*
X68Y173D02*
X77Y173D01*
X1015Y173D02*
X1024Y173D01*
X1835Y173D02*
X1844Y173D01*
X69Y172D02*
X77Y172D01*
X1015Y172D02*
X1024Y172D01*
X1835Y172D02*
X1843Y172D01*
X69Y171D02*
X78Y171D01*
X1015Y171D02*
X1024Y171D01*
X1834Y171D02*
X1843Y171D01*
X70Y170D02*
X79Y170D01*
X1015Y170D02*
X1024Y170D01*
X1833Y170D02*
X1842Y170D01*
X71Y169D02*
X79Y169D01*
X1015Y169D02*
X1024Y169D01*
X1833Y169D02*
X1841Y169D01*
X71Y168D02*
X80Y168D01*
X1015Y168D02*
X1024Y168D01*
X1832Y168D02*
X1841Y168D01*
X72Y167D02*
X81Y167D01*
X1015Y167D02*
X1024Y167D01*
X1831Y167D02*
X1840Y167D01*
X73Y166D02*
X82Y166D01*
X1015Y166D02*
X1024Y166D01*
X1830Y166D02*
X1839Y166D01*
X74Y165D02*
X82Y165D01*
X1015Y165D02*
X1024Y165D01*
X1830Y165D02*
X1838Y165D01*
X74Y164D02*
X83Y164D01*
X1015Y164D02*
X1024Y164D01*
X1829Y164D02*
X1838Y164D01*
X75Y163D02*
X84Y163D01*
X1015Y163D02*
X1024Y163D01*
X1828Y163D02*
X1837Y163D01*
X76Y162D02*
X85Y162D01*
X1015Y162D02*
X1024Y162D01*
X1827Y162D02*
X1836Y162D01*
X76Y161D02*
X85Y161D01*
X1015Y161D02*
X1024Y161D01*
X1827Y161D02*
X1836Y161D01*
X77Y160D02*
X86Y160D01*
X1015Y160D02*
X1024Y160D01*
X1826Y160D02*
X1835Y160D01*
X78Y159D02*
X87Y159D01*
X1015Y159D02*
X1024Y159D01*
X1825Y159D02*
X1834Y159D01*
X79Y158D02*
X88Y158D01*
X1015Y158D02*
X1024Y158D01*
X1824Y158D02*
X1833Y158D01*
X79Y157D02*
X89Y157D01*
X1015Y157D02*
X1024Y157D01*
X1823Y157D02*
X1833Y157D01*
X80Y156D02*
X89Y156D01*
X1015Y156D02*
X1024Y156D01*
X1823Y156D02*
X1832Y156D01*
X81Y155D02*
X90Y155D01*
X1015Y155D02*
X1024Y155D01*
X1822Y155D02*
X1831Y155D01*
X82Y154D02*
X91Y154D01*
X1015Y154D02*
X1024Y154D01*
X1821Y154D02*
X1830Y154D01*
X83Y153D02*
X92Y153D01*
X1015Y153D02*
X1024Y153D01*
X1820Y153D02*
X1829Y153D01*
X83Y152D02*
X93Y152D01*
X1015Y152D02*
X1024Y152D01*
X1819Y152D02*
X1829Y152D01*
X84Y151D02*
X93Y151D01*
X1015Y151D02*
X1024Y151D01*
X1819Y151D02*
X1828Y151D01*
X85Y150D02*
X94Y150D01*
X1015Y150D02*
X1024Y150D01*
X1818Y150D02*
X1827Y150D01*
X86Y149D02*
X95Y149D01*
X1015Y149D02*
X1024Y149D01*
X1817Y149D02*
X1826Y149D01*
X87Y148D02*
X96Y148D01*
X1015Y148D02*
X1024Y148D01*
X1816Y148D02*
X1825Y148D01*
X87Y147D02*
X97Y147D01*
X1015Y147D02*
X1024Y147D01*
X1815Y147D02*
X1825Y147D01*
X88Y146D02*
X98Y146D01*
X1015Y146D02*
X1024Y146D01*
X1814Y146D02*
X1824Y146D01*
X89Y145D02*
X98Y145D01*
X1015Y145D02*
X1024Y145D01*
X1814Y145D02*
X1823Y145D01*
X90Y144D02*
X99Y144D01*
X1015Y144D02*
X1024Y144D01*
X1813Y144D02*
X1822Y144D01*
X91Y143D02*
X100Y143D01*
X1015Y143D02*
X1024Y143D01*
X1812Y143D02*
X1821Y143D01*
X91Y142D02*
X101Y142D01*
X1015Y142D02*
X1024Y142D01*
X1811Y142D02*
X1821Y142D01*
X92Y141D02*
X102Y141D01*
X1015Y141D02*
X1024Y141D01*
X1810Y141D02*
X1820Y141D01*
X93Y140D02*
X103Y140D01*
X1015Y140D02*
X1024Y140D01*
X1809Y140D02*
X1819Y140D01*
X94Y139D02*
X104Y139D01*
X1015Y139D02*
X1024Y139D01*
X1808Y139D02*
X1818Y139D01*
X95Y138D02*
X105Y138D01*
X1015Y138D02*
X1024Y138D01*
X1807Y138D02*
X1817Y138D01*
X96Y137D02*
X105Y137D01*
X1015Y137D02*
X1024Y137D01*
X1807Y137D02*
X1816Y137D01*
X97Y136D02*
X106Y136D01*
X1015Y136D02*
X1024Y136D01*
X1806Y136D02*
X1815Y136D01*
X98Y135D02*
X107Y135D01*
X1015Y135D02*
X1024Y135D01*
X1805Y135D02*
X1814Y135D01*
X98Y134D02*
X108Y134D01*
X1015Y134D02*
X1024Y134D01*
X1804Y134D02*
X1814Y134D01*
X99Y133D02*
X109Y133D01*
X1015Y133D02*
X1024Y133D01*
X1803Y133D02*
X1813Y133D01*
X100Y132D02*
X110Y132D01*
X1015Y132D02*
X1024Y132D01*
X1802Y132D02*
X1812Y132D01*
X101Y131D02*
X111Y131D01*
X1015Y131D02*
X1024Y131D01*
X1801Y131D02*
X1811Y131D01*
X102Y130D02*
X112Y130D01*
X1015Y130D02*
X1024Y130D01*
X1800Y130D02*
X1810Y130D01*
X103Y129D02*
X113Y129D01*
X1015Y129D02*
X1024Y129D01*
X1799Y129D02*
X1809Y129D01*
X104Y128D02*
X114Y128D01*
X1015Y128D02*
X1024Y128D01*
X1798Y128D02*
X1808Y128D01*
X105Y127D02*
X115Y127D01*
X1015Y127D02*
X1024Y127D01*
X1797Y127D02*
X1807Y127D01*
X106Y126D02*
X116Y126D01*
X1015Y126D02*
X1024Y126D01*
X1796Y126D02*
X1806Y126D01*
X107Y125D02*
X117Y125D01*
X1015Y125D02*
X1024Y125D01*
X1795Y125D02*
X1805Y125D01*
X108Y124D02*
X118Y124D01*
X1015Y124D02*
X1024Y124D01*
X1794Y124D02*
X1804Y124D01*
X109Y123D02*
X119Y123D01*
X1015Y123D02*
X1024Y123D01*
X1793Y123D02*
X1803Y123D01*
X110Y122D02*
X120Y122D01*
X1015Y122D02*
X1024Y122D01*
X1792Y122D02*
X1802Y122D01*
X111Y121D02*
X121Y121D01*
X1015Y121D02*
X1024Y121D01*
X1791Y121D02*
X1801Y121D01*
X111Y120D02*
X122Y120D01*
X1015Y120D02*
X1024Y120D01*
X1790Y120D02*
X1801Y120D01*
X112Y119D02*
X123Y119D01*
X1015Y119D02*
X1024Y119D01*
X1789Y119D02*
X1800Y119D01*
X113Y118D02*
X124Y118D01*
X1015Y118D02*
X1024Y118D01*
X1788Y118D02*
X1799Y118D01*
X114Y117D02*
X125Y117D01*
X1015Y117D02*
X1024Y117D01*
X1787Y117D02*
X1798Y117D01*
X115Y116D02*
X126Y116D01*
X1015Y116D02*
X1024Y116D01*
X1786Y116D02*
X1797Y116D01*
X116Y115D02*
X127Y115D01*
X1015Y115D02*
X1024Y115D01*
X1785Y115D02*
X1796Y115D01*
X117Y114D02*
X128Y114D01*
X1015Y114D02*
X1024Y114D01*
X1784Y114D02*
X1795Y114D01*
X119Y113D02*
X129Y113D01*
X1015Y113D02*
X1024Y113D01*
X1783Y113D02*
X1793Y113D01*
X120Y112D02*
X130Y112D01*
X1015Y112D02*
X1024Y112D01*
X1782Y112D02*
X1792Y112D01*
X121Y111D02*
X131Y111D01*
X1015Y111D02*
X1024Y111D01*
X1781Y111D02*
X1791Y111D01*
X122Y110D02*
X132Y110D01*
X1015Y110D02*
X1024Y110D01*
X1780Y110D02*
X1790Y110D01*
X123Y109D02*
X133Y109D01*
X1015Y109D02*
X1024Y109D01*
X1779Y109D02*
X1789Y109D01*
X124Y108D02*
X135Y108D01*
X1015Y108D02*
X1024Y108D01*
X1777Y108D02*
X1788Y108D01*
X125Y107D02*
X136Y107D01*
X1015Y107D02*
X1024Y107D01*
X1776Y107D02*
X1787Y107D01*
X126Y106D02*
X137Y106D01*
X1015Y106D02*
X1024Y106D01*
X1775Y106D02*
X1786Y106D01*
X127Y105D02*
X138Y105D01*
X1015Y105D02*
X1024Y105D01*
X1774Y105D02*
X1785Y105D01*
X128Y104D02*
X139Y104D01*
X1015Y104D02*
X1024Y104D01*
X1773Y104D02*
X1784Y104D01*
X129Y103D02*
X140Y103D01*
X1015Y103D02*
X1024Y103D01*
X1772Y103D02*
X1783Y103D01*
X130Y102D02*
X142Y102D01*
X1015Y102D02*
X1024Y102D01*
X1770Y102D02*
X1782Y102D01*
X131Y101D02*
X143Y101D01*
X1015Y101D02*
X1024Y101D01*
X1769Y101D02*
X1781Y101D01*
X133Y100D02*
X144Y100D01*
X1015Y100D02*
X1024Y100D01*
X1768Y100D02*
X1779Y100D01*
X134Y99D02*
X145Y99D01*
X1015Y99D02*
X1024Y99D01*
X1767Y99D02*
X1778Y99D01*
X135Y98D02*
X146Y98D01*
X1015Y98D02*
X1024Y98D01*
X1766Y98D02*
X1777Y98D01*
X136Y97D02*
X147Y97D01*
X1015Y97D02*
X1024Y97D01*
X1765Y97D02*
X1776Y97D01*
X137Y96D02*
X149Y96D01*
X1015Y96D02*
X1024Y96D01*
X1763Y96D02*
X1775Y96D01*
X138Y95D02*
X150Y95D01*
X1015Y95D02*
X1024Y95D01*
X1762Y95D02*
X1774Y95D01*
X140Y94D02*
X151Y94D01*
X1015Y94D02*
X1024Y94D01*
X1761Y94D02*
X1772Y94D01*
X141Y93D02*
X152Y93D01*
X1015Y93D02*
X1024Y93D01*
X1760Y93D02*
X1771Y93D01*
X142Y92D02*
X154Y92D01*
X1015Y92D02*
X1024Y92D01*
X1758Y92D02*
X1770Y92D01*
X143Y91D02*
X155Y91D01*
X1015Y91D02*
X1024Y91D01*
X1757Y91D02*
X1769Y91D01*
X144Y90D02*
X156Y90D01*
X1015Y90D02*
X1024Y90D01*
X1756Y90D02*
X1768Y90D01*
X146Y89D02*
X158Y89D01*
X1015Y89D02*
X1024Y89D01*
X1754Y89D02*
X1766Y89D01*
X147Y88D02*
X159Y88D01*
X1015Y88D02*
X1024Y88D01*
X1753Y88D02*
X1765Y88D01*
X148Y87D02*
X160Y87D01*
X1015Y87D02*
X1024Y87D01*
X1752Y87D02*
X1764Y87D01*
X150Y86D02*
X161Y86D01*
X1015Y86D02*
X1024Y86D01*
X1750Y86D02*
X1762Y86D01*
X151Y85D02*
X163Y85D01*
X1015Y85D02*
X1024Y85D01*
X1749Y85D02*
X1761Y85D01*
X152Y84D02*
X164Y84D01*
X1015Y84D02*
X1024Y84D01*
X1748Y84D02*
X1760Y84D01*
X153Y83D02*
X166Y83D01*
X1015Y83D02*
X1024Y83D01*
X1746Y83D02*
X1759Y83D01*
X155Y82D02*
X167Y82D01*
X1015Y82D02*
X1024Y82D01*
X1745Y82D02*
X1757Y82D01*
X156Y81D02*
X169Y81D01*
X1015Y81D02*
X1024Y81D01*
X1743Y81D02*
X1756Y81D01*
X157Y80D02*
X170Y80D01*
X1015Y80D02*
X1024Y80D01*
X1742Y80D02*
X1755Y80D01*
X159Y79D02*
X171Y79D01*
X1015Y79D02*
X1024Y79D01*
X1741Y79D02*
X1753Y79D01*
X160Y78D02*
X173Y78D01*
X1015Y78D02*
X1024Y78D01*
X1739Y78D02*
X1752Y78D01*
X161Y77D02*
X174Y77D01*
X1015Y77D02*
X1024Y77D01*
X1738Y77D02*
X1751Y77D01*
X163Y76D02*
X176Y76D01*
X1015Y76D02*
X1024Y76D01*
X1736Y76D02*
X1749Y76D01*
X164Y75D02*
X177Y75D01*
X1015Y75D02*
X1024Y75D01*
X1735Y75D02*
X1748Y75D01*
X166Y74D02*
X179Y74D01*
X1015Y74D02*
X1024Y74D01*
X1733Y74D02*
X1746Y74D01*
X167Y73D02*
X180Y73D01*
X1015Y73D02*
X1024Y73D01*
X1732Y73D02*
X1745Y73D01*
X169Y72D02*
X182Y72D01*
X1015Y72D02*
X1024Y72D01*
X1730Y72D02*
X1743Y72D01*
X170Y71D02*
X183Y71D01*
X1015Y71D02*
X1024Y71D01*
X1729Y71D02*
X1742Y71D01*
X171Y70D02*
X185Y70D01*
X1015Y70D02*
X1024Y70D01*
X1727Y70D02*
X1741Y70D01*
X173Y69D02*
X186Y69D01*
X1015Y69D02*
X1024Y69D01*
X1726Y69D02*
X1739Y69D01*
X174Y68D02*
X188Y68D01*
X1015Y68D02*
X1024Y68D01*
X1724Y68D02*
X1738Y68D01*
X176Y67D02*
X190Y67D01*
X1015Y67D02*
X1024Y67D01*
X1722Y67D02*
X1736Y67D01*
X177Y66D02*
X191Y66D01*
X1015Y66D02*
X1024Y66D01*
X1721Y66D02*
X1735Y66D01*
X179Y65D02*
X193Y65D01*
X1015Y65D02*
X1024Y65D01*
X1719Y65D02*
X1733Y65D01*
X181Y64D02*
X194Y64D01*
X1015Y64D02*
X1024Y64D01*
X1718Y64D02*
X1731Y64D01*
X182Y63D02*
X196Y63D01*
X1015Y63D02*
X1024Y63D01*
X1716Y63D02*
X1730Y63D01*
X184Y62D02*
X198Y62D01*
X1015Y62D02*
X1024Y62D01*
X1714Y62D02*
X1728Y62D01*
X185Y61D02*
X200Y61D01*
X1015Y61D02*
X1024Y61D01*
X1712Y61D02*
X1727Y61D01*
X187Y60D02*
X201Y60D01*
X1015Y60D02*
X1024Y60D01*
X1711Y60D02*
X1725Y60D01*
X188Y59D02*
X203Y59D01*
X1015Y59D02*
X1024Y59D01*
X1709Y59D02*
X1724Y59D01*
X190Y58D02*
X205Y58D01*
X1015Y58D02*
X1024Y58D01*
X1707Y58D02*
X1722Y58D01*
X192Y57D02*
X207Y57D01*
X1015Y57D02*
X1024Y57D01*
X1705Y57D02*
X1720Y57D01*
X194Y56D02*
X209Y56D01*
X1015Y56D02*
X1024Y56D01*
X1703Y56D02*
X1718Y56D01*
X195Y55D02*
X210Y55D01*
X1015Y55D02*
X1024Y55D01*
X1702Y55D02*
X1717Y55D01*
X197Y54D02*
X212Y54D01*
X1015Y54D02*
X1024Y54D01*
X1700Y54D02*
X1715Y54D01*
X199Y53D02*
X214Y53D01*
X1015Y53D02*
X1024Y53D01*
X1698Y53D02*
X1713Y53D01*
X201Y52D02*
X216Y52D01*
X1015Y52D02*
X1024Y52D01*
X1696Y52D02*
X1711Y52D01*
X202Y51D02*
X218Y51D01*
X1015Y51D02*
X1024Y51D01*
X1694Y51D02*
X1710Y51D01*
X204Y50D02*
X220Y50D01*
X1015Y50D02*
X1024Y50D01*
X1692Y50D02*
X1708Y50D01*
X206Y49D02*
X222Y49D01*
X1015Y49D02*
X1024Y49D01*
X1690Y49D02*
X1706Y49D01*
X208Y48D02*
X224Y48D01*
X1015Y48D02*
X1024Y48D01*
X1688Y48D02*
X1704Y48D01*
X210Y47D02*
X226Y47D01*
X1015Y47D02*
X1024Y47D01*
X1686Y47D02*
X1702Y47D01*
X212Y46D02*
X228Y46D01*
X1015Y46D02*
X1024Y46D01*
X1684Y46D02*
X1700Y46D01*
X214Y45D02*
X231Y45D01*
X1015Y45D02*
X1024Y45D01*
X1681Y45D02*
X1698Y45D01*
X216Y44D02*
X233Y44D01*
X1015Y44D02*
X1024Y44D01*
X1679Y44D02*
X1696Y44D01*
X218Y43D02*
X235Y43D01*
X1015Y43D02*
X1024Y43D01*
X1677Y43D02*
X1694Y43D01*
X220Y42D02*
X237Y42D01*
X1015Y42D02*
X1024Y42D01*
X1675Y42D02*
X1692Y42D01*
X222Y41D02*
X240Y41D01*
X1672Y41D02*
X1690Y41D01*
X224Y40D02*
X242Y40D01*
X1670Y40D02*
X1688Y40D01*
X226Y39D02*
X244Y39D01*
X1668Y39D02*
X1686Y39D01*
X228Y38D02*
X247Y38D01*
X1665Y38D02*
X1684Y38D01*
X230Y37D02*
X249Y37D01*
X1663Y37D02*
X1682Y37D01*
X233Y36D02*
X252Y36D01*
X1660Y36D02*
X1679Y36D01*
X235Y35D02*
X255Y35D01*
X1657Y35D02*
X1677Y35D01*
X237Y34D02*
X257Y34D01*
X1655Y34D02*
X1675Y34D01*
X239Y33D02*
X260Y33D01*
X1652Y33D02*
X1673Y33D01*
X242Y32D02*
X262Y32D01*
X1650Y32D02*
X1670Y32D01*
X244Y31D02*
X265Y31D01*
X1647Y31D02*
X1668Y31D01*
X247Y30D02*
X268Y30D01*
X1644Y30D02*
X1665Y30D01*
X249Y29D02*
X271Y29D01*
X1641Y29D02*
X1663Y29D01*
X252Y28D02*
X274Y28D01*
X1638Y28D02*
X1660Y28D01*
X254Y27D02*
X277Y27D01*
X1635Y27D02*
X1658Y27D01*
X257Y26D02*
X281Y26D01*
X1631Y26D02*
X1655Y26D01*
X260Y25D02*
X284Y25D01*
X1628Y25D02*
X1652Y25D01*
X263Y24D02*
X288Y24D01*
X1624Y24D02*
X1649Y24D01*
X266Y23D02*
X291Y23D01*
X1621Y23D02*
X1646Y23D01*
X269Y22D02*
X295Y22D01*
X1617Y22D02*
X1643Y22D01*
X272Y21D02*
X299Y21D01*
X1613Y21D02*
X1640Y21D01*
X275Y20D02*
X303Y20D01*
X1609Y20D02*
X1637Y20D01*
X278Y19D02*
X307Y19D01*
X1605Y19D02*
X1634Y19D01*
X281Y18D02*
X312Y18D01*
X1600Y18D02*
X1631Y18D01*
X284Y17D02*
X317Y17D01*
X1595Y17D02*
X1628Y17D01*
X288Y16D02*
X322Y16D01*
X1590Y16D02*
X1624Y16D01*
X292Y15D02*
X328Y15D01*
X1584Y15D02*
X1620Y15D01*
X295Y14D02*
X334Y14D01*
X1578Y14D02*
X1617Y14D01*
X299Y13D02*
X341Y13D01*
X1571Y13D02*
X1613Y13D01*
X304Y12D02*
X349Y12D01*
X1563Y12D02*
X1608Y12D01*
X308Y11D02*
X359Y11D01*
X1553Y11D02*
X1604Y11D01*
X313Y10D02*
X374Y10D01*
X1538Y10D02*
X1599Y10D01*
X317Y9D02*
X1595Y9D01*
X323Y8D02*
X1589Y8D01*
X328Y7D02*
X1584Y7D01*
X335Y6D02*
X1577Y6D01*
X342Y5D02*
X1570Y5D01*
X350Y4D02*
X1562Y4D01*
X360Y3D02*
X1552Y3D01*
X375Y2D02*
X1537Y2D01*
D02*
G04 End of Silk0*
M02*