G04 MADE WITH FRITZING*
G04 WWW.FRITZING.ORG*
G04 DOUBLE SIDED*
G04 HOLES PLATED*
G04 CONTOUR ON CENTER OF CONTOUR VECTOR*
%ASAXBY*%
%FSLAX23Y23*%
%MOIN*%
%OFA0B0*%
%SFA1.0B1.0*%
%ADD10C,0.078000*%
%ADD11C,0.075433*%
%ADD12C,0.075000*%
%ADD13C,0.080000*%
%ADD14R,0.075000X0.075000*%
%ADD15R,0.080000X0.080000*%
%LNCOPPER1*%
G90*
G70*
G54D10*
X317Y1470D03*
X417Y1470D03*
X517Y1470D03*
X617Y1470D03*
X717Y1470D03*
X817Y1470D03*
X917Y1470D03*
X1017Y1470D03*
X1117Y1470D03*
X1217Y1470D03*
X1317Y1470D03*
X1417Y1470D03*
X1517Y1470D03*
X317Y1470D03*
X417Y1470D03*
X517Y1470D03*
X617Y1470D03*
X717Y1470D03*
X817Y1470D03*
X917Y1470D03*
X1017Y1470D03*
X1117Y1470D03*
X1217Y1470D03*
X1317Y1470D03*
X1417Y1470D03*
X1517Y1470D03*
X1517Y1570D03*
X1417Y1570D03*
X1317Y1570D03*
X1217Y1570D03*
X1117Y1570D03*
X1017Y1570D03*
X917Y1570D03*
X817Y1570D03*
X717Y1570D03*
X617Y1570D03*
X517Y1570D03*
X417Y1570D03*
X317Y1570D03*
G54D11*
X1267Y870D03*
G54D12*
X717Y1220D03*
X1017Y1220D03*
X717Y1120D03*
X1017Y1120D03*
X717Y1020D03*
X1017Y1020D03*
X717Y920D03*
X1017Y920D03*
X717Y820D03*
X1017Y820D03*
X717Y720D03*
X1017Y720D03*
X717Y620D03*
X1017Y620D03*
X717Y520D03*
X1017Y520D03*
G54D11*
X1267Y720D03*
X517Y870D03*
X517Y720D03*
X767Y320D03*
X917Y320D03*
G54D13*
X1567Y970D03*
X1567Y774D03*
X1567Y970D03*
X1567Y774D03*
X367Y970D03*
X367Y774D03*
X367Y970D03*
X367Y774D03*
X917Y220D03*
X720Y220D03*
X917Y220D03*
X720Y220D03*
G54D14*
X717Y1220D03*
G54D15*
X1567Y970D03*
X1567Y970D03*
X367Y970D03*
X367Y970D03*
X917Y220D03*
X917Y220D03*
G04 End of Copper1*
M02*