G04 MADE WITH FRITZING*
G04 WWW.FRITZING.ORG*
G04 DOUBLE SIDED*
G04 HOLES PLATED*
G04 CONTOUR ON CENTER OF CONTOUR VECTOR*
%ASAXBY*%
%FSLAX23Y23*%
%MOIN*%
%OFA0B0*%
%SFA1.0B1.0*%
%ADD10C,0.010000*%
%ADD11R,0.001000X0.001000*%
%LNSILK1*%
G90*
G70*
G54D10*
X267Y1420D02*
X1567Y1420D01*
D02*
X1567Y1420D02*
X1567Y1620D01*
D02*
X1567Y1620D02*
X267Y1620D01*
D02*
X267Y1620D02*
X267Y1420D01*
D02*
X667Y1270D02*
X667Y470D01*
D02*
X667Y470D02*
X1067Y470D01*
D02*
X1067Y470D02*
X1067Y1270D01*
D02*
X667Y1270D02*
X817Y1270D01*
D02*
X917Y1270D02*
X1067Y1270D01*
G54D11*
X375Y1893D02*
X1537Y1893D01*
X360Y1892D02*
X1552Y1892D01*
X350Y1891D02*
X1562Y1891D01*
X342Y1890D02*
X1570Y1890D01*
X335Y1889D02*
X1577Y1889D01*
X328Y1888D02*
X1584Y1888D01*
X323Y1887D02*
X1589Y1887D01*
X317Y1886D02*
X1595Y1886D01*
X313Y1885D02*
X374Y1885D01*
X1538Y1885D02*
X1599Y1885D01*
X308Y1884D02*
X359Y1884D01*
X1553Y1884D02*
X1604Y1884D01*
X304Y1883D02*
X349Y1883D01*
X1563Y1883D02*
X1608Y1883D01*
X299Y1882D02*
X341Y1882D01*
X1571Y1882D02*
X1613Y1882D01*
X295Y1881D02*
X334Y1881D01*
X1578Y1881D02*
X1617Y1881D01*
X292Y1880D02*
X328Y1880D01*
X1584Y1880D02*
X1620Y1880D01*
X288Y1879D02*
X322Y1879D01*
X1590Y1879D02*
X1624Y1879D01*
X284Y1878D02*
X317Y1878D01*
X1595Y1878D02*
X1628Y1878D01*
X281Y1877D02*
X312Y1877D01*
X1600Y1877D02*
X1631Y1877D01*
X278Y1876D02*
X307Y1876D01*
X1605Y1876D02*
X1634Y1876D01*
X275Y1875D02*
X303Y1875D01*
X1609Y1875D02*
X1637Y1875D01*
X272Y1874D02*
X299Y1874D01*
X1613Y1874D02*
X1640Y1874D01*
X269Y1873D02*
X295Y1873D01*
X1617Y1873D02*
X1643Y1873D01*
X266Y1872D02*
X291Y1872D01*
X1621Y1872D02*
X1646Y1872D01*
X263Y1871D02*
X287Y1871D01*
X1625Y1871D02*
X1649Y1871D01*
X260Y1870D02*
X284Y1870D01*
X1628Y1870D02*
X1652Y1870D01*
X257Y1869D02*
X281Y1869D01*
X1631Y1869D02*
X1655Y1869D01*
X254Y1868D02*
X277Y1868D01*
X1635Y1868D02*
X1658Y1868D01*
X252Y1867D02*
X274Y1867D01*
X1638Y1867D02*
X1660Y1867D01*
X249Y1866D02*
X271Y1866D01*
X1641Y1866D02*
X1663Y1866D01*
X247Y1865D02*
X268Y1865D01*
X1644Y1865D02*
X1665Y1865D01*
X244Y1864D02*
X265Y1864D01*
X1647Y1864D02*
X1668Y1864D01*
X242Y1863D02*
X262Y1863D01*
X1650Y1863D02*
X1670Y1863D01*
X239Y1862D02*
X260Y1862D01*
X1652Y1862D02*
X1673Y1862D01*
X237Y1861D02*
X257Y1861D01*
X1655Y1861D02*
X1675Y1861D01*
X235Y1860D02*
X254Y1860D01*
X1658Y1860D02*
X1677Y1860D01*
X233Y1859D02*
X252Y1859D01*
X1660Y1859D02*
X1679Y1859D01*
X230Y1858D02*
X249Y1858D01*
X1663Y1858D02*
X1682Y1858D01*
X228Y1857D02*
X247Y1857D01*
X1665Y1857D02*
X1684Y1857D01*
X226Y1856D02*
X244Y1856D01*
X1668Y1856D02*
X1686Y1856D01*
X224Y1855D02*
X242Y1855D01*
X1670Y1855D02*
X1688Y1855D01*
X222Y1854D02*
X240Y1854D01*
X1672Y1854D02*
X1690Y1854D01*
X220Y1853D02*
X237Y1853D01*
X1675Y1853D02*
X1692Y1853D01*
X218Y1852D02*
X235Y1852D01*
X1677Y1852D02*
X1694Y1852D01*
X216Y1851D02*
X233Y1851D01*
X1679Y1851D02*
X1696Y1851D01*
X214Y1850D02*
X231Y1850D01*
X1681Y1850D02*
X1698Y1850D01*
X212Y1849D02*
X228Y1849D01*
X1684Y1849D02*
X1700Y1849D01*
X210Y1848D02*
X226Y1848D01*
X1686Y1848D02*
X1702Y1848D01*
X208Y1847D02*
X224Y1847D01*
X1688Y1847D02*
X1704Y1847D01*
X206Y1846D02*
X222Y1846D01*
X1690Y1846D02*
X1706Y1846D01*
X204Y1845D02*
X220Y1845D01*
X1692Y1845D02*
X1708Y1845D01*
X202Y1844D02*
X218Y1844D01*
X1694Y1844D02*
X1710Y1844D01*
X201Y1843D02*
X216Y1843D01*
X1696Y1843D02*
X1711Y1843D01*
X199Y1842D02*
X214Y1842D01*
X1698Y1842D02*
X1713Y1842D01*
X197Y1841D02*
X212Y1841D01*
X1700Y1841D02*
X1715Y1841D01*
X195Y1840D02*
X210Y1840D01*
X1702Y1840D02*
X1717Y1840D01*
X194Y1839D02*
X209Y1839D01*
X1703Y1839D02*
X1718Y1839D01*
X192Y1838D02*
X207Y1838D01*
X1705Y1838D02*
X1720Y1838D01*
X190Y1837D02*
X205Y1837D01*
X1707Y1837D02*
X1722Y1837D01*
X188Y1836D02*
X203Y1836D01*
X1709Y1836D02*
X1724Y1836D01*
X187Y1835D02*
X201Y1835D01*
X1711Y1835D02*
X1725Y1835D01*
X185Y1834D02*
X200Y1834D01*
X1712Y1834D02*
X1727Y1834D01*
X184Y1833D02*
X198Y1833D01*
X1714Y1833D02*
X1728Y1833D01*
X182Y1832D02*
X196Y1832D01*
X1716Y1832D02*
X1730Y1832D01*
X181Y1831D02*
X194Y1831D01*
X1718Y1831D02*
X1731Y1831D01*
X179Y1830D02*
X193Y1830D01*
X1719Y1830D02*
X1733Y1830D01*
X177Y1829D02*
X191Y1829D01*
X1721Y1829D02*
X1735Y1829D01*
X176Y1828D02*
X190Y1828D01*
X1722Y1828D02*
X1736Y1828D01*
X174Y1827D02*
X188Y1827D01*
X1724Y1827D02*
X1738Y1827D01*
X173Y1826D02*
X186Y1826D01*
X1726Y1826D02*
X1739Y1826D01*
X171Y1825D02*
X185Y1825D01*
X1727Y1825D02*
X1741Y1825D01*
X170Y1824D02*
X183Y1824D01*
X1729Y1824D02*
X1742Y1824D01*
X169Y1823D02*
X182Y1823D01*
X1730Y1823D02*
X1743Y1823D01*
X167Y1822D02*
X180Y1822D01*
X1732Y1822D02*
X1745Y1822D01*
X166Y1821D02*
X179Y1821D01*
X1733Y1821D02*
X1746Y1821D01*
X164Y1820D02*
X177Y1820D01*
X1735Y1820D02*
X1748Y1820D01*
X163Y1819D02*
X176Y1819D01*
X1736Y1819D02*
X1749Y1819D01*
X161Y1818D02*
X174Y1818D01*
X1738Y1818D02*
X1751Y1818D01*
X160Y1817D02*
X173Y1817D01*
X1739Y1817D02*
X1752Y1817D01*
X159Y1816D02*
X171Y1816D01*
X1741Y1816D02*
X1753Y1816D01*
X157Y1815D02*
X170Y1815D01*
X1742Y1815D02*
X1755Y1815D01*
X156Y1814D02*
X169Y1814D01*
X1743Y1814D02*
X1756Y1814D01*
X155Y1813D02*
X167Y1813D01*
X1745Y1813D02*
X1757Y1813D01*
X153Y1812D02*
X166Y1812D01*
X1746Y1812D02*
X1759Y1812D01*
X152Y1811D02*
X164Y1811D01*
X1748Y1811D02*
X1760Y1811D01*
X151Y1810D02*
X163Y1810D01*
X1749Y1810D02*
X1761Y1810D01*
X150Y1809D02*
X161Y1809D01*
X1751Y1809D02*
X1762Y1809D01*
X148Y1808D02*
X160Y1808D01*
X1752Y1808D02*
X1764Y1808D01*
X147Y1807D02*
X159Y1807D01*
X1753Y1807D02*
X1765Y1807D01*
X146Y1806D02*
X158Y1806D01*
X1754Y1806D02*
X1766Y1806D01*
X144Y1805D02*
X156Y1805D01*
X1756Y1805D02*
X1768Y1805D01*
X143Y1804D02*
X155Y1804D01*
X1757Y1804D02*
X1769Y1804D01*
X142Y1803D02*
X154Y1803D01*
X1758Y1803D02*
X1770Y1803D01*
X141Y1802D02*
X152Y1802D01*
X1760Y1802D02*
X1771Y1802D01*
X140Y1801D02*
X151Y1801D01*
X1761Y1801D02*
X1772Y1801D01*
X138Y1800D02*
X150Y1800D01*
X1762Y1800D02*
X1774Y1800D01*
X137Y1799D02*
X149Y1799D01*
X1763Y1799D02*
X1775Y1799D01*
X136Y1798D02*
X147Y1798D01*
X1765Y1798D02*
X1776Y1798D01*
X135Y1797D02*
X146Y1797D01*
X1766Y1797D02*
X1777Y1797D01*
X134Y1796D02*
X145Y1796D01*
X1767Y1796D02*
X1778Y1796D01*
X133Y1795D02*
X144Y1795D01*
X1768Y1795D02*
X1779Y1795D01*
X131Y1794D02*
X143Y1794D01*
X1769Y1794D02*
X1781Y1794D01*
X130Y1793D02*
X142Y1793D01*
X1770Y1793D02*
X1782Y1793D01*
X129Y1792D02*
X140Y1792D01*
X1772Y1792D02*
X1783Y1792D01*
X128Y1791D02*
X139Y1791D01*
X1773Y1791D02*
X1784Y1791D01*
X127Y1790D02*
X138Y1790D01*
X1774Y1790D02*
X1785Y1790D01*
X126Y1789D02*
X137Y1789D01*
X1775Y1789D02*
X1786Y1789D01*
X125Y1788D02*
X136Y1788D01*
X1776Y1788D02*
X1787Y1788D01*
X124Y1787D02*
X135Y1787D01*
X1777Y1787D02*
X1788Y1787D01*
X123Y1786D02*
X133Y1786D01*
X1779Y1786D02*
X1789Y1786D01*
X122Y1785D02*
X132Y1785D01*
X1780Y1785D02*
X1790Y1785D01*
X121Y1784D02*
X131Y1784D01*
X1781Y1784D02*
X1791Y1784D01*
X120Y1783D02*
X130Y1783D01*
X1782Y1783D02*
X1792Y1783D01*
X119Y1782D02*
X129Y1782D01*
X1783Y1782D02*
X1793Y1782D01*
X117Y1781D02*
X128Y1781D01*
X1784Y1781D02*
X1795Y1781D01*
X116Y1780D02*
X127Y1780D01*
X1785Y1780D02*
X1796Y1780D01*
X115Y1779D02*
X126Y1779D01*
X1786Y1779D02*
X1797Y1779D01*
X114Y1778D02*
X125Y1778D01*
X1787Y1778D02*
X1798Y1778D01*
X113Y1777D02*
X124Y1777D01*
X1788Y1777D02*
X1799Y1777D01*
X112Y1776D02*
X123Y1776D01*
X1789Y1776D02*
X1800Y1776D01*
X111Y1775D02*
X122Y1775D01*
X1790Y1775D02*
X1801Y1775D01*
X111Y1774D02*
X121Y1774D01*
X1791Y1774D02*
X1801Y1774D01*
X110Y1773D02*
X120Y1773D01*
X1792Y1773D02*
X1802Y1773D01*
X109Y1772D02*
X119Y1772D01*
X1793Y1772D02*
X1803Y1772D01*
X108Y1771D02*
X118Y1771D01*
X1794Y1771D02*
X1804Y1771D01*
X107Y1770D02*
X117Y1770D01*
X1795Y1770D02*
X1805Y1770D01*
X106Y1769D02*
X116Y1769D01*
X1796Y1769D02*
X1806Y1769D01*
X105Y1768D02*
X115Y1768D01*
X1797Y1768D02*
X1807Y1768D01*
X104Y1767D02*
X114Y1767D01*
X1798Y1767D02*
X1808Y1767D01*
X103Y1766D02*
X113Y1766D01*
X1799Y1766D02*
X1809Y1766D01*
X102Y1765D02*
X112Y1765D01*
X1800Y1765D02*
X1810Y1765D01*
X101Y1764D02*
X111Y1764D01*
X1801Y1764D02*
X1811Y1764D01*
X100Y1763D02*
X110Y1763D01*
X1802Y1763D02*
X1812Y1763D01*
X99Y1762D02*
X109Y1762D01*
X1803Y1762D02*
X1813Y1762D01*
X98Y1761D02*
X108Y1761D01*
X1804Y1761D02*
X1814Y1761D01*
X98Y1760D02*
X107Y1760D01*
X1805Y1760D02*
X1814Y1760D01*
X97Y1759D02*
X106Y1759D01*
X1806Y1759D02*
X1815Y1759D01*
X96Y1758D02*
X105Y1758D01*
X1807Y1758D02*
X1816Y1758D01*
X95Y1757D02*
X105Y1757D01*
X1807Y1757D02*
X1817Y1757D01*
X94Y1756D02*
X104Y1756D01*
X1808Y1756D02*
X1818Y1756D01*
X93Y1755D02*
X103Y1755D01*
X1809Y1755D02*
X1819Y1755D01*
X92Y1754D02*
X102Y1754D01*
X1810Y1754D02*
X1820Y1754D01*
X91Y1753D02*
X101Y1753D01*
X1811Y1753D02*
X1821Y1753D01*
X91Y1752D02*
X100Y1752D01*
X1812Y1752D02*
X1821Y1752D01*
X90Y1751D02*
X99Y1751D01*
X1813Y1751D02*
X1822Y1751D01*
X89Y1750D02*
X98Y1750D01*
X1814Y1750D02*
X1823Y1750D01*
X88Y1749D02*
X98Y1749D01*
X1814Y1749D02*
X1824Y1749D01*
X87Y1748D02*
X97Y1748D01*
X1815Y1748D02*
X1825Y1748D01*
X87Y1747D02*
X96Y1747D01*
X1816Y1747D02*
X1825Y1747D01*
X86Y1746D02*
X95Y1746D01*
X1817Y1746D02*
X1826Y1746D01*
X85Y1745D02*
X94Y1745D01*
X1818Y1745D02*
X1827Y1745D01*
X84Y1744D02*
X93Y1744D01*
X1819Y1744D02*
X1828Y1744D01*
X83Y1743D02*
X93Y1743D01*
X1819Y1743D02*
X1829Y1743D01*
X83Y1742D02*
X92Y1742D01*
X1820Y1742D02*
X1829Y1742D01*
X82Y1741D02*
X91Y1741D01*
X1821Y1741D02*
X1830Y1741D01*
X81Y1740D02*
X90Y1740D01*
X1822Y1740D02*
X1831Y1740D01*
X80Y1739D02*
X89Y1739D01*
X1823Y1739D02*
X1832Y1739D01*
X79Y1738D02*
X89Y1738D01*
X1823Y1738D02*
X1833Y1738D01*
X79Y1737D02*
X88Y1737D01*
X1824Y1737D02*
X1833Y1737D01*
X78Y1736D02*
X87Y1736D01*
X1825Y1736D02*
X1834Y1736D01*
X77Y1735D02*
X86Y1735D01*
X1826Y1735D02*
X1835Y1735D01*
X76Y1734D02*
X85Y1734D01*
X1827Y1734D02*
X1836Y1734D01*
X76Y1733D02*
X85Y1733D01*
X1827Y1733D02*
X1836Y1733D01*
X75Y1732D02*
X84Y1732D01*
X1828Y1732D02*
X1837Y1732D01*
X74Y1731D02*
X83Y1731D01*
X1829Y1731D02*
X1838Y1731D01*
X74Y1730D02*
X82Y1730D01*
X1830Y1730D02*
X1838Y1730D01*
X73Y1729D02*
X82Y1729D01*
X1830Y1729D02*
X1839Y1729D01*
X72Y1728D02*
X81Y1728D01*
X1831Y1728D02*
X1840Y1728D01*
X71Y1727D02*
X80Y1727D01*
X1832Y1727D02*
X1841Y1727D01*
X71Y1726D02*
X79Y1726D01*
X1833Y1726D02*
X1841Y1726D01*
X70Y1725D02*
X79Y1725D01*
X1833Y1725D02*
X1842Y1725D01*
X69Y1724D02*
X78Y1724D01*
X1834Y1724D02*
X1843Y1724D01*
X69Y1723D02*
X77Y1723D01*
X1835Y1723D02*
X1843Y1723D01*
X68Y1722D02*
X77Y1722D01*
X1835Y1722D02*
X1844Y1722D01*
X67Y1721D02*
X76Y1721D01*
X1836Y1721D02*
X1845Y1721D01*
X66Y1720D02*
X75Y1720D01*
X1837Y1720D02*
X1846Y1720D01*
X66Y1719D02*
X74Y1719D01*
X1838Y1719D02*
X1846Y1719D01*
X65Y1718D02*
X74Y1718D01*
X1838Y1718D02*
X1847Y1718D01*
X65Y1717D02*
X73Y1717D01*
X1839Y1717D02*
X1847Y1717D01*
X64Y1716D02*
X72Y1716D01*
X1840Y1716D02*
X1848Y1716D01*
X63Y1715D02*
X72Y1715D01*
X1840Y1715D02*
X1849Y1715D01*
X63Y1714D02*
X71Y1714D01*
X1841Y1714D02*
X1849Y1714D01*
X62Y1713D02*
X70Y1713D01*
X1842Y1713D02*
X1850Y1713D01*
X61Y1712D02*
X70Y1712D01*
X1842Y1712D02*
X1851Y1712D01*
X61Y1711D02*
X69Y1711D01*
X1843Y1711D02*
X1851Y1711D01*
X60Y1710D02*
X68Y1710D01*
X1844Y1710D02*
X1852Y1710D01*
X59Y1709D02*
X68Y1709D01*
X1844Y1709D02*
X1853Y1709D01*
X59Y1708D02*
X67Y1708D01*
X1845Y1708D02*
X1853Y1708D01*
X58Y1707D02*
X66Y1707D01*
X1846Y1707D02*
X1854Y1707D01*
X57Y1706D02*
X66Y1706D01*
X1846Y1706D02*
X1855Y1706D01*
X57Y1705D02*
X65Y1705D01*
X1847Y1705D02*
X1855Y1705D01*
X56Y1704D02*
X65Y1704D01*
X1847Y1704D02*
X1856Y1704D01*
X56Y1703D02*
X64Y1703D01*
X1848Y1703D02*
X1856Y1703D01*
X55Y1702D02*
X63Y1702D01*
X1849Y1702D02*
X1857Y1702D01*
X55Y1701D02*
X63Y1701D01*
X1849Y1701D02*
X1857Y1701D01*
X54Y1700D02*
X62Y1700D01*
X1850Y1700D02*
X1858Y1700D01*
X53Y1699D02*
X61Y1699D01*
X1851Y1699D02*
X1859Y1699D01*
X53Y1698D02*
X61Y1698D01*
X1851Y1698D02*
X1859Y1698D01*
X52Y1697D02*
X60Y1697D01*
X1852Y1697D02*
X1860Y1697D01*
X52Y1696D02*
X60Y1696D01*
X1852Y1696D02*
X1860Y1696D01*
X51Y1695D02*
X59Y1695D01*
X1853Y1695D02*
X1861Y1695D01*
X50Y1694D02*
X59Y1694D01*
X1853Y1694D02*
X1862Y1694D01*
X50Y1693D02*
X58Y1693D01*
X1854Y1693D02*
X1862Y1693D01*
X49Y1692D02*
X57Y1692D01*
X1855Y1692D02*
X1863Y1692D01*
X49Y1691D02*
X57Y1691D01*
X1855Y1691D02*
X1863Y1691D01*
X48Y1690D02*
X56Y1690D01*
X1856Y1690D02*
X1864Y1690D01*
X48Y1689D02*
X56Y1689D01*
X1856Y1689D02*
X1864Y1689D01*
X47Y1688D02*
X55Y1688D01*
X1857Y1688D02*
X1865Y1688D01*
X47Y1687D02*
X54Y1687D01*
X1858Y1687D02*
X1865Y1687D01*
X46Y1686D02*
X54Y1686D01*
X1858Y1686D02*
X1866Y1686D01*
X45Y1685D02*
X53Y1685D01*
X1859Y1685D02*
X1867Y1685D01*
X45Y1684D02*
X53Y1684D01*
X1859Y1684D02*
X1867Y1684D01*
X44Y1683D02*
X52Y1683D01*
X1860Y1683D02*
X1868Y1683D01*
X44Y1682D02*
X52Y1682D01*
X1860Y1682D02*
X1868Y1682D01*
X43Y1681D02*
X51Y1681D01*
X1861Y1681D02*
X1869Y1681D01*
X43Y1680D02*
X51Y1680D01*
X1861Y1680D02*
X1869Y1680D01*
X42Y1679D02*
X50Y1679D01*
X1862Y1679D02*
X1870Y1679D01*
X42Y1678D02*
X50Y1678D01*
X1862Y1678D02*
X1870Y1678D01*
X41Y1677D02*
X49Y1677D01*
X1863Y1677D02*
X1871Y1677D01*
X41Y1676D02*
X49Y1676D01*
X1863Y1676D02*
X1871Y1676D01*
X40Y1675D02*
X48Y1675D01*
X1864Y1675D02*
X1872Y1675D01*
X40Y1674D02*
X48Y1674D01*
X1864Y1674D02*
X1872Y1674D01*
X39Y1673D02*
X47Y1673D01*
X1865Y1673D02*
X1873Y1673D01*
X39Y1672D02*
X47Y1672D01*
X1865Y1672D02*
X1873Y1672D01*
X38Y1671D02*
X46Y1671D01*
X1866Y1671D02*
X1874Y1671D01*
X38Y1670D02*
X46Y1670D01*
X1866Y1670D02*
X1874Y1670D01*
X37Y1669D02*
X45Y1669D01*
X1867Y1669D02*
X1875Y1669D01*
X37Y1668D02*
X45Y1668D01*
X1867Y1668D02*
X1875Y1668D01*
X36Y1667D02*
X44Y1667D01*
X1868Y1667D02*
X1876Y1667D01*
X36Y1666D02*
X44Y1666D01*
X1868Y1666D02*
X1876Y1666D01*
X36Y1665D02*
X43Y1665D01*
X1869Y1665D02*
X1876Y1665D01*
X35Y1664D02*
X43Y1664D01*
X1869Y1664D02*
X1877Y1664D01*
X35Y1663D02*
X42Y1663D01*
X1870Y1663D02*
X1877Y1663D01*
X34Y1662D02*
X42Y1662D01*
X1870Y1662D02*
X1878Y1662D01*
X34Y1661D02*
X41Y1661D01*
X1871Y1661D02*
X1878Y1661D01*
X33Y1660D02*
X41Y1660D01*
X1871Y1660D02*
X1879Y1660D01*
X33Y1659D02*
X40Y1659D01*
X1872Y1659D02*
X1879Y1659D01*
X32Y1658D02*
X40Y1658D01*
X1872Y1658D02*
X1880Y1658D01*
X32Y1657D02*
X40Y1657D01*
X1872Y1657D02*
X1880Y1657D01*
X31Y1656D02*
X39Y1656D01*
X1873Y1656D02*
X1881Y1656D01*
X31Y1655D02*
X39Y1655D01*
X1873Y1655D02*
X1881Y1655D01*
X31Y1654D02*
X38Y1654D01*
X1874Y1654D02*
X1881Y1654D01*
X30Y1653D02*
X38Y1653D01*
X1874Y1653D02*
X1882Y1653D01*
X30Y1652D02*
X37Y1652D01*
X1875Y1652D02*
X1882Y1652D01*
X29Y1651D02*
X37Y1651D01*
X1875Y1651D02*
X1883Y1651D01*
X29Y1650D02*
X36Y1650D01*
X1876Y1650D02*
X1883Y1650D01*
X29Y1649D02*
X36Y1649D01*
X1876Y1649D02*
X1883Y1649D01*
X28Y1648D02*
X36Y1648D01*
X1876Y1648D02*
X1884Y1648D01*
X28Y1647D02*
X35Y1647D01*
X1877Y1647D02*
X1884Y1647D01*
X27Y1646D02*
X35Y1646D01*
X1877Y1646D02*
X1885Y1646D01*
X27Y1645D02*
X34Y1645D01*
X1878Y1645D02*
X1885Y1645D01*
X27Y1644D02*
X34Y1644D01*
X1878Y1644D02*
X1885Y1644D01*
X26Y1643D02*
X34Y1643D01*
X1878Y1643D02*
X1886Y1643D01*
X26Y1642D02*
X33Y1642D01*
X1879Y1642D02*
X1886Y1642D01*
X25Y1641D02*
X33Y1641D01*
X1879Y1641D02*
X1887Y1641D01*
X25Y1640D02*
X32Y1640D01*
X1880Y1640D02*
X1887Y1640D01*
X25Y1639D02*
X32Y1639D01*
X1880Y1639D02*
X1887Y1639D01*
X24Y1638D02*
X32Y1638D01*
X1880Y1638D02*
X1888Y1638D01*
X24Y1637D02*
X31Y1637D01*
X1881Y1637D02*
X1888Y1637D01*
X24Y1636D02*
X31Y1636D01*
X1881Y1636D02*
X1888Y1636D01*
X23Y1635D02*
X30Y1635D01*
X1882Y1635D02*
X1889Y1635D01*
X23Y1634D02*
X30Y1634D01*
X1882Y1634D02*
X1889Y1634D01*
X22Y1633D02*
X30Y1633D01*
X1882Y1633D02*
X1890Y1633D01*
X22Y1632D02*
X29Y1632D01*
X1883Y1632D02*
X1890Y1632D01*
X22Y1631D02*
X29Y1631D01*
X1883Y1631D02*
X1890Y1631D01*
X21Y1630D02*
X29Y1630D01*
X1883Y1630D02*
X1891Y1630D01*
X21Y1629D02*
X28Y1629D01*
X1884Y1629D02*
X1891Y1629D01*
X21Y1628D02*
X28Y1628D01*
X1884Y1628D02*
X1891Y1628D01*
X20Y1627D02*
X28Y1627D01*
X1884Y1627D02*
X1892Y1627D01*
X20Y1626D02*
X27Y1626D01*
X1885Y1626D02*
X1892Y1626D01*
X20Y1625D02*
X27Y1625D01*
X1885Y1625D02*
X1892Y1625D01*
X19Y1624D02*
X27Y1624D01*
X1885Y1624D02*
X1893Y1624D01*
X19Y1623D02*
X26Y1623D01*
X1886Y1623D02*
X1893Y1623D01*
X19Y1622D02*
X26Y1622D01*
X1886Y1622D02*
X1893Y1622D01*
X18Y1621D02*
X26Y1621D01*
X1886Y1621D02*
X1894Y1621D01*
X18Y1620D02*
X25Y1620D01*
X1887Y1620D02*
X1894Y1620D01*
X18Y1619D02*
X25Y1619D01*
X1887Y1619D02*
X1894Y1619D01*
X17Y1618D02*
X25Y1618D01*
X1887Y1618D02*
X1895Y1618D01*
X17Y1617D02*
X24Y1617D01*
X1888Y1617D02*
X1895Y1617D01*
X17Y1616D02*
X24Y1616D01*
X1888Y1616D02*
X1895Y1616D01*
X17Y1615D02*
X24Y1615D01*
X1888Y1615D02*
X1895Y1615D01*
X16Y1614D02*
X23Y1614D01*
X1889Y1614D02*
X1896Y1614D01*
X16Y1613D02*
X23Y1613D01*
X1889Y1613D02*
X1896Y1613D01*
X16Y1612D02*
X23Y1612D01*
X1889Y1612D02*
X1896Y1612D01*
X15Y1611D02*
X23Y1611D01*
X1889Y1611D02*
X1897Y1611D01*
X15Y1610D02*
X22Y1610D01*
X1890Y1610D02*
X1897Y1610D01*
X15Y1609D02*
X22Y1609D01*
X1890Y1609D02*
X1897Y1609D01*
X14Y1608D02*
X22Y1608D01*
X1890Y1608D02*
X1898Y1608D01*
X14Y1607D02*
X21Y1607D01*
X1891Y1607D02*
X1898Y1607D01*
X14Y1606D02*
X21Y1606D01*
X1891Y1606D02*
X1898Y1606D01*
X14Y1605D02*
X21Y1605D01*
X1891Y1605D02*
X1898Y1605D01*
X13Y1604D02*
X21Y1604D01*
X1891Y1604D02*
X1899Y1604D01*
X13Y1603D02*
X20Y1603D01*
X1892Y1603D02*
X1899Y1603D01*
X13Y1602D02*
X20Y1602D01*
X1892Y1602D02*
X1899Y1602D01*
X13Y1601D02*
X20Y1601D01*
X1892Y1601D02*
X1899Y1601D01*
X12Y1600D02*
X19Y1600D01*
X1893Y1600D02*
X1900Y1600D01*
X12Y1599D02*
X19Y1599D01*
X1893Y1599D02*
X1900Y1599D01*
X12Y1598D02*
X19Y1598D01*
X1893Y1598D02*
X1900Y1598D01*
X12Y1597D02*
X19Y1597D01*
X1893Y1597D02*
X1900Y1597D01*
X11Y1596D02*
X18Y1596D01*
X1894Y1596D02*
X1901Y1596D01*
X11Y1595D02*
X18Y1595D01*
X1894Y1595D02*
X1901Y1595D01*
X11Y1594D02*
X18Y1594D01*
X1894Y1594D02*
X1901Y1594D01*
X11Y1593D02*
X18Y1593D01*
X1894Y1593D02*
X1901Y1593D01*
X10Y1592D02*
X17Y1592D01*
X1895Y1592D02*
X1902Y1592D01*
X10Y1591D02*
X17Y1591D01*
X1895Y1591D02*
X1902Y1591D01*
X10Y1590D02*
X17Y1590D01*
X1895Y1590D02*
X1902Y1590D01*
X10Y1589D02*
X17Y1589D01*
X1895Y1589D02*
X1902Y1589D01*
X9Y1588D02*
X16Y1588D01*
X1896Y1588D02*
X1903Y1588D01*
X9Y1587D02*
X16Y1587D01*
X1896Y1587D02*
X1903Y1587D01*
X9Y1586D02*
X16Y1586D01*
X1896Y1586D02*
X1903Y1586D01*
X9Y1585D02*
X16Y1585D01*
X1896Y1585D02*
X1903Y1585D01*
X9Y1584D02*
X16Y1584D01*
X1896Y1584D02*
X1903Y1584D01*
X8Y1583D02*
X15Y1583D01*
X1897Y1583D02*
X1904Y1583D01*
X8Y1582D02*
X15Y1582D01*
X1897Y1582D02*
X1904Y1582D01*
X8Y1581D02*
X15Y1581D01*
X1897Y1581D02*
X1904Y1581D01*
X8Y1580D02*
X15Y1580D01*
X1897Y1580D02*
X1904Y1580D01*
X7Y1579D02*
X15Y1579D01*
X1897Y1579D02*
X1905Y1579D01*
X7Y1578D02*
X14Y1578D01*
X1898Y1578D02*
X1905Y1578D01*
X7Y1577D02*
X14Y1577D01*
X1898Y1577D02*
X1905Y1577D01*
X7Y1576D02*
X14Y1576D01*
X1898Y1576D02*
X1905Y1576D01*
X7Y1575D02*
X14Y1575D01*
X1898Y1575D02*
X1905Y1575D01*
X7Y1574D02*
X14Y1574D01*
X1898Y1574D02*
X1905Y1574D01*
X6Y1573D02*
X13Y1573D01*
X1899Y1573D02*
X1906Y1573D01*
X6Y1572D02*
X13Y1572D01*
X1899Y1572D02*
X1906Y1572D01*
X6Y1571D02*
X13Y1571D01*
X1899Y1571D02*
X1906Y1571D01*
X6Y1570D02*
X13Y1570D01*
X1899Y1570D02*
X1906Y1570D01*
X6Y1569D02*
X13Y1569D01*
X1899Y1569D02*
X1906Y1569D01*
X5Y1568D02*
X13Y1568D01*
X1899Y1568D02*
X1907Y1568D01*
X5Y1567D02*
X12Y1567D01*
X1900Y1567D02*
X1907Y1567D01*
X5Y1566D02*
X12Y1566D01*
X1900Y1566D02*
X1907Y1566D01*
X5Y1565D02*
X12Y1565D01*
X1900Y1565D02*
X1907Y1565D01*
X5Y1564D02*
X12Y1564D01*
X1900Y1564D02*
X1907Y1564D01*
X5Y1563D02*
X12Y1563D01*
X1900Y1563D02*
X1907Y1563D01*
X4Y1562D02*
X12Y1562D01*
X1900Y1562D02*
X1908Y1562D01*
X4Y1561D02*
X11Y1561D01*
X1901Y1561D02*
X1908Y1561D01*
X4Y1560D02*
X11Y1560D01*
X1901Y1560D02*
X1908Y1560D01*
X4Y1559D02*
X11Y1559D01*
X1901Y1559D02*
X1908Y1559D01*
X4Y1558D02*
X11Y1558D01*
X1901Y1558D02*
X1908Y1558D01*
X4Y1557D02*
X11Y1557D01*
X1901Y1557D02*
X1908Y1557D01*
X4Y1556D02*
X11Y1556D01*
X1901Y1556D02*
X1908Y1556D01*
X3Y1555D02*
X11Y1555D01*
X1901Y1555D02*
X1909Y1555D01*
X3Y1554D02*
X10Y1554D01*
X1902Y1554D02*
X1909Y1554D01*
X3Y1553D02*
X10Y1553D01*
X1902Y1553D02*
X1909Y1553D01*
X3Y1552D02*
X10Y1552D01*
X1902Y1552D02*
X1909Y1552D01*
X3Y1551D02*
X10Y1551D01*
X1902Y1551D02*
X1909Y1551D01*
X3Y1550D02*
X10Y1550D01*
X1902Y1550D02*
X1909Y1550D01*
X3Y1549D02*
X10Y1549D01*
X1902Y1549D02*
X1909Y1549D01*
X3Y1548D02*
X10Y1548D01*
X1902Y1548D02*
X1909Y1548D01*
X2Y1547D02*
X10Y1547D01*
X1902Y1547D02*
X1910Y1547D01*
X2Y1546D02*
X9Y1546D01*
X1903Y1546D02*
X1910Y1546D01*
X2Y1545D02*
X9Y1545D01*
X1903Y1545D02*
X1910Y1545D01*
X2Y1544D02*
X9Y1544D01*
X1903Y1544D02*
X1910Y1544D01*
X2Y1543D02*
X9Y1543D01*
X1903Y1543D02*
X1910Y1543D01*
X2Y1542D02*
X9Y1542D01*
X1903Y1542D02*
X1910Y1542D01*
X2Y1541D02*
X9Y1541D01*
X1903Y1541D02*
X1910Y1541D01*
X2Y1540D02*
X9Y1540D01*
X1903Y1540D02*
X1910Y1540D01*
X2Y1539D02*
X9Y1539D01*
X1903Y1539D02*
X1910Y1539D01*
X2Y1538D02*
X9Y1538D01*
X1903Y1538D02*
X1910Y1538D01*
X1Y1537D02*
X9Y1537D01*
X1903Y1537D02*
X1911Y1537D01*
X1Y1536D02*
X8Y1536D01*
X1904Y1536D02*
X1911Y1536D01*
X1Y1535D02*
X8Y1535D01*
X1904Y1535D02*
X1911Y1535D01*
X1Y1534D02*
X8Y1534D01*
X1904Y1534D02*
X1911Y1534D01*
X1Y1533D02*
X8Y1533D01*
X1904Y1533D02*
X1911Y1533D01*
X1Y1532D02*
X8Y1532D01*
X1904Y1532D02*
X1911Y1532D01*
X1Y1531D02*
X8Y1531D01*
X1904Y1531D02*
X1911Y1531D01*
X1Y1530D02*
X8Y1530D01*
X1904Y1530D02*
X1911Y1530D01*
X1Y1529D02*
X8Y1529D01*
X1904Y1529D02*
X1911Y1529D01*
X1Y1528D02*
X8Y1528D01*
X1904Y1528D02*
X1911Y1528D01*
X1Y1527D02*
X8Y1527D01*
X1904Y1527D02*
X1911Y1527D01*
X1Y1526D02*
X8Y1526D01*
X1904Y1526D02*
X1911Y1526D01*
X1Y1525D02*
X8Y1525D01*
X1904Y1525D02*
X1911Y1525D01*
X1Y1524D02*
X8Y1524D01*
X1904Y1524D02*
X1911Y1524D01*
X0Y1523D02*
X8Y1523D01*
X1904Y1523D02*
X1912Y1523D01*
X0Y1522D02*
X7Y1522D01*
X1905Y1522D02*
X1912Y1522D01*
X0Y1521D02*
X7Y1521D01*
X1905Y1521D02*
X1912Y1521D01*
X0Y1520D02*
X7Y1520D01*
X1905Y1520D02*
X1912Y1520D01*
X0Y1519D02*
X7Y1519D01*
X1905Y1519D02*
X1912Y1519D01*
X0Y1518D02*
X7Y1518D01*
X1905Y1518D02*
X1912Y1518D01*
X0Y1517D02*
X7Y1517D01*
X1905Y1517D02*
X1912Y1517D01*
X0Y1516D02*
X7Y1516D01*
X1905Y1516D02*
X1912Y1516D01*
X0Y1515D02*
X7Y1515D01*
X1905Y1515D02*
X1912Y1515D01*
X0Y1514D02*
X7Y1514D01*
X1905Y1514D02*
X1912Y1514D01*
X0Y1513D02*
X7Y1513D01*
X1905Y1513D02*
X1912Y1513D01*
X0Y1512D02*
X7Y1512D01*
X1905Y1512D02*
X1912Y1512D01*
X0Y1511D02*
X7Y1511D01*
X1905Y1511D02*
X1912Y1511D01*
X0Y1510D02*
X7Y1510D01*
X1905Y1510D02*
X1912Y1510D01*
X0Y1509D02*
X7Y1509D01*
X1905Y1509D02*
X1912Y1509D01*
X0Y1508D02*
X7Y1508D01*
X1905Y1508D02*
X1912Y1508D01*
X0Y1507D02*
X7Y1507D01*
X1905Y1507D02*
X1912Y1507D01*
X0Y1506D02*
X7Y1506D01*
X1905Y1506D02*
X1912Y1506D01*
X0Y1505D02*
X7Y1505D01*
X1905Y1505D02*
X1912Y1505D01*
X0Y1504D02*
X7Y1504D01*
X1905Y1504D02*
X1912Y1504D01*
X0Y1503D02*
X7Y1503D01*
X1905Y1503D02*
X1912Y1503D01*
X0Y1502D02*
X7Y1502D01*
X1905Y1502D02*
X1912Y1502D01*
X0Y1501D02*
X7Y1501D01*
X1905Y1501D02*
X1912Y1501D01*
X0Y1500D02*
X7Y1500D01*
X1905Y1500D02*
X1912Y1500D01*
X0Y1499D02*
X7Y1499D01*
X1905Y1499D02*
X1912Y1499D01*
X0Y1498D02*
X7Y1498D01*
X1905Y1498D02*
X1912Y1498D01*
X0Y1497D02*
X7Y1497D01*
X1905Y1497D02*
X1912Y1497D01*
X0Y1496D02*
X7Y1496D01*
X1905Y1496D02*
X1912Y1496D01*
X0Y1495D02*
X7Y1495D01*
X1905Y1495D02*
X1912Y1495D01*
X0Y1494D02*
X7Y1494D01*
X1905Y1494D02*
X1912Y1494D01*
X0Y1493D02*
X7Y1493D01*
X1905Y1493D02*
X1912Y1493D01*
X0Y1492D02*
X7Y1492D01*
X1905Y1492D02*
X1912Y1492D01*
X0Y1491D02*
X7Y1491D01*
X1905Y1491D02*
X1912Y1491D01*
X0Y1490D02*
X7Y1490D01*
X1905Y1490D02*
X1912Y1490D01*
X0Y1489D02*
X7Y1489D01*
X1905Y1489D02*
X1912Y1489D01*
X0Y1488D02*
X7Y1488D01*
X1905Y1488D02*
X1912Y1488D01*
X0Y1487D02*
X7Y1487D01*
X1905Y1487D02*
X1912Y1487D01*
X0Y1486D02*
X7Y1486D01*
X1905Y1486D02*
X1912Y1486D01*
X0Y1485D02*
X7Y1485D01*
X1905Y1485D02*
X1912Y1485D01*
X0Y1484D02*
X7Y1484D01*
X1905Y1484D02*
X1912Y1484D01*
X0Y1483D02*
X7Y1483D01*
X1905Y1483D02*
X1912Y1483D01*
X0Y1482D02*
X7Y1482D01*
X1905Y1482D02*
X1912Y1482D01*
X0Y1481D02*
X7Y1481D01*
X1905Y1481D02*
X1912Y1481D01*
X0Y1480D02*
X7Y1480D01*
X1905Y1480D02*
X1912Y1480D01*
X0Y1479D02*
X7Y1479D01*
X1905Y1479D02*
X1912Y1479D01*
X0Y1478D02*
X7Y1478D01*
X1905Y1478D02*
X1912Y1478D01*
X0Y1477D02*
X7Y1477D01*
X1905Y1477D02*
X1912Y1477D01*
X0Y1476D02*
X7Y1476D01*
X1905Y1476D02*
X1912Y1476D01*
X0Y1475D02*
X7Y1475D01*
X1905Y1475D02*
X1912Y1475D01*
X0Y1474D02*
X7Y1474D01*
X1905Y1474D02*
X1912Y1474D01*
X0Y1473D02*
X7Y1473D01*
X1905Y1473D02*
X1912Y1473D01*
X0Y1472D02*
X7Y1472D01*
X1905Y1472D02*
X1912Y1472D01*
X0Y1471D02*
X7Y1471D01*
X1905Y1471D02*
X1912Y1471D01*
X0Y1470D02*
X7Y1470D01*
X1905Y1470D02*
X1912Y1470D01*
X0Y1469D02*
X7Y1469D01*
X1905Y1469D02*
X1912Y1469D01*
X0Y1468D02*
X7Y1468D01*
X1905Y1468D02*
X1912Y1468D01*
X0Y1467D02*
X7Y1467D01*
X1905Y1467D02*
X1912Y1467D01*
X0Y1466D02*
X7Y1466D01*
X1905Y1466D02*
X1912Y1466D01*
X0Y1465D02*
X7Y1465D01*
X1905Y1465D02*
X1912Y1465D01*
X0Y1464D02*
X7Y1464D01*
X1905Y1464D02*
X1912Y1464D01*
X0Y1463D02*
X7Y1463D01*
X1905Y1463D02*
X1912Y1463D01*
X0Y1462D02*
X7Y1462D01*
X1905Y1462D02*
X1912Y1462D01*
X0Y1461D02*
X7Y1461D01*
X1905Y1461D02*
X1912Y1461D01*
X0Y1460D02*
X7Y1460D01*
X1905Y1460D02*
X1912Y1460D01*
X0Y1459D02*
X7Y1459D01*
X1905Y1459D02*
X1912Y1459D01*
X0Y1458D02*
X7Y1458D01*
X1905Y1458D02*
X1912Y1458D01*
X0Y1457D02*
X7Y1457D01*
X267Y1457D02*
X269Y1457D01*
X1905Y1457D02*
X1912Y1457D01*
X0Y1456D02*
X7Y1456D01*
X266Y1456D02*
X270Y1456D01*
X1905Y1456D02*
X1912Y1456D01*
X0Y1455D02*
X7Y1455D01*
X265Y1455D02*
X271Y1455D01*
X1905Y1455D02*
X1912Y1455D01*
X0Y1454D02*
X7Y1454D01*
X265Y1454D02*
X272Y1454D01*
X1905Y1454D02*
X1912Y1454D01*
X0Y1453D02*
X7Y1453D01*
X266Y1453D02*
X273Y1453D01*
X1905Y1453D02*
X1912Y1453D01*
X0Y1452D02*
X7Y1452D01*
X267Y1452D02*
X274Y1452D01*
X1905Y1452D02*
X1912Y1452D01*
X0Y1451D02*
X7Y1451D01*
X268Y1451D02*
X275Y1451D01*
X1905Y1451D02*
X1912Y1451D01*
X0Y1450D02*
X7Y1450D01*
X269Y1450D02*
X276Y1450D01*
X1905Y1450D02*
X1912Y1450D01*
X0Y1449D02*
X7Y1449D01*
X270Y1449D02*
X277Y1449D01*
X1905Y1449D02*
X1912Y1449D01*
X0Y1448D02*
X7Y1448D01*
X271Y1448D02*
X278Y1448D01*
X1905Y1448D02*
X1912Y1448D01*
X0Y1447D02*
X7Y1447D01*
X272Y1447D02*
X279Y1447D01*
X1905Y1447D02*
X1912Y1447D01*
X0Y1446D02*
X7Y1446D01*
X273Y1446D02*
X280Y1446D01*
X1905Y1446D02*
X1912Y1446D01*
X0Y1445D02*
X7Y1445D01*
X274Y1445D02*
X281Y1445D01*
X1905Y1445D02*
X1912Y1445D01*
X0Y1444D02*
X7Y1444D01*
X275Y1444D02*
X281Y1444D01*
X1905Y1444D02*
X1912Y1444D01*
X0Y1443D02*
X7Y1443D01*
X276Y1443D02*
X282Y1443D01*
X1905Y1443D02*
X1912Y1443D01*
X0Y1442D02*
X7Y1442D01*
X277Y1442D02*
X283Y1442D01*
X1905Y1442D02*
X1912Y1442D01*
X0Y1441D02*
X7Y1441D01*
X278Y1441D02*
X284Y1441D01*
X1905Y1441D02*
X1912Y1441D01*
X0Y1440D02*
X7Y1440D01*
X279Y1440D02*
X285Y1440D01*
X1905Y1440D02*
X1912Y1440D01*
X0Y1439D02*
X7Y1439D01*
X280Y1439D02*
X286Y1439D01*
X1905Y1439D02*
X1912Y1439D01*
X0Y1438D02*
X7Y1438D01*
X281Y1438D02*
X287Y1438D01*
X1905Y1438D02*
X1912Y1438D01*
X0Y1437D02*
X7Y1437D01*
X282Y1437D02*
X288Y1437D01*
X1905Y1437D02*
X1912Y1437D01*
X0Y1436D02*
X7Y1436D01*
X283Y1436D02*
X290Y1436D01*
X1905Y1436D02*
X1912Y1436D01*
X0Y1435D02*
X7Y1435D01*
X284Y1435D02*
X291Y1435D01*
X1905Y1435D02*
X1912Y1435D01*
X0Y1434D02*
X7Y1434D01*
X285Y1434D02*
X292Y1434D01*
X1905Y1434D02*
X1912Y1434D01*
X0Y1433D02*
X7Y1433D01*
X286Y1433D02*
X293Y1433D01*
X1905Y1433D02*
X1912Y1433D01*
X0Y1432D02*
X7Y1432D01*
X287Y1432D02*
X294Y1432D01*
X1905Y1432D02*
X1912Y1432D01*
X0Y1431D02*
X7Y1431D01*
X288Y1431D02*
X295Y1431D01*
X1905Y1431D02*
X1912Y1431D01*
X0Y1430D02*
X7Y1430D01*
X289Y1430D02*
X296Y1430D01*
X1905Y1430D02*
X1912Y1430D01*
X0Y1429D02*
X7Y1429D01*
X290Y1429D02*
X297Y1429D01*
X1905Y1429D02*
X1912Y1429D01*
X0Y1428D02*
X7Y1428D01*
X291Y1428D02*
X298Y1428D01*
X1905Y1428D02*
X1912Y1428D01*
X0Y1427D02*
X7Y1427D01*
X292Y1427D02*
X299Y1427D01*
X1905Y1427D02*
X1912Y1427D01*
X0Y1426D02*
X7Y1426D01*
X293Y1426D02*
X300Y1426D01*
X1905Y1426D02*
X1912Y1426D01*
X0Y1425D02*
X7Y1425D01*
X294Y1425D02*
X301Y1425D01*
X1905Y1425D02*
X1912Y1425D01*
X0Y1424D02*
X7Y1424D01*
X295Y1424D02*
X302Y1424D01*
X1905Y1424D02*
X1912Y1424D01*
X0Y1423D02*
X7Y1423D01*
X296Y1423D02*
X302Y1423D01*
X1905Y1423D02*
X1912Y1423D01*
X0Y1422D02*
X7Y1422D01*
X297Y1422D02*
X301Y1422D01*
X1905Y1422D02*
X1912Y1422D01*
X0Y1421D02*
X7Y1421D01*
X298Y1421D02*
X300Y1421D01*
X1905Y1421D02*
X1912Y1421D01*
X0Y1420D02*
X7Y1420D01*
X1905Y1420D02*
X1912Y1420D01*
X0Y1419D02*
X7Y1419D01*
X1905Y1419D02*
X1912Y1419D01*
X0Y1418D02*
X7Y1418D01*
X1905Y1418D02*
X1912Y1418D01*
X0Y1417D02*
X7Y1417D01*
X1905Y1417D02*
X1912Y1417D01*
X0Y1416D02*
X7Y1416D01*
X1905Y1416D02*
X1912Y1416D01*
X0Y1415D02*
X7Y1415D01*
X1905Y1415D02*
X1912Y1415D01*
X0Y1414D02*
X7Y1414D01*
X1905Y1414D02*
X1912Y1414D01*
X0Y1413D02*
X7Y1413D01*
X1905Y1413D02*
X1912Y1413D01*
X0Y1412D02*
X7Y1412D01*
X1905Y1412D02*
X1912Y1412D01*
X0Y1411D02*
X7Y1411D01*
X1905Y1411D02*
X1912Y1411D01*
X0Y1410D02*
X7Y1410D01*
X1905Y1410D02*
X1912Y1410D01*
X0Y1409D02*
X7Y1409D01*
X1905Y1409D02*
X1912Y1409D01*
X0Y1408D02*
X7Y1408D01*
X1905Y1408D02*
X1912Y1408D01*
X0Y1407D02*
X7Y1407D01*
X1905Y1407D02*
X1912Y1407D01*
X0Y1406D02*
X7Y1406D01*
X1905Y1406D02*
X1912Y1406D01*
X0Y1405D02*
X7Y1405D01*
X1905Y1405D02*
X1912Y1405D01*
X0Y1404D02*
X7Y1404D01*
X1905Y1404D02*
X1912Y1404D01*
X0Y1403D02*
X7Y1403D01*
X1905Y1403D02*
X1912Y1403D01*
X0Y1402D02*
X7Y1402D01*
X1905Y1402D02*
X1912Y1402D01*
X0Y1401D02*
X7Y1401D01*
X1905Y1401D02*
X1912Y1401D01*
X0Y1400D02*
X7Y1400D01*
X1905Y1400D02*
X1912Y1400D01*
X0Y1399D02*
X7Y1399D01*
X1905Y1399D02*
X1912Y1399D01*
X0Y1398D02*
X7Y1398D01*
X1905Y1398D02*
X1912Y1398D01*
X0Y1397D02*
X7Y1397D01*
X1905Y1397D02*
X1912Y1397D01*
X0Y1396D02*
X7Y1396D01*
X1905Y1396D02*
X1912Y1396D01*
X0Y1395D02*
X7Y1395D01*
X1905Y1395D02*
X1912Y1395D01*
X0Y1394D02*
X7Y1394D01*
X1905Y1394D02*
X1912Y1394D01*
X0Y1393D02*
X7Y1393D01*
X1905Y1393D02*
X1912Y1393D01*
X0Y1392D02*
X7Y1392D01*
X1905Y1392D02*
X1912Y1392D01*
X0Y1391D02*
X7Y1391D01*
X1905Y1391D02*
X1912Y1391D01*
X0Y1390D02*
X7Y1390D01*
X1905Y1390D02*
X1912Y1390D01*
X0Y1389D02*
X7Y1389D01*
X1905Y1389D02*
X1912Y1389D01*
X0Y1388D02*
X7Y1388D01*
X1905Y1388D02*
X1912Y1388D01*
X0Y1387D02*
X7Y1387D01*
X1905Y1387D02*
X1912Y1387D01*
X0Y1386D02*
X7Y1386D01*
X1905Y1386D02*
X1912Y1386D01*
X0Y1385D02*
X7Y1385D01*
X1905Y1385D02*
X1912Y1385D01*
X0Y1384D02*
X7Y1384D01*
X1905Y1384D02*
X1912Y1384D01*
X0Y1383D02*
X7Y1383D01*
X1905Y1383D02*
X1912Y1383D01*
X0Y1382D02*
X7Y1382D01*
X1905Y1382D02*
X1912Y1382D01*
X0Y1381D02*
X7Y1381D01*
X1905Y1381D02*
X1912Y1381D01*
X0Y1380D02*
X7Y1380D01*
X1905Y1380D02*
X1912Y1380D01*
X0Y1379D02*
X7Y1379D01*
X1905Y1379D02*
X1912Y1379D01*
X0Y1378D02*
X7Y1378D01*
X1905Y1378D02*
X1912Y1378D01*
X0Y1377D02*
X7Y1377D01*
X1905Y1377D02*
X1912Y1377D01*
X0Y1376D02*
X7Y1376D01*
X1905Y1376D02*
X1912Y1376D01*
X0Y1375D02*
X7Y1375D01*
X1905Y1375D02*
X1912Y1375D01*
X0Y1374D02*
X7Y1374D01*
X1905Y1374D02*
X1912Y1374D01*
X0Y1373D02*
X7Y1373D01*
X1905Y1373D02*
X1912Y1373D01*
X0Y1372D02*
X7Y1372D01*
X1905Y1372D02*
X1912Y1372D01*
X0Y1371D02*
X7Y1371D01*
X1905Y1371D02*
X1912Y1371D01*
X0Y1370D02*
X7Y1370D01*
X1905Y1370D02*
X1912Y1370D01*
X0Y1369D02*
X7Y1369D01*
X1905Y1369D02*
X1912Y1369D01*
X0Y1368D02*
X7Y1368D01*
X1905Y1368D02*
X1912Y1368D01*
X0Y1367D02*
X7Y1367D01*
X1905Y1367D02*
X1912Y1367D01*
X0Y1366D02*
X7Y1366D01*
X1905Y1366D02*
X1912Y1366D01*
X0Y1365D02*
X7Y1365D01*
X1905Y1365D02*
X1912Y1365D01*
X0Y1364D02*
X7Y1364D01*
X1905Y1364D02*
X1912Y1364D01*
X0Y1363D02*
X7Y1363D01*
X1905Y1363D02*
X1912Y1363D01*
X0Y1362D02*
X7Y1362D01*
X1905Y1362D02*
X1912Y1362D01*
X0Y1361D02*
X7Y1361D01*
X1086Y1361D02*
X1116Y1361D01*
X1150Y1361D02*
X1166Y1361D01*
X1187Y1361D02*
X1204Y1361D01*
X1905Y1361D02*
X1912Y1361D01*
X0Y1360D02*
X7Y1360D01*
X1085Y1360D02*
X1117Y1360D01*
X1148Y1360D02*
X1167Y1360D01*
X1186Y1360D02*
X1204Y1360D01*
X1905Y1360D02*
X1912Y1360D01*
X0Y1359D02*
X7Y1359D01*
X1085Y1359D02*
X1118Y1359D01*
X1146Y1359D02*
X1168Y1359D01*
X1185Y1359D02*
X1204Y1359D01*
X1905Y1359D02*
X1912Y1359D01*
X0Y1358D02*
X7Y1358D01*
X1084Y1358D02*
X1118Y1358D01*
X1145Y1358D02*
X1168Y1358D01*
X1185Y1358D02*
X1204Y1358D01*
X1905Y1358D02*
X1912Y1358D01*
X0Y1357D02*
X7Y1357D01*
X1084Y1357D02*
X1118Y1357D01*
X1144Y1357D02*
X1168Y1357D01*
X1185Y1357D02*
X1204Y1357D01*
X1905Y1357D02*
X1912Y1357D01*
X0Y1356D02*
X7Y1356D01*
X1085Y1356D02*
X1117Y1356D01*
X1143Y1356D02*
X1167Y1356D01*
X1185Y1356D02*
X1204Y1356D01*
X1905Y1356D02*
X1912Y1356D01*
X0Y1355D02*
X7Y1355D01*
X1086Y1355D02*
X1116Y1355D01*
X1143Y1355D02*
X1167Y1355D01*
X1186Y1355D02*
X1204Y1355D01*
X1905Y1355D02*
X1912Y1355D01*
X0Y1354D02*
X7Y1354D01*
X1098Y1354D02*
X1104Y1354D01*
X1142Y1354D02*
X1150Y1354D01*
X1198Y1354D02*
X1204Y1354D01*
X1905Y1354D02*
X1912Y1354D01*
X0Y1353D02*
X7Y1353D01*
X1098Y1353D02*
X1104Y1353D01*
X1142Y1353D02*
X1149Y1353D01*
X1198Y1353D02*
X1204Y1353D01*
X1905Y1353D02*
X1912Y1353D01*
X0Y1352D02*
X7Y1352D01*
X1098Y1352D02*
X1104Y1352D01*
X1141Y1352D02*
X1148Y1352D01*
X1198Y1352D02*
X1204Y1352D01*
X1905Y1352D02*
X1912Y1352D01*
X0Y1351D02*
X7Y1351D01*
X1098Y1351D02*
X1104Y1351D01*
X1141Y1351D02*
X1148Y1351D01*
X1198Y1351D02*
X1204Y1351D01*
X1905Y1351D02*
X1912Y1351D01*
X0Y1350D02*
X7Y1350D01*
X1098Y1350D02*
X1104Y1350D01*
X1140Y1350D02*
X1147Y1350D01*
X1198Y1350D02*
X1204Y1350D01*
X1905Y1350D02*
X1912Y1350D01*
X0Y1349D02*
X7Y1349D01*
X1098Y1349D02*
X1104Y1349D01*
X1140Y1349D02*
X1147Y1349D01*
X1198Y1349D02*
X1204Y1349D01*
X1905Y1349D02*
X1912Y1349D01*
X0Y1348D02*
X7Y1348D01*
X1098Y1348D02*
X1104Y1348D01*
X1139Y1348D02*
X1146Y1348D01*
X1198Y1348D02*
X1204Y1348D01*
X1905Y1348D02*
X1912Y1348D01*
X0Y1347D02*
X7Y1347D01*
X1098Y1347D02*
X1104Y1347D01*
X1139Y1347D02*
X1146Y1347D01*
X1198Y1347D02*
X1204Y1347D01*
X1905Y1347D02*
X1912Y1347D01*
X0Y1346D02*
X7Y1346D01*
X1098Y1346D02*
X1104Y1346D01*
X1138Y1346D02*
X1145Y1346D01*
X1198Y1346D02*
X1204Y1346D01*
X1905Y1346D02*
X1912Y1346D01*
X0Y1345D02*
X7Y1345D01*
X1098Y1345D02*
X1104Y1345D01*
X1138Y1345D02*
X1145Y1345D01*
X1198Y1345D02*
X1204Y1345D01*
X1905Y1345D02*
X1912Y1345D01*
X0Y1344D02*
X7Y1344D01*
X1098Y1344D02*
X1104Y1344D01*
X1137Y1344D02*
X1144Y1344D01*
X1198Y1344D02*
X1204Y1344D01*
X1905Y1344D02*
X1912Y1344D01*
X0Y1343D02*
X7Y1343D01*
X1098Y1343D02*
X1104Y1343D01*
X1137Y1343D02*
X1144Y1343D01*
X1198Y1343D02*
X1204Y1343D01*
X1905Y1343D02*
X1912Y1343D01*
X0Y1342D02*
X7Y1342D01*
X1098Y1342D02*
X1104Y1342D01*
X1136Y1342D02*
X1143Y1342D01*
X1198Y1342D02*
X1204Y1342D01*
X1905Y1342D02*
X1912Y1342D01*
X0Y1341D02*
X7Y1341D01*
X1098Y1341D02*
X1104Y1341D01*
X1136Y1341D02*
X1143Y1341D01*
X1198Y1341D02*
X1204Y1341D01*
X1905Y1341D02*
X1912Y1341D01*
X0Y1340D02*
X7Y1340D01*
X1098Y1340D02*
X1104Y1340D01*
X1136Y1340D02*
X1142Y1340D01*
X1198Y1340D02*
X1204Y1340D01*
X1905Y1340D02*
X1912Y1340D01*
X0Y1339D02*
X7Y1339D01*
X1098Y1339D02*
X1104Y1339D01*
X1135Y1339D02*
X1142Y1339D01*
X1198Y1339D02*
X1204Y1339D01*
X1905Y1339D02*
X1912Y1339D01*
X0Y1338D02*
X7Y1338D01*
X1098Y1338D02*
X1104Y1338D01*
X1135Y1338D02*
X1141Y1338D01*
X1198Y1338D02*
X1204Y1338D01*
X1905Y1338D02*
X1912Y1338D01*
X0Y1337D02*
X7Y1337D01*
X1098Y1337D02*
X1104Y1337D01*
X1135Y1337D02*
X1141Y1337D01*
X1198Y1337D02*
X1204Y1337D01*
X1905Y1337D02*
X1912Y1337D01*
X0Y1336D02*
X7Y1336D01*
X1098Y1336D02*
X1104Y1336D01*
X1135Y1336D02*
X1141Y1336D01*
X1198Y1336D02*
X1204Y1336D01*
X1905Y1336D02*
X1912Y1336D01*
X0Y1335D02*
X7Y1335D01*
X1098Y1335D02*
X1104Y1335D01*
X1135Y1335D02*
X1141Y1335D01*
X1198Y1335D02*
X1204Y1335D01*
X1905Y1335D02*
X1912Y1335D01*
X0Y1334D02*
X7Y1334D01*
X1098Y1334D02*
X1104Y1334D01*
X1134Y1334D02*
X1141Y1334D01*
X1198Y1334D02*
X1204Y1334D01*
X1905Y1334D02*
X1912Y1334D01*
X0Y1333D02*
X7Y1333D01*
X1098Y1333D02*
X1104Y1333D01*
X1135Y1333D02*
X1141Y1333D01*
X1198Y1333D02*
X1204Y1333D01*
X1905Y1333D02*
X1912Y1333D01*
X0Y1332D02*
X7Y1332D01*
X1098Y1332D02*
X1104Y1332D01*
X1135Y1332D02*
X1141Y1332D01*
X1198Y1332D02*
X1204Y1332D01*
X1905Y1332D02*
X1912Y1332D01*
X0Y1331D02*
X7Y1331D01*
X1098Y1331D02*
X1104Y1331D01*
X1135Y1331D02*
X1141Y1331D01*
X1198Y1331D02*
X1204Y1331D01*
X1214Y1331D02*
X1217Y1331D01*
X1905Y1331D02*
X1912Y1331D01*
X0Y1330D02*
X7Y1330D01*
X1098Y1330D02*
X1104Y1330D01*
X1135Y1330D02*
X1142Y1330D01*
X1198Y1330D02*
X1204Y1330D01*
X1213Y1330D02*
X1218Y1330D01*
X1905Y1330D02*
X1912Y1330D01*
X0Y1329D02*
X7Y1329D01*
X1098Y1329D02*
X1104Y1329D01*
X1135Y1329D02*
X1142Y1329D01*
X1198Y1329D02*
X1204Y1329D01*
X1212Y1329D02*
X1218Y1329D01*
X1905Y1329D02*
X1912Y1329D01*
X0Y1328D02*
X7Y1328D01*
X1098Y1328D02*
X1104Y1328D01*
X1136Y1328D02*
X1143Y1328D01*
X1198Y1328D02*
X1204Y1328D01*
X1212Y1328D02*
X1218Y1328D01*
X1905Y1328D02*
X1912Y1328D01*
X0Y1327D02*
X7Y1327D01*
X1098Y1327D02*
X1104Y1327D01*
X1136Y1327D02*
X1143Y1327D01*
X1198Y1327D02*
X1204Y1327D01*
X1212Y1327D02*
X1218Y1327D01*
X1905Y1327D02*
X1912Y1327D01*
X0Y1326D02*
X7Y1326D01*
X1098Y1326D02*
X1104Y1326D01*
X1137Y1326D02*
X1144Y1326D01*
X1198Y1326D02*
X1204Y1326D01*
X1212Y1326D02*
X1218Y1326D01*
X1905Y1326D02*
X1912Y1326D01*
X0Y1325D02*
X7Y1325D01*
X1098Y1325D02*
X1104Y1325D01*
X1137Y1325D02*
X1144Y1325D01*
X1198Y1325D02*
X1204Y1325D01*
X1212Y1325D02*
X1218Y1325D01*
X1905Y1325D02*
X1912Y1325D01*
X0Y1324D02*
X7Y1324D01*
X1098Y1324D02*
X1104Y1324D01*
X1138Y1324D02*
X1145Y1324D01*
X1198Y1324D02*
X1204Y1324D01*
X1212Y1324D02*
X1218Y1324D01*
X1905Y1324D02*
X1912Y1324D01*
X0Y1323D02*
X7Y1323D01*
X1098Y1323D02*
X1104Y1323D01*
X1138Y1323D02*
X1145Y1323D01*
X1198Y1323D02*
X1204Y1323D01*
X1212Y1323D02*
X1218Y1323D01*
X1905Y1323D02*
X1912Y1323D01*
X0Y1322D02*
X7Y1322D01*
X1098Y1322D02*
X1104Y1322D01*
X1139Y1322D02*
X1146Y1322D01*
X1198Y1322D02*
X1204Y1322D01*
X1212Y1322D02*
X1218Y1322D01*
X1905Y1322D02*
X1912Y1322D01*
X0Y1321D02*
X7Y1321D01*
X1098Y1321D02*
X1104Y1321D01*
X1139Y1321D02*
X1146Y1321D01*
X1198Y1321D02*
X1204Y1321D01*
X1212Y1321D02*
X1218Y1321D01*
X1905Y1321D02*
X1912Y1321D01*
X0Y1320D02*
X7Y1320D01*
X1098Y1320D02*
X1104Y1320D01*
X1140Y1320D02*
X1147Y1320D01*
X1198Y1320D02*
X1204Y1320D01*
X1212Y1320D02*
X1218Y1320D01*
X1905Y1320D02*
X1912Y1320D01*
X0Y1319D02*
X7Y1319D01*
X1098Y1319D02*
X1104Y1319D01*
X1140Y1319D02*
X1147Y1319D01*
X1198Y1319D02*
X1204Y1319D01*
X1212Y1319D02*
X1218Y1319D01*
X1905Y1319D02*
X1912Y1319D01*
X0Y1318D02*
X7Y1318D01*
X1098Y1318D02*
X1104Y1318D01*
X1141Y1318D02*
X1148Y1318D01*
X1198Y1318D02*
X1204Y1318D01*
X1212Y1318D02*
X1218Y1318D01*
X1905Y1318D02*
X1912Y1318D01*
X0Y1317D02*
X7Y1317D01*
X1098Y1317D02*
X1104Y1317D01*
X1141Y1317D02*
X1148Y1317D01*
X1198Y1317D02*
X1204Y1317D01*
X1212Y1317D02*
X1218Y1317D01*
X1905Y1317D02*
X1912Y1317D01*
X0Y1316D02*
X7Y1316D01*
X1098Y1316D02*
X1104Y1316D01*
X1142Y1316D02*
X1149Y1316D01*
X1198Y1316D02*
X1204Y1316D01*
X1212Y1316D02*
X1218Y1316D01*
X1905Y1316D02*
X1912Y1316D01*
X0Y1315D02*
X7Y1315D01*
X1098Y1315D02*
X1104Y1315D01*
X1142Y1315D02*
X1149Y1315D01*
X1198Y1315D02*
X1204Y1315D01*
X1212Y1315D02*
X1218Y1315D01*
X1905Y1315D02*
X1912Y1315D01*
X0Y1314D02*
X7Y1314D01*
X1087Y1314D02*
X1115Y1314D01*
X1143Y1314D02*
X1165Y1314D01*
X1187Y1314D02*
X1218Y1314D01*
X1905Y1314D02*
X1912Y1314D01*
X0Y1313D02*
X7Y1313D01*
X1085Y1313D02*
X1117Y1313D01*
X1143Y1313D02*
X1167Y1313D01*
X1186Y1313D02*
X1218Y1313D01*
X1905Y1313D02*
X1912Y1313D01*
X0Y1312D02*
X7Y1312D01*
X1085Y1312D02*
X1118Y1312D01*
X1144Y1312D02*
X1168Y1312D01*
X1185Y1312D02*
X1218Y1312D01*
X1905Y1312D02*
X1912Y1312D01*
X0Y1311D02*
X7Y1311D01*
X1084Y1311D02*
X1118Y1311D01*
X1145Y1311D02*
X1168Y1311D01*
X1185Y1311D02*
X1218Y1311D01*
X1905Y1311D02*
X1912Y1311D01*
X0Y1310D02*
X7Y1310D01*
X1084Y1310D02*
X1118Y1310D01*
X1146Y1310D02*
X1168Y1310D01*
X1185Y1310D02*
X1218Y1310D01*
X1905Y1310D02*
X1912Y1310D01*
X0Y1309D02*
X7Y1309D01*
X1085Y1309D02*
X1117Y1309D01*
X1147Y1309D02*
X1168Y1309D01*
X1185Y1309D02*
X1218Y1309D01*
X1905Y1309D02*
X1912Y1309D01*
X0Y1308D02*
X7Y1308D01*
X1086Y1308D02*
X1117Y1308D01*
X1149Y1308D02*
X1167Y1308D01*
X1186Y1308D02*
X1217Y1308D01*
X1905Y1308D02*
X1912Y1308D01*
X0Y1307D02*
X7Y1307D01*
X1905Y1307D02*
X1912Y1307D01*
X0Y1306D02*
X7Y1306D01*
X1905Y1306D02*
X1912Y1306D01*
X0Y1305D02*
X7Y1305D01*
X1905Y1305D02*
X1912Y1305D01*
X0Y1304D02*
X7Y1304D01*
X1905Y1304D02*
X1912Y1304D01*
X0Y1303D02*
X7Y1303D01*
X1905Y1303D02*
X1912Y1303D01*
X0Y1302D02*
X7Y1302D01*
X1905Y1302D02*
X1912Y1302D01*
X0Y1301D02*
X7Y1301D01*
X1905Y1301D02*
X1912Y1301D01*
X0Y1300D02*
X7Y1300D01*
X1905Y1300D02*
X1912Y1300D01*
X0Y1299D02*
X7Y1299D01*
X1905Y1299D02*
X1912Y1299D01*
X0Y1298D02*
X7Y1298D01*
X1905Y1298D02*
X1912Y1298D01*
X0Y1297D02*
X7Y1297D01*
X1905Y1297D02*
X1912Y1297D01*
X0Y1296D02*
X7Y1296D01*
X1905Y1296D02*
X1912Y1296D01*
X0Y1295D02*
X7Y1295D01*
X1905Y1295D02*
X1912Y1295D01*
X0Y1294D02*
X7Y1294D01*
X1905Y1294D02*
X1912Y1294D01*
X0Y1293D02*
X7Y1293D01*
X1905Y1293D02*
X1912Y1293D01*
X0Y1292D02*
X7Y1292D01*
X1905Y1292D02*
X1912Y1292D01*
X0Y1291D02*
X7Y1291D01*
X1905Y1291D02*
X1912Y1291D01*
X0Y1290D02*
X7Y1290D01*
X1905Y1290D02*
X1912Y1290D01*
X0Y1289D02*
X7Y1289D01*
X1905Y1289D02*
X1912Y1289D01*
X0Y1288D02*
X7Y1288D01*
X1905Y1288D02*
X1912Y1288D01*
X0Y1287D02*
X7Y1287D01*
X1905Y1287D02*
X1912Y1287D01*
X0Y1286D02*
X7Y1286D01*
X1905Y1286D02*
X1912Y1286D01*
X0Y1285D02*
X7Y1285D01*
X1905Y1285D02*
X1912Y1285D01*
X0Y1284D02*
X7Y1284D01*
X1905Y1284D02*
X1912Y1284D01*
X0Y1283D02*
X7Y1283D01*
X1905Y1283D02*
X1912Y1283D01*
X0Y1282D02*
X7Y1282D01*
X1905Y1282D02*
X1912Y1282D01*
X0Y1281D02*
X7Y1281D01*
X1905Y1281D02*
X1912Y1281D01*
X0Y1280D02*
X7Y1280D01*
X1905Y1280D02*
X1912Y1280D01*
X0Y1279D02*
X7Y1279D01*
X1905Y1279D02*
X1912Y1279D01*
X0Y1278D02*
X7Y1278D01*
X1905Y1278D02*
X1912Y1278D01*
X0Y1277D02*
X7Y1277D01*
X1905Y1277D02*
X1912Y1277D01*
X0Y1276D02*
X7Y1276D01*
X1905Y1276D02*
X1912Y1276D01*
X0Y1275D02*
X7Y1275D01*
X1905Y1275D02*
X1912Y1275D01*
X0Y1274D02*
X7Y1274D01*
X1905Y1274D02*
X1912Y1274D01*
X0Y1273D02*
X7Y1273D01*
X1905Y1273D02*
X1912Y1273D01*
X0Y1272D02*
X7Y1272D01*
X1905Y1272D02*
X1912Y1272D01*
X0Y1271D02*
X7Y1271D01*
X1905Y1271D02*
X1912Y1271D01*
X0Y1270D02*
X7Y1270D01*
X1905Y1270D02*
X1912Y1270D01*
X0Y1269D02*
X7Y1269D01*
X1905Y1269D02*
X1912Y1269D01*
X0Y1268D02*
X7Y1268D01*
X1905Y1268D02*
X1912Y1268D01*
X0Y1267D02*
X7Y1267D01*
X1905Y1267D02*
X1912Y1267D01*
X0Y1266D02*
X7Y1266D01*
X1905Y1266D02*
X1912Y1266D01*
X0Y1265D02*
X7Y1265D01*
X1905Y1265D02*
X1912Y1265D01*
X0Y1264D02*
X7Y1264D01*
X1905Y1264D02*
X1912Y1264D01*
X0Y1263D02*
X7Y1263D01*
X1905Y1263D02*
X1912Y1263D01*
X0Y1262D02*
X7Y1262D01*
X1905Y1262D02*
X1912Y1262D01*
X0Y1261D02*
X7Y1261D01*
X1905Y1261D02*
X1912Y1261D01*
X0Y1260D02*
X7Y1260D01*
X1905Y1260D02*
X1912Y1260D01*
X0Y1259D02*
X7Y1259D01*
X1905Y1259D02*
X1912Y1259D01*
X0Y1258D02*
X7Y1258D01*
X1905Y1258D02*
X1912Y1258D01*
X0Y1257D02*
X7Y1257D01*
X1905Y1257D02*
X1912Y1257D01*
X0Y1256D02*
X7Y1256D01*
X1905Y1256D02*
X1912Y1256D01*
X0Y1255D02*
X7Y1255D01*
X1905Y1255D02*
X1912Y1255D01*
X0Y1254D02*
X7Y1254D01*
X1905Y1254D02*
X1912Y1254D01*
X0Y1253D02*
X7Y1253D01*
X1905Y1253D02*
X1912Y1253D01*
X0Y1252D02*
X7Y1252D01*
X1905Y1252D02*
X1912Y1252D01*
X0Y1251D02*
X7Y1251D01*
X1905Y1251D02*
X1912Y1251D01*
X0Y1250D02*
X7Y1250D01*
X1905Y1250D02*
X1912Y1250D01*
X0Y1249D02*
X7Y1249D01*
X1905Y1249D02*
X1912Y1249D01*
X0Y1248D02*
X7Y1248D01*
X1905Y1248D02*
X1912Y1248D01*
X0Y1247D02*
X7Y1247D01*
X1905Y1247D02*
X1912Y1247D01*
X0Y1246D02*
X7Y1246D01*
X1905Y1246D02*
X1912Y1246D01*
X0Y1245D02*
X7Y1245D01*
X1905Y1245D02*
X1912Y1245D01*
X0Y1244D02*
X7Y1244D01*
X1905Y1244D02*
X1912Y1244D01*
X0Y1243D02*
X7Y1243D01*
X1905Y1243D02*
X1912Y1243D01*
X0Y1242D02*
X7Y1242D01*
X1905Y1242D02*
X1912Y1242D01*
X0Y1241D02*
X7Y1241D01*
X1905Y1241D02*
X1912Y1241D01*
X0Y1240D02*
X7Y1240D01*
X1905Y1240D02*
X1912Y1240D01*
X0Y1239D02*
X7Y1239D01*
X1905Y1239D02*
X1912Y1239D01*
X0Y1238D02*
X7Y1238D01*
X1905Y1238D02*
X1912Y1238D01*
X0Y1237D02*
X7Y1237D01*
X1905Y1237D02*
X1912Y1237D01*
X0Y1236D02*
X7Y1236D01*
X1905Y1236D02*
X1912Y1236D01*
X0Y1235D02*
X7Y1235D01*
X1905Y1235D02*
X1912Y1235D01*
X0Y1234D02*
X7Y1234D01*
X1905Y1234D02*
X1912Y1234D01*
X0Y1233D02*
X7Y1233D01*
X1905Y1233D02*
X1912Y1233D01*
X0Y1232D02*
X7Y1232D01*
X1905Y1232D02*
X1912Y1232D01*
X0Y1231D02*
X7Y1231D01*
X1905Y1231D02*
X1912Y1231D01*
X0Y1230D02*
X7Y1230D01*
X1905Y1230D02*
X1912Y1230D01*
X0Y1229D02*
X7Y1229D01*
X1905Y1229D02*
X1912Y1229D01*
X0Y1228D02*
X7Y1228D01*
X1905Y1228D02*
X1912Y1228D01*
X0Y1227D02*
X7Y1227D01*
X1905Y1227D02*
X1912Y1227D01*
X0Y1226D02*
X7Y1226D01*
X1905Y1226D02*
X1912Y1226D01*
X0Y1225D02*
X7Y1225D01*
X1905Y1225D02*
X1912Y1225D01*
X0Y1224D02*
X7Y1224D01*
X1905Y1224D02*
X1912Y1224D01*
X0Y1223D02*
X7Y1223D01*
X1905Y1223D02*
X1912Y1223D01*
X0Y1222D02*
X7Y1222D01*
X1905Y1222D02*
X1912Y1222D01*
X0Y1221D02*
X7Y1221D01*
X1905Y1221D02*
X1912Y1221D01*
X0Y1220D02*
X7Y1220D01*
X1905Y1220D02*
X1912Y1220D01*
X0Y1219D02*
X7Y1219D01*
X1905Y1219D02*
X1912Y1219D01*
X0Y1218D02*
X7Y1218D01*
X1905Y1218D02*
X1912Y1218D01*
X0Y1217D02*
X7Y1217D01*
X1905Y1217D02*
X1912Y1217D01*
X0Y1216D02*
X7Y1216D01*
X1905Y1216D02*
X1912Y1216D01*
X0Y1215D02*
X7Y1215D01*
X1905Y1215D02*
X1912Y1215D01*
X0Y1214D02*
X7Y1214D01*
X1905Y1214D02*
X1912Y1214D01*
X0Y1213D02*
X7Y1213D01*
X1905Y1213D02*
X1912Y1213D01*
X0Y1212D02*
X7Y1212D01*
X1905Y1212D02*
X1912Y1212D01*
X0Y1211D02*
X7Y1211D01*
X1905Y1211D02*
X1912Y1211D01*
X0Y1210D02*
X7Y1210D01*
X1905Y1210D02*
X1912Y1210D01*
X0Y1209D02*
X7Y1209D01*
X1905Y1209D02*
X1912Y1209D01*
X0Y1208D02*
X7Y1208D01*
X1905Y1208D02*
X1912Y1208D01*
X0Y1207D02*
X7Y1207D01*
X1905Y1207D02*
X1912Y1207D01*
X0Y1206D02*
X7Y1206D01*
X1905Y1206D02*
X1912Y1206D01*
X0Y1205D02*
X7Y1205D01*
X1905Y1205D02*
X1912Y1205D01*
X0Y1204D02*
X7Y1204D01*
X1905Y1204D02*
X1912Y1204D01*
X0Y1203D02*
X7Y1203D01*
X1905Y1203D02*
X1912Y1203D01*
X0Y1202D02*
X7Y1202D01*
X1905Y1202D02*
X1912Y1202D01*
X0Y1201D02*
X7Y1201D01*
X1905Y1201D02*
X1912Y1201D01*
X0Y1200D02*
X7Y1200D01*
X1905Y1200D02*
X1912Y1200D01*
X0Y1199D02*
X7Y1199D01*
X1905Y1199D02*
X1912Y1199D01*
X0Y1198D02*
X7Y1198D01*
X1905Y1198D02*
X1912Y1198D01*
X0Y1197D02*
X7Y1197D01*
X1905Y1197D02*
X1912Y1197D01*
X0Y1196D02*
X7Y1196D01*
X1905Y1196D02*
X1912Y1196D01*
X0Y1195D02*
X7Y1195D01*
X1905Y1195D02*
X1912Y1195D01*
X0Y1194D02*
X7Y1194D01*
X1905Y1194D02*
X1912Y1194D01*
X0Y1193D02*
X7Y1193D01*
X1905Y1193D02*
X1912Y1193D01*
X0Y1192D02*
X7Y1192D01*
X1905Y1192D02*
X1912Y1192D01*
X0Y1191D02*
X7Y1191D01*
X1905Y1191D02*
X1912Y1191D01*
X0Y1190D02*
X7Y1190D01*
X1905Y1190D02*
X1912Y1190D01*
X0Y1189D02*
X7Y1189D01*
X1905Y1189D02*
X1912Y1189D01*
X0Y1188D02*
X7Y1188D01*
X1905Y1188D02*
X1912Y1188D01*
X0Y1187D02*
X7Y1187D01*
X1905Y1187D02*
X1912Y1187D01*
X0Y1186D02*
X7Y1186D01*
X1905Y1186D02*
X1912Y1186D01*
X0Y1185D02*
X7Y1185D01*
X1905Y1185D02*
X1912Y1185D01*
X0Y1184D02*
X7Y1184D01*
X1905Y1184D02*
X1912Y1184D01*
X0Y1183D02*
X7Y1183D01*
X1905Y1183D02*
X1912Y1183D01*
X0Y1182D02*
X7Y1182D01*
X1905Y1182D02*
X1912Y1182D01*
X0Y1181D02*
X7Y1181D01*
X1905Y1181D02*
X1912Y1181D01*
X0Y1180D02*
X7Y1180D01*
X1905Y1180D02*
X1912Y1180D01*
X0Y1179D02*
X7Y1179D01*
X1905Y1179D02*
X1912Y1179D01*
X0Y1178D02*
X7Y1178D01*
X1905Y1178D02*
X1912Y1178D01*
X0Y1177D02*
X7Y1177D01*
X1836Y1177D02*
X1843Y1177D01*
X1905Y1177D02*
X1912Y1177D01*
X0Y1176D02*
X7Y1176D01*
X1835Y1176D02*
X1844Y1176D01*
X1905Y1176D02*
X1912Y1176D01*
X0Y1175D02*
X7Y1175D01*
X1835Y1175D02*
X1844Y1175D01*
X1905Y1175D02*
X1912Y1175D01*
X0Y1174D02*
X7Y1174D01*
X576Y1174D02*
X579Y1174D01*
X691Y1174D02*
X705Y1174D01*
X825Y1174D02*
X834Y1174D01*
X851Y1174D02*
X859Y1174D01*
X1140Y1174D02*
X1146Y1174D01*
X1774Y1174D02*
X1801Y1174D01*
X1835Y1174D02*
X1844Y1174D01*
X1905Y1174D02*
X1912Y1174D01*
X0Y1173D02*
X7Y1173D01*
X575Y1173D02*
X580Y1173D01*
X689Y1173D02*
X706Y1173D01*
X825Y1173D02*
X834Y1173D01*
X850Y1173D02*
X859Y1173D01*
X1139Y1173D02*
X1148Y1173D01*
X1774Y1173D02*
X1803Y1173D01*
X1835Y1173D02*
X1844Y1173D01*
X1905Y1173D02*
X1912Y1173D01*
X0Y1172D02*
X7Y1172D01*
X575Y1172D02*
X580Y1172D01*
X688Y1172D02*
X706Y1172D01*
X825Y1172D02*
X835Y1172D01*
X849Y1172D02*
X859Y1172D01*
X1137Y1172D02*
X1149Y1172D01*
X1774Y1172D02*
X1804Y1172D01*
X1835Y1172D02*
X1844Y1172D01*
X1905Y1172D02*
X1912Y1172D01*
X0Y1171D02*
X7Y1171D01*
X574Y1171D02*
X580Y1171D01*
X687Y1171D02*
X707Y1171D01*
X733Y1171D02*
X737Y1171D01*
X825Y1171D02*
X836Y1171D01*
X848Y1171D02*
X859Y1171D01*
X934Y1171D02*
X937Y1171D01*
X1136Y1171D02*
X1150Y1171D01*
X1235Y1171D02*
X1239Y1171D01*
X1774Y1171D02*
X1805Y1171D01*
X1835Y1171D02*
X1844Y1171D01*
X1905Y1171D02*
X1912Y1171D01*
X0Y1170D02*
X7Y1170D01*
X574Y1170D02*
X580Y1170D01*
X686Y1170D02*
X706Y1170D01*
X732Y1170D02*
X737Y1170D01*
X825Y1170D02*
X836Y1170D01*
X848Y1170D02*
X859Y1170D01*
X933Y1170D02*
X938Y1170D01*
X1136Y1170D02*
X1151Y1170D01*
X1234Y1170D02*
X1239Y1170D01*
X1774Y1170D02*
X1806Y1170D01*
X1835Y1170D02*
X1844Y1170D01*
X1905Y1170D02*
X1912Y1170D01*
X0Y1169D02*
X7Y1169D01*
X574Y1169D02*
X580Y1169D01*
X685Y1169D02*
X706Y1169D01*
X732Y1169D02*
X738Y1169D01*
X825Y1169D02*
X837Y1169D01*
X847Y1169D02*
X859Y1169D01*
X933Y1169D02*
X939Y1169D01*
X1135Y1169D02*
X1151Y1169D01*
X1234Y1169D02*
X1240Y1169D01*
X1774Y1169D02*
X1807Y1169D01*
X1836Y1169D02*
X1843Y1169D01*
X1905Y1169D02*
X1912Y1169D01*
X0Y1168D02*
X7Y1168D01*
X574Y1168D02*
X580Y1168D01*
X685Y1168D02*
X704Y1168D01*
X732Y1168D02*
X738Y1168D01*
X825Y1168D02*
X838Y1168D01*
X846Y1168D02*
X859Y1168D01*
X933Y1168D02*
X939Y1168D01*
X1135Y1168D02*
X1152Y1168D01*
X1234Y1168D02*
X1240Y1168D01*
X1774Y1168D02*
X1807Y1168D01*
X1837Y1168D02*
X1842Y1168D01*
X1905Y1168D02*
X1912Y1168D01*
X0Y1167D02*
X7Y1167D01*
X574Y1167D02*
X580Y1167D01*
X684Y1167D02*
X692Y1167D01*
X732Y1167D02*
X738Y1167D01*
X825Y1167D02*
X839Y1167D01*
X846Y1167D02*
X859Y1167D01*
X933Y1167D02*
X939Y1167D01*
X1134Y1167D02*
X1141Y1167D01*
X1145Y1167D02*
X1152Y1167D01*
X1234Y1167D02*
X1240Y1167D01*
X1774Y1167D02*
X1780Y1167D01*
X1800Y1167D02*
X1807Y1167D01*
X1905Y1167D02*
X1912Y1167D01*
X0Y1166D02*
X7Y1166D01*
X574Y1166D02*
X580Y1166D01*
X684Y1166D02*
X691Y1166D01*
X732Y1166D02*
X738Y1166D01*
X825Y1166D02*
X839Y1166D01*
X845Y1166D02*
X859Y1166D01*
X933Y1166D02*
X939Y1166D01*
X1134Y1166D02*
X1141Y1166D01*
X1146Y1166D02*
X1153Y1166D01*
X1234Y1166D02*
X1240Y1166D01*
X1774Y1166D02*
X1780Y1166D01*
X1801Y1166D02*
X1808Y1166D01*
X1905Y1166D02*
X1912Y1166D01*
X0Y1165D02*
X7Y1165D01*
X574Y1165D02*
X580Y1165D01*
X684Y1165D02*
X690Y1165D01*
X732Y1165D02*
X738Y1165D01*
X825Y1165D02*
X840Y1165D01*
X844Y1165D02*
X859Y1165D01*
X933Y1165D02*
X939Y1165D01*
X1133Y1165D02*
X1140Y1165D01*
X1146Y1165D02*
X1153Y1165D01*
X1234Y1165D02*
X1240Y1165D01*
X1774Y1165D02*
X1780Y1165D01*
X1802Y1165D02*
X1808Y1165D01*
X1905Y1165D02*
X1912Y1165D01*
X0Y1164D02*
X7Y1164D01*
X574Y1164D02*
X580Y1164D01*
X683Y1164D02*
X690Y1164D01*
X732Y1164D02*
X738Y1164D01*
X825Y1164D02*
X831Y1164D01*
X833Y1164D02*
X841Y1164D01*
X844Y1164D02*
X851Y1164D01*
X853Y1164D02*
X859Y1164D01*
X933Y1164D02*
X939Y1164D01*
X1133Y1164D02*
X1140Y1164D01*
X1147Y1164D02*
X1154Y1164D01*
X1234Y1164D02*
X1240Y1164D01*
X1774Y1164D02*
X1780Y1164D01*
X1802Y1164D02*
X1808Y1164D01*
X1905Y1164D02*
X1912Y1164D01*
X0Y1163D02*
X7Y1163D01*
X574Y1163D02*
X580Y1163D01*
X683Y1163D02*
X689Y1163D01*
X732Y1163D02*
X738Y1163D01*
X825Y1163D02*
X831Y1163D01*
X834Y1163D02*
X850Y1163D01*
X853Y1163D02*
X859Y1163D01*
X933Y1163D02*
X939Y1163D01*
X1132Y1163D02*
X1139Y1163D01*
X1147Y1163D02*
X1154Y1163D01*
X1234Y1163D02*
X1240Y1163D01*
X1774Y1163D02*
X1780Y1163D01*
X1802Y1163D02*
X1808Y1163D01*
X1905Y1163D02*
X1912Y1163D01*
X0Y1162D02*
X7Y1162D01*
X574Y1162D02*
X580Y1162D01*
X683Y1162D02*
X689Y1162D01*
X732Y1162D02*
X738Y1162D01*
X825Y1162D02*
X831Y1162D01*
X834Y1162D02*
X850Y1162D01*
X853Y1162D02*
X859Y1162D01*
X933Y1162D02*
X939Y1162D01*
X1132Y1162D02*
X1139Y1162D01*
X1148Y1162D02*
X1155Y1162D01*
X1234Y1162D02*
X1240Y1162D01*
X1774Y1162D02*
X1780Y1162D01*
X1802Y1162D02*
X1808Y1162D01*
X1905Y1162D02*
X1912Y1162D01*
X0Y1161D02*
X7Y1161D01*
X574Y1161D02*
X580Y1161D01*
X683Y1161D02*
X689Y1161D01*
X732Y1161D02*
X738Y1161D01*
X825Y1161D02*
X831Y1161D01*
X835Y1161D02*
X849Y1161D01*
X853Y1161D02*
X859Y1161D01*
X933Y1161D02*
X939Y1161D01*
X1131Y1161D02*
X1138Y1161D01*
X1148Y1161D02*
X1155Y1161D01*
X1234Y1161D02*
X1240Y1161D01*
X1774Y1161D02*
X1780Y1161D01*
X1802Y1161D02*
X1808Y1161D01*
X1905Y1161D02*
X1912Y1161D01*
X0Y1160D02*
X7Y1160D01*
X574Y1160D02*
X580Y1160D01*
X637Y1160D02*
X646Y1160D01*
X680Y1160D02*
X697Y1160D01*
X734Y1160D02*
X752Y1160D01*
X825Y1160D02*
X831Y1160D01*
X836Y1160D02*
X848Y1160D01*
X853Y1160D02*
X859Y1160D01*
X887Y1160D02*
X897Y1160D01*
X929Y1160D02*
X953Y1160D01*
X988Y1160D02*
X998Y1160D01*
X1043Y1160D02*
X1050Y1160D01*
X1131Y1160D02*
X1138Y1160D01*
X1149Y1160D02*
X1156Y1160D01*
X1180Y1160D02*
X1180Y1160D01*
X1207Y1160D02*
X1207Y1160D01*
X1230Y1160D02*
X1254Y1160D01*
X1774Y1160D02*
X1780Y1160D01*
X1802Y1160D02*
X1808Y1160D01*
X1831Y1160D02*
X1841Y1160D01*
X1886Y1160D02*
X1892Y1160D01*
X1905Y1160D02*
X1912Y1160D01*
X0Y1159D02*
X7Y1159D01*
X574Y1159D02*
X580Y1159D01*
X633Y1159D02*
X650Y1159D01*
X678Y1159D02*
X696Y1159D01*
X736Y1159D02*
X754Y1159D01*
X825Y1159D02*
X831Y1159D01*
X837Y1159D02*
X848Y1159D01*
X853Y1159D02*
X859Y1159D01*
X884Y1159D02*
X901Y1159D01*
X927Y1159D02*
X955Y1159D01*
X984Y1159D02*
X996Y1159D01*
X1041Y1159D02*
X1054Y1159D01*
X1130Y1159D02*
X1137Y1159D01*
X1149Y1159D02*
X1156Y1159D01*
X1178Y1159D02*
X1182Y1159D01*
X1205Y1159D02*
X1209Y1159D01*
X1228Y1159D02*
X1256Y1159D01*
X1774Y1159D02*
X1780Y1159D01*
X1801Y1159D02*
X1808Y1159D01*
X1829Y1159D02*
X1843Y1159D01*
X1883Y1159D02*
X1896Y1159D01*
X1903Y1159D02*
X1912Y1159D01*
X0Y1158D02*
X7Y1158D01*
X574Y1158D02*
X580Y1158D01*
X631Y1158D02*
X651Y1158D01*
X677Y1158D02*
X694Y1158D01*
X738Y1158D02*
X755Y1158D01*
X825Y1158D02*
X831Y1158D01*
X837Y1158D02*
X847Y1158D01*
X853Y1158D02*
X859Y1158D01*
X882Y1158D02*
X902Y1158D01*
X926Y1158D02*
X955Y1158D01*
X983Y1158D02*
X994Y1158D01*
X1040Y1158D02*
X1055Y1158D01*
X1130Y1158D02*
X1137Y1158D01*
X1150Y1158D02*
X1157Y1158D01*
X1177Y1158D02*
X1182Y1158D01*
X1205Y1158D02*
X1210Y1158D01*
X1227Y1158D02*
X1257Y1158D01*
X1774Y1158D02*
X1780Y1158D01*
X1800Y1158D02*
X1807Y1158D01*
X1828Y1158D02*
X1844Y1158D01*
X1881Y1158D02*
X1898Y1158D01*
X1902Y1158D02*
X1912Y1158D01*
X0Y1157D02*
X7Y1157D01*
X574Y1157D02*
X580Y1157D01*
X630Y1157D02*
X653Y1157D01*
X677Y1157D02*
X692Y1157D01*
X740Y1157D02*
X755Y1157D01*
X825Y1157D02*
X831Y1157D01*
X838Y1157D02*
X846Y1157D01*
X853Y1157D02*
X859Y1157D01*
X881Y1157D02*
X904Y1157D01*
X926Y1157D02*
X956Y1157D01*
X981Y1157D02*
X992Y1157D01*
X1040Y1157D02*
X1057Y1157D01*
X1129Y1157D02*
X1136Y1157D01*
X1150Y1157D02*
X1157Y1157D01*
X1177Y1157D02*
X1183Y1157D01*
X1204Y1157D02*
X1210Y1157D01*
X1227Y1157D02*
X1257Y1157D01*
X1774Y1157D02*
X1807Y1157D01*
X1828Y1157D02*
X1844Y1157D01*
X1880Y1157D02*
X1899Y1157D01*
X1902Y1157D02*
X1912Y1157D01*
X0Y1156D02*
X7Y1156D01*
X574Y1156D02*
X580Y1156D01*
X629Y1156D02*
X654Y1156D01*
X677Y1156D02*
X691Y1156D01*
X741Y1156D02*
X755Y1156D01*
X825Y1156D02*
X831Y1156D01*
X839Y1156D02*
X846Y1156D01*
X853Y1156D02*
X859Y1156D01*
X880Y1156D02*
X905Y1156D01*
X926Y1156D02*
X956Y1156D01*
X980Y1156D02*
X991Y1156D01*
X1041Y1156D02*
X1057Y1156D01*
X1129Y1156D02*
X1136Y1156D01*
X1151Y1156D02*
X1158Y1156D01*
X1177Y1156D02*
X1183Y1156D01*
X1204Y1156D02*
X1210Y1156D01*
X1227Y1156D02*
X1257Y1156D01*
X1774Y1156D02*
X1807Y1156D01*
X1828Y1156D02*
X1844Y1156D01*
X1879Y1156D02*
X1900Y1156D01*
X1902Y1156D02*
X1912Y1156D01*
X0Y1155D02*
X7Y1155D01*
X574Y1155D02*
X580Y1155D01*
X628Y1155D02*
X655Y1155D01*
X677Y1155D02*
X690Y1155D01*
X743Y1155D02*
X755Y1155D01*
X825Y1155D02*
X831Y1155D01*
X839Y1155D02*
X845Y1155D01*
X853Y1155D02*
X859Y1155D01*
X879Y1155D02*
X906Y1155D01*
X926Y1155D02*
X955Y1155D01*
X979Y1155D02*
X989Y1155D01*
X1042Y1155D02*
X1058Y1155D01*
X1128Y1155D02*
X1135Y1155D01*
X1151Y1155D02*
X1158Y1155D01*
X1177Y1155D02*
X1183Y1155D01*
X1204Y1155D02*
X1210Y1155D01*
X1227Y1155D02*
X1257Y1155D01*
X1774Y1155D02*
X1806Y1155D01*
X1828Y1155D02*
X1844Y1155D01*
X1878Y1155D02*
X1912Y1155D01*
X0Y1154D02*
X7Y1154D01*
X574Y1154D02*
X580Y1154D01*
X627Y1154D02*
X656Y1154D01*
X678Y1154D02*
X688Y1154D01*
X744Y1154D02*
X754Y1154D01*
X825Y1154D02*
X831Y1154D01*
X839Y1154D02*
X845Y1154D01*
X853Y1154D02*
X859Y1154D01*
X878Y1154D02*
X907Y1154D01*
X927Y1154D02*
X955Y1154D01*
X978Y1154D02*
X988Y1154D01*
X1044Y1154D02*
X1059Y1154D01*
X1128Y1154D02*
X1135Y1154D01*
X1152Y1154D02*
X1159Y1154D01*
X1177Y1154D02*
X1183Y1154D01*
X1204Y1154D02*
X1210Y1154D01*
X1228Y1154D02*
X1256Y1154D01*
X1774Y1154D02*
X1805Y1154D01*
X1829Y1154D02*
X1844Y1154D01*
X1877Y1154D02*
X1912Y1154D01*
X0Y1153D02*
X7Y1153D01*
X574Y1153D02*
X580Y1153D01*
X626Y1153D02*
X636Y1153D01*
X646Y1153D02*
X657Y1153D01*
X683Y1153D02*
X687Y1153D01*
X825Y1153D02*
X831Y1153D01*
X839Y1153D02*
X845Y1153D01*
X853Y1153D02*
X859Y1153D01*
X877Y1153D02*
X887Y1153D01*
X897Y1153D02*
X908Y1153D01*
X932Y1153D02*
X939Y1153D01*
X978Y1153D02*
X987Y1153D01*
X1051Y1153D02*
X1059Y1153D01*
X1128Y1153D02*
X1134Y1153D01*
X1152Y1153D02*
X1159Y1153D01*
X1177Y1153D02*
X1183Y1153D01*
X1204Y1153D02*
X1210Y1153D01*
X1233Y1153D02*
X1240Y1153D01*
X1774Y1153D02*
X1804Y1153D01*
X1838Y1153D02*
X1844Y1153D01*
X1876Y1153D02*
X1886Y1153D01*
X1893Y1153D02*
X1912Y1153D01*
X0Y1152D02*
X7Y1152D01*
X574Y1152D02*
X580Y1152D01*
X626Y1152D02*
X634Y1152D01*
X649Y1152D02*
X657Y1152D01*
X683Y1152D02*
X686Y1152D01*
X825Y1152D02*
X831Y1152D01*
X840Y1152D02*
X845Y1152D01*
X853Y1152D02*
X859Y1152D01*
X877Y1152D02*
X885Y1152D01*
X900Y1152D02*
X908Y1152D01*
X933Y1152D02*
X939Y1152D01*
X977Y1152D02*
X985Y1152D01*
X1053Y1152D02*
X1059Y1152D01*
X1127Y1152D02*
X1134Y1152D01*
X1153Y1152D02*
X1159Y1152D01*
X1177Y1152D02*
X1183Y1152D01*
X1204Y1152D02*
X1210Y1152D01*
X1234Y1152D02*
X1240Y1152D01*
X1774Y1152D02*
X1803Y1152D01*
X1838Y1152D02*
X1844Y1152D01*
X1876Y1152D02*
X1884Y1152D01*
X1895Y1152D02*
X1912Y1152D01*
X0Y1151D02*
X7Y1151D01*
X574Y1151D02*
X580Y1151D01*
X625Y1151D02*
X633Y1151D01*
X650Y1151D02*
X658Y1151D01*
X683Y1151D02*
X685Y1151D01*
X825Y1151D02*
X831Y1151D01*
X840Y1151D02*
X844Y1151D01*
X853Y1151D02*
X859Y1151D01*
X876Y1151D02*
X884Y1151D01*
X901Y1151D02*
X909Y1151D01*
X933Y1151D02*
X939Y1151D01*
X977Y1151D02*
X984Y1151D01*
X1053Y1151D02*
X1060Y1151D01*
X1127Y1151D02*
X1133Y1151D01*
X1153Y1151D02*
X1160Y1151D01*
X1177Y1151D02*
X1183Y1151D01*
X1204Y1151D02*
X1210Y1151D01*
X1234Y1151D02*
X1240Y1151D01*
X1774Y1151D02*
X1801Y1151D01*
X1838Y1151D02*
X1844Y1151D01*
X1875Y1151D02*
X1883Y1151D01*
X1896Y1151D02*
X1912Y1151D01*
X0Y1150D02*
X7Y1150D01*
X574Y1150D02*
X580Y1150D01*
X625Y1150D02*
X632Y1150D01*
X651Y1150D02*
X658Y1150D01*
X683Y1150D02*
X684Y1150D01*
X825Y1150D02*
X831Y1150D01*
X853Y1150D02*
X859Y1150D01*
X876Y1150D02*
X883Y1150D01*
X902Y1150D02*
X909Y1150D01*
X933Y1150D02*
X939Y1150D01*
X976Y1150D02*
X983Y1150D01*
X1054Y1150D02*
X1060Y1150D01*
X1127Y1150D02*
X1133Y1150D01*
X1154Y1150D02*
X1160Y1150D01*
X1177Y1150D02*
X1183Y1150D01*
X1204Y1150D02*
X1210Y1150D01*
X1234Y1150D02*
X1240Y1150D01*
X1774Y1150D02*
X1781Y1150D01*
X1786Y1150D02*
X1794Y1150D01*
X1838Y1150D02*
X1844Y1150D01*
X1875Y1150D02*
X1882Y1150D01*
X1897Y1150D02*
X1912Y1150D01*
X0Y1149D02*
X7Y1149D01*
X574Y1149D02*
X580Y1149D01*
X625Y1149D02*
X631Y1149D01*
X652Y1149D02*
X658Y1149D01*
X683Y1149D02*
X683Y1149D01*
X825Y1149D02*
X831Y1149D01*
X853Y1149D02*
X859Y1149D01*
X876Y1149D02*
X882Y1149D01*
X903Y1149D02*
X909Y1149D01*
X933Y1149D02*
X939Y1149D01*
X976Y1149D02*
X982Y1149D01*
X1054Y1149D02*
X1060Y1149D01*
X1127Y1149D02*
X1133Y1149D01*
X1154Y1149D02*
X1160Y1149D01*
X1177Y1149D02*
X1183Y1149D01*
X1204Y1149D02*
X1210Y1149D01*
X1234Y1149D02*
X1240Y1149D01*
X1774Y1149D02*
X1780Y1149D01*
X1787Y1149D02*
X1794Y1149D01*
X1838Y1149D02*
X1844Y1149D01*
X1875Y1149D02*
X1881Y1149D01*
X1899Y1149D02*
X1912Y1149D01*
X0Y1148D02*
X7Y1148D01*
X574Y1148D02*
X580Y1148D01*
X625Y1148D02*
X631Y1148D01*
X652Y1148D02*
X658Y1148D01*
X825Y1148D02*
X831Y1148D01*
X853Y1148D02*
X859Y1148D01*
X876Y1148D02*
X882Y1148D01*
X903Y1148D02*
X909Y1148D01*
X933Y1148D02*
X939Y1148D01*
X976Y1148D02*
X982Y1148D01*
X1054Y1148D02*
X1060Y1148D01*
X1127Y1148D02*
X1133Y1148D01*
X1154Y1148D02*
X1160Y1148D01*
X1177Y1148D02*
X1183Y1148D01*
X1204Y1148D02*
X1210Y1148D01*
X1234Y1148D02*
X1240Y1148D01*
X1774Y1148D02*
X1780Y1148D01*
X1787Y1148D02*
X1794Y1148D01*
X1838Y1148D02*
X1844Y1148D01*
X1875Y1148D02*
X1881Y1148D01*
X1900Y1148D02*
X1912Y1148D01*
X0Y1147D02*
X7Y1147D01*
X574Y1147D02*
X580Y1147D01*
X625Y1147D02*
X631Y1147D01*
X652Y1147D02*
X658Y1147D01*
X825Y1147D02*
X831Y1147D01*
X853Y1147D02*
X859Y1147D01*
X876Y1147D02*
X882Y1147D01*
X903Y1147D02*
X909Y1147D01*
X933Y1147D02*
X939Y1147D01*
X976Y1147D02*
X982Y1147D01*
X1054Y1147D02*
X1060Y1147D01*
X1127Y1147D02*
X1133Y1147D01*
X1154Y1147D02*
X1160Y1147D01*
X1177Y1147D02*
X1183Y1147D01*
X1204Y1147D02*
X1210Y1147D01*
X1234Y1147D02*
X1240Y1147D01*
X1774Y1147D02*
X1780Y1147D01*
X1788Y1147D02*
X1795Y1147D01*
X1838Y1147D02*
X1844Y1147D01*
X1875Y1147D02*
X1880Y1147D01*
X1901Y1147D02*
X1912Y1147D01*
X0Y1146D02*
X7Y1146D01*
X574Y1146D02*
X580Y1146D01*
X625Y1146D02*
X631Y1146D01*
X652Y1146D02*
X658Y1146D01*
X825Y1146D02*
X831Y1146D01*
X853Y1146D02*
X859Y1146D01*
X876Y1146D02*
X882Y1146D01*
X903Y1146D02*
X909Y1146D01*
X933Y1146D02*
X939Y1146D01*
X976Y1146D02*
X981Y1146D01*
X1054Y1146D02*
X1059Y1146D01*
X1127Y1146D02*
X1133Y1146D01*
X1154Y1146D02*
X1160Y1146D01*
X1177Y1146D02*
X1183Y1146D01*
X1204Y1146D02*
X1210Y1146D01*
X1234Y1146D02*
X1240Y1146D01*
X1774Y1146D02*
X1780Y1146D01*
X1788Y1146D02*
X1796Y1146D01*
X1838Y1146D02*
X1844Y1146D01*
X1875Y1146D02*
X1880Y1146D01*
X1902Y1146D02*
X1912Y1146D01*
X0Y1145D02*
X7Y1145D01*
X574Y1145D02*
X580Y1145D01*
X625Y1145D02*
X631Y1145D01*
X652Y1145D02*
X658Y1145D01*
X825Y1145D02*
X831Y1145D01*
X853Y1145D02*
X859Y1145D01*
X876Y1145D02*
X882Y1145D01*
X903Y1145D02*
X909Y1145D01*
X933Y1145D02*
X939Y1145D01*
X976Y1145D02*
X980Y1145D01*
X1055Y1145D02*
X1058Y1145D01*
X1127Y1145D02*
X1133Y1145D01*
X1154Y1145D02*
X1160Y1145D01*
X1177Y1145D02*
X1183Y1145D01*
X1204Y1145D02*
X1210Y1145D01*
X1234Y1145D02*
X1240Y1145D01*
X1774Y1145D02*
X1780Y1145D01*
X1789Y1145D02*
X1796Y1145D01*
X1838Y1145D02*
X1844Y1145D01*
X1875Y1145D02*
X1880Y1145D01*
X1902Y1145D02*
X1912Y1145D01*
X0Y1144D02*
X7Y1144D01*
X574Y1144D02*
X580Y1144D01*
X625Y1144D02*
X631Y1144D01*
X652Y1144D02*
X658Y1144D01*
X825Y1144D02*
X831Y1144D01*
X853Y1144D02*
X859Y1144D01*
X876Y1144D02*
X882Y1144D01*
X903Y1144D02*
X909Y1144D01*
X933Y1144D02*
X939Y1144D01*
X976Y1144D02*
X980Y1144D01*
X1127Y1144D02*
X1133Y1144D01*
X1153Y1144D02*
X1160Y1144D01*
X1177Y1144D02*
X1183Y1144D01*
X1204Y1144D02*
X1210Y1144D01*
X1234Y1144D02*
X1240Y1144D01*
X1774Y1144D02*
X1780Y1144D01*
X1789Y1144D02*
X1797Y1144D01*
X1838Y1144D02*
X1844Y1144D01*
X1875Y1144D02*
X1880Y1144D01*
X1902Y1144D02*
X1912Y1144D01*
X0Y1143D02*
X7Y1143D01*
X574Y1143D02*
X580Y1143D01*
X625Y1143D02*
X631Y1143D01*
X652Y1143D02*
X658Y1143D01*
X825Y1143D02*
X831Y1143D01*
X853Y1143D02*
X859Y1143D01*
X876Y1143D02*
X882Y1143D01*
X903Y1143D02*
X909Y1143D01*
X933Y1143D02*
X939Y1143D01*
X976Y1143D02*
X979Y1143D01*
X1127Y1143D02*
X1134Y1143D01*
X1153Y1143D02*
X1159Y1143D01*
X1177Y1143D02*
X1183Y1143D01*
X1204Y1143D02*
X1210Y1143D01*
X1234Y1143D02*
X1240Y1143D01*
X1774Y1143D02*
X1780Y1143D01*
X1790Y1143D02*
X1797Y1143D01*
X1838Y1143D02*
X1844Y1143D01*
X1875Y1143D02*
X1880Y1143D01*
X1902Y1143D02*
X1912Y1143D01*
X0Y1142D02*
X7Y1142D01*
X574Y1142D02*
X580Y1142D01*
X625Y1142D02*
X658Y1142D01*
X825Y1142D02*
X831Y1142D01*
X853Y1142D02*
X859Y1142D01*
X876Y1142D02*
X882Y1142D01*
X903Y1142D02*
X909Y1142D01*
X933Y1142D02*
X939Y1142D01*
X976Y1142D02*
X978Y1142D01*
X1128Y1142D02*
X1134Y1142D01*
X1152Y1142D02*
X1159Y1142D01*
X1177Y1142D02*
X1183Y1142D01*
X1204Y1142D02*
X1210Y1142D01*
X1234Y1142D02*
X1240Y1142D01*
X1774Y1142D02*
X1780Y1142D01*
X1791Y1142D02*
X1798Y1142D01*
X1838Y1142D02*
X1844Y1142D01*
X1875Y1142D02*
X1880Y1142D01*
X1902Y1142D02*
X1912Y1142D01*
X0Y1141D02*
X7Y1141D01*
X574Y1141D02*
X580Y1141D01*
X625Y1141D02*
X658Y1141D01*
X825Y1141D02*
X831Y1141D01*
X853Y1141D02*
X859Y1141D01*
X876Y1141D02*
X882Y1141D01*
X903Y1141D02*
X909Y1141D01*
X933Y1141D02*
X939Y1141D01*
X976Y1141D02*
X978Y1141D01*
X1128Y1141D02*
X1135Y1141D01*
X1152Y1141D02*
X1159Y1141D01*
X1177Y1141D02*
X1183Y1141D01*
X1204Y1141D02*
X1210Y1141D01*
X1234Y1141D02*
X1240Y1141D01*
X1774Y1141D02*
X1780Y1141D01*
X1791Y1141D02*
X1798Y1141D01*
X1838Y1141D02*
X1844Y1141D01*
X1875Y1141D02*
X1880Y1141D01*
X1902Y1141D02*
X1912Y1141D01*
X0Y1140D02*
X7Y1140D01*
X574Y1140D02*
X580Y1140D01*
X625Y1140D02*
X658Y1140D01*
X825Y1140D02*
X831Y1140D01*
X853Y1140D02*
X859Y1140D01*
X876Y1140D02*
X882Y1140D01*
X903Y1140D02*
X909Y1140D01*
X933Y1140D02*
X939Y1140D01*
X976Y1140D02*
X977Y1140D01*
X1128Y1140D02*
X1135Y1140D01*
X1151Y1140D02*
X1158Y1140D01*
X1177Y1140D02*
X1183Y1140D01*
X1204Y1140D02*
X1210Y1140D01*
X1234Y1140D02*
X1240Y1140D01*
X1774Y1140D02*
X1780Y1140D01*
X1792Y1140D02*
X1799Y1140D01*
X1838Y1140D02*
X1844Y1140D01*
X1875Y1140D02*
X1880Y1140D01*
X1902Y1140D02*
X1912Y1140D01*
X0Y1139D02*
X7Y1139D01*
X574Y1139D02*
X580Y1139D01*
X625Y1139D02*
X658Y1139D01*
X825Y1139D02*
X831Y1139D01*
X853Y1139D02*
X859Y1139D01*
X876Y1139D02*
X882Y1139D01*
X903Y1139D02*
X909Y1139D01*
X933Y1139D02*
X939Y1139D01*
X976Y1139D02*
X977Y1139D01*
X1129Y1139D02*
X1136Y1139D01*
X1151Y1139D02*
X1158Y1139D01*
X1177Y1139D02*
X1183Y1139D01*
X1204Y1139D02*
X1210Y1139D01*
X1234Y1139D02*
X1240Y1139D01*
X1774Y1139D02*
X1780Y1139D01*
X1792Y1139D02*
X1800Y1139D01*
X1838Y1139D02*
X1844Y1139D01*
X1875Y1139D02*
X1880Y1139D01*
X1902Y1139D02*
X1912Y1139D01*
X0Y1138D02*
X7Y1138D01*
X574Y1138D02*
X580Y1138D01*
X625Y1138D02*
X658Y1138D01*
X825Y1138D02*
X831Y1138D01*
X853Y1138D02*
X859Y1138D01*
X876Y1138D02*
X882Y1138D01*
X903Y1138D02*
X909Y1138D01*
X933Y1138D02*
X939Y1138D01*
X976Y1138D02*
X976Y1138D01*
X1129Y1138D02*
X1136Y1138D01*
X1150Y1138D02*
X1157Y1138D01*
X1177Y1138D02*
X1183Y1138D01*
X1204Y1138D02*
X1210Y1138D01*
X1234Y1138D02*
X1240Y1138D01*
X1774Y1138D02*
X1780Y1138D01*
X1793Y1138D02*
X1800Y1138D01*
X1838Y1138D02*
X1844Y1138D01*
X1875Y1138D02*
X1880Y1138D01*
X1902Y1138D02*
X1912Y1138D01*
X0Y1137D02*
X7Y1137D01*
X574Y1137D02*
X580Y1137D01*
X625Y1137D02*
X658Y1137D01*
X825Y1137D02*
X831Y1137D01*
X853Y1137D02*
X859Y1137D01*
X876Y1137D02*
X882Y1137D01*
X903Y1137D02*
X909Y1137D01*
X933Y1137D02*
X939Y1137D01*
X976Y1137D02*
X976Y1137D01*
X1130Y1137D02*
X1137Y1137D01*
X1150Y1137D02*
X1157Y1137D01*
X1177Y1137D02*
X1183Y1137D01*
X1204Y1137D02*
X1210Y1137D01*
X1234Y1137D02*
X1240Y1137D01*
X1774Y1137D02*
X1780Y1137D01*
X1794Y1137D02*
X1801Y1137D01*
X1838Y1137D02*
X1844Y1137D01*
X1875Y1137D02*
X1880Y1137D01*
X1901Y1137D02*
X1912Y1137D01*
X0Y1136D02*
X7Y1136D01*
X574Y1136D02*
X580Y1136D01*
X625Y1136D02*
X657Y1136D01*
X825Y1136D02*
X831Y1136D01*
X853Y1136D02*
X859Y1136D01*
X876Y1136D02*
X882Y1136D01*
X903Y1136D02*
X909Y1136D01*
X933Y1136D02*
X939Y1136D01*
X976Y1136D02*
X976Y1136D01*
X1130Y1136D02*
X1137Y1136D01*
X1149Y1136D02*
X1156Y1136D01*
X1177Y1136D02*
X1183Y1136D01*
X1204Y1136D02*
X1210Y1136D01*
X1234Y1136D02*
X1240Y1136D01*
X1774Y1136D02*
X1780Y1136D01*
X1794Y1136D02*
X1801Y1136D01*
X1838Y1136D02*
X1844Y1136D01*
X1875Y1136D02*
X1881Y1136D01*
X1900Y1136D02*
X1912Y1136D01*
X0Y1135D02*
X7Y1135D01*
X574Y1135D02*
X580Y1135D01*
X625Y1135D02*
X631Y1135D01*
X825Y1135D02*
X831Y1135D01*
X853Y1135D02*
X859Y1135D01*
X876Y1135D02*
X882Y1135D01*
X903Y1135D02*
X909Y1135D01*
X933Y1135D02*
X939Y1135D01*
X1131Y1135D02*
X1138Y1135D01*
X1149Y1135D02*
X1156Y1135D01*
X1177Y1135D02*
X1183Y1135D01*
X1204Y1135D02*
X1210Y1135D01*
X1234Y1135D02*
X1240Y1135D01*
X1774Y1135D02*
X1780Y1135D01*
X1795Y1135D02*
X1802Y1135D01*
X1838Y1135D02*
X1844Y1135D01*
X1875Y1135D02*
X1881Y1135D01*
X1899Y1135D02*
X1912Y1135D01*
X0Y1134D02*
X7Y1134D01*
X574Y1134D02*
X580Y1134D01*
X625Y1134D02*
X631Y1134D01*
X825Y1134D02*
X831Y1134D01*
X853Y1134D02*
X859Y1134D01*
X876Y1134D02*
X882Y1134D01*
X903Y1134D02*
X909Y1134D01*
X933Y1134D02*
X939Y1134D01*
X1131Y1134D02*
X1138Y1134D01*
X1148Y1134D02*
X1155Y1134D01*
X1177Y1134D02*
X1183Y1134D01*
X1203Y1134D02*
X1210Y1134D01*
X1234Y1134D02*
X1240Y1134D01*
X1774Y1134D02*
X1780Y1134D01*
X1795Y1134D02*
X1803Y1134D01*
X1838Y1134D02*
X1844Y1134D01*
X1875Y1134D02*
X1881Y1134D01*
X1898Y1134D02*
X1912Y1134D01*
X0Y1133D02*
X7Y1133D01*
X574Y1133D02*
X580Y1133D01*
X625Y1133D02*
X631Y1133D01*
X757Y1133D02*
X757Y1133D01*
X825Y1133D02*
X831Y1133D01*
X853Y1133D02*
X859Y1133D01*
X876Y1133D02*
X882Y1133D01*
X903Y1133D02*
X909Y1133D01*
X933Y1133D02*
X939Y1133D01*
X955Y1133D02*
X958Y1133D01*
X1132Y1133D02*
X1139Y1133D01*
X1148Y1133D02*
X1155Y1133D01*
X1177Y1133D02*
X1184Y1133D01*
X1201Y1133D02*
X1210Y1133D01*
X1234Y1133D02*
X1240Y1133D01*
X1256Y1133D02*
X1259Y1133D01*
X1774Y1133D02*
X1780Y1133D01*
X1796Y1133D02*
X1803Y1133D01*
X1838Y1133D02*
X1844Y1133D01*
X1875Y1133D02*
X1882Y1133D01*
X1897Y1133D02*
X1912Y1133D01*
X0Y1132D02*
X7Y1132D01*
X574Y1132D02*
X580Y1132D01*
X625Y1132D02*
X631Y1132D01*
X758Y1132D02*
X758Y1132D01*
X825Y1132D02*
X831Y1132D01*
X853Y1132D02*
X859Y1132D01*
X876Y1132D02*
X882Y1132D01*
X903Y1132D02*
X909Y1132D01*
X933Y1132D02*
X939Y1132D01*
X954Y1132D02*
X959Y1132D01*
X1132Y1132D02*
X1139Y1132D01*
X1147Y1132D02*
X1154Y1132D01*
X1178Y1132D02*
X1184Y1132D01*
X1200Y1132D02*
X1210Y1132D01*
X1234Y1132D02*
X1240Y1132D01*
X1255Y1132D02*
X1260Y1132D01*
X1774Y1132D02*
X1780Y1132D01*
X1797Y1132D02*
X1804Y1132D01*
X1838Y1132D02*
X1844Y1132D01*
X1875Y1132D02*
X1883Y1132D01*
X1896Y1132D02*
X1912Y1132D01*
X0Y1131D02*
X7Y1131D01*
X574Y1131D02*
X580Y1131D01*
X625Y1131D02*
X631Y1131D01*
X758Y1131D02*
X758Y1131D01*
X825Y1131D02*
X831Y1131D01*
X853Y1131D02*
X859Y1131D01*
X876Y1131D02*
X882Y1131D01*
X902Y1131D02*
X909Y1131D01*
X933Y1131D02*
X939Y1131D01*
X954Y1131D02*
X959Y1131D01*
X1133Y1131D02*
X1140Y1131D01*
X1147Y1131D02*
X1154Y1131D01*
X1178Y1131D02*
X1184Y1131D01*
X1198Y1131D02*
X1210Y1131D01*
X1234Y1131D02*
X1240Y1131D01*
X1255Y1131D02*
X1260Y1131D01*
X1774Y1131D02*
X1780Y1131D01*
X1797Y1131D02*
X1804Y1131D01*
X1838Y1131D02*
X1844Y1131D01*
X1876Y1131D02*
X1885Y1131D01*
X1894Y1131D02*
X1912Y1131D01*
X0Y1130D02*
X7Y1130D01*
X574Y1130D02*
X580Y1130D01*
X625Y1130D02*
X632Y1130D01*
X758Y1130D02*
X759Y1130D01*
X825Y1130D02*
X831Y1130D01*
X853Y1130D02*
X859Y1130D01*
X876Y1130D02*
X883Y1130D01*
X901Y1130D02*
X909Y1130D01*
X933Y1130D02*
X939Y1130D01*
X953Y1130D02*
X959Y1130D01*
X1133Y1130D02*
X1140Y1130D01*
X1146Y1130D02*
X1153Y1130D01*
X1178Y1130D02*
X1184Y1130D01*
X1197Y1130D02*
X1210Y1130D01*
X1234Y1130D02*
X1240Y1130D01*
X1254Y1130D02*
X1260Y1130D01*
X1774Y1130D02*
X1780Y1130D01*
X1798Y1130D02*
X1805Y1130D01*
X1838Y1130D02*
X1844Y1130D01*
X1877Y1130D02*
X1912Y1130D01*
X0Y1129D02*
X7Y1129D01*
X574Y1129D02*
X580Y1129D01*
X625Y1129D02*
X634Y1129D01*
X758Y1129D02*
X758Y1129D01*
X825Y1129D02*
X831Y1129D01*
X853Y1129D02*
X859Y1129D01*
X876Y1129D02*
X885Y1129D01*
X900Y1129D02*
X908Y1129D01*
X933Y1129D02*
X939Y1129D01*
X952Y1129D02*
X959Y1129D01*
X1134Y1129D02*
X1141Y1129D01*
X1146Y1129D02*
X1153Y1129D01*
X1178Y1129D02*
X1184Y1129D01*
X1195Y1129D02*
X1210Y1129D01*
X1234Y1129D02*
X1241Y1129D01*
X1254Y1129D02*
X1260Y1129D01*
X1774Y1129D02*
X1780Y1129D01*
X1798Y1129D02*
X1805Y1129D01*
X1838Y1129D02*
X1844Y1129D01*
X1877Y1129D02*
X1912Y1129D01*
X0Y1128D02*
X7Y1128D01*
X574Y1128D02*
X581Y1128D01*
X626Y1128D02*
X635Y1128D01*
X758Y1128D02*
X758Y1128D01*
X825Y1128D02*
X831Y1128D01*
X853Y1128D02*
X859Y1128D01*
X877Y1128D02*
X886Y1128D01*
X899Y1128D02*
X908Y1128D01*
X933Y1128D02*
X941Y1128D01*
X951Y1128D02*
X959Y1128D01*
X1134Y1128D02*
X1142Y1128D01*
X1145Y1128D02*
X1152Y1128D01*
X1178Y1128D02*
X1186Y1128D01*
X1193Y1128D02*
X1210Y1128D01*
X1234Y1128D02*
X1242Y1128D01*
X1252Y1128D02*
X1260Y1128D01*
X1774Y1128D02*
X1780Y1128D01*
X1799Y1128D02*
X1806Y1128D01*
X1838Y1128D02*
X1844Y1128D01*
X1878Y1128D02*
X1912Y1128D01*
X0Y1127D02*
X7Y1127D01*
X574Y1127D02*
X606Y1127D01*
X627Y1127D02*
X657Y1127D01*
X825Y1127D02*
X831Y1127D01*
X853Y1127D02*
X859Y1127D01*
X878Y1127D02*
X907Y1127D01*
X933Y1127D02*
X959Y1127D01*
X1135Y1127D02*
X1152Y1127D01*
X1178Y1127D02*
X1210Y1127D01*
X1235Y1127D02*
X1260Y1127D01*
X1774Y1127D02*
X1780Y1127D01*
X1799Y1127D02*
X1807Y1127D01*
X1829Y1127D02*
X1853Y1127D01*
X1880Y1127D02*
X1900Y1127D01*
X1902Y1127D02*
X1912Y1127D01*
X0Y1126D02*
X7Y1126D01*
X574Y1126D02*
X607Y1126D01*
X628Y1126D02*
X658Y1126D01*
X825Y1126D02*
X831Y1126D01*
X853Y1126D02*
X859Y1126D01*
X878Y1126D02*
X906Y1126D01*
X934Y1126D02*
X958Y1126D01*
X1135Y1126D02*
X1151Y1126D01*
X1179Y1126D02*
X1202Y1126D01*
X1204Y1126D02*
X1210Y1126D01*
X1235Y1126D02*
X1259Y1126D01*
X1774Y1126D02*
X1780Y1126D01*
X1800Y1126D02*
X1807Y1126D01*
X1828Y1126D02*
X1854Y1126D01*
X1881Y1126D02*
X1898Y1126D01*
X1902Y1126D02*
X1912Y1126D01*
X0Y1125D02*
X7Y1125D01*
X574Y1125D02*
X608Y1125D01*
X629Y1125D02*
X658Y1125D01*
X825Y1125D02*
X831Y1125D01*
X853Y1125D02*
X859Y1125D01*
X880Y1125D02*
X905Y1125D01*
X935Y1125D02*
X957Y1125D01*
X1136Y1125D02*
X1151Y1125D01*
X1180Y1125D02*
X1201Y1125D01*
X1204Y1125D02*
X1210Y1125D01*
X1236Y1125D02*
X1258Y1125D01*
X1774Y1125D02*
X1780Y1125D01*
X1801Y1125D02*
X1808Y1125D01*
X1828Y1125D02*
X1854Y1125D01*
X1882Y1125D02*
X1897Y1125D01*
X1902Y1125D02*
X1912Y1125D01*
X0Y1124D02*
X7Y1124D01*
X574Y1124D02*
X608Y1124D01*
X630Y1124D02*
X658Y1124D01*
X825Y1124D02*
X831Y1124D01*
X853Y1124D02*
X859Y1124D01*
X881Y1124D02*
X904Y1124D01*
X935Y1124D02*
X956Y1124D01*
X1137Y1124D02*
X1150Y1124D01*
X1180Y1124D02*
X1199Y1124D01*
X1204Y1124D02*
X1210Y1124D01*
X1237Y1124D02*
X1258Y1124D01*
X1774Y1124D02*
X1780Y1124D01*
X1801Y1124D02*
X1808Y1124D01*
X1828Y1124D02*
X1854Y1124D01*
X1885Y1124D02*
X1894Y1124D01*
X1902Y1124D02*
X1912Y1124D01*
X0Y1123D02*
X7Y1123D01*
X574Y1123D02*
X608Y1123D01*
X631Y1123D02*
X658Y1123D01*
X826Y1123D02*
X831Y1123D01*
X853Y1123D02*
X859Y1123D01*
X882Y1123D02*
X903Y1123D01*
X937Y1123D02*
X955Y1123D01*
X1138Y1123D02*
X1149Y1123D01*
X1182Y1123D02*
X1198Y1123D01*
X1205Y1123D02*
X1210Y1123D01*
X1238Y1123D02*
X1257Y1123D01*
X1774Y1123D02*
X1780Y1123D01*
X1802Y1123D02*
X1807Y1123D01*
X1828Y1123D02*
X1854Y1123D01*
X1902Y1123D02*
X1912Y1123D01*
X0Y1122D02*
X7Y1122D01*
X574Y1122D02*
X607Y1122D01*
X632Y1122D02*
X657Y1122D01*
X826Y1122D02*
X831Y1122D01*
X854Y1122D02*
X858Y1122D01*
X883Y1122D02*
X901Y1122D01*
X938Y1122D02*
X954Y1122D01*
X1139Y1122D02*
X1147Y1122D01*
X1183Y1122D02*
X1196Y1122D01*
X1205Y1122D02*
X1209Y1122D01*
X1239Y1122D02*
X1255Y1122D01*
X1775Y1122D02*
X1779Y1122D01*
X1803Y1122D02*
X1807Y1122D01*
X1829Y1122D02*
X1854Y1122D01*
X1902Y1122D02*
X1912Y1122D01*
X0Y1121D02*
X7Y1121D01*
X574Y1121D02*
X606Y1121D01*
X635Y1121D02*
X656Y1121D01*
X827Y1121D02*
X829Y1121D01*
X855Y1121D02*
X857Y1121D01*
X886Y1121D02*
X899Y1121D01*
X940Y1121D02*
X951Y1121D01*
X1141Y1121D02*
X1145Y1121D01*
X1185Y1121D02*
X1194Y1121D01*
X1206Y1121D02*
X1208Y1121D01*
X1242Y1121D02*
X1253Y1121D01*
X1776Y1121D02*
X1778Y1121D01*
X1804Y1121D02*
X1806Y1121D01*
X1830Y1121D02*
X1852Y1121D01*
X1902Y1121D02*
X1912Y1121D01*
X0Y1120D02*
X7Y1120D01*
X1902Y1120D02*
X1912Y1120D01*
X0Y1119D02*
X7Y1119D01*
X1902Y1119D02*
X1912Y1119D01*
X0Y1118D02*
X7Y1118D01*
X1902Y1118D02*
X1912Y1118D01*
X0Y1117D02*
X7Y1117D01*
X1902Y1117D02*
X1912Y1117D01*
X0Y1116D02*
X7Y1116D01*
X1901Y1116D02*
X1912Y1116D01*
X0Y1115D02*
X7Y1115D01*
X1900Y1115D02*
X1912Y1115D01*
X0Y1114D02*
X7Y1114D01*
X1899Y1114D02*
X1912Y1114D01*
X0Y1113D02*
X7Y1113D01*
X1897Y1113D02*
X1912Y1113D01*
X0Y1112D02*
X7Y1112D01*
X1879Y1112D02*
X1912Y1112D01*
X0Y1111D02*
X7Y1111D01*
X1878Y1111D02*
X1912Y1111D01*
X0Y1110D02*
X7Y1110D01*
X1878Y1110D02*
X1912Y1110D01*
X0Y1109D02*
X7Y1109D01*
X1878Y1109D02*
X1903Y1109D01*
X1905Y1109D02*
X1912Y1109D01*
X0Y1108D02*
X7Y1108D01*
X1878Y1108D02*
X1901Y1108D01*
X1905Y1108D02*
X1912Y1108D01*
X0Y1107D02*
X7Y1107D01*
X1879Y1107D02*
X1900Y1107D01*
X1905Y1107D02*
X1912Y1107D01*
X0Y1106D02*
X7Y1106D01*
X1881Y1106D02*
X1896Y1106D01*
X1905Y1106D02*
X1912Y1106D01*
X0Y1105D02*
X7Y1105D01*
X1905Y1105D02*
X1912Y1105D01*
X0Y1104D02*
X7Y1104D01*
X1905Y1104D02*
X1912Y1104D01*
X0Y1103D02*
X7Y1103D01*
X1905Y1103D02*
X1912Y1103D01*
X0Y1102D02*
X7Y1102D01*
X1905Y1102D02*
X1912Y1102D01*
X0Y1101D02*
X7Y1101D01*
X1905Y1101D02*
X1912Y1101D01*
X0Y1100D02*
X7Y1100D01*
X1905Y1100D02*
X1912Y1100D01*
X0Y1099D02*
X7Y1099D01*
X1905Y1099D02*
X1912Y1099D01*
X0Y1098D02*
X7Y1098D01*
X1905Y1098D02*
X1912Y1098D01*
X0Y1097D02*
X7Y1097D01*
X1905Y1097D02*
X1912Y1097D01*
X0Y1096D02*
X7Y1096D01*
X1905Y1096D02*
X1912Y1096D01*
X0Y1095D02*
X7Y1095D01*
X1905Y1095D02*
X1912Y1095D01*
X0Y1094D02*
X7Y1094D01*
X1905Y1094D02*
X1912Y1094D01*
X0Y1093D02*
X7Y1093D01*
X1905Y1093D02*
X1912Y1093D01*
X0Y1092D02*
X7Y1092D01*
X1905Y1092D02*
X1912Y1092D01*
X0Y1091D02*
X7Y1091D01*
X1905Y1091D02*
X1912Y1091D01*
X0Y1090D02*
X7Y1090D01*
X1905Y1090D02*
X1912Y1090D01*
X0Y1089D02*
X7Y1089D01*
X1905Y1089D02*
X1912Y1089D01*
X0Y1088D02*
X7Y1088D01*
X1905Y1088D02*
X1912Y1088D01*
X0Y1087D02*
X7Y1087D01*
X1905Y1087D02*
X1912Y1087D01*
X0Y1086D02*
X7Y1086D01*
X1905Y1086D02*
X1912Y1086D01*
X0Y1085D02*
X7Y1085D01*
X1905Y1085D02*
X1912Y1085D01*
X0Y1084D02*
X7Y1084D01*
X1905Y1084D02*
X1912Y1084D01*
X0Y1083D02*
X7Y1083D01*
X1905Y1083D02*
X1912Y1083D01*
X0Y1082D02*
X7Y1082D01*
X1905Y1082D02*
X1912Y1082D01*
X0Y1081D02*
X7Y1081D01*
X1905Y1081D02*
X1912Y1081D01*
X0Y1080D02*
X7Y1080D01*
X1905Y1080D02*
X1912Y1080D01*
X0Y1079D02*
X7Y1079D01*
X1905Y1079D02*
X1912Y1079D01*
X0Y1078D02*
X7Y1078D01*
X1905Y1078D02*
X1912Y1078D01*
X0Y1077D02*
X7Y1077D01*
X1905Y1077D02*
X1912Y1077D01*
X0Y1076D02*
X7Y1076D01*
X1905Y1076D02*
X1912Y1076D01*
X0Y1075D02*
X7Y1075D01*
X1905Y1075D02*
X1912Y1075D01*
X0Y1074D02*
X7Y1074D01*
X1905Y1074D02*
X1912Y1074D01*
X0Y1073D02*
X7Y1073D01*
X1905Y1073D02*
X1912Y1073D01*
X0Y1072D02*
X7Y1072D01*
X1905Y1072D02*
X1912Y1072D01*
X0Y1071D02*
X7Y1071D01*
X1905Y1071D02*
X1912Y1071D01*
X0Y1070D02*
X7Y1070D01*
X1905Y1070D02*
X1912Y1070D01*
X0Y1069D02*
X7Y1069D01*
X1905Y1069D02*
X1912Y1069D01*
X0Y1068D02*
X7Y1068D01*
X1905Y1068D02*
X1912Y1068D01*
X0Y1067D02*
X7Y1067D01*
X1905Y1067D02*
X1912Y1067D01*
X0Y1066D02*
X7Y1066D01*
X1905Y1066D02*
X1912Y1066D01*
X0Y1065D02*
X7Y1065D01*
X1905Y1065D02*
X1912Y1065D01*
X0Y1064D02*
X7Y1064D01*
X1905Y1064D02*
X1912Y1064D01*
X0Y1063D02*
X7Y1063D01*
X1905Y1063D02*
X1912Y1063D01*
X0Y1062D02*
X7Y1062D01*
X1905Y1062D02*
X1912Y1062D01*
X0Y1061D02*
X7Y1061D01*
X1905Y1061D02*
X1912Y1061D01*
X0Y1060D02*
X7Y1060D01*
X1905Y1060D02*
X1912Y1060D01*
X0Y1059D02*
X7Y1059D01*
X1905Y1059D02*
X1912Y1059D01*
X0Y1058D02*
X7Y1058D01*
X1905Y1058D02*
X1912Y1058D01*
X0Y1057D02*
X7Y1057D01*
X1905Y1057D02*
X1912Y1057D01*
X0Y1056D02*
X7Y1056D01*
X1905Y1056D02*
X1912Y1056D01*
X0Y1055D02*
X7Y1055D01*
X1905Y1055D02*
X1912Y1055D01*
X0Y1054D02*
X7Y1054D01*
X1905Y1054D02*
X1912Y1054D01*
X0Y1053D02*
X7Y1053D01*
X1905Y1053D02*
X1912Y1053D01*
X0Y1052D02*
X7Y1052D01*
X1905Y1052D02*
X1912Y1052D01*
X0Y1051D02*
X7Y1051D01*
X1905Y1051D02*
X1912Y1051D01*
X0Y1050D02*
X7Y1050D01*
X1905Y1050D02*
X1912Y1050D01*
X0Y1049D02*
X7Y1049D01*
X1905Y1049D02*
X1912Y1049D01*
X0Y1048D02*
X7Y1048D01*
X1905Y1048D02*
X1912Y1048D01*
X0Y1047D02*
X7Y1047D01*
X1905Y1047D02*
X1912Y1047D01*
X0Y1046D02*
X7Y1046D01*
X1905Y1046D02*
X1912Y1046D01*
X0Y1045D02*
X7Y1045D01*
X1905Y1045D02*
X1912Y1045D01*
X0Y1044D02*
X7Y1044D01*
X1905Y1044D02*
X1912Y1044D01*
X0Y1043D02*
X7Y1043D01*
X1905Y1043D02*
X1912Y1043D01*
X0Y1042D02*
X7Y1042D01*
X1905Y1042D02*
X1912Y1042D01*
X0Y1041D02*
X7Y1041D01*
X1905Y1041D02*
X1912Y1041D01*
X0Y1040D02*
X7Y1040D01*
X1905Y1040D02*
X1912Y1040D01*
X0Y1039D02*
X7Y1039D01*
X1905Y1039D02*
X1912Y1039D01*
X0Y1038D02*
X7Y1038D01*
X1137Y1038D02*
X1140Y1038D01*
X1160Y1038D02*
X1178Y1038D01*
X1905Y1038D02*
X1912Y1038D01*
X0Y1037D02*
X7Y1037D01*
X1136Y1037D02*
X1141Y1037D01*
X1159Y1037D02*
X1178Y1037D01*
X1905Y1037D02*
X1912Y1037D01*
X0Y1036D02*
X7Y1036D01*
X1136Y1036D02*
X1141Y1036D01*
X1158Y1036D02*
X1178Y1036D01*
X1905Y1036D02*
X1912Y1036D01*
X0Y1035D02*
X7Y1035D01*
X1136Y1035D02*
X1142Y1035D01*
X1158Y1035D02*
X1178Y1035D01*
X1905Y1035D02*
X1912Y1035D01*
X0Y1034D02*
X7Y1034D01*
X1136Y1034D02*
X1142Y1034D01*
X1158Y1034D02*
X1178Y1034D01*
X1905Y1034D02*
X1912Y1034D01*
X0Y1033D02*
X7Y1033D01*
X1136Y1033D02*
X1142Y1033D01*
X1159Y1033D02*
X1178Y1033D01*
X1905Y1033D02*
X1912Y1033D01*
X0Y1032D02*
X7Y1032D01*
X1136Y1032D02*
X1142Y1032D01*
X1160Y1032D02*
X1178Y1032D01*
X1905Y1032D02*
X1912Y1032D01*
X0Y1031D02*
X7Y1031D01*
X1136Y1031D02*
X1142Y1031D01*
X1172Y1031D02*
X1178Y1031D01*
X1905Y1031D02*
X1912Y1031D01*
X0Y1030D02*
X7Y1030D01*
X1136Y1030D02*
X1142Y1030D01*
X1172Y1030D02*
X1178Y1030D01*
X1905Y1030D02*
X1912Y1030D01*
X0Y1029D02*
X7Y1029D01*
X1136Y1029D02*
X1142Y1029D01*
X1172Y1029D02*
X1178Y1029D01*
X1905Y1029D02*
X1912Y1029D01*
X0Y1028D02*
X7Y1028D01*
X1136Y1028D02*
X1142Y1028D01*
X1172Y1028D02*
X1178Y1028D01*
X1905Y1028D02*
X1912Y1028D01*
X0Y1027D02*
X7Y1027D01*
X1136Y1027D02*
X1142Y1027D01*
X1172Y1027D02*
X1178Y1027D01*
X1905Y1027D02*
X1912Y1027D01*
X0Y1026D02*
X7Y1026D01*
X1136Y1026D02*
X1142Y1026D01*
X1172Y1026D02*
X1178Y1026D01*
X1905Y1026D02*
X1912Y1026D01*
X0Y1025D02*
X7Y1025D01*
X1136Y1025D02*
X1142Y1025D01*
X1172Y1025D02*
X1178Y1025D01*
X1905Y1025D02*
X1912Y1025D01*
X0Y1024D02*
X7Y1024D01*
X1136Y1024D02*
X1142Y1024D01*
X1172Y1024D02*
X1178Y1024D01*
X1905Y1024D02*
X1912Y1024D01*
X0Y1023D02*
X7Y1023D01*
X1066Y1023D02*
X1084Y1023D01*
X1117Y1023D02*
X1129Y1023D01*
X1136Y1023D02*
X1142Y1023D01*
X1172Y1023D02*
X1178Y1023D01*
X1905Y1023D02*
X1912Y1023D01*
X0Y1022D02*
X7Y1022D01*
X1065Y1022D02*
X1086Y1022D01*
X1115Y1022D02*
X1131Y1022D01*
X1136Y1022D02*
X1142Y1022D01*
X1172Y1022D02*
X1178Y1022D01*
X1905Y1022D02*
X1912Y1022D01*
X0Y1021D02*
X7Y1021D01*
X1065Y1021D02*
X1087Y1021D01*
X1114Y1021D02*
X1132Y1021D01*
X1136Y1021D02*
X1142Y1021D01*
X1172Y1021D02*
X1178Y1021D01*
X1905Y1021D02*
X1912Y1021D01*
X0Y1020D02*
X7Y1020D01*
X1065Y1020D02*
X1088Y1020D01*
X1113Y1020D02*
X1133Y1020D01*
X1136Y1020D02*
X1142Y1020D01*
X1172Y1020D02*
X1178Y1020D01*
X1905Y1020D02*
X1912Y1020D01*
X0Y1019D02*
X7Y1019D01*
X1065Y1019D02*
X1089Y1019D01*
X1112Y1019D02*
X1142Y1019D01*
X1172Y1019D02*
X1178Y1019D01*
X1905Y1019D02*
X1912Y1019D01*
X0Y1018D02*
X7Y1018D01*
X1066Y1018D02*
X1089Y1018D01*
X1111Y1018D02*
X1142Y1018D01*
X1172Y1018D02*
X1178Y1018D01*
X1905Y1018D02*
X1912Y1018D01*
X0Y1017D02*
X7Y1017D01*
X1067Y1017D02*
X1090Y1017D01*
X1110Y1017D02*
X1142Y1017D01*
X1172Y1017D02*
X1178Y1017D01*
X1905Y1017D02*
X1912Y1017D01*
X0Y1016D02*
X7Y1016D01*
X1083Y1016D02*
X1090Y1016D01*
X1109Y1016D02*
X1118Y1016D01*
X1128Y1016D02*
X1142Y1016D01*
X1172Y1016D02*
X1178Y1016D01*
X1905Y1016D02*
X1912Y1016D01*
X0Y1015D02*
X7Y1015D01*
X1084Y1015D02*
X1090Y1015D01*
X1109Y1015D02*
X1117Y1015D01*
X1129Y1015D02*
X1142Y1015D01*
X1172Y1015D02*
X1178Y1015D01*
X1905Y1015D02*
X1912Y1015D01*
X0Y1014D02*
X7Y1014D01*
X1084Y1014D02*
X1090Y1014D01*
X1108Y1014D02*
X1116Y1014D01*
X1131Y1014D02*
X1142Y1014D01*
X1172Y1014D02*
X1178Y1014D01*
X1905Y1014D02*
X1912Y1014D01*
X0Y1013D02*
X7Y1013D01*
X1084Y1013D02*
X1091Y1013D01*
X1108Y1013D02*
X1115Y1013D01*
X1132Y1013D02*
X1142Y1013D01*
X1172Y1013D02*
X1178Y1013D01*
X1905Y1013D02*
X1912Y1013D01*
X0Y1012D02*
X7Y1012D01*
X1085Y1012D02*
X1091Y1012D01*
X1108Y1012D02*
X1114Y1012D01*
X1133Y1012D02*
X1142Y1012D01*
X1172Y1012D02*
X1178Y1012D01*
X1905Y1012D02*
X1912Y1012D01*
X0Y1011D02*
X7Y1011D01*
X1085Y1011D02*
X1091Y1011D01*
X1108Y1011D02*
X1114Y1011D01*
X1134Y1011D02*
X1142Y1011D01*
X1172Y1011D02*
X1178Y1011D01*
X1905Y1011D02*
X1912Y1011D01*
X0Y1010D02*
X7Y1010D01*
X1085Y1010D02*
X1091Y1010D01*
X1108Y1010D02*
X1114Y1010D01*
X1135Y1010D02*
X1142Y1010D01*
X1172Y1010D02*
X1178Y1010D01*
X1905Y1010D02*
X1912Y1010D01*
X0Y1009D02*
X7Y1009D01*
X1068Y1009D02*
X1080Y1009D01*
X1085Y1009D02*
X1091Y1009D01*
X1108Y1009D02*
X1114Y1009D01*
X1135Y1009D02*
X1142Y1009D01*
X1172Y1009D02*
X1178Y1009D01*
X1905Y1009D02*
X1912Y1009D01*
X0Y1008D02*
X7Y1008D01*
X1064Y1008D02*
X1091Y1008D01*
X1108Y1008D02*
X1114Y1008D01*
X1136Y1008D02*
X1142Y1008D01*
X1172Y1008D02*
X1178Y1008D01*
X1187Y1008D02*
X1191Y1008D01*
X1905Y1008D02*
X1912Y1008D01*
X0Y1007D02*
X7Y1007D01*
X1062Y1007D02*
X1091Y1007D01*
X1108Y1007D02*
X1114Y1007D01*
X1136Y1007D02*
X1142Y1007D01*
X1172Y1007D02*
X1178Y1007D01*
X1186Y1007D02*
X1191Y1007D01*
X1905Y1007D02*
X1912Y1007D01*
X0Y1006D02*
X7Y1006D01*
X1061Y1006D02*
X1091Y1006D01*
X1108Y1006D02*
X1114Y1006D01*
X1136Y1006D02*
X1142Y1006D01*
X1172Y1006D02*
X1178Y1006D01*
X1186Y1006D02*
X1192Y1006D01*
X1905Y1006D02*
X1912Y1006D01*
X0Y1005D02*
X7Y1005D01*
X1060Y1005D02*
X1091Y1005D01*
X1108Y1005D02*
X1114Y1005D01*
X1136Y1005D02*
X1142Y1005D01*
X1172Y1005D02*
X1178Y1005D01*
X1186Y1005D02*
X1192Y1005D01*
X1905Y1005D02*
X1912Y1005D01*
X0Y1004D02*
X7Y1004D01*
X1059Y1004D02*
X1091Y1004D01*
X1108Y1004D02*
X1114Y1004D01*
X1136Y1004D02*
X1142Y1004D01*
X1172Y1004D02*
X1178Y1004D01*
X1186Y1004D02*
X1192Y1004D01*
X1905Y1004D02*
X1912Y1004D01*
X0Y1003D02*
X7Y1003D01*
X1059Y1003D02*
X1091Y1003D01*
X1108Y1003D02*
X1114Y1003D01*
X1136Y1003D02*
X1142Y1003D01*
X1172Y1003D02*
X1178Y1003D01*
X1186Y1003D02*
X1192Y1003D01*
X1905Y1003D02*
X1912Y1003D01*
X0Y1002D02*
X7Y1002D01*
X1058Y1002D02*
X1091Y1002D01*
X1108Y1002D02*
X1114Y1002D01*
X1136Y1002D02*
X1142Y1002D01*
X1172Y1002D02*
X1178Y1002D01*
X1186Y1002D02*
X1192Y1002D01*
X1905Y1002D02*
X1912Y1002D01*
X0Y1001D02*
X7Y1001D01*
X1058Y1001D02*
X1065Y1001D01*
X1084Y1001D02*
X1091Y1001D01*
X1108Y1001D02*
X1114Y1001D01*
X1136Y1001D02*
X1142Y1001D01*
X1172Y1001D02*
X1178Y1001D01*
X1186Y1001D02*
X1192Y1001D01*
X1905Y1001D02*
X1912Y1001D01*
X0Y1000D02*
X7Y1000D01*
X1058Y1000D02*
X1064Y1000D01*
X1085Y1000D02*
X1091Y1000D01*
X1108Y1000D02*
X1114Y1000D01*
X1136Y1000D02*
X1142Y1000D01*
X1172Y1000D02*
X1178Y1000D01*
X1186Y1000D02*
X1192Y1000D01*
X1905Y1000D02*
X1912Y1000D01*
X0Y999D02*
X7Y999D01*
X1058Y999D02*
X1064Y999D01*
X1085Y999D02*
X1091Y999D01*
X1108Y999D02*
X1114Y999D01*
X1135Y999D02*
X1142Y999D01*
X1172Y999D02*
X1178Y999D01*
X1186Y999D02*
X1192Y999D01*
X1905Y999D02*
X1912Y999D01*
X0Y998D02*
X7Y998D01*
X1058Y998D02*
X1064Y998D01*
X1085Y998D02*
X1091Y998D01*
X1108Y998D02*
X1114Y998D01*
X1135Y998D02*
X1142Y998D01*
X1172Y998D02*
X1178Y998D01*
X1186Y998D02*
X1192Y998D01*
X1905Y998D02*
X1912Y998D01*
X0Y997D02*
X7Y997D01*
X1058Y997D02*
X1064Y997D01*
X1085Y997D02*
X1091Y997D01*
X1108Y997D02*
X1114Y997D01*
X1134Y997D02*
X1142Y997D01*
X1172Y997D02*
X1178Y997D01*
X1186Y997D02*
X1192Y997D01*
X1905Y997D02*
X1912Y997D01*
X0Y996D02*
X7Y996D01*
X1058Y996D02*
X1064Y996D01*
X1085Y996D02*
X1091Y996D01*
X1108Y996D02*
X1114Y996D01*
X1133Y996D02*
X1142Y996D01*
X1172Y996D02*
X1178Y996D01*
X1186Y996D02*
X1192Y996D01*
X1905Y996D02*
X1912Y996D01*
X0Y995D02*
X7Y995D01*
X1058Y995D02*
X1064Y995D01*
X1084Y995D02*
X1091Y995D01*
X1108Y995D02*
X1115Y995D01*
X1132Y995D02*
X1142Y995D01*
X1172Y995D02*
X1178Y995D01*
X1186Y995D02*
X1192Y995D01*
X1905Y995D02*
X1912Y995D01*
X0Y994D02*
X7Y994D01*
X1058Y994D02*
X1064Y994D01*
X1082Y994D02*
X1091Y994D01*
X1108Y994D02*
X1115Y994D01*
X1131Y994D02*
X1142Y994D01*
X1172Y994D02*
X1178Y994D01*
X1186Y994D02*
X1192Y994D01*
X1905Y994D02*
X1912Y994D01*
X0Y993D02*
X7Y993D01*
X1058Y993D02*
X1064Y993D01*
X1080Y993D02*
X1091Y993D01*
X1109Y993D02*
X1117Y993D01*
X1129Y993D02*
X1142Y993D01*
X1172Y993D02*
X1178Y993D01*
X1186Y993D02*
X1192Y993D01*
X1905Y993D02*
X1912Y993D01*
X0Y992D02*
X7Y992D01*
X1058Y992D02*
X1065Y992D01*
X1079Y992D02*
X1091Y992D01*
X1109Y992D02*
X1118Y992D01*
X1128Y992D02*
X1142Y992D01*
X1172Y992D02*
X1178Y992D01*
X1186Y992D02*
X1192Y992D01*
X1905Y992D02*
X1912Y992D01*
X0Y991D02*
X7Y991D01*
X1059Y991D02*
X1091Y991D01*
X1110Y991D02*
X1142Y991D01*
X1160Y991D02*
X1192Y991D01*
X1905Y991D02*
X1912Y991D01*
X0Y990D02*
X7Y990D01*
X1059Y990D02*
X1091Y990D01*
X1111Y990D02*
X1142Y990D01*
X1159Y990D02*
X1192Y990D01*
X1905Y990D02*
X1912Y990D01*
X0Y989D02*
X7Y989D01*
X1060Y989D02*
X1091Y989D01*
X1112Y989D02*
X1142Y989D01*
X1158Y989D02*
X1192Y989D01*
X1905Y989D02*
X1912Y989D01*
X0Y988D02*
X7Y988D01*
X1060Y988D02*
X1091Y988D01*
X1113Y988D02*
X1134Y988D01*
X1136Y988D02*
X1142Y988D01*
X1158Y988D02*
X1192Y988D01*
X1905Y988D02*
X1912Y988D01*
X0Y987D02*
X7Y987D01*
X1061Y987D02*
X1083Y987D01*
X1086Y987D02*
X1091Y987D01*
X1114Y987D02*
X1132Y987D01*
X1136Y987D02*
X1141Y987D01*
X1158Y987D02*
X1192Y987D01*
X1905Y987D02*
X1912Y987D01*
X0Y986D02*
X7Y986D01*
X1063Y986D02*
X1081Y986D01*
X1086Y986D02*
X1091Y986D01*
X1115Y986D02*
X1131Y986D01*
X1136Y986D02*
X1141Y986D01*
X1159Y986D02*
X1191Y986D01*
X1905Y986D02*
X1912Y986D01*
X0Y985D02*
X7Y985D01*
X1064Y985D02*
X1080Y985D01*
X1087Y985D02*
X1090Y985D01*
X1117Y985D02*
X1129Y985D01*
X1137Y985D02*
X1140Y985D01*
X1160Y985D02*
X1190Y985D01*
X1905Y985D02*
X1912Y985D01*
X0Y984D02*
X7Y984D01*
X1905Y984D02*
X1912Y984D01*
X0Y983D02*
X7Y983D01*
X1905Y983D02*
X1912Y983D01*
X0Y982D02*
X7Y982D01*
X1905Y982D02*
X1912Y982D01*
X0Y981D02*
X7Y981D01*
X1905Y981D02*
X1912Y981D01*
X0Y980D02*
X7Y980D01*
X1905Y980D02*
X1912Y980D01*
X0Y979D02*
X7Y979D01*
X1905Y979D02*
X1912Y979D01*
X0Y978D02*
X7Y978D01*
X1905Y978D02*
X1912Y978D01*
X0Y977D02*
X7Y977D01*
X1905Y977D02*
X1912Y977D01*
X0Y976D02*
X7Y976D01*
X1905Y976D02*
X1912Y976D01*
X0Y975D02*
X7Y975D01*
X1905Y975D02*
X1912Y975D01*
X0Y974D02*
X7Y974D01*
X1905Y974D02*
X1912Y974D01*
X0Y973D02*
X7Y973D01*
X1905Y973D02*
X1912Y973D01*
X0Y972D02*
X7Y972D01*
X1905Y972D02*
X1912Y972D01*
X0Y971D02*
X7Y971D01*
X1905Y971D02*
X1912Y971D01*
X0Y970D02*
X7Y970D01*
X1905Y970D02*
X1912Y970D01*
X0Y969D02*
X7Y969D01*
X1905Y969D02*
X1912Y969D01*
X0Y968D02*
X7Y968D01*
X1905Y968D02*
X1912Y968D01*
X0Y967D02*
X7Y967D01*
X1905Y967D02*
X1912Y967D01*
X0Y966D02*
X7Y966D01*
X1905Y966D02*
X1912Y966D01*
X0Y965D02*
X7Y965D01*
X1905Y965D02*
X1912Y965D01*
X0Y964D02*
X7Y964D01*
X1905Y964D02*
X1912Y964D01*
X0Y963D02*
X7Y963D01*
X1905Y963D02*
X1912Y963D01*
X0Y962D02*
X7Y962D01*
X1905Y962D02*
X1912Y962D01*
X0Y961D02*
X7Y961D01*
X1905Y961D02*
X1912Y961D01*
X0Y960D02*
X7Y960D01*
X1905Y960D02*
X1912Y960D01*
X0Y959D02*
X7Y959D01*
X1905Y959D02*
X1912Y959D01*
X0Y958D02*
X7Y958D01*
X1905Y958D02*
X1912Y958D01*
X0Y957D02*
X7Y957D01*
X1905Y957D02*
X1912Y957D01*
X0Y956D02*
X7Y956D01*
X1905Y956D02*
X1912Y956D01*
X0Y955D02*
X7Y955D01*
X1905Y955D02*
X1912Y955D01*
X0Y954D02*
X7Y954D01*
X1905Y954D02*
X1912Y954D01*
X0Y953D02*
X7Y953D01*
X1905Y953D02*
X1912Y953D01*
X0Y952D02*
X7Y952D01*
X1905Y952D02*
X1912Y952D01*
X0Y951D02*
X7Y951D01*
X1905Y951D02*
X1912Y951D01*
X0Y950D02*
X7Y950D01*
X1905Y950D02*
X1912Y950D01*
X0Y949D02*
X7Y949D01*
X1905Y949D02*
X1912Y949D01*
X0Y948D02*
X7Y948D01*
X1905Y948D02*
X1912Y948D01*
X0Y947D02*
X7Y947D01*
X1905Y947D02*
X1912Y947D01*
X0Y946D02*
X7Y946D01*
X1905Y946D02*
X1912Y946D01*
X0Y945D02*
X7Y945D01*
X1905Y945D02*
X1912Y945D01*
X0Y944D02*
X7Y944D01*
X1905Y944D02*
X1912Y944D01*
X0Y943D02*
X7Y943D01*
X1905Y943D02*
X1912Y943D01*
X0Y942D02*
X7Y942D01*
X1905Y942D02*
X1912Y942D01*
X0Y941D02*
X7Y941D01*
X1905Y941D02*
X1912Y941D01*
X0Y940D02*
X7Y940D01*
X1905Y940D02*
X1912Y940D01*
X0Y939D02*
X7Y939D01*
X1905Y939D02*
X1912Y939D01*
X0Y938D02*
X7Y938D01*
X1905Y938D02*
X1912Y938D01*
X0Y937D02*
X7Y937D01*
X1905Y937D02*
X1912Y937D01*
X0Y936D02*
X7Y936D01*
X1905Y936D02*
X1912Y936D01*
X0Y935D02*
X7Y935D01*
X1905Y935D02*
X1912Y935D01*
X0Y934D02*
X7Y934D01*
X1905Y934D02*
X1912Y934D01*
X0Y933D02*
X7Y933D01*
X1905Y933D02*
X1912Y933D01*
X0Y932D02*
X7Y932D01*
X1905Y932D02*
X1912Y932D01*
X0Y931D02*
X7Y931D01*
X1905Y931D02*
X1912Y931D01*
X0Y930D02*
X7Y930D01*
X1905Y930D02*
X1912Y930D01*
X0Y929D02*
X7Y929D01*
X1905Y929D02*
X1912Y929D01*
X0Y928D02*
X7Y928D01*
X1905Y928D02*
X1912Y928D01*
X0Y927D02*
X7Y927D01*
X1905Y927D02*
X1912Y927D01*
X0Y926D02*
X7Y926D01*
X1905Y926D02*
X1912Y926D01*
X0Y925D02*
X7Y925D01*
X1905Y925D02*
X1912Y925D01*
X0Y924D02*
X7Y924D01*
X1905Y924D02*
X1912Y924D01*
X0Y923D02*
X7Y923D01*
X1905Y923D02*
X1912Y923D01*
X0Y922D02*
X7Y922D01*
X1905Y922D02*
X1912Y922D01*
X0Y921D02*
X7Y921D01*
X1905Y921D02*
X1912Y921D01*
X0Y920D02*
X7Y920D01*
X1905Y920D02*
X1912Y920D01*
X0Y919D02*
X7Y919D01*
X1905Y919D02*
X1912Y919D01*
X0Y918D02*
X7Y918D01*
X1905Y918D02*
X1912Y918D01*
X0Y917D02*
X7Y917D01*
X1905Y917D02*
X1912Y917D01*
X0Y916D02*
X7Y916D01*
X1905Y916D02*
X1912Y916D01*
X0Y915D02*
X7Y915D01*
X1905Y915D02*
X1912Y915D01*
X0Y914D02*
X7Y914D01*
X1905Y914D02*
X1912Y914D01*
X0Y913D02*
X7Y913D01*
X1905Y913D02*
X1912Y913D01*
X0Y912D02*
X7Y912D01*
X1905Y912D02*
X1912Y912D01*
X0Y911D02*
X7Y911D01*
X1905Y911D02*
X1912Y911D01*
X0Y910D02*
X7Y910D01*
X1905Y910D02*
X1912Y910D01*
X0Y909D02*
X7Y909D01*
X1905Y909D02*
X1912Y909D01*
X0Y908D02*
X7Y908D01*
X1905Y908D02*
X1912Y908D01*
X0Y907D02*
X7Y907D01*
X1905Y907D02*
X1912Y907D01*
X0Y906D02*
X7Y906D01*
X1905Y906D02*
X1912Y906D01*
X0Y905D02*
X7Y905D01*
X1905Y905D02*
X1912Y905D01*
X0Y904D02*
X7Y904D01*
X1905Y904D02*
X1912Y904D01*
X0Y903D02*
X7Y903D01*
X1905Y903D02*
X1912Y903D01*
X0Y902D02*
X7Y902D01*
X1905Y902D02*
X1912Y902D01*
X0Y901D02*
X7Y901D01*
X1905Y901D02*
X1912Y901D01*
X0Y900D02*
X7Y900D01*
X1905Y900D02*
X1912Y900D01*
X0Y899D02*
X7Y899D01*
X1905Y899D02*
X1912Y899D01*
X0Y898D02*
X7Y898D01*
X1905Y898D02*
X1912Y898D01*
X0Y897D02*
X7Y897D01*
X1905Y897D02*
X1912Y897D01*
X0Y896D02*
X7Y896D01*
X1905Y896D02*
X1912Y896D01*
X0Y895D02*
X7Y895D01*
X1905Y895D02*
X1912Y895D01*
X0Y894D02*
X7Y894D01*
X1905Y894D02*
X1912Y894D01*
X0Y893D02*
X7Y893D01*
X1905Y893D02*
X1912Y893D01*
X0Y892D02*
X7Y892D01*
X1905Y892D02*
X1912Y892D01*
X0Y891D02*
X7Y891D01*
X1905Y891D02*
X1912Y891D01*
X0Y890D02*
X7Y890D01*
X1905Y890D02*
X1912Y890D01*
X0Y889D02*
X7Y889D01*
X1905Y889D02*
X1912Y889D01*
X0Y888D02*
X7Y888D01*
X1905Y888D02*
X1912Y888D01*
X0Y887D02*
X7Y887D01*
X1905Y887D02*
X1912Y887D01*
X0Y886D02*
X7Y886D01*
X1905Y886D02*
X1912Y886D01*
X0Y885D02*
X7Y885D01*
X1905Y885D02*
X1912Y885D01*
X0Y884D02*
X7Y884D01*
X1905Y884D02*
X1912Y884D01*
X0Y883D02*
X7Y883D01*
X1905Y883D02*
X1912Y883D01*
X0Y882D02*
X7Y882D01*
X1905Y882D02*
X1912Y882D01*
X0Y881D02*
X7Y881D01*
X1905Y881D02*
X1912Y881D01*
X0Y880D02*
X7Y880D01*
X1905Y880D02*
X1912Y880D01*
X0Y879D02*
X7Y879D01*
X1905Y879D02*
X1912Y879D01*
X0Y878D02*
X7Y878D01*
X1905Y878D02*
X1912Y878D01*
X0Y877D02*
X7Y877D01*
X1905Y877D02*
X1912Y877D01*
X0Y876D02*
X7Y876D01*
X1905Y876D02*
X1912Y876D01*
X0Y875D02*
X7Y875D01*
X1905Y875D02*
X1912Y875D01*
X0Y874D02*
X7Y874D01*
X1905Y874D02*
X1912Y874D01*
X0Y873D02*
X7Y873D01*
X1905Y873D02*
X1912Y873D01*
X0Y872D02*
X7Y872D01*
X1905Y872D02*
X1912Y872D01*
X0Y871D02*
X7Y871D01*
X1905Y871D02*
X1912Y871D01*
X0Y870D02*
X7Y870D01*
X1905Y870D02*
X1912Y870D01*
X0Y869D02*
X7Y869D01*
X1905Y869D02*
X1912Y869D01*
X0Y868D02*
X7Y868D01*
X1905Y868D02*
X1912Y868D01*
X0Y867D02*
X7Y867D01*
X1905Y867D02*
X1912Y867D01*
X0Y866D02*
X7Y866D01*
X1905Y866D02*
X1912Y866D01*
X0Y865D02*
X7Y865D01*
X1905Y865D02*
X1912Y865D01*
X0Y864D02*
X7Y864D01*
X1905Y864D02*
X1912Y864D01*
X0Y863D02*
X7Y863D01*
X1905Y863D02*
X1912Y863D01*
X0Y862D02*
X7Y862D01*
X1905Y862D02*
X1912Y862D01*
X0Y861D02*
X7Y861D01*
X1905Y861D02*
X1912Y861D01*
X0Y860D02*
X7Y860D01*
X1905Y860D02*
X1912Y860D01*
X0Y859D02*
X7Y859D01*
X1905Y859D02*
X1912Y859D01*
X0Y858D02*
X7Y858D01*
X1905Y858D02*
X1912Y858D01*
X0Y857D02*
X7Y857D01*
X1905Y857D02*
X1912Y857D01*
X0Y856D02*
X7Y856D01*
X1905Y856D02*
X1912Y856D01*
X0Y855D02*
X7Y855D01*
X1905Y855D02*
X1912Y855D01*
X0Y854D02*
X7Y854D01*
X1905Y854D02*
X1912Y854D01*
X0Y853D02*
X7Y853D01*
X1905Y853D02*
X1912Y853D01*
X0Y852D02*
X7Y852D01*
X1905Y852D02*
X1912Y852D01*
X0Y851D02*
X7Y851D01*
X1905Y851D02*
X1912Y851D01*
X0Y850D02*
X7Y850D01*
X1905Y850D02*
X1912Y850D01*
X0Y849D02*
X7Y849D01*
X1905Y849D02*
X1912Y849D01*
X0Y848D02*
X7Y848D01*
X1905Y848D02*
X1912Y848D01*
X0Y847D02*
X7Y847D01*
X1905Y847D02*
X1912Y847D01*
X0Y846D02*
X7Y846D01*
X1905Y846D02*
X1912Y846D01*
X0Y845D02*
X7Y845D01*
X1905Y845D02*
X1912Y845D01*
X0Y844D02*
X7Y844D01*
X1905Y844D02*
X1912Y844D01*
X0Y843D02*
X7Y843D01*
X1905Y843D02*
X1912Y843D01*
X0Y842D02*
X7Y842D01*
X1905Y842D02*
X1912Y842D01*
X0Y841D02*
X7Y841D01*
X1905Y841D02*
X1912Y841D01*
X0Y840D02*
X7Y840D01*
X1905Y840D02*
X1912Y840D01*
X0Y839D02*
X7Y839D01*
X1905Y839D02*
X1912Y839D01*
X0Y838D02*
X7Y838D01*
X1905Y838D02*
X1912Y838D01*
X0Y837D02*
X7Y837D01*
X1905Y837D02*
X1912Y837D01*
X0Y836D02*
X7Y836D01*
X1905Y836D02*
X1912Y836D01*
X0Y835D02*
X7Y835D01*
X1905Y835D02*
X1912Y835D01*
X0Y834D02*
X7Y834D01*
X1905Y834D02*
X1912Y834D01*
X0Y833D02*
X7Y833D01*
X1905Y833D02*
X1912Y833D01*
X0Y832D02*
X7Y832D01*
X1905Y832D02*
X1912Y832D01*
X0Y831D02*
X7Y831D01*
X1905Y831D02*
X1912Y831D01*
X0Y830D02*
X7Y830D01*
X1905Y830D02*
X1912Y830D01*
X0Y829D02*
X7Y829D01*
X1905Y829D02*
X1912Y829D01*
X0Y828D02*
X7Y828D01*
X1905Y828D02*
X1912Y828D01*
X0Y827D02*
X7Y827D01*
X1905Y827D02*
X1912Y827D01*
X0Y826D02*
X7Y826D01*
X1905Y826D02*
X1912Y826D01*
X0Y825D02*
X7Y825D01*
X1905Y825D02*
X1912Y825D01*
X0Y824D02*
X7Y824D01*
X1905Y824D02*
X1912Y824D01*
X0Y823D02*
X7Y823D01*
X1905Y823D02*
X1912Y823D01*
X0Y822D02*
X7Y822D01*
X1905Y822D02*
X1912Y822D01*
X0Y821D02*
X7Y821D01*
X1905Y821D02*
X1912Y821D01*
X0Y820D02*
X7Y820D01*
X1905Y820D02*
X1912Y820D01*
X0Y819D02*
X7Y819D01*
X1905Y819D02*
X1912Y819D01*
X0Y818D02*
X7Y818D01*
X1905Y818D02*
X1912Y818D01*
X0Y817D02*
X7Y817D01*
X1905Y817D02*
X1912Y817D01*
X0Y816D02*
X7Y816D01*
X1905Y816D02*
X1912Y816D01*
X0Y815D02*
X7Y815D01*
X1905Y815D02*
X1912Y815D01*
X0Y814D02*
X7Y814D01*
X1905Y814D02*
X1912Y814D01*
X0Y813D02*
X7Y813D01*
X1905Y813D02*
X1912Y813D01*
X0Y812D02*
X7Y812D01*
X1905Y812D02*
X1912Y812D01*
X0Y811D02*
X7Y811D01*
X1905Y811D02*
X1912Y811D01*
X0Y810D02*
X7Y810D01*
X1905Y810D02*
X1912Y810D01*
X0Y809D02*
X7Y809D01*
X1905Y809D02*
X1912Y809D01*
X0Y808D02*
X7Y808D01*
X1905Y808D02*
X1912Y808D01*
X0Y807D02*
X7Y807D01*
X1905Y807D02*
X1912Y807D01*
X0Y806D02*
X7Y806D01*
X1905Y806D02*
X1912Y806D01*
X0Y805D02*
X7Y805D01*
X1905Y805D02*
X1912Y805D01*
X0Y804D02*
X7Y804D01*
X1905Y804D02*
X1912Y804D01*
X0Y803D02*
X7Y803D01*
X1905Y803D02*
X1912Y803D01*
X0Y802D02*
X7Y802D01*
X1905Y802D02*
X1912Y802D01*
X0Y801D02*
X7Y801D01*
X1905Y801D02*
X1912Y801D01*
X0Y800D02*
X7Y800D01*
X1905Y800D02*
X1912Y800D01*
X0Y799D02*
X7Y799D01*
X1905Y799D02*
X1912Y799D01*
X0Y798D02*
X7Y798D01*
X1905Y798D02*
X1912Y798D01*
X0Y797D02*
X7Y797D01*
X1905Y797D02*
X1912Y797D01*
X0Y796D02*
X7Y796D01*
X1905Y796D02*
X1912Y796D01*
X0Y795D02*
X7Y795D01*
X1905Y795D02*
X1912Y795D01*
X0Y794D02*
X7Y794D01*
X1905Y794D02*
X1912Y794D01*
X0Y793D02*
X7Y793D01*
X1905Y793D02*
X1912Y793D01*
X0Y792D02*
X7Y792D01*
X1905Y792D02*
X1912Y792D01*
X0Y791D02*
X7Y791D01*
X1905Y791D02*
X1912Y791D01*
X0Y790D02*
X7Y790D01*
X1905Y790D02*
X1912Y790D01*
X0Y789D02*
X7Y789D01*
X1905Y789D02*
X1912Y789D01*
X0Y788D02*
X7Y788D01*
X1905Y788D02*
X1912Y788D01*
X0Y787D02*
X7Y787D01*
X1905Y787D02*
X1912Y787D01*
X0Y786D02*
X7Y786D01*
X1905Y786D02*
X1912Y786D01*
X0Y785D02*
X7Y785D01*
X1905Y785D02*
X1912Y785D01*
X0Y784D02*
X7Y784D01*
X1905Y784D02*
X1912Y784D01*
X0Y783D02*
X7Y783D01*
X1905Y783D02*
X1912Y783D01*
X0Y782D02*
X7Y782D01*
X1905Y782D02*
X1912Y782D01*
X0Y781D02*
X7Y781D01*
X1905Y781D02*
X1912Y781D01*
X0Y780D02*
X7Y780D01*
X1905Y780D02*
X1912Y780D01*
X0Y779D02*
X7Y779D01*
X1905Y779D02*
X1912Y779D01*
X0Y778D02*
X7Y778D01*
X1905Y778D02*
X1912Y778D01*
X0Y777D02*
X7Y777D01*
X1905Y777D02*
X1912Y777D01*
X0Y776D02*
X7Y776D01*
X1905Y776D02*
X1912Y776D01*
X0Y775D02*
X7Y775D01*
X1905Y775D02*
X1912Y775D01*
X0Y774D02*
X7Y774D01*
X1905Y774D02*
X1912Y774D01*
X0Y773D02*
X7Y773D01*
X1905Y773D02*
X1912Y773D01*
X0Y772D02*
X7Y772D01*
X1905Y772D02*
X1912Y772D01*
X0Y771D02*
X7Y771D01*
X1905Y771D02*
X1912Y771D01*
X0Y770D02*
X7Y770D01*
X1905Y770D02*
X1912Y770D01*
X0Y769D02*
X7Y769D01*
X1905Y769D02*
X1912Y769D01*
X0Y768D02*
X7Y768D01*
X1905Y768D02*
X1912Y768D01*
X0Y767D02*
X7Y767D01*
X1905Y767D02*
X1912Y767D01*
X0Y766D02*
X7Y766D01*
X1905Y766D02*
X1912Y766D01*
X0Y765D02*
X7Y765D01*
X1905Y765D02*
X1912Y765D01*
X0Y764D02*
X7Y764D01*
X1905Y764D02*
X1912Y764D01*
X0Y763D02*
X7Y763D01*
X1905Y763D02*
X1912Y763D01*
X0Y762D02*
X7Y762D01*
X1905Y762D02*
X1912Y762D01*
X0Y761D02*
X7Y761D01*
X1905Y761D02*
X1912Y761D01*
X0Y760D02*
X7Y760D01*
X1905Y760D02*
X1912Y760D01*
X0Y759D02*
X7Y759D01*
X1905Y759D02*
X1912Y759D01*
X0Y758D02*
X7Y758D01*
X1905Y758D02*
X1912Y758D01*
X0Y757D02*
X7Y757D01*
X1905Y757D02*
X1912Y757D01*
X0Y756D02*
X7Y756D01*
X1905Y756D02*
X1912Y756D01*
X0Y755D02*
X7Y755D01*
X1905Y755D02*
X1912Y755D01*
X0Y754D02*
X7Y754D01*
X1905Y754D02*
X1912Y754D01*
X0Y753D02*
X7Y753D01*
X1905Y753D02*
X1912Y753D01*
X0Y752D02*
X7Y752D01*
X1905Y752D02*
X1912Y752D01*
X0Y751D02*
X7Y751D01*
X1905Y751D02*
X1912Y751D01*
X0Y750D02*
X7Y750D01*
X1905Y750D02*
X1912Y750D01*
X0Y749D02*
X7Y749D01*
X1905Y749D02*
X1912Y749D01*
X0Y748D02*
X7Y748D01*
X1905Y748D02*
X1912Y748D01*
X0Y747D02*
X7Y747D01*
X1905Y747D02*
X1912Y747D01*
X0Y746D02*
X7Y746D01*
X1905Y746D02*
X1912Y746D01*
X0Y745D02*
X7Y745D01*
X1905Y745D02*
X1912Y745D01*
X0Y744D02*
X7Y744D01*
X1905Y744D02*
X1912Y744D01*
X0Y743D02*
X7Y743D01*
X1905Y743D02*
X1912Y743D01*
X0Y742D02*
X7Y742D01*
X1905Y742D02*
X1912Y742D01*
X0Y741D02*
X7Y741D01*
X1905Y741D02*
X1912Y741D01*
X0Y740D02*
X7Y740D01*
X1905Y740D02*
X1912Y740D01*
X0Y739D02*
X7Y739D01*
X1905Y739D02*
X1912Y739D01*
X0Y738D02*
X7Y738D01*
X1905Y738D02*
X1912Y738D01*
X0Y737D02*
X7Y737D01*
X1905Y737D02*
X1912Y737D01*
X0Y736D02*
X7Y736D01*
X1905Y736D02*
X1912Y736D01*
X0Y735D02*
X7Y735D01*
X1905Y735D02*
X1912Y735D01*
X0Y734D02*
X7Y734D01*
X1905Y734D02*
X1912Y734D01*
X0Y733D02*
X7Y733D01*
X1905Y733D02*
X1912Y733D01*
X0Y732D02*
X7Y732D01*
X1905Y732D02*
X1912Y732D01*
X0Y731D02*
X7Y731D01*
X1905Y731D02*
X1912Y731D01*
X0Y730D02*
X7Y730D01*
X1905Y730D02*
X1912Y730D01*
X0Y729D02*
X7Y729D01*
X1905Y729D02*
X1912Y729D01*
X0Y728D02*
X7Y728D01*
X1905Y728D02*
X1912Y728D01*
X0Y727D02*
X7Y727D01*
X1905Y727D02*
X1912Y727D01*
X0Y726D02*
X7Y726D01*
X1905Y726D02*
X1912Y726D01*
X0Y725D02*
X7Y725D01*
X1905Y725D02*
X1912Y725D01*
X0Y724D02*
X7Y724D01*
X1905Y724D02*
X1912Y724D01*
X0Y723D02*
X7Y723D01*
X1905Y723D02*
X1912Y723D01*
X0Y722D02*
X7Y722D01*
X1905Y722D02*
X1912Y722D01*
X0Y721D02*
X7Y721D01*
X1905Y721D02*
X1912Y721D01*
X0Y720D02*
X7Y720D01*
X1905Y720D02*
X1912Y720D01*
X0Y719D02*
X7Y719D01*
X1905Y719D02*
X1912Y719D01*
X0Y718D02*
X7Y718D01*
X1905Y718D02*
X1912Y718D01*
X0Y717D02*
X7Y717D01*
X1905Y717D02*
X1912Y717D01*
X0Y716D02*
X7Y716D01*
X1905Y716D02*
X1912Y716D01*
X0Y715D02*
X7Y715D01*
X1905Y715D02*
X1912Y715D01*
X0Y714D02*
X7Y714D01*
X1905Y714D02*
X1912Y714D01*
X0Y713D02*
X7Y713D01*
X1905Y713D02*
X1912Y713D01*
X0Y712D02*
X7Y712D01*
X1905Y712D02*
X1912Y712D01*
X0Y711D02*
X7Y711D01*
X1905Y711D02*
X1912Y711D01*
X0Y710D02*
X7Y710D01*
X1905Y710D02*
X1912Y710D01*
X0Y709D02*
X7Y709D01*
X1905Y709D02*
X1912Y709D01*
X0Y708D02*
X7Y708D01*
X1905Y708D02*
X1912Y708D01*
X0Y707D02*
X7Y707D01*
X1905Y707D02*
X1912Y707D01*
X0Y706D02*
X7Y706D01*
X1905Y706D02*
X1912Y706D01*
X0Y705D02*
X7Y705D01*
X1905Y705D02*
X1912Y705D01*
X0Y704D02*
X7Y704D01*
X1905Y704D02*
X1912Y704D01*
X0Y703D02*
X7Y703D01*
X1905Y703D02*
X1912Y703D01*
X0Y702D02*
X7Y702D01*
X1905Y702D02*
X1912Y702D01*
X0Y701D02*
X7Y701D01*
X1905Y701D02*
X1912Y701D01*
X0Y700D02*
X7Y700D01*
X1905Y700D02*
X1912Y700D01*
X0Y699D02*
X7Y699D01*
X1905Y699D02*
X1912Y699D01*
X0Y698D02*
X7Y698D01*
X1905Y698D02*
X1912Y698D01*
X0Y697D02*
X7Y697D01*
X1905Y697D02*
X1912Y697D01*
X0Y696D02*
X7Y696D01*
X1905Y696D02*
X1912Y696D01*
X0Y695D02*
X7Y695D01*
X1905Y695D02*
X1912Y695D01*
X0Y694D02*
X7Y694D01*
X1905Y694D02*
X1912Y694D01*
X0Y693D02*
X7Y693D01*
X1905Y693D02*
X1912Y693D01*
X0Y692D02*
X7Y692D01*
X1905Y692D02*
X1912Y692D01*
X0Y691D02*
X7Y691D01*
X1905Y691D02*
X1912Y691D01*
X0Y690D02*
X7Y690D01*
X1905Y690D02*
X1912Y690D01*
X0Y689D02*
X7Y689D01*
X1905Y689D02*
X1912Y689D01*
X0Y688D02*
X7Y688D01*
X1905Y688D02*
X1912Y688D01*
X0Y687D02*
X7Y687D01*
X1905Y687D02*
X1912Y687D01*
X0Y686D02*
X7Y686D01*
X1905Y686D02*
X1912Y686D01*
X0Y685D02*
X7Y685D01*
X1905Y685D02*
X1912Y685D01*
X0Y684D02*
X7Y684D01*
X1905Y684D02*
X1912Y684D01*
X0Y683D02*
X7Y683D01*
X1905Y683D02*
X1912Y683D01*
X0Y682D02*
X7Y682D01*
X1905Y682D02*
X1912Y682D01*
X0Y681D02*
X7Y681D01*
X1905Y681D02*
X1912Y681D01*
X0Y680D02*
X7Y680D01*
X1905Y680D02*
X1912Y680D01*
X0Y679D02*
X7Y679D01*
X1905Y679D02*
X1912Y679D01*
X0Y678D02*
X7Y678D01*
X1905Y678D02*
X1912Y678D01*
X0Y677D02*
X7Y677D01*
X1905Y677D02*
X1912Y677D01*
X0Y676D02*
X7Y676D01*
X1905Y676D02*
X1912Y676D01*
X0Y675D02*
X7Y675D01*
X1905Y675D02*
X1912Y675D01*
X0Y674D02*
X7Y674D01*
X1905Y674D02*
X1912Y674D01*
X0Y673D02*
X7Y673D01*
X1905Y673D02*
X1912Y673D01*
X0Y672D02*
X7Y672D01*
X1905Y672D02*
X1912Y672D01*
X0Y671D02*
X7Y671D01*
X1905Y671D02*
X1912Y671D01*
X0Y670D02*
X7Y670D01*
X1905Y670D02*
X1912Y670D01*
X0Y669D02*
X7Y669D01*
X1905Y669D02*
X1912Y669D01*
X0Y668D02*
X7Y668D01*
X1905Y668D02*
X1912Y668D01*
X0Y667D02*
X7Y667D01*
X1905Y667D02*
X1912Y667D01*
X0Y666D02*
X7Y666D01*
X1905Y666D02*
X1912Y666D01*
X0Y665D02*
X7Y665D01*
X1905Y665D02*
X1912Y665D01*
X0Y664D02*
X7Y664D01*
X1905Y664D02*
X1912Y664D01*
X0Y663D02*
X7Y663D01*
X1905Y663D02*
X1912Y663D01*
X0Y662D02*
X7Y662D01*
X1905Y662D02*
X1912Y662D01*
X0Y661D02*
X7Y661D01*
X1905Y661D02*
X1912Y661D01*
X0Y660D02*
X7Y660D01*
X1905Y660D02*
X1912Y660D01*
X0Y659D02*
X7Y659D01*
X1905Y659D02*
X1912Y659D01*
X0Y658D02*
X7Y658D01*
X1905Y658D02*
X1912Y658D01*
X0Y657D02*
X7Y657D01*
X1905Y657D02*
X1912Y657D01*
X0Y656D02*
X7Y656D01*
X1905Y656D02*
X1912Y656D01*
X0Y655D02*
X7Y655D01*
X1905Y655D02*
X1912Y655D01*
X0Y654D02*
X7Y654D01*
X1905Y654D02*
X1912Y654D01*
X0Y653D02*
X7Y653D01*
X1905Y653D02*
X1912Y653D01*
X0Y652D02*
X7Y652D01*
X1905Y652D02*
X1912Y652D01*
X0Y651D02*
X7Y651D01*
X1905Y651D02*
X1912Y651D01*
X0Y650D02*
X7Y650D01*
X1905Y650D02*
X1912Y650D01*
X0Y649D02*
X7Y649D01*
X1905Y649D02*
X1912Y649D01*
X0Y648D02*
X7Y648D01*
X1905Y648D02*
X1912Y648D01*
X0Y647D02*
X7Y647D01*
X1905Y647D02*
X1912Y647D01*
X0Y646D02*
X7Y646D01*
X1905Y646D02*
X1912Y646D01*
X0Y645D02*
X7Y645D01*
X1905Y645D02*
X1912Y645D01*
X0Y644D02*
X7Y644D01*
X1905Y644D02*
X1912Y644D01*
X0Y643D02*
X7Y643D01*
X1905Y643D02*
X1912Y643D01*
X0Y642D02*
X7Y642D01*
X1905Y642D02*
X1912Y642D01*
X0Y641D02*
X7Y641D01*
X1905Y641D02*
X1912Y641D01*
X0Y640D02*
X7Y640D01*
X1905Y640D02*
X1912Y640D01*
X0Y639D02*
X7Y639D01*
X1905Y639D02*
X1912Y639D01*
X0Y638D02*
X7Y638D01*
X1905Y638D02*
X1912Y638D01*
X0Y637D02*
X7Y637D01*
X1905Y637D02*
X1912Y637D01*
X0Y636D02*
X7Y636D01*
X1905Y636D02*
X1912Y636D01*
X0Y635D02*
X7Y635D01*
X1905Y635D02*
X1912Y635D01*
X0Y634D02*
X7Y634D01*
X1905Y634D02*
X1912Y634D01*
X0Y633D02*
X7Y633D01*
X1905Y633D02*
X1912Y633D01*
X0Y632D02*
X7Y632D01*
X1905Y632D02*
X1912Y632D01*
X0Y631D02*
X7Y631D01*
X1905Y631D02*
X1912Y631D01*
X0Y630D02*
X7Y630D01*
X1905Y630D02*
X1912Y630D01*
X0Y629D02*
X7Y629D01*
X1905Y629D02*
X1912Y629D01*
X0Y628D02*
X7Y628D01*
X1905Y628D02*
X1912Y628D01*
X0Y627D02*
X7Y627D01*
X1905Y627D02*
X1912Y627D01*
X0Y626D02*
X7Y626D01*
X1905Y626D02*
X1912Y626D01*
X0Y625D02*
X7Y625D01*
X1905Y625D02*
X1912Y625D01*
X0Y624D02*
X7Y624D01*
X1905Y624D02*
X1912Y624D01*
X0Y623D02*
X7Y623D01*
X1905Y623D02*
X1912Y623D01*
X0Y622D02*
X7Y622D01*
X1905Y622D02*
X1912Y622D01*
X0Y621D02*
X7Y621D01*
X1905Y621D02*
X1912Y621D01*
X0Y620D02*
X7Y620D01*
X1905Y620D02*
X1912Y620D01*
X0Y619D02*
X7Y619D01*
X1905Y619D02*
X1912Y619D01*
X0Y618D02*
X7Y618D01*
X1905Y618D02*
X1912Y618D01*
X0Y617D02*
X7Y617D01*
X1905Y617D02*
X1912Y617D01*
X0Y616D02*
X7Y616D01*
X1905Y616D02*
X1912Y616D01*
X0Y615D02*
X7Y615D01*
X1905Y615D02*
X1912Y615D01*
X0Y614D02*
X7Y614D01*
X1905Y614D02*
X1912Y614D01*
X0Y613D02*
X7Y613D01*
X1905Y613D02*
X1912Y613D01*
X0Y612D02*
X7Y612D01*
X1905Y612D02*
X1912Y612D01*
X0Y611D02*
X7Y611D01*
X1905Y611D02*
X1912Y611D01*
X0Y610D02*
X7Y610D01*
X1905Y610D02*
X1912Y610D01*
X0Y609D02*
X7Y609D01*
X1905Y609D02*
X1912Y609D01*
X0Y608D02*
X7Y608D01*
X1905Y608D02*
X1912Y608D01*
X0Y607D02*
X7Y607D01*
X1905Y607D02*
X1912Y607D01*
X0Y606D02*
X7Y606D01*
X1905Y606D02*
X1912Y606D01*
X0Y605D02*
X7Y605D01*
X1905Y605D02*
X1912Y605D01*
X0Y604D02*
X7Y604D01*
X1905Y604D02*
X1912Y604D01*
X0Y603D02*
X7Y603D01*
X1905Y603D02*
X1912Y603D01*
X0Y602D02*
X7Y602D01*
X1905Y602D02*
X1912Y602D01*
X0Y601D02*
X7Y601D01*
X1905Y601D02*
X1912Y601D01*
X0Y600D02*
X7Y600D01*
X1905Y600D02*
X1912Y600D01*
X0Y599D02*
X7Y599D01*
X1905Y599D02*
X1912Y599D01*
X0Y598D02*
X7Y598D01*
X1905Y598D02*
X1912Y598D01*
X0Y597D02*
X7Y597D01*
X1905Y597D02*
X1912Y597D01*
X0Y596D02*
X7Y596D01*
X1905Y596D02*
X1912Y596D01*
X0Y595D02*
X7Y595D01*
X1905Y595D02*
X1912Y595D01*
X0Y594D02*
X7Y594D01*
X1905Y594D02*
X1912Y594D01*
X0Y593D02*
X7Y593D01*
X1905Y593D02*
X1912Y593D01*
X0Y592D02*
X7Y592D01*
X1905Y592D02*
X1912Y592D01*
X0Y591D02*
X7Y591D01*
X1905Y591D02*
X1912Y591D01*
X0Y590D02*
X7Y590D01*
X1905Y590D02*
X1912Y590D01*
X0Y589D02*
X7Y589D01*
X1905Y589D02*
X1912Y589D01*
X0Y588D02*
X7Y588D01*
X1905Y588D02*
X1912Y588D01*
X0Y587D02*
X7Y587D01*
X1905Y587D02*
X1912Y587D01*
X0Y586D02*
X7Y586D01*
X1905Y586D02*
X1912Y586D01*
X0Y585D02*
X7Y585D01*
X1905Y585D02*
X1912Y585D01*
X0Y584D02*
X7Y584D01*
X1905Y584D02*
X1912Y584D01*
X0Y583D02*
X7Y583D01*
X1905Y583D02*
X1912Y583D01*
X0Y582D02*
X7Y582D01*
X1905Y582D02*
X1912Y582D01*
X0Y581D02*
X7Y581D01*
X1905Y581D02*
X1912Y581D01*
X0Y580D02*
X7Y580D01*
X1905Y580D02*
X1912Y580D01*
X0Y579D02*
X7Y579D01*
X1905Y579D02*
X1912Y579D01*
X0Y578D02*
X7Y578D01*
X1905Y578D02*
X1912Y578D01*
X0Y577D02*
X7Y577D01*
X1905Y577D02*
X1912Y577D01*
X0Y576D02*
X7Y576D01*
X1905Y576D02*
X1912Y576D01*
X0Y575D02*
X7Y575D01*
X1905Y575D02*
X1912Y575D01*
X0Y574D02*
X7Y574D01*
X1905Y574D02*
X1912Y574D01*
X0Y573D02*
X7Y573D01*
X1905Y573D02*
X1912Y573D01*
X0Y572D02*
X7Y572D01*
X1905Y572D02*
X1912Y572D01*
X0Y571D02*
X7Y571D01*
X1905Y571D02*
X1912Y571D01*
X0Y570D02*
X7Y570D01*
X1905Y570D02*
X1912Y570D01*
X0Y569D02*
X7Y569D01*
X1905Y569D02*
X1912Y569D01*
X0Y568D02*
X7Y568D01*
X1905Y568D02*
X1912Y568D01*
X0Y567D02*
X7Y567D01*
X1905Y567D02*
X1912Y567D01*
X0Y566D02*
X7Y566D01*
X1905Y566D02*
X1912Y566D01*
X0Y565D02*
X7Y565D01*
X1905Y565D02*
X1912Y565D01*
X0Y564D02*
X7Y564D01*
X1905Y564D02*
X1912Y564D01*
X0Y563D02*
X7Y563D01*
X1905Y563D02*
X1912Y563D01*
X0Y562D02*
X7Y562D01*
X1905Y562D02*
X1912Y562D01*
X0Y561D02*
X7Y561D01*
X1905Y561D02*
X1912Y561D01*
X0Y560D02*
X7Y560D01*
X1905Y560D02*
X1912Y560D01*
X0Y559D02*
X7Y559D01*
X1905Y559D02*
X1912Y559D01*
X0Y558D02*
X7Y558D01*
X1071Y558D02*
X1094Y558D01*
X1905Y558D02*
X1912Y558D01*
X0Y557D02*
X7Y557D01*
X1071Y557D02*
X1096Y557D01*
X1905Y557D02*
X1912Y557D01*
X0Y556D02*
X7Y556D01*
X1071Y556D02*
X1098Y556D01*
X1905Y556D02*
X1912Y556D01*
X0Y555D02*
X7Y555D01*
X1071Y555D02*
X1099Y555D01*
X1180Y555D02*
X1182Y555D01*
X1230Y555D02*
X1232Y555D01*
X1905Y555D02*
X1912Y555D01*
X0Y554D02*
X7Y554D01*
X1071Y554D02*
X1100Y554D01*
X1179Y554D02*
X1183Y554D01*
X1229Y554D02*
X1234Y554D01*
X1905Y554D02*
X1912Y554D01*
X0Y553D02*
X7Y553D01*
X1071Y553D02*
X1101Y553D01*
X1178Y553D02*
X1184Y553D01*
X1229Y553D02*
X1234Y553D01*
X1905Y553D02*
X1912Y553D01*
X0Y552D02*
X7Y552D01*
X1071Y552D02*
X1102Y552D01*
X1178Y552D02*
X1184Y552D01*
X1228Y552D02*
X1234Y552D01*
X1905Y552D02*
X1912Y552D01*
X0Y551D02*
X7Y551D01*
X1071Y551D02*
X1077Y551D01*
X1094Y551D02*
X1103Y551D01*
X1178Y551D02*
X1184Y551D01*
X1228Y551D02*
X1234Y551D01*
X1905Y551D02*
X1912Y551D01*
X0Y550D02*
X7Y550D01*
X1071Y550D02*
X1077Y550D01*
X1095Y550D02*
X1103Y550D01*
X1178Y550D02*
X1184Y550D01*
X1228Y550D02*
X1234Y550D01*
X1905Y550D02*
X1912Y550D01*
X0Y549D02*
X7Y549D01*
X1071Y549D02*
X1077Y549D01*
X1097Y549D02*
X1104Y549D01*
X1178Y549D02*
X1184Y549D01*
X1228Y549D02*
X1234Y549D01*
X1905Y549D02*
X1912Y549D01*
X0Y548D02*
X7Y548D01*
X1071Y548D02*
X1077Y548D01*
X1097Y548D02*
X1104Y548D01*
X1178Y548D02*
X1184Y548D01*
X1228Y548D02*
X1234Y548D01*
X1905Y548D02*
X1912Y548D01*
X0Y547D02*
X7Y547D01*
X1071Y547D02*
X1077Y547D01*
X1098Y547D02*
X1104Y547D01*
X1178Y547D02*
X1184Y547D01*
X1228Y547D02*
X1234Y547D01*
X1905Y547D02*
X1912Y547D01*
X0Y546D02*
X7Y546D01*
X1071Y546D02*
X1077Y546D01*
X1098Y546D02*
X1104Y546D01*
X1178Y546D02*
X1184Y546D01*
X1228Y546D02*
X1234Y546D01*
X1905Y546D02*
X1912Y546D01*
X0Y545D02*
X7Y545D01*
X1071Y545D02*
X1077Y545D01*
X1098Y545D02*
X1104Y545D01*
X1178Y545D02*
X1184Y545D01*
X1228Y545D02*
X1234Y545D01*
X1905Y545D02*
X1912Y545D01*
X0Y544D02*
X7Y544D01*
X1071Y544D02*
X1077Y544D01*
X1098Y544D02*
X1104Y544D01*
X1178Y544D02*
X1184Y544D01*
X1228Y544D02*
X1234Y544D01*
X1905Y544D02*
X1912Y544D01*
X0Y543D02*
X7Y543D01*
X1071Y543D02*
X1077Y543D01*
X1098Y543D02*
X1104Y543D01*
X1129Y543D02*
X1147Y543D01*
X1173Y543D02*
X1200Y543D01*
X1223Y543D02*
X1250Y543D01*
X1281Y543D02*
X1296Y543D01*
X1323Y543D02*
X1326Y543D01*
X1337Y543D02*
X1349Y543D01*
X1374Y543D02*
X1377Y543D01*
X1401Y543D02*
X1404Y543D01*
X1905Y543D02*
X1912Y543D01*
X0Y542D02*
X7Y542D01*
X1071Y542D02*
X1077Y542D01*
X1098Y542D02*
X1104Y542D01*
X1129Y542D02*
X1149Y542D01*
X1172Y542D02*
X1201Y542D01*
X1222Y542D02*
X1251Y542D01*
X1279Y542D02*
X1298Y542D01*
X1322Y542D02*
X1327Y542D01*
X1336Y542D02*
X1351Y542D01*
X1373Y542D02*
X1377Y542D01*
X1400Y542D02*
X1405Y542D01*
X1905Y542D02*
X1912Y542D01*
X0Y541D02*
X7Y541D01*
X1071Y541D02*
X1077Y541D01*
X1098Y541D02*
X1104Y541D01*
X1128Y541D02*
X1150Y541D01*
X1171Y541D02*
X1201Y541D01*
X1222Y541D02*
X1251Y541D01*
X1278Y541D02*
X1299Y541D01*
X1322Y541D02*
X1328Y541D01*
X1335Y541D02*
X1352Y541D01*
X1372Y541D02*
X1378Y541D01*
X1400Y541D02*
X1405Y541D01*
X1905Y541D02*
X1912Y541D01*
X0Y540D02*
X7Y540D01*
X1071Y540D02*
X1077Y540D01*
X1098Y540D02*
X1104Y540D01*
X1128Y540D02*
X1151Y540D01*
X1171Y540D02*
X1201Y540D01*
X1221Y540D02*
X1251Y540D01*
X1276Y540D02*
X1300Y540D01*
X1322Y540D02*
X1328Y540D01*
X1333Y540D02*
X1353Y540D01*
X1372Y540D02*
X1378Y540D01*
X1400Y540D02*
X1406Y540D01*
X1905Y540D02*
X1912Y540D01*
X0Y539D02*
X7Y539D01*
X1071Y539D02*
X1077Y539D01*
X1098Y539D02*
X1104Y539D01*
X1128Y539D02*
X1152Y539D01*
X1171Y539D02*
X1201Y539D01*
X1222Y539D02*
X1251Y539D01*
X1275Y539D02*
X1302Y539D01*
X1322Y539D02*
X1328Y539D01*
X1332Y539D02*
X1354Y539D01*
X1372Y539D02*
X1378Y539D01*
X1400Y539D02*
X1406Y539D01*
X1905Y539D02*
X1912Y539D01*
X0Y538D02*
X7Y538D01*
X1071Y538D02*
X1077Y538D01*
X1097Y538D02*
X1104Y538D01*
X1129Y538D02*
X1153Y538D01*
X1172Y538D02*
X1200Y538D01*
X1222Y538D02*
X1251Y538D01*
X1274Y538D02*
X1303Y538D01*
X1322Y538D02*
X1328Y538D01*
X1331Y538D02*
X1354Y538D01*
X1372Y538D02*
X1378Y538D01*
X1400Y538D02*
X1406Y538D01*
X1905Y538D02*
X1912Y538D01*
X0Y537D02*
X7Y537D01*
X1071Y537D02*
X1077Y537D01*
X1096Y537D02*
X1104Y537D01*
X1130Y537D02*
X1153Y537D01*
X1173Y537D02*
X1199Y537D01*
X1224Y537D02*
X1249Y537D01*
X1274Y537D02*
X1303Y537D01*
X1322Y537D02*
X1328Y537D01*
X1330Y537D02*
X1355Y537D01*
X1372Y537D02*
X1378Y537D01*
X1400Y537D02*
X1406Y537D01*
X1905Y537D02*
X1912Y537D01*
X0Y536D02*
X7Y536D01*
X1071Y536D02*
X1077Y536D01*
X1095Y536D02*
X1103Y536D01*
X1146Y536D02*
X1153Y536D01*
X1178Y536D02*
X1184Y536D01*
X1228Y536D02*
X1234Y536D01*
X1273Y536D02*
X1282Y536D01*
X1295Y536D02*
X1304Y536D01*
X1322Y536D02*
X1339Y536D01*
X1348Y536D02*
X1355Y536D01*
X1372Y536D02*
X1378Y536D01*
X1400Y536D02*
X1406Y536D01*
X1905Y536D02*
X1912Y536D01*
X0Y535D02*
X7Y535D01*
X1071Y535D02*
X1077Y535D01*
X1093Y535D02*
X1103Y535D01*
X1147Y535D02*
X1154Y535D01*
X1178Y535D02*
X1184Y535D01*
X1228Y535D02*
X1234Y535D01*
X1273Y535D02*
X1280Y535D01*
X1297Y535D02*
X1304Y535D01*
X1322Y535D02*
X1337Y535D01*
X1349Y535D02*
X1355Y535D01*
X1372Y535D02*
X1378Y535D01*
X1399Y535D02*
X1406Y535D01*
X1905Y535D02*
X1912Y535D01*
X0Y534D02*
X7Y534D01*
X1071Y534D02*
X1102Y534D01*
X1147Y534D02*
X1154Y534D01*
X1178Y534D02*
X1184Y534D01*
X1228Y534D02*
X1234Y534D01*
X1272Y534D02*
X1279Y534D01*
X1298Y534D02*
X1305Y534D01*
X1322Y534D02*
X1336Y534D01*
X1349Y534D02*
X1355Y534D01*
X1372Y534D02*
X1379Y534D01*
X1399Y534D02*
X1406Y534D01*
X1905Y534D02*
X1912Y534D01*
X0Y533D02*
X7Y533D01*
X1071Y533D02*
X1101Y533D01*
X1148Y533D02*
X1154Y533D01*
X1178Y533D02*
X1184Y533D01*
X1228Y533D02*
X1234Y533D01*
X1272Y533D02*
X1278Y533D01*
X1299Y533D02*
X1305Y533D01*
X1322Y533D02*
X1335Y533D01*
X1349Y533D02*
X1355Y533D01*
X1372Y533D02*
X1379Y533D01*
X1399Y533D02*
X1405Y533D01*
X1905Y533D02*
X1912Y533D01*
X0Y532D02*
X7Y532D01*
X1071Y532D02*
X1100Y532D01*
X1148Y532D02*
X1154Y532D01*
X1178Y532D02*
X1184Y532D01*
X1228Y532D02*
X1234Y532D01*
X1272Y532D02*
X1278Y532D01*
X1299Y532D02*
X1305Y532D01*
X1322Y532D02*
X1334Y532D01*
X1349Y532D02*
X1355Y532D01*
X1373Y532D02*
X1379Y532D01*
X1398Y532D02*
X1405Y532D01*
X1905Y532D02*
X1912Y532D01*
X0Y531D02*
X7Y531D01*
X1071Y531D02*
X1100Y531D01*
X1148Y531D02*
X1154Y531D01*
X1178Y531D02*
X1184Y531D01*
X1228Y531D02*
X1234Y531D01*
X1272Y531D02*
X1278Y531D01*
X1299Y531D02*
X1305Y531D01*
X1322Y531D02*
X1333Y531D01*
X1349Y531D02*
X1355Y531D01*
X1373Y531D02*
X1380Y531D01*
X1398Y531D02*
X1404Y531D01*
X1905Y531D02*
X1912Y531D01*
X0Y530D02*
X7Y530D01*
X1071Y530D02*
X1101Y530D01*
X1148Y530D02*
X1154Y530D01*
X1178Y530D02*
X1184Y530D01*
X1228Y530D02*
X1234Y530D01*
X1272Y530D02*
X1278Y530D01*
X1299Y530D02*
X1305Y530D01*
X1322Y530D02*
X1332Y530D01*
X1350Y530D02*
X1355Y530D01*
X1374Y530D02*
X1380Y530D01*
X1397Y530D02*
X1404Y530D01*
X1905Y530D02*
X1912Y530D01*
X0Y529D02*
X7Y529D01*
X1071Y529D02*
X1102Y529D01*
X1148Y529D02*
X1154Y529D01*
X1178Y529D02*
X1184Y529D01*
X1228Y529D02*
X1234Y529D01*
X1272Y529D02*
X1278Y529D01*
X1299Y529D02*
X1305Y529D01*
X1322Y529D02*
X1330Y529D01*
X1350Y529D02*
X1354Y529D01*
X1374Y529D02*
X1381Y529D01*
X1397Y529D02*
X1404Y529D01*
X1905Y529D02*
X1912Y529D01*
X0Y528D02*
X7Y528D01*
X1071Y528D02*
X1102Y528D01*
X1127Y528D02*
X1154Y528D01*
X1178Y528D02*
X1184Y528D01*
X1228Y528D02*
X1234Y528D01*
X1272Y528D02*
X1278Y528D01*
X1299Y528D02*
X1305Y528D01*
X1322Y528D02*
X1329Y528D01*
X1352Y528D02*
X1353Y528D01*
X1374Y528D02*
X1381Y528D01*
X1396Y528D02*
X1403Y528D01*
X1905Y528D02*
X1912Y528D01*
X0Y527D02*
X7Y527D01*
X1071Y527D02*
X1077Y527D01*
X1095Y527D02*
X1103Y527D01*
X1125Y527D02*
X1154Y527D01*
X1178Y527D02*
X1184Y527D01*
X1228Y527D02*
X1234Y527D01*
X1272Y527D02*
X1278Y527D01*
X1299Y527D02*
X1305Y527D01*
X1322Y527D02*
X1328Y527D01*
X1375Y527D02*
X1382Y527D01*
X1396Y527D02*
X1403Y527D01*
X1905Y527D02*
X1912Y527D01*
X0Y526D02*
X7Y526D01*
X1071Y526D02*
X1077Y526D01*
X1096Y526D02*
X1103Y526D01*
X1124Y526D02*
X1154Y526D01*
X1178Y526D02*
X1184Y526D01*
X1228Y526D02*
X1234Y526D01*
X1272Y526D02*
X1278Y526D01*
X1299Y526D02*
X1305Y526D01*
X1322Y526D02*
X1328Y526D01*
X1375Y526D02*
X1382Y526D01*
X1396Y526D02*
X1402Y526D01*
X1905Y526D02*
X1912Y526D01*
X0Y525D02*
X7Y525D01*
X1071Y525D02*
X1077Y525D01*
X1097Y525D02*
X1104Y525D01*
X1123Y525D02*
X1154Y525D01*
X1178Y525D02*
X1184Y525D01*
X1228Y525D02*
X1234Y525D01*
X1272Y525D02*
X1305Y525D01*
X1322Y525D02*
X1328Y525D01*
X1376Y525D02*
X1382Y525D01*
X1395Y525D02*
X1402Y525D01*
X1905Y525D02*
X1912Y525D01*
X0Y524D02*
X7Y524D01*
X1071Y524D02*
X1077Y524D01*
X1098Y524D02*
X1104Y524D01*
X1123Y524D02*
X1154Y524D01*
X1178Y524D02*
X1184Y524D01*
X1228Y524D02*
X1234Y524D01*
X1272Y524D02*
X1305Y524D01*
X1322Y524D02*
X1328Y524D01*
X1376Y524D02*
X1383Y524D01*
X1395Y524D02*
X1401Y524D01*
X1905Y524D02*
X1912Y524D01*
X0Y523D02*
X7Y523D01*
X1071Y523D02*
X1077Y523D01*
X1098Y523D02*
X1104Y523D01*
X1122Y523D02*
X1154Y523D01*
X1178Y523D02*
X1184Y523D01*
X1228Y523D02*
X1234Y523D01*
X1272Y523D02*
X1305Y523D01*
X1322Y523D02*
X1328Y523D01*
X1377Y523D02*
X1383Y523D01*
X1394Y523D02*
X1401Y523D01*
X1905Y523D02*
X1912Y523D01*
X0Y522D02*
X7Y522D01*
X1071Y522D02*
X1077Y522D01*
X1098Y522D02*
X1104Y522D01*
X1122Y522D02*
X1154Y522D01*
X1178Y522D02*
X1184Y522D01*
X1228Y522D02*
X1234Y522D01*
X1272Y522D02*
X1305Y522D01*
X1322Y522D02*
X1328Y522D01*
X1377Y522D02*
X1384Y522D01*
X1394Y522D02*
X1401Y522D01*
X1905Y522D02*
X1912Y522D01*
X0Y521D02*
X7Y521D01*
X1071Y521D02*
X1077Y521D01*
X1098Y521D02*
X1104Y521D01*
X1121Y521D02*
X1128Y521D01*
X1147Y521D02*
X1154Y521D01*
X1178Y521D02*
X1184Y521D01*
X1228Y521D02*
X1234Y521D01*
X1272Y521D02*
X1305Y521D01*
X1322Y521D02*
X1328Y521D01*
X1378Y521D02*
X1384Y521D01*
X1393Y521D02*
X1400Y521D01*
X1905Y521D02*
X1912Y521D01*
X0Y520D02*
X7Y520D01*
X1071Y520D02*
X1077Y520D01*
X1098Y520D02*
X1104Y520D01*
X1121Y520D02*
X1127Y520D01*
X1148Y520D02*
X1154Y520D01*
X1178Y520D02*
X1184Y520D01*
X1228Y520D02*
X1234Y520D01*
X1272Y520D02*
X1304Y520D01*
X1322Y520D02*
X1328Y520D01*
X1378Y520D02*
X1385Y520D01*
X1393Y520D02*
X1400Y520D01*
X1905Y520D02*
X1912Y520D01*
X0Y519D02*
X7Y519D01*
X1071Y519D02*
X1077Y519D01*
X1098Y519D02*
X1104Y519D01*
X1121Y519D02*
X1127Y519D01*
X1148Y519D02*
X1154Y519D01*
X1178Y519D02*
X1184Y519D01*
X1228Y519D02*
X1234Y519D01*
X1272Y519D02*
X1302Y519D01*
X1322Y519D02*
X1328Y519D01*
X1378Y519D02*
X1385Y519D01*
X1392Y519D02*
X1399Y519D01*
X1905Y519D02*
X1912Y519D01*
X0Y518D02*
X7Y518D01*
X1071Y518D02*
X1077Y518D01*
X1098Y518D02*
X1104Y518D01*
X1121Y518D02*
X1127Y518D01*
X1148Y518D02*
X1154Y518D01*
X1178Y518D02*
X1184Y518D01*
X1228Y518D02*
X1234Y518D01*
X1272Y518D02*
X1278Y518D01*
X1322Y518D02*
X1328Y518D01*
X1379Y518D02*
X1385Y518D01*
X1392Y518D02*
X1399Y518D01*
X1905Y518D02*
X1912Y518D01*
X0Y517D02*
X7Y517D01*
X1071Y517D02*
X1077Y517D01*
X1098Y517D02*
X1104Y517D01*
X1121Y517D02*
X1127Y517D01*
X1148Y517D02*
X1154Y517D01*
X1178Y517D02*
X1184Y517D01*
X1201Y517D02*
X1202Y517D01*
X1228Y517D02*
X1234Y517D01*
X1252Y517D02*
X1252Y517D01*
X1272Y517D02*
X1278Y517D01*
X1322Y517D02*
X1328Y517D01*
X1379Y517D02*
X1386Y517D01*
X1392Y517D02*
X1398Y517D01*
X1905Y517D02*
X1912Y517D01*
X0Y516D02*
X7Y516D01*
X1071Y516D02*
X1077Y516D01*
X1098Y516D02*
X1104Y516D01*
X1121Y516D02*
X1127Y516D01*
X1148Y516D02*
X1154Y516D01*
X1178Y516D02*
X1184Y516D01*
X1200Y516D02*
X1204Y516D01*
X1228Y516D02*
X1234Y516D01*
X1250Y516D02*
X1254Y516D01*
X1272Y516D02*
X1278Y516D01*
X1322Y516D02*
X1328Y516D01*
X1380Y516D02*
X1386Y516D01*
X1391Y516D02*
X1398Y516D01*
X1905Y516D02*
X1912Y516D01*
X0Y515D02*
X7Y515D01*
X1071Y515D02*
X1077Y515D01*
X1098Y515D02*
X1104Y515D01*
X1121Y515D02*
X1127Y515D01*
X1147Y515D02*
X1154Y515D01*
X1178Y515D02*
X1184Y515D01*
X1199Y515D02*
X1205Y515D01*
X1228Y515D02*
X1234Y515D01*
X1249Y515D02*
X1255Y515D01*
X1272Y515D02*
X1278Y515D01*
X1322Y515D02*
X1328Y515D01*
X1380Y515D02*
X1387Y515D01*
X1391Y515D02*
X1397Y515D01*
X1905Y515D02*
X1912Y515D01*
X0Y514D02*
X7Y514D01*
X1071Y514D02*
X1077Y514D01*
X1097Y514D02*
X1104Y514D01*
X1121Y514D02*
X1127Y514D01*
X1145Y514D02*
X1154Y514D01*
X1178Y514D02*
X1184Y514D01*
X1199Y514D02*
X1205Y514D01*
X1228Y514D02*
X1234Y514D01*
X1249Y514D02*
X1255Y514D01*
X1272Y514D02*
X1279Y514D01*
X1322Y514D02*
X1328Y514D01*
X1381Y514D02*
X1397Y514D01*
X1905Y514D02*
X1912Y514D01*
X0Y513D02*
X7Y513D01*
X1071Y513D02*
X1077Y513D01*
X1096Y513D02*
X1103Y513D01*
X1121Y513D02*
X1128Y513D01*
X1144Y513D02*
X1154Y513D01*
X1178Y513D02*
X1185Y513D01*
X1198Y513D02*
X1205Y513D01*
X1228Y513D02*
X1235Y513D01*
X1248Y513D02*
X1255Y513D01*
X1272Y513D02*
X1280Y513D01*
X1322Y513D02*
X1328Y513D01*
X1381Y513D02*
X1397Y513D01*
X1905Y513D02*
X1912Y513D01*
X0Y512D02*
X7Y512D01*
X1071Y512D02*
X1077Y512D01*
X1094Y512D02*
X1103Y512D01*
X1121Y512D02*
X1128Y512D01*
X1142Y512D02*
X1154Y512D01*
X1179Y512D02*
X1186Y512D01*
X1197Y512D02*
X1205Y512D01*
X1229Y512D02*
X1236Y512D01*
X1248Y512D02*
X1255Y512D01*
X1273Y512D02*
X1282Y512D01*
X1322Y512D02*
X1328Y512D01*
X1381Y512D02*
X1396Y512D01*
X1905Y512D02*
X1912Y512D01*
X0Y511D02*
X7Y511D01*
X1071Y511D02*
X1102Y511D01*
X1122Y511D02*
X1155Y511D01*
X1179Y511D02*
X1204Y511D01*
X1229Y511D02*
X1254Y511D01*
X1273Y511D02*
X1303Y511D01*
X1322Y511D02*
X1328Y511D01*
X1382Y511D02*
X1396Y511D01*
X1905Y511D02*
X1912Y511D01*
X0Y510D02*
X7Y510D01*
X1071Y510D02*
X1102Y510D01*
X1122Y510D02*
X1155Y510D01*
X1179Y510D02*
X1204Y510D01*
X1229Y510D02*
X1254Y510D01*
X1274Y510D02*
X1304Y510D01*
X1322Y510D02*
X1328Y510D01*
X1382Y510D02*
X1395Y510D01*
X1905Y510D02*
X1912Y510D01*
X0Y509D02*
X7Y509D01*
X1071Y509D02*
X1101Y509D01*
X1123Y509D02*
X1155Y509D01*
X1180Y509D02*
X1203Y509D01*
X1230Y509D02*
X1253Y509D01*
X1275Y509D02*
X1305Y509D01*
X1322Y509D02*
X1328Y509D01*
X1383Y509D02*
X1395Y509D01*
X1905Y509D02*
X1912Y509D01*
X0Y508D02*
X7Y508D01*
X1071Y508D02*
X1100Y508D01*
X1124Y508D02*
X1155Y508D01*
X1181Y508D02*
X1202Y508D01*
X1231Y508D02*
X1252Y508D01*
X1276Y508D02*
X1305Y508D01*
X1322Y508D02*
X1328Y508D01*
X1384Y508D02*
X1394Y508D01*
X1905Y508D02*
X1912Y508D01*
X0Y507D02*
X7Y507D01*
X1071Y507D02*
X1099Y507D01*
X1124Y507D02*
X1146Y507D01*
X1149Y507D02*
X1154Y507D01*
X1182Y507D02*
X1201Y507D01*
X1232Y507D02*
X1252Y507D01*
X1277Y507D02*
X1305Y507D01*
X1322Y507D02*
X1328Y507D01*
X1387Y507D02*
X1394Y507D01*
X1905Y507D02*
X1912Y507D01*
X0Y506D02*
X7Y506D01*
X1071Y506D02*
X1097Y506D01*
X1126Y506D02*
X1145Y506D01*
X1149Y506D02*
X1154Y506D01*
X1183Y506D02*
X1200Y506D01*
X1233Y506D02*
X1250Y506D01*
X1279Y506D02*
X1305Y506D01*
X1322Y506D02*
X1327Y506D01*
X1387Y506D02*
X1394Y506D01*
X1905Y506D02*
X1912Y506D01*
X0Y505D02*
X7Y505D01*
X1071Y505D02*
X1095Y505D01*
X1128Y505D02*
X1143Y505D01*
X1150Y505D02*
X1153Y505D01*
X1185Y505D02*
X1198Y505D01*
X1235Y505D02*
X1248Y505D01*
X1281Y505D02*
X1304Y505D01*
X1323Y505D02*
X1326Y505D01*
X1386Y505D02*
X1393Y505D01*
X1905Y505D02*
X1912Y505D01*
X0Y504D02*
X7Y504D01*
X1386Y504D02*
X1393Y504D01*
X1905Y504D02*
X1912Y504D01*
X0Y503D02*
X7Y503D01*
X1385Y503D02*
X1392Y503D01*
X1905Y503D02*
X1912Y503D01*
X0Y502D02*
X7Y502D01*
X1385Y502D02*
X1392Y502D01*
X1905Y502D02*
X1912Y502D01*
X0Y501D02*
X7Y501D01*
X1385Y501D02*
X1391Y501D01*
X1905Y501D02*
X1912Y501D01*
X0Y500D02*
X7Y500D01*
X1384Y500D02*
X1391Y500D01*
X1905Y500D02*
X1912Y500D01*
X0Y499D02*
X7Y499D01*
X1384Y499D02*
X1390Y499D01*
X1905Y499D02*
X1912Y499D01*
X0Y498D02*
X7Y498D01*
X1383Y498D02*
X1390Y498D01*
X1905Y498D02*
X1912Y498D01*
X0Y497D02*
X7Y497D01*
X1383Y497D02*
X1390Y497D01*
X1905Y497D02*
X1912Y497D01*
X0Y496D02*
X7Y496D01*
X1374Y496D02*
X1389Y496D01*
X1905Y496D02*
X1912Y496D01*
X0Y495D02*
X7Y495D01*
X1373Y495D02*
X1389Y495D01*
X1905Y495D02*
X1912Y495D01*
X0Y494D02*
X7Y494D01*
X1372Y494D02*
X1388Y494D01*
X1905Y494D02*
X1912Y494D01*
X0Y493D02*
X7Y493D01*
X1372Y493D02*
X1388Y493D01*
X1905Y493D02*
X1912Y493D01*
X0Y492D02*
X7Y492D01*
X1372Y492D02*
X1387Y492D01*
X1905Y492D02*
X1912Y492D01*
X0Y491D02*
X7Y491D01*
X1373Y491D02*
X1387Y491D01*
X1905Y491D02*
X1912Y491D01*
X0Y490D02*
X7Y490D01*
X1374Y490D02*
X1386Y490D01*
X1905Y490D02*
X1912Y490D01*
X0Y489D02*
X7Y489D01*
X1905Y489D02*
X1912Y489D01*
X0Y488D02*
X7Y488D01*
X1905Y488D02*
X1912Y488D01*
X0Y487D02*
X7Y487D01*
X1905Y487D02*
X1912Y487D01*
X0Y486D02*
X7Y486D01*
X1905Y486D02*
X1912Y486D01*
X0Y485D02*
X7Y485D01*
X1905Y485D02*
X1912Y485D01*
X0Y484D02*
X7Y484D01*
X1905Y484D02*
X1912Y484D01*
X0Y483D02*
X7Y483D01*
X1905Y483D02*
X1912Y483D01*
X0Y482D02*
X7Y482D01*
X1905Y482D02*
X1912Y482D01*
X0Y481D02*
X7Y481D01*
X1905Y481D02*
X1912Y481D01*
X0Y480D02*
X7Y480D01*
X1905Y480D02*
X1912Y480D01*
X0Y479D02*
X7Y479D01*
X1905Y479D02*
X1912Y479D01*
X0Y478D02*
X7Y478D01*
X1905Y478D02*
X1912Y478D01*
X0Y477D02*
X7Y477D01*
X1905Y477D02*
X1912Y477D01*
X0Y476D02*
X7Y476D01*
X1905Y476D02*
X1912Y476D01*
X0Y475D02*
X7Y475D01*
X1905Y475D02*
X1912Y475D01*
X0Y474D02*
X7Y474D01*
X1905Y474D02*
X1912Y474D01*
X0Y473D02*
X7Y473D01*
X1905Y473D02*
X1912Y473D01*
X0Y472D02*
X7Y472D01*
X1905Y472D02*
X1912Y472D01*
X0Y471D02*
X7Y471D01*
X1905Y471D02*
X1912Y471D01*
X0Y470D02*
X7Y470D01*
X1905Y470D02*
X1912Y470D01*
X0Y469D02*
X7Y469D01*
X1905Y469D02*
X1912Y469D01*
X0Y468D02*
X7Y468D01*
X1905Y468D02*
X1912Y468D01*
X0Y467D02*
X7Y467D01*
X1905Y467D02*
X1912Y467D01*
X0Y466D02*
X7Y466D01*
X1905Y466D02*
X1912Y466D01*
X0Y465D02*
X7Y465D01*
X1905Y465D02*
X1912Y465D01*
X0Y464D02*
X7Y464D01*
X1905Y464D02*
X1912Y464D01*
X0Y463D02*
X7Y463D01*
X1905Y463D02*
X1912Y463D01*
X0Y462D02*
X7Y462D01*
X1905Y462D02*
X1912Y462D01*
X0Y461D02*
X7Y461D01*
X1905Y461D02*
X1912Y461D01*
X0Y460D02*
X7Y460D01*
X1905Y460D02*
X1912Y460D01*
X0Y459D02*
X7Y459D01*
X1905Y459D02*
X1912Y459D01*
X0Y458D02*
X7Y458D01*
X1905Y458D02*
X1912Y458D01*
X0Y457D02*
X7Y457D01*
X1905Y457D02*
X1912Y457D01*
X0Y456D02*
X7Y456D01*
X1905Y456D02*
X1912Y456D01*
X0Y455D02*
X7Y455D01*
X1905Y455D02*
X1912Y455D01*
X0Y454D02*
X7Y454D01*
X1905Y454D02*
X1912Y454D01*
X0Y453D02*
X7Y453D01*
X1905Y453D02*
X1912Y453D01*
X0Y452D02*
X7Y452D01*
X1905Y452D02*
X1912Y452D01*
X0Y451D02*
X7Y451D01*
X1905Y451D02*
X1912Y451D01*
X0Y450D02*
X7Y450D01*
X1905Y450D02*
X1912Y450D01*
X0Y449D02*
X7Y449D01*
X1905Y449D02*
X1912Y449D01*
X0Y448D02*
X7Y448D01*
X1905Y448D02*
X1912Y448D01*
X0Y447D02*
X7Y447D01*
X1905Y447D02*
X1912Y447D01*
X0Y446D02*
X7Y446D01*
X1905Y446D02*
X1912Y446D01*
X0Y445D02*
X7Y445D01*
X1905Y445D02*
X1912Y445D01*
X0Y444D02*
X7Y444D01*
X1905Y444D02*
X1912Y444D01*
X0Y443D02*
X7Y443D01*
X1905Y443D02*
X1912Y443D01*
X0Y442D02*
X7Y442D01*
X1905Y442D02*
X1912Y442D01*
X0Y441D02*
X7Y441D01*
X1905Y441D02*
X1912Y441D01*
X0Y440D02*
X7Y440D01*
X1905Y440D02*
X1912Y440D01*
X0Y439D02*
X7Y439D01*
X1905Y439D02*
X1912Y439D01*
X0Y438D02*
X7Y438D01*
X1905Y438D02*
X1912Y438D01*
X0Y437D02*
X7Y437D01*
X1905Y437D02*
X1912Y437D01*
X0Y436D02*
X7Y436D01*
X1905Y436D02*
X1912Y436D01*
X0Y435D02*
X7Y435D01*
X1905Y435D02*
X1912Y435D01*
X0Y434D02*
X7Y434D01*
X1905Y434D02*
X1912Y434D01*
X0Y433D02*
X7Y433D01*
X1905Y433D02*
X1912Y433D01*
X0Y432D02*
X7Y432D01*
X1905Y432D02*
X1912Y432D01*
X0Y431D02*
X7Y431D01*
X1905Y431D02*
X1912Y431D01*
X0Y430D02*
X7Y430D01*
X1905Y430D02*
X1912Y430D01*
X0Y429D02*
X7Y429D01*
X1905Y429D02*
X1912Y429D01*
X0Y428D02*
X7Y428D01*
X1905Y428D02*
X1912Y428D01*
X0Y427D02*
X7Y427D01*
X1905Y427D02*
X1912Y427D01*
X0Y426D02*
X7Y426D01*
X1905Y426D02*
X1912Y426D01*
X0Y425D02*
X7Y425D01*
X1905Y425D02*
X1912Y425D01*
X0Y424D02*
X7Y424D01*
X1905Y424D02*
X1912Y424D01*
X0Y423D02*
X7Y423D01*
X1905Y423D02*
X1912Y423D01*
X0Y422D02*
X7Y422D01*
X1905Y422D02*
X1912Y422D01*
X0Y421D02*
X7Y421D01*
X1905Y421D02*
X1912Y421D01*
X0Y420D02*
X7Y420D01*
X1905Y420D02*
X1912Y420D01*
X0Y419D02*
X7Y419D01*
X1905Y419D02*
X1912Y419D01*
X0Y418D02*
X7Y418D01*
X1905Y418D02*
X1912Y418D01*
X0Y417D02*
X7Y417D01*
X1905Y417D02*
X1912Y417D01*
X0Y416D02*
X7Y416D01*
X1905Y416D02*
X1912Y416D01*
X0Y415D02*
X7Y415D01*
X1905Y415D02*
X1912Y415D01*
X0Y414D02*
X7Y414D01*
X1905Y414D02*
X1912Y414D01*
X0Y413D02*
X7Y413D01*
X1905Y413D02*
X1912Y413D01*
X0Y412D02*
X7Y412D01*
X1905Y412D02*
X1912Y412D01*
X0Y411D02*
X7Y411D01*
X1905Y411D02*
X1912Y411D01*
X0Y410D02*
X7Y410D01*
X1905Y410D02*
X1912Y410D01*
X0Y409D02*
X7Y409D01*
X1905Y409D02*
X1912Y409D01*
X0Y408D02*
X7Y408D01*
X1905Y408D02*
X1912Y408D01*
X0Y407D02*
X7Y407D01*
X1905Y407D02*
X1912Y407D01*
X0Y406D02*
X7Y406D01*
X1905Y406D02*
X1912Y406D01*
X0Y405D02*
X7Y405D01*
X1905Y405D02*
X1912Y405D01*
X0Y404D02*
X7Y404D01*
X1905Y404D02*
X1912Y404D01*
X0Y403D02*
X7Y403D01*
X1905Y403D02*
X1912Y403D01*
X0Y402D02*
X7Y402D01*
X1905Y402D02*
X1912Y402D01*
X0Y401D02*
X7Y401D01*
X1905Y401D02*
X1912Y401D01*
X0Y400D02*
X7Y400D01*
X1905Y400D02*
X1912Y400D01*
X0Y399D02*
X7Y399D01*
X1905Y399D02*
X1912Y399D01*
X0Y398D02*
X7Y398D01*
X1905Y398D02*
X1912Y398D01*
X0Y397D02*
X7Y397D01*
X1905Y397D02*
X1912Y397D01*
X0Y396D02*
X7Y396D01*
X1905Y396D02*
X1912Y396D01*
X0Y395D02*
X7Y395D01*
X1905Y395D02*
X1912Y395D01*
X0Y394D02*
X7Y394D01*
X1905Y394D02*
X1912Y394D01*
X0Y393D02*
X7Y393D01*
X1905Y393D02*
X1912Y393D01*
X0Y392D02*
X7Y392D01*
X1905Y392D02*
X1912Y392D01*
X0Y391D02*
X7Y391D01*
X1905Y391D02*
X1912Y391D01*
X0Y390D02*
X7Y390D01*
X1905Y390D02*
X1912Y390D01*
X0Y389D02*
X7Y389D01*
X1905Y389D02*
X1912Y389D01*
X0Y388D02*
X7Y388D01*
X1905Y388D02*
X1912Y388D01*
X0Y387D02*
X7Y387D01*
X1905Y387D02*
X1912Y387D01*
X0Y386D02*
X7Y386D01*
X1905Y386D02*
X1912Y386D01*
X0Y385D02*
X7Y385D01*
X1905Y385D02*
X1912Y385D01*
X0Y384D02*
X7Y384D01*
X1905Y384D02*
X1912Y384D01*
X0Y383D02*
X7Y383D01*
X1905Y383D02*
X1912Y383D01*
X0Y382D02*
X7Y382D01*
X1905Y382D02*
X1912Y382D01*
X0Y381D02*
X7Y381D01*
X1905Y381D02*
X1912Y381D01*
X0Y380D02*
X7Y380D01*
X1905Y380D02*
X1912Y380D01*
X0Y379D02*
X7Y379D01*
X1905Y379D02*
X1912Y379D01*
X0Y378D02*
X7Y378D01*
X1905Y378D02*
X1912Y378D01*
X0Y377D02*
X7Y377D01*
X1905Y377D02*
X1912Y377D01*
X0Y376D02*
X7Y376D01*
X1905Y376D02*
X1912Y376D01*
X0Y375D02*
X7Y375D01*
X1905Y375D02*
X1912Y375D01*
X0Y374D02*
X7Y374D01*
X1905Y374D02*
X1912Y374D01*
X0Y373D02*
X7Y373D01*
X1905Y373D02*
X1912Y373D01*
X0Y372D02*
X8Y372D01*
X1904Y372D02*
X1912Y372D01*
X1Y371D02*
X8Y371D01*
X1904Y371D02*
X1911Y371D01*
X1Y370D02*
X8Y370D01*
X1904Y370D02*
X1911Y370D01*
X1Y369D02*
X8Y369D01*
X1904Y369D02*
X1911Y369D01*
X1Y368D02*
X8Y368D01*
X1904Y368D02*
X1911Y368D01*
X1Y367D02*
X8Y367D01*
X1904Y367D02*
X1911Y367D01*
X1Y366D02*
X8Y366D01*
X1904Y366D02*
X1911Y366D01*
X1Y365D02*
X8Y365D01*
X1904Y365D02*
X1911Y365D01*
X1Y364D02*
X8Y364D01*
X1904Y364D02*
X1911Y364D01*
X1Y363D02*
X8Y363D01*
X1904Y363D02*
X1911Y363D01*
X1Y362D02*
X8Y362D01*
X1904Y362D02*
X1911Y362D01*
X1Y361D02*
X8Y361D01*
X1904Y361D02*
X1911Y361D01*
X1Y360D02*
X8Y360D01*
X1904Y360D02*
X1911Y360D01*
X1Y359D02*
X8Y359D01*
X1904Y359D02*
X1911Y359D01*
X1Y358D02*
X9Y358D01*
X1903Y358D02*
X1911Y358D01*
X2Y357D02*
X9Y357D01*
X1903Y357D02*
X1910Y357D01*
X2Y356D02*
X9Y356D01*
X1903Y356D02*
X1910Y356D01*
X2Y355D02*
X9Y355D01*
X1903Y355D02*
X1910Y355D01*
X2Y354D02*
X9Y354D01*
X1903Y354D02*
X1910Y354D01*
X2Y353D02*
X9Y353D01*
X1903Y353D02*
X1910Y353D01*
X2Y352D02*
X9Y352D01*
X1903Y352D02*
X1910Y352D01*
X2Y351D02*
X9Y351D01*
X1903Y351D02*
X1910Y351D01*
X2Y350D02*
X9Y350D01*
X1903Y350D02*
X1910Y350D01*
X2Y349D02*
X9Y349D01*
X1903Y349D02*
X1910Y349D01*
X2Y348D02*
X10Y348D01*
X1902Y348D02*
X1910Y348D01*
X3Y347D02*
X10Y347D01*
X1902Y347D02*
X1909Y347D01*
X3Y346D02*
X10Y346D01*
X1902Y346D02*
X1909Y346D01*
X3Y345D02*
X10Y345D01*
X1902Y345D02*
X1909Y345D01*
X3Y344D02*
X10Y344D01*
X1902Y344D02*
X1909Y344D01*
X3Y343D02*
X10Y343D01*
X1902Y343D02*
X1909Y343D01*
X3Y342D02*
X10Y342D01*
X1902Y342D02*
X1909Y342D01*
X3Y341D02*
X10Y341D01*
X1902Y341D02*
X1909Y341D01*
X3Y340D02*
X11Y340D01*
X1901Y340D02*
X1909Y340D01*
X4Y339D02*
X11Y339D01*
X1901Y339D02*
X1908Y339D01*
X4Y338D02*
X11Y338D01*
X1901Y338D02*
X1908Y338D01*
X4Y337D02*
X11Y337D01*
X1901Y337D02*
X1908Y337D01*
X4Y336D02*
X11Y336D01*
X1901Y336D02*
X1908Y336D01*
X4Y335D02*
X11Y335D01*
X1901Y335D02*
X1908Y335D01*
X4Y334D02*
X11Y334D01*
X1901Y334D02*
X1908Y334D01*
X4Y333D02*
X12Y333D01*
X1900Y333D02*
X1908Y333D01*
X5Y332D02*
X12Y332D01*
X1900Y332D02*
X1907Y332D01*
X5Y331D02*
X12Y331D01*
X1900Y331D02*
X1907Y331D01*
X5Y330D02*
X12Y330D01*
X1900Y330D02*
X1907Y330D01*
X5Y329D02*
X12Y329D01*
X1900Y329D02*
X1907Y329D01*
X5Y328D02*
X12Y328D01*
X1900Y328D02*
X1907Y328D01*
X5Y327D02*
X13Y327D01*
X1899Y327D02*
X1907Y327D01*
X6Y326D02*
X13Y326D01*
X1899Y326D02*
X1906Y326D01*
X6Y325D02*
X13Y325D01*
X1899Y325D02*
X1906Y325D01*
X6Y324D02*
X13Y324D01*
X1899Y324D02*
X1906Y324D01*
X6Y323D02*
X13Y323D01*
X1899Y323D02*
X1906Y323D01*
X6Y322D02*
X13Y322D01*
X1899Y322D02*
X1906Y322D01*
X7Y321D02*
X14Y321D01*
X1898Y321D02*
X1905Y321D01*
X7Y320D02*
X14Y320D01*
X1898Y320D02*
X1905Y320D01*
X7Y319D02*
X14Y319D01*
X1898Y319D02*
X1905Y319D01*
X7Y318D02*
X14Y318D01*
X1898Y318D02*
X1905Y318D01*
X7Y317D02*
X14Y317D01*
X1898Y317D02*
X1905Y317D01*
X7Y316D02*
X15Y316D01*
X1897Y316D02*
X1905Y316D01*
X8Y315D02*
X15Y315D01*
X1897Y315D02*
X1904Y315D01*
X8Y314D02*
X15Y314D01*
X1897Y314D02*
X1904Y314D01*
X8Y313D02*
X15Y313D01*
X1897Y313D02*
X1904Y313D01*
X8Y312D02*
X15Y312D01*
X1897Y312D02*
X1904Y312D01*
X9Y311D02*
X16Y311D01*
X1896Y311D02*
X1903Y311D01*
X9Y310D02*
X16Y310D01*
X1896Y310D02*
X1903Y310D01*
X9Y309D02*
X16Y309D01*
X1896Y309D02*
X1903Y309D01*
X9Y308D02*
X16Y308D01*
X1896Y308D02*
X1903Y308D01*
X9Y307D02*
X16Y307D01*
X1896Y307D02*
X1903Y307D01*
X10Y306D02*
X17Y306D01*
X1895Y306D02*
X1902Y306D01*
X10Y305D02*
X17Y305D01*
X1895Y305D02*
X1902Y305D01*
X10Y304D02*
X17Y304D01*
X1895Y304D02*
X1902Y304D01*
X10Y303D02*
X17Y303D01*
X1895Y303D02*
X1902Y303D01*
X11Y302D02*
X18Y302D01*
X1894Y302D02*
X1901Y302D01*
X11Y301D02*
X18Y301D01*
X1894Y301D02*
X1901Y301D01*
X11Y300D02*
X18Y300D01*
X1894Y300D02*
X1901Y300D01*
X11Y299D02*
X18Y299D01*
X1894Y299D02*
X1901Y299D01*
X12Y298D02*
X19Y298D01*
X1893Y298D02*
X1900Y298D01*
X12Y297D02*
X19Y297D01*
X1893Y297D02*
X1900Y297D01*
X12Y296D02*
X19Y296D01*
X1893Y296D02*
X1900Y296D01*
X12Y295D02*
X19Y295D01*
X1893Y295D02*
X1900Y295D01*
X13Y294D02*
X20Y294D01*
X1892Y294D02*
X1899Y294D01*
X13Y293D02*
X20Y293D01*
X1892Y293D02*
X1899Y293D01*
X13Y292D02*
X20Y292D01*
X1892Y292D02*
X1899Y292D01*
X13Y291D02*
X21Y291D01*
X1891Y291D02*
X1899Y291D01*
X14Y290D02*
X21Y290D01*
X1891Y290D02*
X1898Y290D01*
X14Y289D02*
X21Y289D01*
X1891Y289D02*
X1898Y289D01*
X14Y288D02*
X21Y288D01*
X1891Y288D02*
X1898Y288D01*
X14Y287D02*
X22Y287D01*
X1890Y287D02*
X1898Y287D01*
X15Y286D02*
X22Y286D01*
X1890Y286D02*
X1897Y286D01*
X15Y285D02*
X22Y285D01*
X1890Y285D02*
X1897Y285D01*
X15Y284D02*
X23Y284D01*
X1889Y284D02*
X1897Y284D01*
X16Y283D02*
X23Y283D01*
X1889Y283D02*
X1896Y283D01*
X16Y282D02*
X23Y282D01*
X1889Y282D02*
X1896Y282D01*
X16Y281D02*
X23Y281D01*
X1889Y281D02*
X1896Y281D01*
X17Y280D02*
X24Y280D01*
X1888Y280D02*
X1895Y280D01*
X17Y279D02*
X24Y279D01*
X1888Y279D02*
X1895Y279D01*
X17Y278D02*
X24Y278D01*
X1888Y278D02*
X1895Y278D01*
X17Y277D02*
X25Y277D01*
X1887Y277D02*
X1895Y277D01*
X18Y276D02*
X25Y276D01*
X1887Y276D02*
X1894Y276D01*
X18Y275D02*
X25Y275D01*
X1887Y275D02*
X1894Y275D01*
X18Y274D02*
X26Y274D01*
X1886Y274D02*
X1894Y274D01*
X19Y273D02*
X26Y273D01*
X1886Y273D02*
X1893Y273D01*
X19Y272D02*
X26Y272D01*
X1886Y272D02*
X1893Y272D01*
X19Y271D02*
X27Y271D01*
X1885Y271D02*
X1893Y271D01*
X20Y270D02*
X27Y270D01*
X1885Y270D02*
X1892Y270D01*
X20Y269D02*
X27Y269D01*
X1885Y269D02*
X1892Y269D01*
X20Y268D02*
X28Y268D01*
X1884Y268D02*
X1892Y268D01*
X21Y267D02*
X28Y267D01*
X1884Y267D02*
X1891Y267D01*
X21Y266D02*
X28Y266D01*
X1884Y266D02*
X1891Y266D01*
X21Y265D02*
X29Y265D01*
X1883Y265D02*
X1891Y265D01*
X22Y264D02*
X29Y264D01*
X1883Y264D02*
X1890Y264D01*
X22Y263D02*
X29Y263D01*
X1883Y263D02*
X1890Y263D01*
X22Y262D02*
X30Y262D01*
X1882Y262D02*
X1890Y262D01*
X23Y261D02*
X30Y261D01*
X1882Y261D02*
X1889Y261D01*
X23Y260D02*
X30Y260D01*
X1882Y260D02*
X1889Y260D01*
X24Y259D02*
X31Y259D01*
X1881Y259D02*
X1888Y259D01*
X24Y258D02*
X31Y258D01*
X1881Y258D02*
X1888Y258D01*
X24Y257D02*
X32Y257D01*
X1880Y257D02*
X1888Y257D01*
X25Y256D02*
X32Y256D01*
X1880Y256D02*
X1887Y256D01*
X25Y255D02*
X32Y255D01*
X1880Y255D02*
X1887Y255D01*
X25Y254D02*
X33Y254D01*
X1879Y254D02*
X1887Y254D01*
X26Y253D02*
X33Y253D01*
X1879Y253D02*
X1886Y253D01*
X26Y252D02*
X34Y252D01*
X1878Y252D02*
X1886Y252D01*
X27Y251D02*
X34Y251D01*
X1878Y251D02*
X1885Y251D01*
X27Y250D02*
X34Y250D01*
X1878Y250D02*
X1885Y250D01*
X27Y249D02*
X35Y249D01*
X1877Y249D02*
X1885Y249D01*
X28Y248D02*
X35Y248D01*
X1877Y248D02*
X1884Y248D01*
X28Y247D02*
X36Y247D01*
X1876Y247D02*
X1884Y247D01*
X29Y246D02*
X36Y246D01*
X1876Y246D02*
X1883Y246D01*
X29Y245D02*
X36Y245D01*
X1876Y245D02*
X1883Y245D01*
X29Y244D02*
X37Y244D01*
X1875Y244D02*
X1883Y244D01*
X30Y243D02*
X37Y243D01*
X1875Y243D02*
X1882Y243D01*
X30Y242D02*
X38Y242D01*
X1874Y242D02*
X1882Y242D01*
X31Y241D02*
X38Y241D01*
X1874Y241D02*
X1881Y241D01*
X31Y240D02*
X39Y240D01*
X1873Y240D02*
X1881Y240D01*
X31Y239D02*
X39Y239D01*
X1873Y239D02*
X1881Y239D01*
X32Y238D02*
X40Y238D01*
X1872Y238D02*
X1880Y238D01*
X32Y237D02*
X40Y237D01*
X1872Y237D02*
X1880Y237D01*
X33Y236D02*
X40Y236D01*
X1872Y236D02*
X1879Y236D01*
X33Y235D02*
X41Y235D01*
X1871Y235D02*
X1879Y235D01*
X34Y234D02*
X41Y234D01*
X1871Y234D02*
X1878Y234D01*
X34Y233D02*
X42Y233D01*
X1870Y233D02*
X1878Y233D01*
X35Y232D02*
X42Y232D01*
X1870Y232D02*
X1877Y232D01*
X35Y231D02*
X43Y231D01*
X1869Y231D02*
X1877Y231D01*
X36Y230D02*
X43Y230D01*
X1869Y230D02*
X1876Y230D01*
X36Y229D02*
X44Y229D01*
X1868Y229D02*
X1876Y229D01*
X36Y228D02*
X44Y228D01*
X1868Y228D02*
X1876Y228D01*
X37Y227D02*
X45Y227D01*
X1867Y227D02*
X1875Y227D01*
X37Y226D02*
X45Y226D01*
X1867Y226D02*
X1875Y226D01*
X38Y225D02*
X46Y225D01*
X1866Y225D02*
X1874Y225D01*
X38Y224D02*
X46Y224D01*
X1866Y224D02*
X1874Y224D01*
X39Y223D02*
X47Y223D01*
X1865Y223D02*
X1873Y223D01*
X39Y222D02*
X47Y222D01*
X1865Y222D02*
X1873Y222D01*
X40Y221D02*
X48Y221D01*
X1864Y221D02*
X1872Y221D01*
X40Y220D02*
X48Y220D01*
X1864Y220D02*
X1872Y220D01*
X41Y219D02*
X49Y219D01*
X1863Y219D02*
X1871Y219D01*
X41Y218D02*
X49Y218D01*
X1863Y218D02*
X1871Y218D01*
X42Y217D02*
X50Y217D01*
X1862Y217D02*
X1870Y217D01*
X42Y216D02*
X50Y216D01*
X1862Y216D02*
X1870Y216D01*
X43Y215D02*
X51Y215D01*
X1861Y215D02*
X1869Y215D01*
X43Y214D02*
X51Y214D01*
X1861Y214D02*
X1869Y214D01*
X44Y213D02*
X52Y213D01*
X1860Y213D02*
X1868Y213D01*
X44Y212D02*
X52Y212D01*
X1860Y212D02*
X1868Y212D01*
X45Y211D02*
X53Y211D01*
X1859Y211D02*
X1867Y211D01*
X45Y210D02*
X53Y210D01*
X1859Y210D02*
X1867Y210D01*
X46Y209D02*
X54Y209D01*
X1858Y209D02*
X1866Y209D01*
X47Y208D02*
X54Y208D01*
X1858Y208D02*
X1865Y208D01*
X47Y207D02*
X55Y207D01*
X1857Y207D02*
X1865Y207D01*
X48Y206D02*
X56Y206D01*
X1856Y206D02*
X1864Y206D01*
X48Y205D02*
X56Y205D01*
X1856Y205D02*
X1864Y205D01*
X49Y204D02*
X57Y204D01*
X1855Y204D02*
X1863Y204D01*
X49Y203D02*
X57Y203D01*
X1855Y203D02*
X1863Y203D01*
X50Y202D02*
X58Y202D01*
X1854Y202D02*
X1862Y202D01*
X50Y201D02*
X59Y201D01*
X1853Y201D02*
X1862Y201D01*
X51Y200D02*
X59Y200D01*
X1853Y200D02*
X1861Y200D01*
X52Y199D02*
X60Y199D01*
X1852Y199D02*
X1860Y199D01*
X52Y198D02*
X60Y198D01*
X1852Y198D02*
X1860Y198D01*
X53Y197D02*
X61Y197D01*
X1851Y197D02*
X1859Y197D01*
X53Y196D02*
X61Y196D01*
X1851Y196D02*
X1859Y196D01*
X54Y195D02*
X62Y195D01*
X1850Y195D02*
X1858Y195D01*
X55Y194D02*
X63Y194D01*
X1849Y194D02*
X1857Y194D01*
X55Y193D02*
X63Y193D01*
X1849Y193D02*
X1857Y193D01*
X56Y192D02*
X64Y192D01*
X1848Y192D02*
X1856Y192D01*
X56Y191D02*
X65Y191D01*
X1847Y191D02*
X1856Y191D01*
X57Y190D02*
X65Y190D01*
X1847Y190D02*
X1855Y190D01*
X57Y189D02*
X66Y189D01*
X1846Y189D02*
X1855Y189D01*
X58Y188D02*
X66Y188D01*
X1846Y188D02*
X1854Y188D01*
X59Y187D02*
X67Y187D01*
X1845Y187D02*
X1853Y187D01*
X59Y186D02*
X68Y186D01*
X1844Y186D02*
X1853Y186D01*
X60Y185D02*
X68Y185D01*
X1844Y185D02*
X1852Y185D01*
X61Y184D02*
X69Y184D01*
X1843Y184D02*
X1851Y184D01*
X61Y183D02*
X70Y183D01*
X1842Y183D02*
X1851Y183D01*
X62Y182D02*
X70Y182D01*
X1842Y182D02*
X1850Y182D01*
X63Y181D02*
X71Y181D01*
X1841Y181D02*
X1849Y181D01*
X63Y180D02*
X72Y180D01*
X1840Y180D02*
X1849Y180D01*
X64Y179D02*
X72Y179D01*
X1840Y179D02*
X1848Y179D01*
X65Y178D02*
X73Y178D01*
X1839Y178D02*
X1847Y178D01*
X65Y177D02*
X74Y177D01*
X1838Y177D02*
X1847Y177D01*
X66Y176D02*
X74Y176D01*
X1838Y176D02*
X1846Y176D01*
X66Y175D02*
X75Y175D01*
X1837Y175D02*
X1846Y175D01*
X67Y174D02*
X76Y174D01*
X1836Y174D02*
X1845Y174D01*
X68Y173D02*
X77Y173D01*
X1835Y173D02*
X1844Y173D01*
X69Y172D02*
X77Y172D01*
X1835Y172D02*
X1843Y172D01*
X69Y171D02*
X78Y171D01*
X1834Y171D02*
X1843Y171D01*
X70Y170D02*
X79Y170D01*
X1833Y170D02*
X1842Y170D01*
X71Y169D02*
X79Y169D01*
X1833Y169D02*
X1841Y169D01*
X71Y168D02*
X80Y168D01*
X1832Y168D02*
X1841Y168D01*
X72Y167D02*
X81Y167D01*
X1831Y167D02*
X1840Y167D01*
X73Y166D02*
X82Y166D01*
X1830Y166D02*
X1839Y166D01*
X74Y165D02*
X82Y165D01*
X1830Y165D02*
X1838Y165D01*
X74Y164D02*
X83Y164D01*
X1829Y164D02*
X1838Y164D01*
X75Y163D02*
X84Y163D01*
X1828Y163D02*
X1837Y163D01*
X76Y162D02*
X85Y162D01*
X1827Y162D02*
X1836Y162D01*
X76Y161D02*
X85Y161D01*
X1827Y161D02*
X1836Y161D01*
X77Y160D02*
X86Y160D01*
X1826Y160D02*
X1835Y160D01*
X78Y159D02*
X87Y159D01*
X1825Y159D02*
X1834Y159D01*
X79Y158D02*
X88Y158D01*
X1824Y158D02*
X1833Y158D01*
X79Y157D02*
X89Y157D01*
X1823Y157D02*
X1833Y157D01*
X80Y156D02*
X89Y156D01*
X1823Y156D02*
X1832Y156D01*
X81Y155D02*
X90Y155D01*
X1822Y155D02*
X1831Y155D01*
X82Y154D02*
X91Y154D01*
X1821Y154D02*
X1830Y154D01*
X83Y153D02*
X92Y153D01*
X1820Y153D02*
X1829Y153D01*
X83Y152D02*
X93Y152D01*
X1819Y152D02*
X1829Y152D01*
X84Y151D02*
X93Y151D01*
X1819Y151D02*
X1828Y151D01*
X85Y150D02*
X94Y150D01*
X1818Y150D02*
X1827Y150D01*
X86Y149D02*
X95Y149D01*
X1817Y149D02*
X1826Y149D01*
X87Y148D02*
X96Y148D01*
X1816Y148D02*
X1825Y148D01*
X87Y147D02*
X97Y147D01*
X1815Y147D02*
X1825Y147D01*
X88Y146D02*
X98Y146D01*
X1814Y146D02*
X1824Y146D01*
X89Y145D02*
X98Y145D01*
X1814Y145D02*
X1823Y145D01*
X90Y144D02*
X99Y144D01*
X1813Y144D02*
X1822Y144D01*
X91Y143D02*
X100Y143D01*
X1812Y143D02*
X1821Y143D01*
X91Y142D02*
X101Y142D01*
X1811Y142D02*
X1821Y142D01*
X92Y141D02*
X102Y141D01*
X1810Y141D02*
X1820Y141D01*
X93Y140D02*
X103Y140D01*
X1809Y140D02*
X1819Y140D01*
X94Y139D02*
X104Y139D01*
X1808Y139D02*
X1818Y139D01*
X95Y138D02*
X105Y138D01*
X1807Y138D02*
X1817Y138D01*
X96Y137D02*
X105Y137D01*
X1807Y137D02*
X1816Y137D01*
X97Y136D02*
X106Y136D01*
X1806Y136D02*
X1815Y136D01*
X98Y135D02*
X107Y135D01*
X1805Y135D02*
X1814Y135D01*
X98Y134D02*
X108Y134D01*
X1804Y134D02*
X1814Y134D01*
X99Y133D02*
X109Y133D01*
X1803Y133D02*
X1813Y133D01*
X100Y132D02*
X110Y132D01*
X1802Y132D02*
X1812Y132D01*
X101Y131D02*
X111Y131D01*
X1801Y131D02*
X1811Y131D01*
X102Y130D02*
X112Y130D01*
X1800Y130D02*
X1810Y130D01*
X103Y129D02*
X113Y129D01*
X1799Y129D02*
X1809Y129D01*
X104Y128D02*
X114Y128D01*
X1798Y128D02*
X1808Y128D01*
X105Y127D02*
X115Y127D01*
X1797Y127D02*
X1807Y127D01*
X106Y126D02*
X116Y126D01*
X1796Y126D02*
X1806Y126D01*
X107Y125D02*
X117Y125D01*
X1795Y125D02*
X1805Y125D01*
X108Y124D02*
X118Y124D01*
X1794Y124D02*
X1804Y124D01*
X109Y123D02*
X119Y123D01*
X1793Y123D02*
X1803Y123D01*
X110Y122D02*
X120Y122D01*
X1792Y122D02*
X1802Y122D01*
X111Y121D02*
X121Y121D01*
X1791Y121D02*
X1801Y121D01*
X111Y120D02*
X122Y120D01*
X1790Y120D02*
X1801Y120D01*
X112Y119D02*
X123Y119D01*
X1789Y119D02*
X1800Y119D01*
X113Y118D02*
X124Y118D01*
X1788Y118D02*
X1799Y118D01*
X114Y117D02*
X125Y117D01*
X1787Y117D02*
X1798Y117D01*
X115Y116D02*
X126Y116D01*
X1786Y116D02*
X1797Y116D01*
X116Y115D02*
X127Y115D01*
X1785Y115D02*
X1796Y115D01*
X117Y114D02*
X128Y114D01*
X1784Y114D02*
X1795Y114D01*
X119Y113D02*
X129Y113D01*
X1783Y113D02*
X1793Y113D01*
X120Y112D02*
X130Y112D01*
X1782Y112D02*
X1792Y112D01*
X121Y111D02*
X131Y111D01*
X1781Y111D02*
X1791Y111D01*
X122Y110D02*
X132Y110D01*
X1780Y110D02*
X1790Y110D01*
X123Y109D02*
X133Y109D01*
X1779Y109D02*
X1789Y109D01*
X124Y108D02*
X135Y108D01*
X1777Y108D02*
X1788Y108D01*
X125Y107D02*
X136Y107D01*
X1776Y107D02*
X1787Y107D01*
X126Y106D02*
X137Y106D01*
X1775Y106D02*
X1786Y106D01*
X127Y105D02*
X138Y105D01*
X1774Y105D02*
X1785Y105D01*
X128Y104D02*
X139Y104D01*
X1773Y104D02*
X1784Y104D01*
X129Y103D02*
X140Y103D01*
X1772Y103D02*
X1783Y103D01*
X130Y102D02*
X142Y102D01*
X1770Y102D02*
X1782Y102D01*
X131Y101D02*
X143Y101D01*
X1769Y101D02*
X1781Y101D01*
X133Y100D02*
X144Y100D01*
X1768Y100D02*
X1779Y100D01*
X134Y99D02*
X145Y99D01*
X1767Y99D02*
X1778Y99D01*
X135Y98D02*
X146Y98D01*
X1766Y98D02*
X1777Y98D01*
X136Y97D02*
X147Y97D01*
X1765Y97D02*
X1776Y97D01*
X137Y96D02*
X149Y96D01*
X1763Y96D02*
X1775Y96D01*
X138Y95D02*
X150Y95D01*
X1762Y95D02*
X1774Y95D01*
X140Y94D02*
X151Y94D01*
X1761Y94D02*
X1772Y94D01*
X141Y93D02*
X152Y93D01*
X1760Y93D02*
X1771Y93D01*
X142Y92D02*
X154Y92D01*
X1758Y92D02*
X1770Y92D01*
X143Y91D02*
X155Y91D01*
X1757Y91D02*
X1769Y91D01*
X144Y90D02*
X156Y90D01*
X1756Y90D02*
X1768Y90D01*
X146Y89D02*
X158Y89D01*
X1754Y89D02*
X1766Y89D01*
X147Y88D02*
X159Y88D01*
X1753Y88D02*
X1765Y88D01*
X148Y87D02*
X160Y87D01*
X1752Y87D02*
X1764Y87D01*
X150Y86D02*
X161Y86D01*
X1750Y86D02*
X1762Y86D01*
X151Y85D02*
X163Y85D01*
X1749Y85D02*
X1761Y85D01*
X152Y84D02*
X164Y84D01*
X1748Y84D02*
X1760Y84D01*
X153Y83D02*
X166Y83D01*
X1746Y83D02*
X1759Y83D01*
X155Y82D02*
X167Y82D01*
X1745Y82D02*
X1757Y82D01*
X156Y81D02*
X169Y81D01*
X1743Y81D02*
X1756Y81D01*
X157Y80D02*
X170Y80D01*
X1742Y80D02*
X1755Y80D01*
X159Y79D02*
X171Y79D01*
X1741Y79D02*
X1753Y79D01*
X160Y78D02*
X173Y78D01*
X1739Y78D02*
X1752Y78D01*
X161Y77D02*
X174Y77D01*
X1738Y77D02*
X1751Y77D01*
X163Y76D02*
X176Y76D01*
X1736Y76D02*
X1749Y76D01*
X164Y75D02*
X177Y75D01*
X1735Y75D02*
X1748Y75D01*
X166Y74D02*
X179Y74D01*
X1733Y74D02*
X1746Y74D01*
X167Y73D02*
X180Y73D01*
X1732Y73D02*
X1745Y73D01*
X169Y72D02*
X182Y72D01*
X1730Y72D02*
X1743Y72D01*
X170Y71D02*
X183Y71D01*
X1729Y71D02*
X1742Y71D01*
X171Y70D02*
X185Y70D01*
X1727Y70D02*
X1741Y70D01*
X173Y69D02*
X186Y69D01*
X1726Y69D02*
X1739Y69D01*
X174Y68D02*
X188Y68D01*
X1724Y68D02*
X1738Y68D01*
X176Y67D02*
X190Y67D01*
X1722Y67D02*
X1736Y67D01*
X177Y66D02*
X191Y66D01*
X1721Y66D02*
X1735Y66D01*
X179Y65D02*
X193Y65D01*
X1719Y65D02*
X1733Y65D01*
X181Y64D02*
X194Y64D01*
X1718Y64D02*
X1731Y64D01*
X182Y63D02*
X196Y63D01*
X1716Y63D02*
X1730Y63D01*
X184Y62D02*
X198Y62D01*
X1714Y62D02*
X1728Y62D01*
X185Y61D02*
X200Y61D01*
X1712Y61D02*
X1727Y61D01*
X187Y60D02*
X201Y60D01*
X1711Y60D02*
X1725Y60D01*
X188Y59D02*
X203Y59D01*
X1709Y59D02*
X1724Y59D01*
X190Y58D02*
X205Y58D01*
X1707Y58D02*
X1722Y58D01*
X192Y57D02*
X207Y57D01*
X1705Y57D02*
X1720Y57D01*
X194Y56D02*
X209Y56D01*
X1703Y56D02*
X1718Y56D01*
X195Y55D02*
X210Y55D01*
X1702Y55D02*
X1717Y55D01*
X197Y54D02*
X212Y54D01*
X1700Y54D02*
X1715Y54D01*
X199Y53D02*
X214Y53D01*
X1698Y53D02*
X1713Y53D01*
X201Y52D02*
X216Y52D01*
X1696Y52D02*
X1711Y52D01*
X202Y51D02*
X218Y51D01*
X1694Y51D02*
X1710Y51D01*
X204Y50D02*
X220Y50D01*
X1692Y50D02*
X1708Y50D01*
X206Y49D02*
X222Y49D01*
X1690Y49D02*
X1706Y49D01*
X208Y48D02*
X224Y48D01*
X1688Y48D02*
X1704Y48D01*
X210Y47D02*
X226Y47D01*
X1686Y47D02*
X1702Y47D01*
X212Y46D02*
X228Y46D01*
X1684Y46D02*
X1700Y46D01*
X214Y45D02*
X231Y45D01*
X1681Y45D02*
X1698Y45D01*
X216Y44D02*
X233Y44D01*
X1679Y44D02*
X1696Y44D01*
X218Y43D02*
X235Y43D01*
X1677Y43D02*
X1694Y43D01*
X220Y42D02*
X237Y42D01*
X1675Y42D02*
X1692Y42D01*
X222Y41D02*
X240Y41D01*
X1672Y41D02*
X1690Y41D01*
X224Y40D02*
X242Y40D01*
X1670Y40D02*
X1688Y40D01*
X226Y39D02*
X244Y39D01*
X1668Y39D02*
X1686Y39D01*
X228Y38D02*
X247Y38D01*
X1665Y38D02*
X1684Y38D01*
X230Y37D02*
X249Y37D01*
X1663Y37D02*
X1682Y37D01*
X233Y36D02*
X252Y36D01*
X1660Y36D02*
X1679Y36D01*
X235Y35D02*
X255Y35D01*
X1657Y35D02*
X1677Y35D01*
X237Y34D02*
X257Y34D01*
X1655Y34D02*
X1675Y34D01*
X239Y33D02*
X260Y33D01*
X1652Y33D02*
X1673Y33D01*
X242Y32D02*
X262Y32D01*
X1650Y32D02*
X1670Y32D01*
X244Y31D02*
X265Y31D01*
X1647Y31D02*
X1668Y31D01*
X247Y30D02*
X268Y30D01*
X1644Y30D02*
X1665Y30D01*
X249Y29D02*
X271Y29D01*
X1641Y29D02*
X1663Y29D01*
X252Y28D02*
X274Y28D01*
X1638Y28D02*
X1660Y28D01*
X254Y27D02*
X277Y27D01*
X1635Y27D02*
X1658Y27D01*
X257Y26D02*
X281Y26D01*
X1631Y26D02*
X1655Y26D01*
X260Y25D02*
X284Y25D01*
X1628Y25D02*
X1652Y25D01*
X263Y24D02*
X288Y24D01*
X1624Y24D02*
X1649Y24D01*
X266Y23D02*
X291Y23D01*
X1621Y23D02*
X1646Y23D01*
X269Y22D02*
X295Y22D01*
X1617Y22D02*
X1643Y22D01*
X272Y21D02*
X299Y21D01*
X1613Y21D02*
X1640Y21D01*
X275Y20D02*
X303Y20D01*
X1609Y20D02*
X1637Y20D01*
X278Y19D02*
X307Y19D01*
X1605Y19D02*
X1634Y19D01*
X281Y18D02*
X312Y18D01*
X1600Y18D02*
X1631Y18D01*
X284Y17D02*
X317Y17D01*
X1595Y17D02*
X1628Y17D01*
X288Y16D02*
X322Y16D01*
X1590Y16D02*
X1624Y16D01*
X292Y15D02*
X328Y15D01*
X1584Y15D02*
X1620Y15D01*
X295Y14D02*
X334Y14D01*
X1578Y14D02*
X1617Y14D01*
X299Y13D02*
X341Y13D01*
X1571Y13D02*
X1613Y13D01*
X304Y12D02*
X349Y12D01*
X1563Y12D02*
X1608Y12D01*
X308Y11D02*
X359Y11D01*
X1553Y11D02*
X1604Y11D01*
X313Y10D02*
X374Y10D01*
X1538Y10D02*
X1599Y10D01*
X317Y9D02*
X1595Y9D01*
X323Y8D02*
X1589Y8D01*
X328Y7D02*
X1584Y7D01*
X335Y6D02*
X1577Y6D01*
X342Y5D02*
X1570Y5D01*
X350Y4D02*
X1562Y4D01*
X360Y3D02*
X1552Y3D01*
X375Y2D02*
X1537Y2D01*
D02*
G04 End of Silk1*
M02*