G04 MADE WITH FRITZING*
G04 WWW.FRITZING.ORG*
G04 DOUBLE SIDED*
G04 HOLES PLATED*
G04 CONTOUR ON CENTER OF CONTOUR VECTOR*
%ASAXBY*%
%FSLAX23Y23*%
%MOIN*%
%OFA0B0*%
%SFA1.0B1.0*%
%ADD10C,0.075000*%
%ADD11C,0.078000*%
%ADD12C,0.075433*%
%ADD13C,0.099055*%
%ADD14R,0.075000X0.075000*%
%ADD15R,0.400000X0.129630*%
%ADD16R,0.099055X0.099055*%
%ADD17C,0.024000*%
%ADD18C,0.032000*%
%ADD19C,0.048000*%
%ADD20R,0.001000X0.001000*%
%LNCOPPER0*%
G90*
G70*
G54D10*
X717Y1220D03*
X1017Y1220D03*
X717Y1120D03*
X1017Y1120D03*
X717Y1020D03*
X1017Y1020D03*
X717Y920D03*
X1017Y920D03*
X717Y820D03*
X1017Y820D03*
X717Y720D03*
X1017Y720D03*
X717Y620D03*
X1017Y620D03*
X717Y520D03*
X1017Y520D03*
G54D11*
X317Y1470D03*
X417Y1470D03*
X517Y1470D03*
X617Y1470D03*
X717Y1470D03*
X817Y1470D03*
X917Y1470D03*
X1017Y1470D03*
X1117Y1470D03*
X1217Y1470D03*
X1317Y1470D03*
X1417Y1470D03*
X1517Y1470D03*
X317Y1470D03*
X417Y1470D03*
X517Y1470D03*
X617Y1470D03*
X717Y1470D03*
X817Y1470D03*
X917Y1470D03*
X1017Y1470D03*
X1117Y1470D03*
X1217Y1470D03*
X1317Y1470D03*
X1417Y1470D03*
X1517Y1470D03*
X1517Y1570D03*
X1417Y1570D03*
X1317Y1570D03*
X1217Y1570D03*
X1117Y1570D03*
X1017Y1570D03*
X917Y1570D03*
X817Y1570D03*
X717Y1570D03*
X617Y1570D03*
X517Y1570D03*
X417Y1570D03*
X317Y1570D03*
G54D12*
X1267Y870D03*
X1267Y720D03*
X517Y870D03*
X517Y720D03*
X767Y320D03*
X917Y320D03*
G54D13*
X1567Y970D03*
X1567Y774D03*
X1567Y970D03*
X1567Y774D03*
X367Y970D03*
X367Y774D03*
X367Y970D03*
X367Y774D03*
X917Y220D03*
X720Y220D03*
X917Y220D03*
X720Y220D03*
G54D14*
X717Y1220D03*
G54D15*
X867Y870D03*
G54D16*
X1567Y970D03*
X1567Y970D03*
X367Y970D03*
X367Y970D03*
X917Y220D03*
X917Y220D03*
G54D17*
X717Y849D02*
X717Y892D01*
G54D18*
D02*
X215Y1570D02*
X281Y1570D01*
D02*
X167Y1519D02*
X215Y1570D01*
D02*
X167Y1170D02*
X167Y1519D01*
D02*
X215Y1119D02*
X167Y1170D01*
D02*
X683Y1120D02*
X215Y1119D01*
G54D19*
D02*
X1219Y870D02*
X1067Y1019D01*
D02*
X1067Y1019D02*
X1056Y1019D01*
D02*
X1227Y870D02*
X1219Y870D01*
D02*
X667Y1019D02*
X677Y1019D01*
D02*
X545Y898D02*
X667Y1019D01*
D02*
X557Y720D02*
X677Y720D01*
D02*
X767Y470D02*
X767Y360D01*
D02*
X745Y492D02*
X767Y470D01*
G54D17*
D02*
X988Y820D02*
X745Y820D01*
G54D19*
D02*
X977Y821D02*
X919Y822D01*
D02*
X919Y822D02*
X917Y360D01*
G54D18*
D02*
X1719Y1619D02*
X1667Y1670D01*
D02*
X1667Y1670D02*
X1267Y1670D01*
D02*
X1719Y1219D02*
X1719Y1619D01*
D02*
X1267Y1670D02*
X1219Y1619D01*
D02*
X1619Y1122D02*
X1719Y1219D01*
D02*
X1219Y1619D02*
X1218Y1606D01*
D02*
X1051Y1120D02*
X1619Y1122D01*
G54D19*
D02*
X1227Y720D02*
X1056Y720D01*
D02*
X317Y1429D02*
X319Y1370D01*
D02*
X319Y1370D02*
X367Y1319D01*
D02*
X367Y1319D02*
X819Y1319D01*
D02*
X819Y1319D02*
X867Y1270D01*
D02*
X867Y1270D02*
X867Y920D01*
D02*
X867Y920D02*
X756Y920D01*
D02*
X756Y920D02*
X977Y920D01*
G54D17*
D02*
X1017Y892D02*
X1017Y849D01*
G54D18*
D02*
X1715Y622D02*
X1819Y719D01*
D02*
X1819Y719D02*
X1819Y1670D01*
D02*
X1051Y620D02*
X1715Y622D01*
D02*
X1819Y1670D02*
X1715Y1770D01*
D02*
X1715Y1770D02*
X1215Y1770D01*
D02*
X1215Y1770D02*
X1115Y1670D01*
D02*
X1115Y1670D02*
X1116Y1606D01*
D02*
X167Y619D02*
X67Y719D01*
D02*
X67Y719D02*
X67Y1570D01*
D02*
X683Y620D02*
X167Y619D01*
D02*
X67Y1570D02*
X167Y1670D01*
D02*
X167Y1670D02*
X367Y1670D01*
D02*
X367Y1670D02*
X419Y1619D01*
D02*
X419Y1619D02*
X418Y1606D01*
D02*
X1619Y1570D02*
X1619Y1270D01*
D02*
X1619Y1270D02*
X1567Y1219D01*
D02*
X1552Y1570D02*
X1619Y1570D01*
D02*
X1567Y1219D02*
X1051Y1220D01*
G36*
X386Y523D02*
X386Y477D01*
X433Y477D01*
X433Y340D01*
X386Y340D01*
X387Y294D01*
X341Y294D01*
X341Y65D01*
X295Y65D01*
X295Y111D01*
X204Y111D01*
X204Y157D01*
X295Y157D01*
X295Y202D01*
X250Y202D01*
X250Y248D01*
X295Y248D01*
X295Y294D01*
X250Y294D01*
X250Y340D01*
X204Y340D01*
X204Y477D01*
X250Y477D01*
X250Y523D01*
X386Y523D01*
G37*
D02*
G54D20*
X1126Y294D02*
X1177Y294D01*
X1342Y294D02*
X1386Y294D01*
X1558Y294D02*
X1602Y294D01*
X1121Y293D02*
X1180Y293D01*
X1337Y293D02*
X1391Y293D01*
X1553Y293D02*
X1607Y293D01*
X1119Y292D02*
X1182Y292D01*
X1335Y292D02*
X1393Y292D01*
X1551Y292D02*
X1609Y292D01*
X1117Y291D02*
X1183Y291D01*
X1333Y291D02*
X1394Y291D01*
X1550Y291D02*
X1610Y291D01*
X1116Y290D02*
X1183Y290D01*
X1332Y290D02*
X1395Y290D01*
X1548Y290D02*
X1612Y290D01*
X1115Y289D02*
X1184Y289D01*
X1331Y289D02*
X1396Y289D01*
X1547Y289D02*
X1613Y289D01*
X1114Y288D02*
X1184Y288D01*
X1330Y288D02*
X1397Y288D01*
X1546Y288D02*
X1614Y288D01*
X1113Y287D02*
X1184Y287D01*
X1329Y287D02*
X1398Y287D01*
X1546Y287D02*
X1614Y287D01*
X1113Y286D02*
X1184Y286D01*
X1329Y286D02*
X1399Y286D01*
X1545Y286D02*
X1615Y286D01*
X1112Y285D02*
X1184Y285D01*
X1328Y285D02*
X1399Y285D01*
X1545Y285D02*
X1615Y285D01*
X1112Y284D02*
X1184Y284D01*
X1328Y284D02*
X1400Y284D01*
X1544Y284D02*
X1616Y284D01*
X1111Y283D02*
X1183Y283D01*
X1328Y283D02*
X1400Y283D01*
X1544Y283D02*
X1616Y283D01*
X1111Y282D02*
X1183Y282D01*
X1327Y282D02*
X1400Y282D01*
X1544Y282D02*
X1616Y282D01*
X1111Y281D02*
X1182Y281D01*
X1327Y281D02*
X1400Y281D01*
X1543Y281D02*
X1617Y281D01*
X1111Y280D02*
X1181Y280D01*
X1327Y280D02*
X1400Y280D01*
X1543Y280D02*
X1617Y280D01*
X1111Y279D02*
X1178Y279D01*
X1327Y279D02*
X1400Y279D01*
X1543Y279D02*
X1617Y279D01*
X1111Y278D02*
X1125Y278D01*
X1327Y278D02*
X1341Y278D01*
X1386Y278D02*
X1400Y278D01*
X1543Y278D02*
X1557Y278D01*
X1603Y278D02*
X1617Y278D01*
X1111Y277D02*
X1125Y277D01*
X1327Y277D02*
X1341Y277D01*
X1386Y277D02*
X1400Y277D01*
X1543Y277D02*
X1557Y277D01*
X1603Y277D02*
X1617Y277D01*
X1111Y276D02*
X1125Y276D01*
X1327Y276D02*
X1341Y276D01*
X1386Y276D02*
X1400Y276D01*
X1543Y276D02*
X1557Y276D01*
X1603Y276D02*
X1617Y276D01*
X1111Y275D02*
X1125Y275D01*
X1327Y275D02*
X1341Y275D01*
X1386Y275D02*
X1400Y275D01*
X1543Y275D02*
X1557Y275D01*
X1603Y275D02*
X1617Y275D01*
X1111Y274D02*
X1125Y274D01*
X1327Y274D02*
X1341Y274D01*
X1386Y274D02*
X1400Y274D01*
X1543Y274D02*
X1557Y274D01*
X1603Y274D02*
X1617Y274D01*
X1111Y273D02*
X1125Y273D01*
X1327Y273D02*
X1341Y273D01*
X1386Y273D02*
X1400Y273D01*
X1543Y273D02*
X1557Y273D01*
X1603Y273D02*
X1617Y273D01*
X1111Y272D02*
X1125Y272D01*
X1327Y272D02*
X1341Y272D01*
X1386Y272D02*
X1400Y272D01*
X1543Y272D02*
X1557Y272D01*
X1603Y272D02*
X1617Y272D01*
X1111Y271D02*
X1125Y271D01*
X1327Y271D02*
X1341Y271D01*
X1386Y271D02*
X1400Y271D01*
X1543Y271D02*
X1557Y271D01*
X1603Y271D02*
X1617Y271D01*
X1111Y270D02*
X1125Y270D01*
X1327Y270D02*
X1341Y270D01*
X1386Y270D02*
X1400Y270D01*
X1543Y270D02*
X1557Y270D01*
X1603Y270D02*
X1617Y270D01*
X1111Y269D02*
X1125Y269D01*
X1327Y269D02*
X1341Y269D01*
X1386Y269D02*
X1400Y269D01*
X1543Y269D02*
X1557Y269D01*
X1603Y269D02*
X1617Y269D01*
X1111Y268D02*
X1125Y268D01*
X1327Y268D02*
X1341Y268D01*
X1386Y268D02*
X1400Y268D01*
X1543Y268D02*
X1557Y268D01*
X1603Y268D02*
X1617Y268D01*
X1111Y267D02*
X1125Y267D01*
X1327Y267D02*
X1341Y267D01*
X1386Y267D02*
X1400Y267D01*
X1543Y267D02*
X1557Y267D01*
X1603Y267D02*
X1617Y267D01*
X1111Y266D02*
X1125Y266D01*
X1327Y266D02*
X1341Y266D01*
X1386Y266D02*
X1400Y266D01*
X1543Y266D02*
X1557Y266D01*
X1603Y266D02*
X1617Y266D01*
X1111Y265D02*
X1125Y265D01*
X1327Y265D02*
X1341Y265D01*
X1386Y265D02*
X1400Y265D01*
X1543Y265D02*
X1557Y265D01*
X1603Y265D02*
X1617Y265D01*
X1111Y264D02*
X1125Y264D01*
X1327Y264D02*
X1341Y264D01*
X1386Y264D02*
X1400Y264D01*
X1543Y264D02*
X1557Y264D01*
X1603Y264D02*
X1617Y264D01*
X1111Y263D02*
X1125Y263D01*
X1327Y263D02*
X1341Y263D01*
X1386Y263D02*
X1400Y263D01*
X1543Y263D02*
X1557Y263D01*
X1603Y263D02*
X1617Y263D01*
X1111Y262D02*
X1125Y262D01*
X1327Y262D02*
X1341Y262D01*
X1386Y262D02*
X1400Y262D01*
X1543Y262D02*
X1557Y262D01*
X1603Y262D02*
X1617Y262D01*
X1657Y262D02*
X1660Y262D01*
X1716Y262D02*
X1720Y262D01*
X1111Y261D02*
X1125Y261D01*
X1327Y261D02*
X1341Y261D01*
X1386Y261D02*
X1400Y261D01*
X1543Y261D02*
X1557Y261D01*
X1603Y261D02*
X1617Y261D01*
X1655Y261D02*
X1662Y261D01*
X1714Y261D02*
X1722Y261D01*
X1111Y260D02*
X1125Y260D01*
X1327Y260D02*
X1341Y260D01*
X1386Y260D02*
X1400Y260D01*
X1543Y260D02*
X1557Y260D01*
X1603Y260D02*
X1617Y260D01*
X1654Y260D02*
X1663Y260D01*
X1713Y260D02*
X1723Y260D01*
X1111Y259D02*
X1125Y259D01*
X1327Y259D02*
X1341Y259D01*
X1386Y259D02*
X1400Y259D01*
X1543Y259D02*
X1557Y259D01*
X1603Y259D02*
X1617Y259D01*
X1653Y259D02*
X1664Y259D01*
X1712Y259D02*
X1724Y259D01*
X1111Y258D02*
X1125Y258D01*
X1327Y258D02*
X1341Y258D01*
X1386Y258D02*
X1400Y258D01*
X1543Y258D02*
X1557Y258D01*
X1603Y258D02*
X1617Y258D01*
X1652Y258D02*
X1665Y258D01*
X1712Y258D02*
X1724Y258D01*
X1111Y257D02*
X1125Y257D01*
X1327Y257D02*
X1341Y257D01*
X1386Y257D02*
X1400Y257D01*
X1543Y257D02*
X1557Y257D01*
X1603Y257D02*
X1617Y257D01*
X1652Y257D02*
X1665Y257D01*
X1711Y257D02*
X1724Y257D01*
X1111Y256D02*
X1125Y256D01*
X1327Y256D02*
X1341Y256D01*
X1386Y256D02*
X1400Y256D01*
X1543Y256D02*
X1557Y256D01*
X1603Y256D02*
X1617Y256D01*
X1651Y256D02*
X1665Y256D01*
X1711Y256D02*
X1725Y256D01*
X1111Y255D02*
X1125Y255D01*
X1327Y255D02*
X1341Y255D01*
X1386Y255D02*
X1400Y255D01*
X1543Y255D02*
X1557Y255D01*
X1603Y255D02*
X1617Y255D01*
X1651Y255D02*
X1665Y255D01*
X1711Y255D02*
X1725Y255D01*
X1111Y254D02*
X1125Y254D01*
X1327Y254D02*
X1341Y254D01*
X1386Y254D02*
X1400Y254D01*
X1543Y254D02*
X1557Y254D01*
X1603Y254D02*
X1617Y254D01*
X1651Y254D02*
X1665Y254D01*
X1711Y254D02*
X1725Y254D01*
X1111Y253D02*
X1125Y253D01*
X1327Y253D02*
X1341Y253D01*
X1386Y253D02*
X1400Y253D01*
X1543Y253D02*
X1557Y253D01*
X1603Y253D02*
X1617Y253D01*
X1651Y253D02*
X1665Y253D01*
X1711Y253D02*
X1725Y253D01*
X1111Y252D02*
X1125Y252D01*
X1327Y252D02*
X1341Y252D01*
X1386Y252D02*
X1400Y252D01*
X1543Y252D02*
X1557Y252D01*
X1603Y252D02*
X1617Y252D01*
X1651Y252D02*
X1665Y252D01*
X1711Y252D02*
X1725Y252D01*
X1111Y251D02*
X1125Y251D01*
X1327Y251D02*
X1341Y251D01*
X1386Y251D02*
X1400Y251D01*
X1543Y251D02*
X1557Y251D01*
X1603Y251D02*
X1617Y251D01*
X1651Y251D02*
X1665Y251D01*
X1711Y251D02*
X1725Y251D01*
X1111Y250D02*
X1125Y250D01*
X1327Y250D02*
X1341Y250D01*
X1386Y250D02*
X1400Y250D01*
X1543Y250D02*
X1557Y250D01*
X1603Y250D02*
X1617Y250D01*
X1651Y250D02*
X1665Y250D01*
X1711Y250D02*
X1725Y250D01*
X1111Y249D02*
X1125Y249D01*
X1327Y249D02*
X1341Y249D01*
X1386Y249D02*
X1400Y249D01*
X1543Y249D02*
X1557Y249D01*
X1603Y249D02*
X1617Y249D01*
X1651Y249D02*
X1665Y249D01*
X1711Y249D02*
X1725Y249D01*
X1111Y248D02*
X1125Y248D01*
X1327Y248D02*
X1341Y248D01*
X1386Y248D02*
X1400Y248D01*
X1543Y248D02*
X1557Y248D01*
X1603Y248D02*
X1617Y248D01*
X1651Y248D02*
X1665Y248D01*
X1711Y248D02*
X1725Y248D01*
X1111Y247D02*
X1125Y247D01*
X1327Y247D02*
X1341Y247D01*
X1386Y247D02*
X1400Y247D01*
X1543Y247D02*
X1557Y247D01*
X1603Y247D02*
X1617Y247D01*
X1651Y247D02*
X1665Y247D01*
X1711Y247D02*
X1725Y247D01*
X1111Y246D02*
X1125Y246D01*
X1327Y246D02*
X1341Y246D01*
X1386Y246D02*
X1400Y246D01*
X1543Y246D02*
X1557Y246D01*
X1603Y246D02*
X1617Y246D01*
X1651Y246D02*
X1665Y246D01*
X1711Y246D02*
X1725Y246D01*
X1111Y245D02*
X1125Y245D01*
X1327Y245D02*
X1341Y245D01*
X1386Y245D02*
X1400Y245D01*
X1543Y245D02*
X1557Y245D01*
X1603Y245D02*
X1617Y245D01*
X1651Y245D02*
X1665Y245D01*
X1711Y245D02*
X1725Y245D01*
X1111Y244D02*
X1125Y244D01*
X1327Y244D02*
X1341Y244D01*
X1386Y244D02*
X1400Y244D01*
X1543Y244D02*
X1557Y244D01*
X1603Y244D02*
X1617Y244D01*
X1651Y244D02*
X1665Y244D01*
X1711Y244D02*
X1725Y244D01*
X1111Y243D02*
X1171Y243D01*
X1327Y243D02*
X1341Y243D01*
X1386Y243D02*
X1400Y243D01*
X1543Y243D02*
X1557Y243D01*
X1603Y243D02*
X1617Y243D01*
X1651Y243D02*
X1666Y243D01*
X1710Y243D02*
X1725Y243D01*
X1111Y242D02*
X1175Y242D01*
X1327Y242D02*
X1341Y242D01*
X1386Y242D02*
X1400Y242D01*
X1543Y242D02*
X1557Y242D01*
X1603Y242D02*
X1617Y242D01*
X1651Y242D02*
X1666Y242D01*
X1710Y242D02*
X1725Y242D01*
X1111Y241D02*
X1177Y241D01*
X1327Y241D02*
X1341Y241D01*
X1386Y241D02*
X1400Y241D01*
X1543Y241D02*
X1557Y241D01*
X1603Y241D02*
X1617Y241D01*
X1651Y241D02*
X1667Y241D01*
X1710Y241D02*
X1725Y241D01*
X1111Y240D02*
X1178Y240D01*
X1327Y240D02*
X1341Y240D01*
X1386Y240D02*
X1400Y240D01*
X1543Y240D02*
X1557Y240D01*
X1603Y240D02*
X1617Y240D01*
X1652Y240D02*
X1667Y240D01*
X1709Y240D02*
X1725Y240D01*
X1111Y239D02*
X1179Y239D01*
X1327Y239D02*
X1341Y239D01*
X1386Y239D02*
X1400Y239D01*
X1543Y239D02*
X1557Y239D01*
X1603Y239D02*
X1617Y239D01*
X1652Y239D02*
X1668Y239D01*
X1709Y239D02*
X1724Y239D01*
X1112Y238D02*
X1180Y238D01*
X1327Y238D02*
X1341Y238D01*
X1386Y238D02*
X1400Y238D01*
X1543Y238D02*
X1557Y238D01*
X1603Y238D02*
X1617Y238D01*
X1653Y238D02*
X1668Y238D01*
X1708Y238D02*
X1724Y238D01*
X1112Y237D02*
X1181Y237D01*
X1327Y237D02*
X1341Y237D01*
X1386Y237D02*
X1400Y237D01*
X1543Y237D02*
X1557Y237D01*
X1603Y237D02*
X1617Y237D01*
X1653Y237D02*
X1668Y237D01*
X1708Y237D02*
X1723Y237D01*
X1113Y236D02*
X1182Y236D01*
X1327Y236D02*
X1341Y236D01*
X1386Y236D02*
X1400Y236D01*
X1543Y236D02*
X1557Y236D01*
X1603Y236D02*
X1617Y236D01*
X1653Y236D02*
X1669Y236D01*
X1707Y236D02*
X1723Y236D01*
X1113Y235D02*
X1182Y235D01*
X1327Y235D02*
X1341Y235D01*
X1386Y235D02*
X1400Y235D01*
X1543Y235D02*
X1557Y235D01*
X1603Y235D02*
X1617Y235D01*
X1654Y235D02*
X1669Y235D01*
X1707Y235D02*
X1723Y235D01*
X1114Y234D02*
X1183Y234D01*
X1327Y234D02*
X1341Y234D01*
X1386Y234D02*
X1400Y234D01*
X1543Y234D02*
X1557Y234D01*
X1603Y234D02*
X1617Y234D01*
X1654Y234D02*
X1670Y234D01*
X1707Y234D02*
X1722Y234D01*
X1115Y233D02*
X1183Y233D01*
X1327Y233D02*
X1341Y233D01*
X1386Y233D02*
X1400Y233D01*
X1543Y233D02*
X1557Y233D01*
X1603Y233D02*
X1617Y233D01*
X1655Y233D02*
X1670Y233D01*
X1706Y233D02*
X1722Y233D01*
X1116Y232D02*
X1184Y232D01*
X1327Y232D02*
X1341Y232D01*
X1386Y232D02*
X1400Y232D01*
X1543Y232D02*
X1557Y232D01*
X1603Y232D02*
X1617Y232D01*
X1655Y232D02*
X1671Y232D01*
X1706Y232D02*
X1721Y232D01*
X1117Y231D02*
X1184Y231D01*
X1327Y231D02*
X1341Y231D01*
X1386Y231D02*
X1400Y231D01*
X1543Y231D02*
X1557Y231D01*
X1603Y231D02*
X1617Y231D01*
X1656Y231D02*
X1671Y231D01*
X1705Y231D02*
X1721Y231D01*
X1119Y230D02*
X1184Y230D01*
X1327Y230D02*
X1341Y230D01*
X1386Y230D02*
X1400Y230D01*
X1543Y230D02*
X1557Y230D01*
X1603Y230D02*
X1617Y230D01*
X1656Y230D02*
X1671Y230D01*
X1705Y230D02*
X1720Y230D01*
X1121Y229D02*
X1184Y229D01*
X1327Y229D02*
X1341Y229D01*
X1386Y229D02*
X1400Y229D01*
X1543Y229D02*
X1557Y229D01*
X1603Y229D02*
X1617Y229D01*
X1656Y229D02*
X1672Y229D01*
X1704Y229D02*
X1720Y229D01*
X1170Y228D02*
X1184Y228D01*
X1327Y228D02*
X1341Y228D01*
X1386Y228D02*
X1400Y228D01*
X1543Y228D02*
X1557Y228D01*
X1603Y228D02*
X1617Y228D01*
X1657Y228D02*
X1672Y228D01*
X1704Y228D02*
X1719Y228D01*
X1170Y227D02*
X1184Y227D01*
X1327Y227D02*
X1341Y227D01*
X1386Y227D02*
X1400Y227D01*
X1543Y227D02*
X1557Y227D01*
X1603Y227D02*
X1617Y227D01*
X1657Y227D02*
X1673Y227D01*
X1704Y227D02*
X1719Y227D01*
X1170Y226D02*
X1184Y226D01*
X1327Y226D02*
X1341Y226D01*
X1386Y226D02*
X1400Y226D01*
X1543Y226D02*
X1557Y226D01*
X1603Y226D02*
X1617Y226D01*
X1658Y226D02*
X1673Y226D01*
X1703Y226D02*
X1719Y226D01*
X1170Y225D02*
X1184Y225D01*
X1327Y225D02*
X1341Y225D01*
X1386Y225D02*
X1400Y225D01*
X1543Y225D02*
X1557Y225D01*
X1603Y225D02*
X1617Y225D01*
X1658Y225D02*
X1674Y225D01*
X1703Y225D02*
X1718Y225D01*
X1170Y224D02*
X1184Y224D01*
X1247Y224D02*
X1264Y224D01*
X1327Y224D02*
X1341Y224D01*
X1386Y224D02*
X1400Y224D01*
X1463Y224D02*
X1481Y224D01*
X1543Y224D02*
X1557Y224D01*
X1603Y224D02*
X1617Y224D01*
X1659Y224D02*
X1674Y224D01*
X1702Y224D02*
X1718Y224D01*
X1170Y223D02*
X1184Y223D01*
X1245Y223D02*
X1267Y223D01*
X1327Y223D02*
X1341Y223D01*
X1386Y223D02*
X1400Y223D01*
X1461Y223D02*
X1483Y223D01*
X1543Y223D02*
X1557Y223D01*
X1603Y223D02*
X1617Y223D01*
X1659Y223D02*
X1675Y223D01*
X1702Y223D02*
X1717Y223D01*
X1170Y222D02*
X1184Y222D01*
X1243Y222D02*
X1268Y222D01*
X1327Y222D02*
X1341Y222D01*
X1386Y222D02*
X1400Y222D01*
X1460Y222D02*
X1484Y222D01*
X1543Y222D02*
X1557Y222D01*
X1603Y222D02*
X1617Y222D01*
X1660Y222D02*
X1675Y222D01*
X1701Y222D02*
X1717Y222D01*
X1170Y221D02*
X1184Y221D01*
X1243Y221D02*
X1269Y221D01*
X1327Y221D02*
X1341Y221D01*
X1386Y221D02*
X1400Y221D01*
X1459Y221D02*
X1485Y221D01*
X1543Y221D02*
X1557Y221D01*
X1603Y221D02*
X1617Y221D01*
X1660Y221D02*
X1675Y221D01*
X1701Y221D02*
X1716Y221D01*
X1170Y220D02*
X1184Y220D01*
X1242Y220D02*
X1269Y220D01*
X1327Y220D02*
X1341Y220D01*
X1386Y220D02*
X1400Y220D01*
X1458Y220D02*
X1486Y220D01*
X1543Y220D02*
X1557Y220D01*
X1603Y220D02*
X1617Y220D01*
X1660Y220D02*
X1676Y220D01*
X1700Y220D02*
X1716Y220D01*
X1170Y219D02*
X1184Y219D01*
X1242Y219D02*
X1270Y219D01*
X1327Y219D02*
X1341Y219D01*
X1386Y219D02*
X1400Y219D01*
X1458Y219D02*
X1486Y219D01*
X1543Y219D02*
X1557Y219D01*
X1603Y219D02*
X1617Y219D01*
X1661Y219D02*
X1676Y219D01*
X1700Y219D02*
X1716Y219D01*
X1170Y218D02*
X1184Y218D01*
X1241Y218D02*
X1270Y218D01*
X1327Y218D02*
X1341Y218D01*
X1386Y218D02*
X1400Y218D01*
X1458Y218D02*
X1486Y218D01*
X1543Y218D02*
X1557Y218D01*
X1603Y218D02*
X1617Y218D01*
X1661Y218D02*
X1677Y218D01*
X1700Y218D02*
X1715Y218D01*
X1170Y217D02*
X1184Y217D01*
X1241Y217D02*
X1270Y217D01*
X1327Y217D02*
X1341Y217D01*
X1386Y217D02*
X1400Y217D01*
X1457Y217D02*
X1486Y217D01*
X1543Y217D02*
X1557Y217D01*
X1603Y217D02*
X1617Y217D01*
X1662Y217D02*
X1677Y217D01*
X1699Y217D02*
X1715Y217D01*
X1170Y216D02*
X1184Y216D01*
X1241Y216D02*
X1270Y216D01*
X1327Y216D02*
X1341Y216D01*
X1386Y216D02*
X1400Y216D01*
X1457Y216D02*
X1486Y216D01*
X1543Y216D02*
X1557Y216D01*
X1603Y216D02*
X1617Y216D01*
X1662Y216D02*
X1678Y216D01*
X1699Y216D02*
X1714Y216D01*
X1170Y215D02*
X1184Y215D01*
X1241Y215D02*
X1270Y215D01*
X1327Y215D02*
X1341Y215D01*
X1386Y215D02*
X1400Y215D01*
X1457Y215D02*
X1486Y215D01*
X1543Y215D02*
X1557Y215D01*
X1603Y215D02*
X1617Y215D01*
X1663Y215D02*
X1678Y215D01*
X1698Y215D02*
X1714Y215D01*
X1170Y214D02*
X1184Y214D01*
X1241Y214D02*
X1270Y214D01*
X1327Y214D02*
X1341Y214D01*
X1386Y214D02*
X1400Y214D01*
X1457Y214D02*
X1486Y214D01*
X1543Y214D02*
X1557Y214D01*
X1603Y214D02*
X1617Y214D01*
X1663Y214D02*
X1678Y214D01*
X1698Y214D02*
X1713Y214D01*
X1170Y213D02*
X1184Y213D01*
X1241Y213D02*
X1270Y213D01*
X1327Y213D02*
X1341Y213D01*
X1386Y213D02*
X1400Y213D01*
X1457Y213D02*
X1486Y213D01*
X1543Y213D02*
X1557Y213D01*
X1603Y213D02*
X1617Y213D01*
X1663Y213D02*
X1679Y213D01*
X1697Y213D02*
X1713Y213D01*
X1170Y212D02*
X1184Y212D01*
X1241Y212D02*
X1270Y212D01*
X1327Y212D02*
X1341Y212D01*
X1386Y212D02*
X1400Y212D01*
X1457Y212D02*
X1486Y212D01*
X1543Y212D02*
X1557Y212D01*
X1603Y212D02*
X1617Y212D01*
X1664Y212D02*
X1679Y212D01*
X1697Y212D02*
X1712Y212D01*
X1170Y211D02*
X1184Y211D01*
X1241Y211D02*
X1270Y211D01*
X1327Y211D02*
X1341Y211D01*
X1386Y211D02*
X1400Y211D01*
X1457Y211D02*
X1486Y211D01*
X1543Y211D02*
X1557Y211D01*
X1603Y211D02*
X1617Y211D01*
X1664Y211D02*
X1680Y211D01*
X1697Y211D02*
X1712Y211D01*
X1170Y210D02*
X1184Y210D01*
X1241Y210D02*
X1270Y210D01*
X1327Y210D02*
X1341Y210D01*
X1386Y210D02*
X1400Y210D01*
X1457Y210D02*
X1486Y210D01*
X1543Y210D02*
X1557Y210D01*
X1603Y210D02*
X1617Y210D01*
X1665Y210D02*
X1680Y210D01*
X1696Y210D02*
X1712Y210D01*
X1170Y209D02*
X1184Y209D01*
X1241Y209D02*
X1270Y209D01*
X1327Y209D02*
X1341Y209D01*
X1386Y209D02*
X1400Y209D01*
X1457Y209D02*
X1486Y209D01*
X1543Y209D02*
X1557Y209D01*
X1603Y209D02*
X1617Y209D01*
X1665Y209D02*
X1681Y209D01*
X1696Y209D02*
X1711Y209D01*
X1170Y208D02*
X1184Y208D01*
X1241Y208D02*
X1270Y208D01*
X1327Y208D02*
X1341Y208D01*
X1386Y208D02*
X1400Y208D01*
X1457Y208D02*
X1486Y208D01*
X1543Y208D02*
X1557Y208D01*
X1603Y208D02*
X1617Y208D01*
X1666Y208D02*
X1681Y208D01*
X1695Y208D02*
X1711Y208D01*
X1170Y207D02*
X1184Y207D01*
X1241Y207D02*
X1270Y207D01*
X1327Y207D02*
X1341Y207D01*
X1386Y207D02*
X1400Y207D01*
X1457Y207D02*
X1486Y207D01*
X1543Y207D02*
X1557Y207D01*
X1603Y207D02*
X1617Y207D01*
X1666Y207D02*
X1682Y207D01*
X1695Y207D02*
X1710Y207D01*
X1170Y206D02*
X1184Y206D01*
X1241Y206D02*
X1270Y206D01*
X1327Y206D02*
X1341Y206D01*
X1386Y206D02*
X1400Y206D01*
X1457Y206D02*
X1486Y206D01*
X1543Y206D02*
X1557Y206D01*
X1603Y206D02*
X1617Y206D01*
X1667Y206D02*
X1682Y206D01*
X1694Y206D02*
X1710Y206D01*
X1170Y205D02*
X1184Y205D01*
X1241Y205D02*
X1270Y205D01*
X1327Y205D02*
X1341Y205D01*
X1386Y205D02*
X1400Y205D01*
X1457Y205D02*
X1486Y205D01*
X1543Y205D02*
X1557Y205D01*
X1603Y205D02*
X1617Y205D01*
X1667Y205D02*
X1682Y205D01*
X1694Y205D02*
X1709Y205D01*
X1170Y204D02*
X1184Y204D01*
X1241Y204D02*
X1270Y204D01*
X1327Y204D02*
X1341Y204D01*
X1386Y204D02*
X1400Y204D01*
X1457Y204D02*
X1486Y204D01*
X1543Y204D02*
X1557Y204D01*
X1603Y204D02*
X1617Y204D01*
X1667Y204D02*
X1683Y204D01*
X1694Y204D02*
X1709Y204D01*
X1170Y203D02*
X1184Y203D01*
X1241Y203D02*
X1270Y203D01*
X1327Y203D02*
X1341Y203D01*
X1386Y203D02*
X1400Y203D01*
X1457Y203D02*
X1486Y203D01*
X1543Y203D02*
X1557Y203D01*
X1603Y203D02*
X1617Y203D01*
X1668Y203D02*
X1683Y203D01*
X1693Y203D02*
X1709Y203D01*
X1170Y202D02*
X1184Y202D01*
X1241Y202D02*
X1270Y202D01*
X1327Y202D02*
X1341Y202D01*
X1386Y202D02*
X1400Y202D01*
X1458Y202D02*
X1486Y202D01*
X1543Y202D02*
X1557Y202D01*
X1603Y202D02*
X1617Y202D01*
X1668Y202D02*
X1684Y202D01*
X1693Y202D02*
X1708Y202D01*
X1170Y201D02*
X1184Y201D01*
X1242Y201D02*
X1270Y201D01*
X1327Y201D02*
X1341Y201D01*
X1386Y201D02*
X1400Y201D01*
X1458Y201D02*
X1486Y201D01*
X1543Y201D02*
X1557Y201D01*
X1603Y201D02*
X1617Y201D01*
X1669Y201D02*
X1684Y201D01*
X1692Y201D02*
X1708Y201D01*
X1170Y200D02*
X1184Y200D01*
X1242Y200D02*
X1269Y200D01*
X1327Y200D02*
X1341Y200D01*
X1386Y200D02*
X1400Y200D01*
X1459Y200D02*
X1485Y200D01*
X1543Y200D02*
X1557Y200D01*
X1603Y200D02*
X1617Y200D01*
X1669Y200D02*
X1685Y200D01*
X1692Y200D02*
X1707Y200D01*
X1170Y199D02*
X1184Y199D01*
X1243Y199D02*
X1268Y199D01*
X1327Y199D02*
X1341Y199D01*
X1386Y199D02*
X1400Y199D01*
X1459Y199D02*
X1485Y199D01*
X1543Y199D02*
X1557Y199D01*
X1603Y199D02*
X1617Y199D01*
X1670Y199D02*
X1685Y199D01*
X1691Y199D02*
X1707Y199D01*
X1170Y198D02*
X1184Y198D01*
X1244Y198D02*
X1267Y198D01*
X1327Y198D02*
X1341Y198D01*
X1386Y198D02*
X1400Y198D01*
X1460Y198D02*
X1483Y198D01*
X1543Y198D02*
X1557Y198D01*
X1603Y198D02*
X1617Y198D01*
X1670Y198D02*
X1686Y198D01*
X1691Y198D02*
X1706Y198D01*
X1170Y197D02*
X1184Y197D01*
X1246Y197D02*
X1266Y197D01*
X1327Y197D02*
X1341Y197D01*
X1386Y197D02*
X1400Y197D01*
X1462Y197D02*
X1482Y197D01*
X1543Y197D02*
X1557Y197D01*
X1603Y197D02*
X1617Y197D01*
X1670Y197D02*
X1686Y197D01*
X1691Y197D02*
X1706Y197D01*
X1170Y196D02*
X1184Y196D01*
X1327Y196D02*
X1341Y196D01*
X1386Y196D02*
X1400Y196D01*
X1543Y196D02*
X1557Y196D01*
X1603Y196D02*
X1617Y196D01*
X1671Y196D02*
X1686Y196D01*
X1690Y196D02*
X1705Y196D01*
X1170Y195D02*
X1184Y195D01*
X1327Y195D02*
X1341Y195D01*
X1386Y195D02*
X1400Y195D01*
X1543Y195D02*
X1557Y195D01*
X1603Y195D02*
X1617Y195D01*
X1671Y195D02*
X1687Y195D01*
X1690Y195D02*
X1705Y195D01*
X1170Y194D02*
X1184Y194D01*
X1327Y194D02*
X1341Y194D01*
X1386Y194D02*
X1400Y194D01*
X1543Y194D02*
X1557Y194D01*
X1603Y194D02*
X1617Y194D01*
X1672Y194D02*
X1687Y194D01*
X1689Y194D02*
X1705Y194D01*
X1170Y193D02*
X1184Y193D01*
X1327Y193D02*
X1341Y193D01*
X1386Y193D02*
X1400Y193D01*
X1543Y193D02*
X1557Y193D01*
X1603Y193D02*
X1617Y193D01*
X1672Y193D02*
X1704Y193D01*
X1116Y192D02*
X1184Y192D01*
X1327Y192D02*
X1400Y192D01*
X1543Y192D02*
X1617Y192D01*
X1673Y192D02*
X1704Y192D01*
X1114Y191D02*
X1184Y191D01*
X1327Y191D02*
X1400Y191D01*
X1543Y191D02*
X1617Y191D01*
X1673Y191D02*
X1703Y191D01*
X1113Y190D02*
X1184Y190D01*
X1327Y190D02*
X1400Y190D01*
X1543Y190D02*
X1616Y190D01*
X1674Y190D02*
X1703Y190D01*
X1112Y189D02*
X1184Y189D01*
X1327Y189D02*
X1400Y189D01*
X1544Y189D02*
X1616Y189D01*
X1674Y189D02*
X1702Y189D01*
X1111Y188D02*
X1184Y188D01*
X1328Y188D02*
X1400Y188D01*
X1544Y188D02*
X1616Y188D01*
X1674Y188D02*
X1702Y188D01*
X1111Y187D02*
X1184Y187D01*
X1328Y187D02*
X1399Y187D01*
X1544Y187D02*
X1616Y187D01*
X1675Y187D02*
X1702Y187D01*
X1111Y186D02*
X1184Y186D01*
X1329Y186D02*
X1399Y186D01*
X1545Y186D02*
X1615Y186D01*
X1675Y186D02*
X1701Y186D01*
X1111Y185D02*
X1184Y185D01*
X1329Y185D02*
X1398Y185D01*
X1545Y185D02*
X1615Y185D01*
X1676Y185D02*
X1701Y185D01*
X1111Y184D02*
X1184Y184D01*
X1330Y184D02*
X1398Y184D01*
X1546Y184D02*
X1614Y184D01*
X1676Y184D02*
X1700Y184D01*
X1111Y183D02*
X1184Y183D01*
X1331Y183D02*
X1397Y183D01*
X1547Y183D02*
X1613Y183D01*
X1677Y183D02*
X1700Y183D01*
X1111Y182D02*
X1184Y182D01*
X1331Y182D02*
X1396Y182D01*
X1548Y182D02*
X1612Y182D01*
X1677Y182D02*
X1699Y182D01*
X1112Y181D02*
X1184Y181D01*
X1333Y181D02*
X1395Y181D01*
X1549Y181D02*
X1611Y181D01*
X1678Y181D02*
X1699Y181D01*
X1113Y180D02*
X1184Y180D01*
X1334Y180D02*
X1394Y180D01*
X1550Y180D02*
X1610Y180D01*
X1678Y180D02*
X1698Y180D01*
X1114Y179D02*
X1184Y179D01*
X1336Y179D02*
X1392Y179D01*
X1552Y179D02*
X1608Y179D01*
X1679Y179D02*
X1697Y179D01*
X1115Y178D02*
X1184Y178D01*
X1338Y178D02*
X1389Y178D01*
X1554Y178D02*
X1606Y178D01*
X1681Y178D02*
X1695Y178D01*
D02*
G04 End of Copper0*
M02*