G04 MADE WITH FRITZING*
G04 WWW.FRITZING.ORG*
G04 DOUBLE SIDED*
G04 HOLES PLATED*
G04 CONTOUR ON CENTER OF CONTOUR VECTOR*
%ASAXBY*%
%FSLAX23Y23*%
%MOIN*%
%OFA0B0*%
%SFA1.0B1.0*%
%ADD10C,0.075000*%
%ADD11C,0.078000*%
%ADD12C,0.075433*%
%ADD13C,0.099055*%
%ADD14R,0.075000X0.075000*%
%ADD15R,0.400000X0.129630*%
%ADD16R,0.099055X0.099055*%
%ADD17C,0.024000*%
%ADD18C,0.032000*%
%ADD19C,0.048000*%
%ADD20R,0.001000X0.001000*%
%LNCOPPER0*%
G90*
G70*
G54D10*
X317Y1783D03*
X1090Y1334D03*
X1410Y1001D03*
X1159Y506D03*
X717Y1220D03*
X1017Y1220D03*
X717Y1120D03*
X1017Y1120D03*
X717Y1020D03*
X1017Y1020D03*
X717Y920D03*
X1017Y920D03*
X717Y820D03*
X1017Y820D03*
X717Y720D03*
X1017Y720D03*
X717Y620D03*
X1017Y620D03*
X717Y520D03*
X1017Y520D03*
G54D11*
X317Y1470D03*
X417Y1470D03*
X517Y1470D03*
X617Y1470D03*
X717Y1470D03*
X817Y1470D03*
X917Y1470D03*
X1017Y1470D03*
X1117Y1470D03*
X1217Y1470D03*
X1317Y1470D03*
X1417Y1470D03*
X1517Y1470D03*
X317Y1470D03*
X417Y1470D03*
X517Y1470D03*
X617Y1470D03*
X717Y1470D03*
X817Y1470D03*
X917Y1470D03*
X1017Y1470D03*
X1117Y1470D03*
X1217Y1470D03*
X1317Y1470D03*
X1417Y1470D03*
X1517Y1470D03*
X1517Y1570D03*
X1417Y1570D03*
X1317Y1570D03*
X1217Y1570D03*
X1117Y1570D03*
X1017Y1570D03*
X917Y1570D03*
X817Y1570D03*
X717Y1570D03*
X617Y1570D03*
X517Y1570D03*
X417Y1570D03*
X317Y1570D03*
G54D12*
X1267Y970D03*
X1267Y770D03*
X517Y970D03*
X517Y770D03*
X767Y320D03*
X967Y320D03*
G54D13*
X1717Y970D03*
X1717Y774D03*
X1717Y970D03*
X1717Y774D03*
X267Y970D03*
X267Y774D03*
X267Y970D03*
X267Y774D03*
X967Y220D03*
X770Y220D03*
X967Y220D03*
X770Y220D03*
G54D14*
X717Y1220D03*
G54D15*
X867Y870D03*
G54D16*
X1717Y970D03*
X1717Y970D03*
X267Y970D03*
X267Y970D03*
X967Y220D03*
X967Y220D03*
G54D17*
X717Y849D02*
X717Y892D01*
G54D18*
D02*
X215Y1570D02*
X281Y1570D01*
D02*
X167Y1519D02*
X215Y1570D01*
D02*
X167Y1170D02*
X167Y1519D01*
D02*
X215Y1119D02*
X167Y1170D01*
D02*
X683Y1120D02*
X215Y1119D01*
G54D19*
D02*
X1067Y1019D02*
X1056Y1019D01*
D02*
X1217Y1019D02*
X1067Y1019D01*
D02*
X1238Y998D02*
X1217Y1019D01*
D02*
X565Y1019D02*
X677Y1020D01*
D02*
X545Y999D02*
X565Y1019D01*
D02*
X544Y742D02*
X565Y720D01*
D02*
X565Y720D02*
X677Y720D01*
D02*
X717Y481D02*
X716Y370D01*
D02*
X716Y370D02*
X738Y348D01*
G54D17*
D02*
X988Y820D02*
X745Y820D01*
G54D19*
D02*
X977Y821D02*
X919Y822D01*
D02*
X918Y370D02*
X939Y349D01*
D02*
X919Y822D02*
X918Y370D01*
G54D18*
D02*
X1719Y1619D02*
X1667Y1670D01*
D02*
X1667Y1670D02*
X1267Y1670D01*
D02*
X1719Y1219D02*
X1719Y1619D01*
D02*
X1267Y1670D02*
X1219Y1619D01*
D02*
X1619Y1122D02*
X1719Y1219D01*
D02*
X1219Y1619D02*
X1218Y1606D01*
D02*
X1051Y1120D02*
X1619Y1122D01*
G54D19*
D02*
X1239Y742D02*
X1217Y720D01*
D02*
X1217Y720D02*
X1056Y720D01*
D02*
X317Y1429D02*
X319Y1370D01*
D02*
X319Y1370D02*
X367Y1319D01*
D02*
X367Y1319D02*
X819Y1319D01*
D02*
X819Y1319D02*
X867Y1270D01*
D02*
X867Y1270D02*
X867Y920D01*
D02*
X867Y920D02*
X756Y920D01*
D02*
X756Y920D02*
X977Y920D01*
G54D17*
D02*
X1017Y892D02*
X1017Y849D01*
G54D18*
D02*
X1715Y622D02*
X1819Y719D01*
D02*
X1819Y719D02*
X1819Y1670D01*
D02*
X1051Y620D02*
X1715Y622D01*
D02*
X1819Y1670D02*
X1715Y1770D01*
D02*
X1715Y1770D02*
X1215Y1770D01*
D02*
X1215Y1770D02*
X1115Y1670D01*
D02*
X1115Y1670D02*
X1116Y1606D01*
D02*
X167Y619D02*
X67Y719D01*
D02*
X67Y719D02*
X67Y1570D01*
D02*
X683Y620D02*
X167Y619D01*
D02*
X67Y1570D02*
X167Y1670D01*
D02*
X167Y1670D02*
X367Y1670D01*
D02*
X367Y1670D02*
X419Y1619D01*
D02*
X419Y1619D02*
X418Y1606D01*
D02*
X1619Y1570D02*
X1619Y1270D01*
D02*
X1619Y1270D02*
X1567Y1219D01*
D02*
X1552Y1570D02*
X1619Y1570D01*
D02*
X1567Y1219D02*
X1051Y1220D01*
G36*
X408Y1853D02*
X408Y1851D01*
X386Y1851D01*
X386Y1849D01*
X372Y1849D01*
X372Y1847D01*
X360Y1847D01*
X360Y1845D01*
X350Y1845D01*
X350Y1843D01*
X342Y1843D01*
X342Y1841D01*
X334Y1841D01*
X334Y1839D01*
X326Y1839D01*
X326Y1837D01*
X320Y1837D01*
X320Y1835D01*
X314Y1835D01*
X314Y1833D01*
X308Y1833D01*
X308Y1831D01*
X302Y1831D01*
X302Y1829D01*
X296Y1829D01*
X296Y1827D01*
X290Y1827D01*
X290Y1825D01*
X286Y1825D01*
X286Y1823D01*
X280Y1823D01*
X280Y1821D01*
X276Y1821D01*
X276Y1819D01*
X272Y1819D01*
X272Y1817D01*
X268Y1817D01*
X268Y1815D01*
X262Y1815D01*
X262Y1813D01*
X258Y1813D01*
X258Y1811D01*
X254Y1811D01*
X254Y1809D01*
X250Y1809D01*
X250Y1807D01*
X246Y1807D01*
X246Y1805D01*
X244Y1805D01*
X244Y1803D01*
X240Y1803D01*
X240Y1801D01*
X236Y1801D01*
X236Y1799D01*
X232Y1799D01*
X232Y1797D01*
X230Y1797D01*
X230Y1795D01*
X226Y1795D01*
X226Y1793D01*
X222Y1793D01*
X222Y1791D01*
X220Y1791D01*
X220Y1789D01*
X216Y1789D01*
X216Y1787D01*
X214Y1787D01*
X214Y1785D01*
X210Y1785D01*
X210Y1783D01*
X208Y1783D01*
X208Y1781D01*
X206Y1781D01*
X206Y1779D01*
X202Y1779D01*
X202Y1777D01*
X200Y1777D01*
X200Y1775D01*
X196Y1775D01*
X196Y1773D01*
X194Y1773D01*
X194Y1771D01*
X192Y1771D01*
X192Y1769D01*
X188Y1769D01*
X188Y1767D01*
X186Y1767D01*
X186Y1765D01*
X184Y1765D01*
X184Y1763D01*
X182Y1763D01*
X182Y1761D01*
X180Y1761D01*
X180Y1759D01*
X176Y1759D01*
X176Y1757D01*
X174Y1757D01*
X174Y1755D01*
X172Y1755D01*
X172Y1753D01*
X170Y1753D01*
X170Y1751D01*
X168Y1751D01*
X168Y1749D01*
X166Y1749D01*
X166Y1729D01*
X376Y1729D01*
X376Y1727D01*
X384Y1727D01*
X384Y1725D01*
X390Y1725D01*
X390Y1723D01*
X394Y1723D01*
X394Y1721D01*
X398Y1721D01*
X398Y1719D01*
X400Y1719D01*
X400Y1717D01*
X402Y1717D01*
X402Y1715D01*
X406Y1715D01*
X406Y1713D01*
X408Y1713D01*
X408Y1711D01*
X410Y1711D01*
X410Y1709D01*
X412Y1709D01*
X412Y1707D01*
X414Y1707D01*
X414Y1705D01*
X416Y1705D01*
X416Y1703D01*
X418Y1703D01*
X418Y1701D01*
X420Y1701D01*
X420Y1699D01*
X422Y1699D01*
X422Y1697D01*
X424Y1697D01*
X424Y1695D01*
X426Y1695D01*
X426Y1693D01*
X428Y1693D01*
X428Y1691D01*
X430Y1691D01*
X430Y1689D01*
X432Y1689D01*
X432Y1687D01*
X434Y1687D01*
X434Y1685D01*
X436Y1685D01*
X436Y1683D01*
X438Y1683D01*
X438Y1681D01*
X440Y1681D01*
X440Y1679D01*
X442Y1679D01*
X442Y1677D01*
X444Y1677D01*
X444Y1675D01*
X446Y1675D01*
X446Y1673D01*
X448Y1673D01*
X448Y1671D01*
X450Y1671D01*
X450Y1669D01*
X452Y1669D01*
X452Y1667D01*
X454Y1667D01*
X454Y1665D01*
X456Y1665D01*
X456Y1663D01*
X458Y1663D01*
X458Y1661D01*
X460Y1661D01*
X460Y1659D01*
X462Y1659D01*
X462Y1657D01*
X464Y1657D01*
X464Y1653D01*
X466Y1653D01*
X466Y1651D01*
X1034Y1651D01*
X1034Y1649D01*
X1056Y1649D01*
X1056Y1675D01*
X1058Y1675D01*
X1058Y1687D01*
X1060Y1687D01*
X1060Y1693D01*
X1062Y1693D01*
X1062Y1697D01*
X1064Y1697D01*
X1064Y1701D01*
X1066Y1701D01*
X1066Y1703D01*
X1068Y1703D01*
X1068Y1707D01*
X1070Y1707D01*
X1070Y1709D01*
X1072Y1709D01*
X1072Y1711D01*
X1074Y1711D01*
X1074Y1713D01*
X1076Y1713D01*
X1076Y1715D01*
X1078Y1715D01*
X1078Y1717D01*
X1080Y1717D01*
X1080Y1719D01*
X1082Y1719D01*
X1082Y1721D01*
X1084Y1721D01*
X1084Y1723D01*
X1086Y1723D01*
X1086Y1725D01*
X1088Y1725D01*
X1088Y1727D01*
X1090Y1727D01*
X1090Y1729D01*
X1092Y1729D01*
X1092Y1731D01*
X1094Y1731D01*
X1094Y1733D01*
X1096Y1733D01*
X1096Y1735D01*
X1098Y1735D01*
X1098Y1737D01*
X1100Y1737D01*
X1100Y1739D01*
X1102Y1739D01*
X1102Y1741D01*
X1104Y1741D01*
X1104Y1743D01*
X1106Y1743D01*
X1106Y1745D01*
X1108Y1745D01*
X1108Y1747D01*
X1110Y1747D01*
X1110Y1749D01*
X1112Y1749D01*
X1112Y1751D01*
X1114Y1751D01*
X1114Y1753D01*
X1116Y1753D01*
X1116Y1755D01*
X1118Y1755D01*
X1118Y1757D01*
X1120Y1757D01*
X1120Y1759D01*
X1122Y1759D01*
X1122Y1761D01*
X1124Y1761D01*
X1124Y1763D01*
X1126Y1763D01*
X1126Y1765D01*
X1128Y1765D01*
X1128Y1767D01*
X1130Y1767D01*
X1130Y1769D01*
X1132Y1769D01*
X1132Y1771D01*
X1134Y1771D01*
X1134Y1773D01*
X1136Y1773D01*
X1136Y1775D01*
X1138Y1775D01*
X1138Y1777D01*
X1140Y1777D01*
X1140Y1779D01*
X1142Y1779D01*
X1142Y1781D01*
X1144Y1781D01*
X1144Y1783D01*
X1146Y1783D01*
X1146Y1785D01*
X1148Y1785D01*
X1148Y1787D01*
X1150Y1787D01*
X1150Y1789D01*
X1152Y1789D01*
X1152Y1791D01*
X1154Y1791D01*
X1154Y1793D01*
X1156Y1793D01*
X1156Y1795D01*
X1158Y1795D01*
X1158Y1797D01*
X1160Y1797D01*
X1160Y1799D01*
X1162Y1799D01*
X1162Y1801D01*
X1164Y1801D01*
X1164Y1803D01*
X1166Y1803D01*
X1166Y1805D01*
X1168Y1805D01*
X1168Y1807D01*
X1170Y1807D01*
X1170Y1809D01*
X1172Y1809D01*
X1172Y1811D01*
X1174Y1811D01*
X1174Y1813D01*
X1176Y1813D01*
X1176Y1815D01*
X1178Y1815D01*
X1178Y1817D01*
X1182Y1817D01*
X1182Y1819D01*
X1184Y1819D01*
X1184Y1821D01*
X1188Y1821D01*
X1188Y1823D01*
X1192Y1823D01*
X1192Y1825D01*
X1198Y1825D01*
X1198Y1827D01*
X1206Y1827D01*
X1206Y1829D01*
X1542Y1829D01*
X1542Y1849D01*
X1526Y1849D01*
X1526Y1851D01*
X1506Y1851D01*
X1506Y1853D01*
X408Y1853D01*
G37*
D02*
G36*
X468Y1651D02*
X468Y1647D01*
X492Y1647D01*
X492Y1649D01*
X500Y1649D01*
X500Y1651D01*
X468Y1651D01*
G37*
D02*
G36*
X534Y1651D02*
X534Y1649D01*
X540Y1649D01*
X540Y1647D01*
X546Y1647D01*
X546Y1645D01*
X552Y1645D01*
X552Y1643D01*
X556Y1643D01*
X556Y1641D01*
X578Y1641D01*
X578Y1643D01*
X582Y1643D01*
X582Y1645D01*
X586Y1645D01*
X586Y1647D01*
X592Y1647D01*
X592Y1649D01*
X600Y1649D01*
X600Y1651D01*
X534Y1651D01*
G37*
D02*
G36*
X634Y1651D02*
X634Y1649D01*
X640Y1649D01*
X640Y1647D01*
X646Y1647D01*
X646Y1645D01*
X652Y1645D01*
X652Y1643D01*
X656Y1643D01*
X656Y1641D01*
X678Y1641D01*
X678Y1643D01*
X682Y1643D01*
X682Y1645D01*
X686Y1645D01*
X686Y1647D01*
X692Y1647D01*
X692Y1649D01*
X700Y1649D01*
X700Y1651D01*
X634Y1651D01*
G37*
D02*
G36*
X734Y1651D02*
X734Y1649D01*
X740Y1649D01*
X740Y1647D01*
X746Y1647D01*
X746Y1645D01*
X752Y1645D01*
X752Y1643D01*
X756Y1643D01*
X756Y1641D01*
X778Y1641D01*
X778Y1643D01*
X782Y1643D01*
X782Y1645D01*
X786Y1645D01*
X786Y1647D01*
X792Y1647D01*
X792Y1649D01*
X800Y1649D01*
X800Y1651D01*
X734Y1651D01*
G37*
D02*
G36*
X834Y1651D02*
X834Y1649D01*
X840Y1649D01*
X840Y1647D01*
X846Y1647D01*
X846Y1645D01*
X852Y1645D01*
X852Y1643D01*
X856Y1643D01*
X856Y1641D01*
X878Y1641D01*
X878Y1643D01*
X882Y1643D01*
X882Y1645D01*
X886Y1645D01*
X886Y1647D01*
X892Y1647D01*
X892Y1649D01*
X900Y1649D01*
X900Y1651D01*
X834Y1651D01*
G37*
D02*
G36*
X934Y1651D02*
X934Y1649D01*
X940Y1649D01*
X940Y1647D01*
X946Y1647D01*
X946Y1645D01*
X952Y1645D01*
X952Y1643D01*
X956Y1643D01*
X956Y1641D01*
X978Y1641D01*
X978Y1643D01*
X982Y1643D01*
X982Y1645D01*
X986Y1645D01*
X986Y1647D01*
X992Y1647D01*
X992Y1649D01*
X1000Y1649D01*
X1000Y1651D01*
X934Y1651D01*
G37*
D02*
G36*
X224Y1437D02*
X224Y1193D01*
X226Y1193D01*
X226Y1191D01*
X228Y1191D01*
X228Y1189D01*
X230Y1189D01*
X230Y1187D01*
X232Y1187D01*
X232Y1185D01*
X234Y1185D01*
X234Y1183D01*
X236Y1183D01*
X236Y1181D01*
X238Y1181D01*
X238Y1179D01*
X240Y1179D01*
X240Y1177D01*
X500Y1177D01*
X500Y1179D01*
X638Y1179D01*
X638Y1253D01*
X356Y1253D01*
X356Y1255D01*
X346Y1255D01*
X346Y1257D01*
X342Y1257D01*
X342Y1259D01*
X338Y1259D01*
X338Y1261D01*
X334Y1261D01*
X334Y1263D01*
X330Y1263D01*
X330Y1265D01*
X328Y1265D01*
X328Y1267D01*
X324Y1267D01*
X324Y1269D01*
X322Y1269D01*
X322Y1271D01*
X320Y1271D01*
X320Y1273D01*
X318Y1273D01*
X318Y1275D01*
X316Y1275D01*
X316Y1277D01*
X314Y1277D01*
X314Y1279D01*
X312Y1279D01*
X312Y1281D01*
X310Y1281D01*
X310Y1285D01*
X308Y1285D01*
X308Y1287D01*
X306Y1287D01*
X306Y1289D01*
X304Y1289D01*
X304Y1291D01*
X302Y1291D01*
X302Y1293D01*
X300Y1293D01*
X300Y1295D01*
X298Y1295D01*
X298Y1297D01*
X296Y1297D01*
X296Y1299D01*
X294Y1299D01*
X294Y1301D01*
X292Y1301D01*
X292Y1303D01*
X290Y1303D01*
X290Y1305D01*
X288Y1305D01*
X288Y1307D01*
X286Y1307D01*
X286Y1309D01*
X284Y1309D01*
X284Y1313D01*
X282Y1313D01*
X282Y1315D01*
X280Y1315D01*
X280Y1317D01*
X278Y1317D01*
X278Y1319D01*
X276Y1319D01*
X276Y1321D01*
X274Y1321D01*
X274Y1323D01*
X272Y1323D01*
X272Y1325D01*
X270Y1325D01*
X270Y1327D01*
X268Y1327D01*
X268Y1329D01*
X266Y1329D01*
X266Y1333D01*
X264Y1333D01*
X264Y1335D01*
X262Y1335D01*
X262Y1339D01*
X260Y1339D01*
X260Y1343D01*
X258Y1343D01*
X258Y1347D01*
X256Y1347D01*
X256Y1353D01*
X254Y1353D01*
X254Y1363D01*
X252Y1363D01*
X252Y1423D01*
X250Y1423D01*
X250Y1427D01*
X248Y1427D01*
X248Y1429D01*
X246Y1429D01*
X246Y1433D01*
X244Y1433D01*
X244Y1437D01*
X224Y1437D01*
G37*
D02*
G36*
X856Y1401D02*
X856Y1399D01*
X852Y1399D01*
X852Y1397D01*
X848Y1397D01*
X848Y1389D01*
X912Y1389D01*
X912Y1391D01*
X898Y1391D01*
X898Y1393D01*
X892Y1393D01*
X892Y1395D01*
X886Y1395D01*
X886Y1397D01*
X882Y1397D01*
X882Y1399D01*
X878Y1399D01*
X878Y1401D01*
X856Y1401D01*
G37*
D02*
G36*
X956Y1401D02*
X956Y1399D01*
X952Y1399D01*
X952Y1397D01*
X948Y1397D01*
X948Y1395D01*
X942Y1395D01*
X942Y1393D01*
X936Y1393D01*
X936Y1391D01*
X920Y1391D01*
X920Y1389D01*
X1012Y1389D01*
X1012Y1391D01*
X998Y1391D01*
X998Y1393D01*
X992Y1393D01*
X992Y1395D01*
X986Y1395D01*
X986Y1397D01*
X982Y1397D01*
X982Y1399D01*
X978Y1399D01*
X978Y1401D01*
X956Y1401D01*
G37*
D02*
G36*
X1056Y1401D02*
X1056Y1399D01*
X1052Y1399D01*
X1052Y1397D01*
X1048Y1397D01*
X1048Y1395D01*
X1042Y1395D01*
X1042Y1393D01*
X1036Y1393D01*
X1036Y1391D01*
X1020Y1391D01*
X1020Y1389D01*
X1112Y1389D01*
X1112Y1391D01*
X1098Y1391D01*
X1098Y1393D01*
X1092Y1393D01*
X1092Y1395D01*
X1086Y1395D01*
X1086Y1397D01*
X1082Y1397D01*
X1082Y1399D01*
X1078Y1399D01*
X1078Y1401D01*
X1056Y1401D01*
G37*
D02*
G36*
X1156Y1401D02*
X1156Y1399D01*
X1152Y1399D01*
X1152Y1397D01*
X1148Y1397D01*
X1148Y1395D01*
X1142Y1395D01*
X1142Y1393D01*
X1136Y1393D01*
X1136Y1391D01*
X1120Y1391D01*
X1120Y1389D01*
X1212Y1389D01*
X1212Y1391D01*
X1198Y1391D01*
X1198Y1393D01*
X1192Y1393D01*
X1192Y1395D01*
X1186Y1395D01*
X1186Y1397D01*
X1182Y1397D01*
X1182Y1399D01*
X1178Y1399D01*
X1178Y1401D01*
X1156Y1401D01*
G37*
D02*
G36*
X1256Y1401D02*
X1256Y1399D01*
X1252Y1399D01*
X1252Y1397D01*
X1248Y1397D01*
X1248Y1395D01*
X1242Y1395D01*
X1242Y1393D01*
X1236Y1393D01*
X1236Y1391D01*
X1220Y1391D01*
X1220Y1389D01*
X1312Y1389D01*
X1312Y1391D01*
X1298Y1391D01*
X1298Y1393D01*
X1292Y1393D01*
X1292Y1395D01*
X1286Y1395D01*
X1286Y1397D01*
X1282Y1397D01*
X1282Y1399D01*
X1278Y1399D01*
X1278Y1401D01*
X1256Y1401D01*
G37*
D02*
G36*
X1356Y1401D02*
X1356Y1399D01*
X1352Y1399D01*
X1352Y1397D01*
X1348Y1397D01*
X1348Y1395D01*
X1342Y1395D01*
X1342Y1393D01*
X1336Y1393D01*
X1336Y1391D01*
X1320Y1391D01*
X1320Y1389D01*
X1412Y1389D01*
X1412Y1391D01*
X1398Y1391D01*
X1398Y1393D01*
X1392Y1393D01*
X1392Y1395D01*
X1386Y1395D01*
X1386Y1397D01*
X1382Y1397D01*
X1382Y1399D01*
X1378Y1399D01*
X1378Y1401D01*
X1356Y1401D01*
G37*
D02*
G36*
X1456Y1401D02*
X1456Y1399D01*
X1452Y1399D01*
X1452Y1397D01*
X1448Y1397D01*
X1448Y1395D01*
X1442Y1395D01*
X1442Y1393D01*
X1436Y1393D01*
X1436Y1391D01*
X1420Y1391D01*
X1420Y1389D01*
X1512Y1389D01*
X1512Y1391D01*
X1498Y1391D01*
X1498Y1393D01*
X1492Y1393D01*
X1492Y1395D01*
X1486Y1395D01*
X1486Y1397D01*
X1482Y1397D01*
X1482Y1399D01*
X1478Y1399D01*
X1478Y1401D01*
X1456Y1401D01*
G37*
D02*
G36*
X1536Y1393D02*
X1536Y1391D01*
X1520Y1391D01*
X1520Y1389D01*
X1560Y1389D01*
X1560Y1393D01*
X1536Y1393D01*
G37*
D02*
G36*
X848Y1389D02*
X848Y1387D01*
X1560Y1387D01*
X1560Y1389D01*
X848Y1389D01*
G37*
D02*
G36*
X848Y1389D02*
X848Y1387D01*
X1560Y1387D01*
X1560Y1389D01*
X848Y1389D01*
G37*
D02*
G36*
X848Y1389D02*
X848Y1387D01*
X1560Y1387D01*
X1560Y1389D01*
X848Y1389D01*
G37*
D02*
G36*
X848Y1389D02*
X848Y1387D01*
X1560Y1387D01*
X1560Y1389D01*
X848Y1389D01*
G37*
D02*
G36*
X848Y1389D02*
X848Y1387D01*
X1560Y1387D01*
X1560Y1389D01*
X848Y1389D01*
G37*
D02*
G36*
X848Y1389D02*
X848Y1387D01*
X1560Y1387D01*
X1560Y1389D01*
X848Y1389D01*
G37*
D02*
G36*
X848Y1389D02*
X848Y1387D01*
X1560Y1387D01*
X1560Y1389D01*
X848Y1389D01*
G37*
D02*
G36*
X848Y1389D02*
X848Y1387D01*
X1560Y1387D01*
X1560Y1389D01*
X848Y1389D01*
G37*
D02*
G36*
X848Y1387D02*
X848Y1377D01*
X852Y1377D01*
X852Y1375D01*
X854Y1375D01*
X854Y1373D01*
X858Y1373D01*
X858Y1371D01*
X860Y1371D01*
X860Y1369D01*
X862Y1369D01*
X862Y1367D01*
X864Y1367D01*
X864Y1365D01*
X866Y1365D01*
X866Y1363D01*
X868Y1363D01*
X868Y1361D01*
X870Y1361D01*
X870Y1359D01*
X872Y1359D01*
X872Y1357D01*
X874Y1357D01*
X874Y1355D01*
X876Y1355D01*
X876Y1353D01*
X878Y1353D01*
X878Y1351D01*
X880Y1351D01*
X880Y1349D01*
X882Y1349D01*
X882Y1347D01*
X884Y1347D01*
X884Y1345D01*
X886Y1345D01*
X886Y1343D01*
X888Y1343D01*
X888Y1341D01*
X890Y1341D01*
X890Y1339D01*
X892Y1339D01*
X892Y1337D01*
X894Y1337D01*
X894Y1335D01*
X896Y1335D01*
X896Y1333D01*
X898Y1333D01*
X898Y1331D01*
X900Y1331D01*
X900Y1329D01*
X902Y1329D01*
X902Y1327D01*
X904Y1327D01*
X904Y1325D01*
X906Y1325D01*
X906Y1323D01*
X908Y1323D01*
X908Y1321D01*
X910Y1321D01*
X910Y1319D01*
X912Y1319D01*
X912Y1317D01*
X914Y1317D01*
X914Y1315D01*
X916Y1315D01*
X916Y1313D01*
X918Y1313D01*
X918Y1311D01*
X920Y1311D01*
X920Y1309D01*
X922Y1309D01*
X922Y1305D01*
X924Y1305D01*
X924Y1301D01*
X1022Y1301D01*
X1022Y1299D01*
X1036Y1299D01*
X1036Y1297D01*
X1042Y1297D01*
X1042Y1295D01*
X1048Y1295D01*
X1048Y1293D01*
X1052Y1293D01*
X1052Y1291D01*
X1056Y1291D01*
X1056Y1289D01*
X1058Y1289D01*
X1058Y1287D01*
X1062Y1287D01*
X1062Y1285D01*
X1064Y1285D01*
X1064Y1283D01*
X1068Y1283D01*
X1068Y1281D01*
X1070Y1281D01*
X1070Y1279D01*
X1252Y1279D01*
X1252Y1277D01*
X1544Y1277D01*
X1544Y1279D01*
X1546Y1279D01*
X1546Y1281D01*
X1548Y1281D01*
X1548Y1283D01*
X1550Y1283D01*
X1550Y1285D01*
X1552Y1285D01*
X1552Y1287D01*
X1554Y1287D01*
X1554Y1289D01*
X1556Y1289D01*
X1556Y1291D01*
X1558Y1291D01*
X1558Y1293D01*
X1560Y1293D01*
X1560Y1387D01*
X848Y1387D01*
G37*
D02*
G36*
X926Y1301D02*
X926Y1297D01*
X928Y1297D01*
X928Y1293D01*
X930Y1293D01*
X930Y1285D01*
X932Y1285D01*
X932Y1265D01*
X952Y1265D01*
X952Y1269D01*
X954Y1269D01*
X954Y1271D01*
X956Y1271D01*
X956Y1273D01*
X958Y1273D01*
X958Y1275D01*
X960Y1275D01*
X960Y1277D01*
X962Y1277D01*
X962Y1279D01*
X964Y1279D01*
X964Y1281D01*
X966Y1281D01*
X966Y1283D01*
X968Y1283D01*
X968Y1285D01*
X972Y1285D01*
X972Y1287D01*
X974Y1287D01*
X974Y1289D01*
X978Y1289D01*
X978Y1291D01*
X982Y1291D01*
X982Y1293D01*
X986Y1293D01*
X986Y1295D01*
X992Y1295D01*
X992Y1297D01*
X998Y1297D01*
X998Y1299D01*
X1012Y1299D01*
X1012Y1301D01*
X926Y1301D01*
G37*
D02*
G36*
X1740Y1161D02*
X1740Y1159D01*
X1738Y1159D01*
X1738Y1157D01*
X1736Y1157D01*
X1736Y1155D01*
X1734Y1155D01*
X1734Y1153D01*
X1732Y1153D01*
X1732Y1151D01*
X1730Y1151D01*
X1730Y1149D01*
X1728Y1149D01*
X1728Y1147D01*
X1726Y1147D01*
X1726Y1145D01*
X1724Y1145D01*
X1724Y1143D01*
X1722Y1143D01*
X1722Y1141D01*
X1720Y1141D01*
X1720Y1139D01*
X1718Y1139D01*
X1718Y1137D01*
X1716Y1137D01*
X1716Y1135D01*
X1714Y1135D01*
X1714Y1133D01*
X1712Y1133D01*
X1712Y1131D01*
X1710Y1131D01*
X1710Y1129D01*
X1708Y1129D01*
X1708Y1127D01*
X1706Y1127D01*
X1706Y1125D01*
X1704Y1125D01*
X1704Y1123D01*
X1702Y1123D01*
X1702Y1121D01*
X1700Y1121D01*
X1700Y1119D01*
X1698Y1119D01*
X1698Y1117D01*
X1696Y1117D01*
X1696Y1115D01*
X1694Y1115D01*
X1694Y1113D01*
X1692Y1113D01*
X1692Y1111D01*
X1690Y1111D01*
X1690Y1109D01*
X1686Y1109D01*
X1686Y1107D01*
X1684Y1107D01*
X1684Y1105D01*
X1682Y1105D01*
X1682Y1103D01*
X1680Y1103D01*
X1680Y1101D01*
X1678Y1101D01*
X1678Y1099D01*
X1676Y1099D01*
X1676Y1097D01*
X1674Y1097D01*
X1674Y1095D01*
X1672Y1095D01*
X1672Y1093D01*
X1670Y1093D01*
X1670Y1091D01*
X1668Y1091D01*
X1668Y1089D01*
X1666Y1089D01*
X1666Y1087D01*
X1664Y1087D01*
X1664Y1085D01*
X1662Y1085D01*
X1662Y1083D01*
X1660Y1083D01*
X1660Y1063D01*
X1760Y1063D01*
X1760Y1161D01*
X1740Y1161D01*
G37*
D02*
G36*
X124Y1111D02*
X124Y743D01*
X126Y743D01*
X126Y741D01*
X128Y741D01*
X128Y739D01*
X130Y739D01*
X130Y737D01*
X132Y737D01*
X132Y735D01*
X134Y735D01*
X134Y733D01*
X136Y733D01*
X136Y731D01*
X138Y731D01*
X138Y729D01*
X140Y729D01*
X140Y727D01*
X142Y727D01*
X142Y725D01*
X144Y725D01*
X144Y723D01*
X146Y723D01*
X146Y721D01*
X148Y721D01*
X148Y719D01*
X150Y719D01*
X150Y717D01*
X152Y717D01*
X152Y715D01*
X154Y715D01*
X154Y713D01*
X156Y713D01*
X156Y711D01*
X158Y711D01*
X158Y709D01*
X160Y709D01*
X160Y707D01*
X162Y707D01*
X162Y705D01*
X164Y705D01*
X164Y703D01*
X166Y703D01*
X166Y701D01*
X168Y701D01*
X168Y699D01*
X170Y699D01*
X170Y697D01*
X172Y697D01*
X172Y695D01*
X174Y695D01*
X174Y693D01*
X176Y693D01*
X176Y691D01*
X178Y691D01*
X178Y689D01*
X180Y689D01*
X180Y687D01*
X182Y687D01*
X182Y685D01*
X184Y685D01*
X184Y683D01*
X186Y683D01*
X186Y681D01*
X188Y681D01*
X188Y679D01*
X190Y679D01*
X190Y677D01*
X218Y677D01*
X218Y697D01*
X216Y697D01*
X216Y699D01*
X212Y699D01*
X212Y701D01*
X210Y701D01*
X210Y703D01*
X208Y703D01*
X208Y705D01*
X206Y705D01*
X206Y707D01*
X204Y707D01*
X204Y709D01*
X202Y709D01*
X202Y711D01*
X200Y711D01*
X200Y713D01*
X198Y713D01*
X198Y715D01*
X196Y715D01*
X196Y717D01*
X194Y717D01*
X194Y719D01*
X192Y719D01*
X192Y723D01*
X190Y723D01*
X190Y725D01*
X188Y725D01*
X188Y729D01*
X186Y729D01*
X186Y733D01*
X184Y733D01*
X184Y737D01*
X182Y737D01*
X182Y743D01*
X180Y743D01*
X180Y747D01*
X178Y747D01*
X178Y755D01*
X176Y755D01*
X176Y793D01*
X178Y793D01*
X178Y799D01*
X180Y799D01*
X180Y805D01*
X182Y805D01*
X182Y811D01*
X184Y811D01*
X184Y815D01*
X186Y815D01*
X186Y819D01*
X188Y819D01*
X188Y823D01*
X190Y823D01*
X190Y825D01*
X192Y825D01*
X192Y829D01*
X194Y829D01*
X194Y831D01*
X196Y831D01*
X196Y833D01*
X198Y833D01*
X198Y835D01*
X200Y835D01*
X200Y837D01*
X202Y837D01*
X202Y839D01*
X204Y839D01*
X204Y841D01*
X206Y841D01*
X206Y843D01*
X208Y843D01*
X208Y845D01*
X210Y845D01*
X210Y847D01*
X214Y847D01*
X214Y849D01*
X216Y849D01*
X216Y851D01*
X220Y851D01*
X220Y853D01*
X222Y853D01*
X222Y855D01*
X226Y855D01*
X226Y857D01*
X230Y857D01*
X230Y859D01*
X236Y859D01*
X236Y879D01*
X176Y879D01*
X176Y1077D01*
X174Y1077D01*
X174Y1079D01*
X172Y1079D01*
X172Y1081D01*
X170Y1081D01*
X170Y1083D01*
X168Y1083D01*
X168Y1085D01*
X166Y1085D01*
X166Y1087D01*
X164Y1087D01*
X164Y1089D01*
X162Y1089D01*
X162Y1091D01*
X160Y1091D01*
X160Y1093D01*
X158Y1093D01*
X158Y1095D01*
X156Y1095D01*
X156Y1099D01*
X154Y1099D01*
X154Y1101D01*
X152Y1101D01*
X152Y1103D01*
X150Y1103D01*
X150Y1105D01*
X148Y1105D01*
X148Y1107D01*
X146Y1107D01*
X146Y1109D01*
X144Y1109D01*
X144Y1111D01*
X124Y1111D01*
G37*
D02*
G36*
X358Y1061D02*
X358Y891D01*
X506Y891D01*
X506Y893D01*
X496Y893D01*
X496Y895D01*
X490Y895D01*
X490Y897D01*
X484Y897D01*
X484Y899D01*
X480Y899D01*
X480Y901D01*
X476Y901D01*
X476Y903D01*
X474Y903D01*
X474Y905D01*
X470Y905D01*
X470Y907D01*
X468Y907D01*
X468Y909D01*
X466Y909D01*
X466Y911D01*
X462Y911D01*
X462Y913D01*
X460Y913D01*
X460Y915D01*
X458Y915D01*
X458Y919D01*
X456Y919D01*
X456Y921D01*
X454Y921D01*
X454Y923D01*
X452Y923D01*
X452Y925D01*
X450Y925D01*
X450Y929D01*
X448Y929D01*
X448Y933D01*
X446Y933D01*
X446Y937D01*
X444Y937D01*
X444Y941D01*
X442Y941D01*
X442Y945D01*
X440Y945D01*
X440Y953D01*
X438Y953D01*
X438Y969D01*
X436Y969D01*
X436Y971D01*
X438Y971D01*
X438Y989D01*
X440Y989D01*
X440Y995D01*
X442Y995D01*
X442Y1001D01*
X444Y1001D01*
X444Y1005D01*
X446Y1005D01*
X446Y1009D01*
X448Y1009D01*
X448Y1013D01*
X450Y1013D01*
X450Y1015D01*
X452Y1015D01*
X452Y1019D01*
X454Y1019D01*
X454Y1021D01*
X456Y1021D01*
X456Y1023D01*
X458Y1023D01*
X458Y1025D01*
X460Y1025D01*
X460Y1027D01*
X462Y1027D01*
X462Y1029D01*
X464Y1029D01*
X464Y1031D01*
X466Y1031D01*
X466Y1033D01*
X468Y1033D01*
X468Y1035D01*
X470Y1035D01*
X470Y1037D01*
X474Y1037D01*
X474Y1039D01*
X478Y1039D01*
X478Y1041D01*
X482Y1041D01*
X482Y1061D01*
X358Y1061D01*
G37*
D02*
G36*
X594Y953D02*
X594Y949D01*
X592Y949D01*
X592Y943D01*
X590Y943D01*
X590Y937D01*
X588Y937D01*
X588Y933D01*
X586Y933D01*
X586Y929D01*
X584Y929D01*
X584Y927D01*
X582Y927D01*
X582Y923D01*
X580Y923D01*
X580Y921D01*
X578Y921D01*
X578Y919D01*
X576Y919D01*
X576Y917D01*
X574Y917D01*
X574Y915D01*
X572Y915D01*
X572Y913D01*
X570Y913D01*
X570Y911D01*
X568Y911D01*
X568Y909D01*
X566Y909D01*
X566Y907D01*
X562Y907D01*
X562Y905D01*
X560Y905D01*
X560Y903D01*
X556Y903D01*
X556Y901D01*
X554Y901D01*
X554Y899D01*
X550Y899D01*
X550Y897D01*
X544Y897D01*
X544Y895D01*
X538Y895D01*
X538Y893D01*
X528Y893D01*
X528Y891D01*
X624Y891D01*
X624Y953D01*
X594Y953D01*
G37*
D02*
G36*
X358Y891D02*
X358Y889D01*
X624Y889D01*
X624Y891D01*
X358Y891D01*
G37*
D02*
G36*
X358Y891D02*
X358Y889D01*
X624Y889D01*
X624Y891D01*
X358Y891D01*
G37*
D02*
G36*
X358Y889D02*
X358Y879D01*
X298Y879D01*
X298Y859D01*
X302Y859D01*
X302Y857D01*
X306Y857D01*
X306Y855D01*
X310Y855D01*
X310Y853D01*
X314Y853D01*
X314Y851D01*
X524Y851D01*
X524Y849D01*
X536Y849D01*
X536Y847D01*
X542Y847D01*
X542Y845D01*
X548Y845D01*
X548Y843D01*
X552Y843D01*
X552Y841D01*
X556Y841D01*
X556Y839D01*
X560Y839D01*
X560Y837D01*
X562Y837D01*
X562Y835D01*
X566Y835D01*
X566Y833D01*
X568Y833D01*
X568Y831D01*
X570Y831D01*
X570Y829D01*
X572Y829D01*
X572Y827D01*
X574Y827D01*
X574Y825D01*
X576Y825D01*
X576Y823D01*
X578Y823D01*
X578Y821D01*
X580Y821D01*
X580Y817D01*
X582Y817D01*
X582Y815D01*
X584Y815D01*
X584Y811D01*
X586Y811D01*
X586Y809D01*
X588Y809D01*
X588Y805D01*
X590Y805D01*
X590Y799D01*
X592Y799D01*
X592Y793D01*
X594Y793D01*
X594Y787D01*
X624Y787D01*
X624Y889D01*
X358Y889D01*
G37*
D02*
G36*
X318Y851D02*
X318Y849D01*
X320Y849D01*
X320Y847D01*
X322Y847D01*
X322Y845D01*
X326Y845D01*
X326Y843D01*
X328Y843D01*
X328Y841D01*
X330Y841D01*
X330Y839D01*
X332Y839D01*
X332Y837D01*
X334Y837D01*
X334Y835D01*
X336Y835D01*
X336Y833D01*
X338Y833D01*
X338Y829D01*
X340Y829D01*
X340Y827D01*
X342Y827D01*
X342Y825D01*
X344Y825D01*
X344Y821D01*
X346Y821D01*
X346Y817D01*
X348Y817D01*
X348Y813D01*
X350Y813D01*
X350Y809D01*
X352Y809D01*
X352Y803D01*
X354Y803D01*
X354Y797D01*
X356Y797D01*
X356Y787D01*
X358Y787D01*
X358Y761D01*
X356Y761D01*
X356Y751D01*
X354Y751D01*
X354Y743D01*
X352Y743D01*
X352Y739D01*
X350Y739D01*
X350Y735D01*
X348Y735D01*
X348Y731D01*
X346Y731D01*
X346Y727D01*
X344Y727D01*
X344Y723D01*
X342Y723D01*
X342Y721D01*
X340Y721D01*
X340Y719D01*
X338Y719D01*
X338Y715D01*
X336Y715D01*
X336Y713D01*
X334Y713D01*
X334Y711D01*
X332Y711D01*
X332Y709D01*
X330Y709D01*
X330Y707D01*
X328Y707D01*
X328Y705D01*
X326Y705D01*
X326Y703D01*
X324Y703D01*
X324Y701D01*
X320Y701D01*
X320Y699D01*
X318Y699D01*
X318Y697D01*
X314Y697D01*
X314Y677D01*
X486Y677D01*
X486Y697D01*
X484Y697D01*
X484Y699D01*
X480Y699D01*
X480Y701D01*
X476Y701D01*
X476Y703D01*
X474Y703D01*
X474Y705D01*
X470Y705D01*
X470Y707D01*
X468Y707D01*
X468Y709D01*
X466Y709D01*
X466Y711D01*
X462Y711D01*
X462Y713D01*
X460Y713D01*
X460Y715D01*
X458Y715D01*
X458Y719D01*
X456Y719D01*
X456Y721D01*
X454Y721D01*
X454Y723D01*
X452Y723D01*
X452Y725D01*
X450Y725D01*
X450Y729D01*
X448Y729D01*
X448Y733D01*
X446Y733D01*
X446Y737D01*
X444Y737D01*
X444Y741D01*
X442Y741D01*
X442Y745D01*
X440Y745D01*
X440Y753D01*
X438Y753D01*
X438Y769D01*
X436Y769D01*
X436Y771D01*
X438Y771D01*
X438Y789D01*
X440Y789D01*
X440Y795D01*
X442Y795D01*
X442Y801D01*
X444Y801D01*
X444Y805D01*
X446Y805D01*
X446Y809D01*
X448Y809D01*
X448Y813D01*
X450Y813D01*
X450Y815D01*
X452Y815D01*
X452Y819D01*
X454Y819D01*
X454Y821D01*
X456Y821D01*
X456Y823D01*
X458Y823D01*
X458Y825D01*
X460Y825D01*
X460Y827D01*
X462Y827D01*
X462Y829D01*
X464Y829D01*
X464Y831D01*
X466Y831D01*
X466Y833D01*
X468Y833D01*
X468Y835D01*
X470Y835D01*
X470Y837D01*
X474Y837D01*
X474Y839D01*
X478Y839D01*
X478Y841D01*
X482Y841D01*
X482Y843D01*
X486Y843D01*
X486Y845D01*
X490Y845D01*
X490Y847D01*
X498Y847D01*
X498Y849D01*
X508Y849D01*
X508Y851D01*
X318Y851D01*
G37*
D02*
G36*
X1416Y1065D02*
X1416Y1063D01*
X1298Y1063D01*
X1298Y1043D01*
X1302Y1043D01*
X1302Y1041D01*
X1306Y1041D01*
X1306Y1039D01*
X1310Y1039D01*
X1310Y1037D01*
X1312Y1037D01*
X1312Y1035D01*
X1316Y1035D01*
X1316Y1033D01*
X1318Y1033D01*
X1318Y1031D01*
X1320Y1031D01*
X1320Y1029D01*
X1322Y1029D01*
X1322Y1027D01*
X1324Y1027D01*
X1324Y1025D01*
X1326Y1025D01*
X1326Y1023D01*
X1328Y1023D01*
X1328Y1021D01*
X1330Y1021D01*
X1330Y1017D01*
X1332Y1017D01*
X1332Y1015D01*
X1334Y1015D01*
X1334Y1011D01*
X1336Y1011D01*
X1336Y1009D01*
X1338Y1009D01*
X1338Y1005D01*
X1340Y1005D01*
X1340Y999D01*
X1342Y999D01*
X1342Y993D01*
X1344Y993D01*
X1344Y985D01*
X1346Y985D01*
X1346Y957D01*
X1344Y957D01*
X1344Y949D01*
X1342Y949D01*
X1342Y943D01*
X1340Y943D01*
X1340Y937D01*
X1338Y937D01*
X1338Y933D01*
X1336Y933D01*
X1336Y929D01*
X1334Y929D01*
X1334Y927D01*
X1332Y927D01*
X1332Y923D01*
X1330Y923D01*
X1330Y921D01*
X1328Y921D01*
X1328Y919D01*
X1326Y919D01*
X1326Y917D01*
X1324Y917D01*
X1324Y915D01*
X1322Y915D01*
X1322Y913D01*
X1320Y913D01*
X1320Y911D01*
X1318Y911D01*
X1318Y909D01*
X1316Y909D01*
X1316Y907D01*
X1312Y907D01*
X1312Y905D01*
X1310Y905D01*
X1310Y903D01*
X1306Y903D01*
X1306Y901D01*
X1304Y901D01*
X1304Y899D01*
X1300Y899D01*
X1300Y897D01*
X1294Y897D01*
X1294Y895D01*
X1288Y895D01*
X1288Y893D01*
X1278Y893D01*
X1278Y891D01*
X1626Y891D01*
X1626Y1065D01*
X1416Y1065D01*
G37*
D02*
G36*
X1108Y953D02*
X1108Y891D01*
X1256Y891D01*
X1256Y893D01*
X1246Y893D01*
X1246Y895D01*
X1240Y895D01*
X1240Y897D01*
X1234Y897D01*
X1234Y899D01*
X1230Y899D01*
X1230Y901D01*
X1226Y901D01*
X1226Y903D01*
X1224Y903D01*
X1224Y905D01*
X1220Y905D01*
X1220Y907D01*
X1218Y907D01*
X1218Y909D01*
X1216Y909D01*
X1216Y911D01*
X1212Y911D01*
X1212Y913D01*
X1210Y913D01*
X1210Y915D01*
X1208Y915D01*
X1208Y919D01*
X1206Y919D01*
X1206Y921D01*
X1204Y921D01*
X1204Y923D01*
X1202Y923D01*
X1202Y925D01*
X1200Y925D01*
X1200Y929D01*
X1198Y929D01*
X1198Y933D01*
X1196Y933D01*
X1196Y937D01*
X1194Y937D01*
X1194Y941D01*
X1192Y941D01*
X1192Y945D01*
X1190Y945D01*
X1190Y953D01*
X1108Y953D01*
G37*
D02*
G36*
X1108Y891D02*
X1108Y889D01*
X1626Y889D01*
X1626Y891D01*
X1108Y891D01*
G37*
D02*
G36*
X1108Y891D02*
X1108Y889D01*
X1626Y889D01*
X1626Y891D01*
X1108Y891D01*
G37*
D02*
G36*
X1108Y889D02*
X1108Y851D01*
X1274Y851D01*
X1274Y849D01*
X1286Y849D01*
X1286Y847D01*
X1292Y847D01*
X1292Y845D01*
X1298Y845D01*
X1298Y843D01*
X1302Y843D01*
X1302Y841D01*
X1306Y841D01*
X1306Y839D01*
X1310Y839D01*
X1310Y837D01*
X1312Y837D01*
X1312Y835D01*
X1316Y835D01*
X1316Y833D01*
X1318Y833D01*
X1318Y831D01*
X1320Y831D01*
X1320Y829D01*
X1322Y829D01*
X1322Y827D01*
X1324Y827D01*
X1324Y825D01*
X1326Y825D01*
X1326Y823D01*
X1328Y823D01*
X1328Y821D01*
X1330Y821D01*
X1330Y817D01*
X1332Y817D01*
X1332Y815D01*
X1334Y815D01*
X1334Y811D01*
X1336Y811D01*
X1336Y809D01*
X1338Y809D01*
X1338Y805D01*
X1340Y805D01*
X1340Y799D01*
X1342Y799D01*
X1342Y793D01*
X1344Y793D01*
X1344Y785D01*
X1346Y785D01*
X1346Y757D01*
X1344Y757D01*
X1344Y749D01*
X1342Y749D01*
X1342Y743D01*
X1340Y743D01*
X1340Y737D01*
X1338Y737D01*
X1338Y733D01*
X1336Y733D01*
X1336Y729D01*
X1334Y729D01*
X1334Y727D01*
X1332Y727D01*
X1332Y723D01*
X1330Y723D01*
X1330Y721D01*
X1328Y721D01*
X1328Y719D01*
X1326Y719D01*
X1326Y717D01*
X1324Y717D01*
X1324Y715D01*
X1322Y715D01*
X1322Y713D01*
X1320Y713D01*
X1320Y711D01*
X1318Y711D01*
X1318Y709D01*
X1316Y709D01*
X1316Y707D01*
X1312Y707D01*
X1312Y705D01*
X1310Y705D01*
X1310Y703D01*
X1306Y703D01*
X1306Y701D01*
X1304Y701D01*
X1304Y699D01*
X1300Y699D01*
X1300Y679D01*
X1474Y679D01*
X1474Y681D01*
X1662Y681D01*
X1662Y701D01*
X1660Y701D01*
X1660Y703D01*
X1658Y703D01*
X1658Y705D01*
X1656Y705D01*
X1656Y707D01*
X1654Y707D01*
X1654Y709D01*
X1652Y709D01*
X1652Y711D01*
X1650Y711D01*
X1650Y713D01*
X1648Y713D01*
X1648Y715D01*
X1646Y715D01*
X1646Y717D01*
X1644Y717D01*
X1644Y719D01*
X1642Y719D01*
X1642Y723D01*
X1640Y723D01*
X1640Y725D01*
X1638Y725D01*
X1638Y729D01*
X1636Y729D01*
X1636Y733D01*
X1634Y733D01*
X1634Y737D01*
X1632Y737D01*
X1632Y743D01*
X1630Y743D01*
X1630Y747D01*
X1628Y747D01*
X1628Y755D01*
X1626Y755D01*
X1626Y793D01*
X1628Y793D01*
X1628Y799D01*
X1630Y799D01*
X1630Y805D01*
X1632Y805D01*
X1632Y811D01*
X1634Y811D01*
X1634Y815D01*
X1636Y815D01*
X1636Y819D01*
X1638Y819D01*
X1638Y823D01*
X1640Y823D01*
X1640Y825D01*
X1642Y825D01*
X1642Y829D01*
X1644Y829D01*
X1644Y831D01*
X1646Y831D01*
X1646Y833D01*
X1648Y833D01*
X1648Y835D01*
X1650Y835D01*
X1650Y837D01*
X1652Y837D01*
X1652Y839D01*
X1654Y839D01*
X1654Y841D01*
X1656Y841D01*
X1656Y843D01*
X1658Y843D01*
X1658Y845D01*
X1660Y845D01*
X1660Y847D01*
X1664Y847D01*
X1664Y849D01*
X1666Y849D01*
X1666Y851D01*
X1670Y851D01*
X1670Y853D01*
X1672Y853D01*
X1672Y855D01*
X1676Y855D01*
X1676Y857D01*
X1680Y857D01*
X1680Y859D01*
X1686Y859D01*
X1686Y879D01*
X1626Y879D01*
X1626Y889D01*
X1108Y889D01*
G37*
D02*
G36*
X1108Y851D02*
X1108Y787D01*
X1188Y787D01*
X1188Y789D01*
X1190Y789D01*
X1190Y795D01*
X1192Y795D01*
X1192Y801D01*
X1194Y801D01*
X1194Y805D01*
X1196Y805D01*
X1196Y809D01*
X1198Y809D01*
X1198Y813D01*
X1200Y813D01*
X1200Y815D01*
X1202Y815D01*
X1202Y819D01*
X1204Y819D01*
X1204Y821D01*
X1206Y821D01*
X1206Y823D01*
X1208Y823D01*
X1208Y825D01*
X1210Y825D01*
X1210Y827D01*
X1212Y827D01*
X1212Y829D01*
X1214Y829D01*
X1214Y831D01*
X1216Y831D01*
X1216Y833D01*
X1218Y833D01*
X1218Y835D01*
X1220Y835D01*
X1220Y837D01*
X1224Y837D01*
X1224Y839D01*
X1228Y839D01*
X1228Y841D01*
X1232Y841D01*
X1232Y843D01*
X1236Y843D01*
X1236Y845D01*
X1240Y845D01*
X1240Y847D01*
X1248Y847D01*
X1248Y849D01*
X1258Y849D01*
X1258Y851D01*
X1108Y851D01*
G37*
D02*
G36*
X792Y763D02*
X792Y743D01*
X794Y743D01*
X794Y733D01*
X796Y733D01*
X796Y707D01*
X794Y707D01*
X794Y699D01*
X792Y699D01*
X792Y693D01*
X790Y693D01*
X790Y687D01*
X788Y687D01*
X788Y683D01*
X786Y683D01*
X786Y681D01*
X784Y681D01*
X784Y661D01*
X786Y661D01*
X786Y657D01*
X788Y657D01*
X788Y653D01*
X790Y653D01*
X790Y649D01*
X792Y649D01*
X792Y643D01*
X794Y643D01*
X794Y633D01*
X796Y633D01*
X796Y607D01*
X794Y607D01*
X794Y599D01*
X792Y599D01*
X792Y593D01*
X790Y593D01*
X790Y587D01*
X788Y587D01*
X788Y583D01*
X786Y583D01*
X786Y581D01*
X784Y581D01*
X784Y561D01*
X786Y561D01*
X786Y557D01*
X788Y557D01*
X788Y553D01*
X790Y553D01*
X790Y549D01*
X792Y549D01*
X792Y543D01*
X794Y543D01*
X794Y533D01*
X796Y533D01*
X796Y507D01*
X794Y507D01*
X794Y499D01*
X792Y499D01*
X792Y493D01*
X790Y493D01*
X790Y487D01*
X788Y487D01*
X788Y483D01*
X786Y483D01*
X786Y481D01*
X784Y481D01*
X784Y477D01*
X782Y477D01*
X782Y399D01*
X786Y399D01*
X786Y397D01*
X792Y397D01*
X792Y395D01*
X798Y395D01*
X798Y393D01*
X802Y393D01*
X802Y391D01*
X806Y391D01*
X806Y389D01*
X810Y389D01*
X810Y387D01*
X812Y387D01*
X812Y385D01*
X816Y385D01*
X816Y383D01*
X818Y383D01*
X818Y381D01*
X820Y381D01*
X820Y379D01*
X822Y379D01*
X822Y377D01*
X824Y377D01*
X824Y375D01*
X826Y375D01*
X826Y373D01*
X828Y373D01*
X828Y371D01*
X830Y371D01*
X830Y367D01*
X832Y367D01*
X832Y365D01*
X852Y365D01*
X852Y763D01*
X792Y763D01*
G37*
D02*
G36*
X1852Y671D02*
X1852Y669D01*
X1848Y669D01*
X1848Y667D01*
X1846Y667D01*
X1846Y665D01*
X1844Y665D01*
X1844Y663D01*
X1842Y663D01*
X1842Y661D01*
X1840Y661D01*
X1840Y659D01*
X1838Y659D01*
X1838Y657D01*
X1836Y657D01*
X1836Y655D01*
X1834Y655D01*
X1834Y653D01*
X1832Y653D01*
X1832Y651D01*
X1830Y651D01*
X1830Y649D01*
X1828Y649D01*
X1828Y647D01*
X1826Y647D01*
X1826Y645D01*
X1824Y645D01*
X1824Y643D01*
X1820Y643D01*
X1820Y641D01*
X1818Y641D01*
X1818Y639D01*
X1816Y639D01*
X1816Y637D01*
X1814Y637D01*
X1814Y635D01*
X1812Y635D01*
X1812Y615D01*
X1824Y615D01*
X1824Y613D01*
X1832Y613D01*
X1832Y611D01*
X1838Y611D01*
X1838Y609D01*
X1844Y609D01*
X1844Y607D01*
X1848Y607D01*
X1848Y605D01*
X1850Y605D01*
X1850Y603D01*
X1872Y603D01*
X1872Y671D01*
X1852Y671D01*
G37*
D02*
G36*
X40Y645D02*
X40Y573D01*
X64Y573D01*
X64Y575D01*
X68Y575D01*
X68Y577D01*
X72Y577D01*
X72Y581D01*
X74Y581D01*
X74Y583D01*
X76Y583D01*
X76Y585D01*
X78Y585D01*
X78Y587D01*
X82Y587D01*
X82Y589D01*
X84Y589D01*
X84Y591D01*
X86Y591D01*
X86Y593D01*
X90Y593D01*
X90Y615D01*
X88Y615D01*
X88Y617D01*
X86Y617D01*
X86Y619D01*
X84Y619D01*
X84Y621D01*
X82Y621D01*
X82Y623D01*
X80Y623D01*
X80Y625D01*
X78Y625D01*
X78Y627D01*
X76Y627D01*
X76Y629D01*
X74Y629D01*
X74Y631D01*
X72Y631D01*
X72Y633D01*
X70Y633D01*
X70Y635D01*
X68Y635D01*
X68Y637D01*
X66Y637D01*
X66Y639D01*
X64Y639D01*
X64Y641D01*
X62Y641D01*
X62Y643D01*
X60Y643D01*
X60Y645D01*
X40Y645D01*
G37*
D02*
G36*
X1092Y563D02*
X1092Y543D01*
X1094Y543D01*
X1094Y533D01*
X1096Y533D01*
X1096Y507D01*
X1094Y507D01*
X1094Y499D01*
X1092Y499D01*
X1092Y493D01*
X1090Y493D01*
X1090Y487D01*
X1088Y487D01*
X1088Y483D01*
X1086Y483D01*
X1086Y481D01*
X1084Y481D01*
X1084Y477D01*
X1082Y477D01*
X1082Y475D01*
X1080Y475D01*
X1080Y471D01*
X1078Y471D01*
X1078Y469D01*
X1076Y469D01*
X1076Y467D01*
X1074Y467D01*
X1074Y465D01*
X1072Y465D01*
X1072Y463D01*
X1070Y463D01*
X1070Y461D01*
X1068Y461D01*
X1068Y459D01*
X1066Y459D01*
X1066Y457D01*
X1062Y457D01*
X1062Y455D01*
X1060Y455D01*
X1060Y453D01*
X1056Y453D01*
X1056Y451D01*
X1052Y451D01*
X1052Y449D01*
X1048Y449D01*
X1048Y447D01*
X1044Y447D01*
X1044Y445D01*
X1036Y445D01*
X1036Y443D01*
X1026Y443D01*
X1026Y441D01*
X1364Y441D01*
X1364Y471D01*
X1366Y471D01*
X1366Y479D01*
X1368Y479D01*
X1368Y485D01*
X1370Y485D01*
X1370Y489D01*
X1372Y489D01*
X1372Y509D01*
X1370Y509D01*
X1370Y517D01*
X1372Y517D01*
X1372Y531D01*
X1374Y531D01*
X1374Y537D01*
X1376Y537D01*
X1376Y541D01*
X1378Y541D01*
X1378Y563D01*
X1092Y563D01*
G37*
D02*
G36*
X984Y443D02*
X984Y441D01*
X1006Y441D01*
X1006Y443D01*
X984Y443D01*
G37*
D02*
G36*
X984Y441D02*
X984Y439D01*
X1366Y439D01*
X1366Y441D01*
X984Y441D01*
G37*
D02*
G36*
X984Y441D02*
X984Y439D01*
X1366Y439D01*
X1366Y441D01*
X984Y441D01*
G37*
D02*
G36*
X984Y439D02*
X984Y399D01*
X986Y399D01*
X986Y397D01*
X992Y397D01*
X992Y395D01*
X998Y395D01*
X998Y393D01*
X1002Y393D01*
X1002Y391D01*
X1006Y391D01*
X1006Y389D01*
X1010Y389D01*
X1010Y387D01*
X1012Y387D01*
X1012Y385D01*
X1016Y385D01*
X1016Y383D01*
X1018Y383D01*
X1018Y381D01*
X1020Y381D01*
X1020Y379D01*
X1022Y379D01*
X1022Y377D01*
X1024Y377D01*
X1024Y375D01*
X1026Y375D01*
X1026Y373D01*
X1442Y373D01*
X1442Y375D01*
X1428Y375D01*
X1428Y377D01*
X1422Y377D01*
X1422Y379D01*
X1416Y379D01*
X1416Y381D01*
X1412Y381D01*
X1412Y383D01*
X1408Y383D01*
X1408Y385D01*
X1404Y385D01*
X1404Y387D01*
X1402Y387D01*
X1402Y389D01*
X1398Y389D01*
X1398Y391D01*
X1396Y391D01*
X1396Y393D01*
X1394Y393D01*
X1394Y395D01*
X1392Y395D01*
X1392Y397D01*
X1390Y397D01*
X1390Y399D01*
X1388Y399D01*
X1388Y401D01*
X1386Y401D01*
X1386Y403D01*
X1384Y403D01*
X1384Y405D01*
X1382Y405D01*
X1382Y407D01*
X1380Y407D01*
X1380Y409D01*
X1378Y409D01*
X1378Y413D01*
X1376Y413D01*
X1376Y415D01*
X1374Y415D01*
X1374Y419D01*
X1372Y419D01*
X1372Y423D01*
X1370Y423D01*
X1370Y429D01*
X1368Y429D01*
X1368Y433D01*
X1366Y433D01*
X1366Y439D01*
X984Y439D01*
G37*
D02*
G36*
X630Y399D02*
X630Y397D01*
X628Y397D01*
X628Y393D01*
X626Y393D01*
X626Y391D01*
X624Y391D01*
X624Y389D01*
X622Y389D01*
X622Y387D01*
X620Y387D01*
X620Y385D01*
X616Y385D01*
X616Y383D01*
X614Y383D01*
X614Y381D01*
X612Y381D01*
X612Y379D01*
X608Y379D01*
X608Y377D01*
X606Y377D01*
X606Y375D01*
X602Y375D01*
X602Y373D01*
X596Y373D01*
X596Y371D01*
X588Y371D01*
X588Y369D01*
X650Y369D01*
X650Y399D01*
X630Y399D01*
G37*
D02*
G36*
X1512Y391D02*
X1512Y389D01*
X1510Y389D01*
X1510Y387D01*
X1506Y387D01*
X1506Y385D01*
X1504Y385D01*
X1504Y383D01*
X1500Y383D01*
X1500Y381D01*
X1496Y381D01*
X1496Y379D01*
X1490Y379D01*
X1490Y377D01*
X1482Y377D01*
X1482Y375D01*
X1470Y375D01*
X1470Y373D01*
X1574Y373D01*
X1574Y375D01*
X1564Y375D01*
X1564Y377D01*
X1558Y377D01*
X1558Y379D01*
X1552Y379D01*
X1552Y381D01*
X1548Y381D01*
X1548Y383D01*
X1544Y383D01*
X1544Y385D01*
X1542Y385D01*
X1542Y387D01*
X1538Y387D01*
X1538Y389D01*
X1536Y389D01*
X1536Y391D01*
X1512Y391D01*
G37*
D02*
G36*
X1598Y377D02*
X1598Y375D01*
X1588Y375D01*
X1588Y373D01*
X1642Y373D01*
X1642Y375D01*
X1630Y375D01*
X1630Y377D01*
X1598Y377D01*
G37*
D02*
G36*
X1706Y377D02*
X1706Y375D01*
X1694Y375D01*
X1694Y373D01*
X1748Y373D01*
X1748Y375D01*
X1738Y375D01*
X1738Y377D01*
X1706Y377D01*
G37*
D02*
G36*
X46Y373D02*
X46Y369D01*
X78Y369D01*
X78Y371D01*
X70Y371D01*
X70Y373D01*
X46Y373D01*
G37*
D02*
G36*
X136Y373D02*
X136Y371D01*
X128Y371D01*
X128Y369D01*
X174Y369D01*
X174Y371D01*
X166Y371D01*
X166Y373D01*
X136Y373D01*
G37*
D02*
G36*
X1028Y373D02*
X1028Y371D01*
X1866Y371D01*
X1866Y373D01*
X1028Y373D01*
G37*
D02*
G36*
X1028Y373D02*
X1028Y371D01*
X1866Y371D01*
X1866Y373D01*
X1028Y373D01*
G37*
D02*
G36*
X1028Y373D02*
X1028Y371D01*
X1866Y371D01*
X1866Y373D01*
X1028Y373D01*
G37*
D02*
G36*
X1028Y373D02*
X1028Y371D01*
X1866Y371D01*
X1866Y373D01*
X1028Y373D01*
G37*
D02*
G36*
X204Y371D02*
X204Y369D01*
X232Y369D01*
X232Y371D01*
X204Y371D01*
G37*
D02*
G36*
X474Y371D02*
X474Y369D01*
X498Y369D01*
X498Y371D01*
X474Y371D01*
G37*
D02*
G36*
X530Y371D02*
X530Y369D01*
X556Y369D01*
X556Y371D01*
X530Y371D01*
G37*
D02*
G36*
X1030Y371D02*
X1030Y367D01*
X1032Y367D01*
X1032Y365D01*
X1034Y365D01*
X1034Y361D01*
X1036Y361D01*
X1036Y359D01*
X1038Y359D01*
X1038Y355D01*
X1040Y355D01*
X1040Y349D01*
X1042Y349D01*
X1042Y343D01*
X1044Y343D01*
X1044Y335D01*
X1046Y335D01*
X1046Y313D01*
X1058Y313D01*
X1058Y279D01*
X1232Y279D01*
X1232Y277D01*
X1238Y277D01*
X1238Y275D01*
X1244Y275D01*
X1244Y273D01*
X1248Y273D01*
X1248Y271D01*
X1252Y271D01*
X1252Y269D01*
X1256Y269D01*
X1256Y267D01*
X1258Y267D01*
X1258Y265D01*
X1260Y265D01*
X1260Y263D01*
X1262Y263D01*
X1262Y261D01*
X1264Y261D01*
X1264Y259D01*
X1268Y259D01*
X1268Y255D01*
X1270Y255D01*
X1270Y253D01*
X1272Y253D01*
X1272Y251D01*
X1274Y251D01*
X1274Y247D01*
X1276Y247D01*
X1276Y245D01*
X1278Y245D01*
X1278Y241D01*
X1280Y241D01*
X1280Y237D01*
X1282Y237D01*
X1282Y231D01*
X1284Y231D01*
X1284Y223D01*
X1286Y223D01*
X1286Y189D01*
X1284Y189D01*
X1284Y181D01*
X1282Y181D01*
X1282Y175D01*
X1280Y175D01*
X1280Y171D01*
X1278Y171D01*
X1278Y169D01*
X1276Y169D01*
X1276Y165D01*
X1274Y165D01*
X1274Y163D01*
X1272Y163D01*
X1272Y159D01*
X1270Y159D01*
X1270Y157D01*
X1268Y157D01*
X1268Y155D01*
X1266Y155D01*
X1266Y153D01*
X1264Y153D01*
X1264Y151D01*
X1262Y151D01*
X1262Y149D01*
X1260Y149D01*
X1260Y147D01*
X1258Y147D01*
X1258Y145D01*
X1254Y145D01*
X1254Y143D01*
X1250Y143D01*
X1250Y141D01*
X1248Y141D01*
X1248Y139D01*
X1242Y139D01*
X1242Y137D01*
X1238Y137D01*
X1238Y135D01*
X1230Y135D01*
X1230Y133D01*
X1734Y133D01*
X1734Y135D01*
X1738Y135D01*
X1738Y137D01*
X1740Y137D01*
X1740Y139D01*
X1742Y139D01*
X1742Y141D01*
X1744Y141D01*
X1744Y143D01*
X1746Y143D01*
X1746Y145D01*
X1748Y145D01*
X1748Y147D01*
X1750Y147D01*
X1750Y149D01*
X1752Y149D01*
X1752Y151D01*
X1754Y151D01*
X1754Y153D01*
X1758Y153D01*
X1758Y155D01*
X1760Y155D01*
X1760Y159D01*
X1762Y159D01*
X1762Y161D01*
X1764Y161D01*
X1764Y163D01*
X1766Y163D01*
X1766Y165D01*
X1768Y165D01*
X1768Y167D01*
X1770Y167D01*
X1770Y169D01*
X1772Y169D01*
X1772Y171D01*
X1774Y171D01*
X1774Y173D01*
X1776Y173D01*
X1776Y175D01*
X1778Y175D01*
X1778Y177D01*
X1780Y177D01*
X1780Y179D01*
X1782Y179D01*
X1782Y183D01*
X1784Y183D01*
X1784Y185D01*
X1786Y185D01*
X1786Y187D01*
X1788Y187D01*
X1788Y189D01*
X1790Y189D01*
X1790Y193D01*
X1792Y193D01*
X1792Y195D01*
X1794Y195D01*
X1794Y197D01*
X1796Y197D01*
X1796Y201D01*
X1798Y201D01*
X1798Y203D01*
X1800Y203D01*
X1800Y205D01*
X1802Y205D01*
X1802Y209D01*
X1804Y209D01*
X1804Y211D01*
X1806Y211D01*
X1806Y215D01*
X1808Y215D01*
X1808Y217D01*
X1810Y217D01*
X1810Y221D01*
X1812Y221D01*
X1812Y223D01*
X1814Y223D01*
X1814Y227D01*
X1816Y227D01*
X1816Y229D01*
X1818Y229D01*
X1818Y233D01*
X1820Y233D01*
X1820Y237D01*
X1822Y237D01*
X1822Y241D01*
X1824Y241D01*
X1824Y243D01*
X1826Y243D01*
X1826Y247D01*
X1828Y247D01*
X1828Y251D01*
X1830Y251D01*
X1830Y255D01*
X1832Y255D01*
X1832Y259D01*
X1834Y259D01*
X1834Y263D01*
X1836Y263D01*
X1836Y267D01*
X1838Y267D01*
X1838Y271D01*
X1840Y271D01*
X1840Y275D01*
X1842Y275D01*
X1842Y281D01*
X1844Y281D01*
X1844Y285D01*
X1846Y285D01*
X1846Y291D01*
X1848Y291D01*
X1848Y295D01*
X1850Y295D01*
X1850Y301D01*
X1852Y301D01*
X1852Y307D01*
X1854Y307D01*
X1854Y313D01*
X1856Y313D01*
X1856Y319D01*
X1858Y319D01*
X1858Y327D01*
X1860Y327D01*
X1860Y333D01*
X1862Y333D01*
X1862Y343D01*
X1864Y343D01*
X1864Y351D01*
X1866Y351D01*
X1866Y371D01*
X1030Y371D01*
G37*
D02*
G36*
X46Y369D02*
X46Y367D01*
X248Y367D01*
X248Y369D01*
X46Y369D01*
G37*
D02*
G36*
X46Y369D02*
X46Y367D01*
X248Y367D01*
X248Y369D01*
X46Y369D01*
G37*
D02*
G36*
X46Y369D02*
X46Y367D01*
X248Y367D01*
X248Y369D01*
X46Y369D01*
G37*
D02*
G36*
X408Y369D02*
X408Y367D01*
X650Y367D01*
X650Y369D01*
X408Y369D01*
G37*
D02*
G36*
X408Y369D02*
X408Y367D01*
X650Y367D01*
X650Y369D01*
X408Y369D01*
G37*
D02*
G36*
X408Y369D02*
X408Y367D01*
X650Y367D01*
X650Y369D01*
X408Y369D01*
G37*
D02*
G36*
X46Y367D02*
X46Y357D01*
X48Y357D01*
X48Y349D01*
X50Y349D01*
X50Y339D01*
X52Y339D01*
X52Y337D01*
X300Y337D01*
X300Y339D01*
X292Y339D01*
X292Y341D01*
X286Y341D01*
X286Y343D01*
X282Y343D01*
X282Y345D01*
X278Y345D01*
X278Y347D01*
X274Y347D01*
X274Y349D01*
X272Y349D01*
X272Y351D01*
X268Y351D01*
X268Y353D01*
X266Y353D01*
X266Y355D01*
X262Y355D01*
X262Y357D01*
X260Y357D01*
X260Y359D01*
X258Y359D01*
X258Y361D01*
X256Y361D01*
X256Y363D01*
X254Y363D01*
X254Y365D01*
X252Y365D01*
X252Y367D01*
X46Y367D01*
G37*
D02*
G36*
X406Y367D02*
X406Y365D01*
X404Y365D01*
X404Y361D01*
X402Y361D01*
X402Y359D01*
X400Y359D01*
X400Y357D01*
X398Y357D01*
X398Y355D01*
X396Y355D01*
X396Y353D01*
X394Y353D01*
X394Y351D01*
X390Y351D01*
X390Y349D01*
X388Y349D01*
X388Y347D01*
X384Y347D01*
X384Y345D01*
X380Y345D01*
X380Y343D01*
X376Y343D01*
X376Y341D01*
X372Y341D01*
X372Y339D01*
X364Y339D01*
X364Y337D01*
X658Y337D01*
X658Y341D01*
X656Y341D01*
X656Y347D01*
X654Y347D01*
X654Y353D01*
X652Y353D01*
X652Y363D01*
X650Y363D01*
X650Y367D01*
X406Y367D01*
G37*
D02*
G36*
X52Y337D02*
X52Y335D01*
X660Y335D01*
X660Y337D01*
X52Y337D01*
G37*
D02*
G36*
X52Y337D02*
X52Y335D01*
X660Y335D01*
X660Y337D01*
X52Y337D01*
G37*
D02*
G36*
X52Y335D02*
X52Y331D01*
X54Y331D01*
X54Y325D01*
X56Y325D01*
X56Y317D01*
X58Y317D01*
X58Y311D01*
X60Y311D01*
X60Y309D01*
X580Y309D01*
X580Y307D01*
X586Y307D01*
X586Y305D01*
X592Y305D01*
X592Y303D01*
X596Y303D01*
X596Y301D01*
X600Y301D01*
X600Y299D01*
X604Y299D01*
X604Y297D01*
X606Y297D01*
X606Y295D01*
X608Y295D01*
X608Y293D01*
X610Y293D01*
X610Y291D01*
X614Y291D01*
X614Y289D01*
X616Y289D01*
X616Y285D01*
X618Y285D01*
X618Y283D01*
X620Y283D01*
X620Y281D01*
X622Y281D01*
X622Y279D01*
X624Y279D01*
X624Y275D01*
X626Y275D01*
X626Y273D01*
X628Y273D01*
X628Y271D01*
X630Y271D01*
X630Y269D01*
X634Y269D01*
X634Y267D01*
X636Y267D01*
X636Y265D01*
X638Y265D01*
X638Y263D01*
X640Y263D01*
X640Y261D01*
X644Y261D01*
X644Y259D01*
X646Y259D01*
X646Y257D01*
X648Y257D01*
X648Y253D01*
X650Y253D01*
X650Y251D01*
X652Y251D01*
X652Y247D01*
X654Y247D01*
X654Y245D01*
X656Y245D01*
X656Y241D01*
X658Y241D01*
X658Y237D01*
X660Y237D01*
X660Y231D01*
X680Y231D01*
X680Y243D01*
X682Y243D01*
X682Y249D01*
X684Y249D01*
X684Y255D01*
X686Y255D01*
X686Y259D01*
X688Y259D01*
X688Y263D01*
X690Y263D01*
X690Y267D01*
X692Y267D01*
X692Y271D01*
X694Y271D01*
X694Y291D01*
X692Y291D01*
X692Y295D01*
X690Y295D01*
X690Y303D01*
X688Y303D01*
X688Y307D01*
X686Y307D01*
X686Y309D01*
X684Y309D01*
X684Y311D01*
X682Y311D01*
X682Y313D01*
X680Y313D01*
X680Y315D01*
X678Y315D01*
X678Y317D01*
X676Y317D01*
X676Y319D01*
X674Y319D01*
X674Y321D01*
X672Y321D01*
X672Y323D01*
X670Y323D01*
X670Y325D01*
X668Y325D01*
X668Y327D01*
X666Y327D01*
X666Y329D01*
X664Y329D01*
X664Y331D01*
X662Y331D01*
X662Y335D01*
X52Y335D01*
G37*
D02*
G36*
X60Y309D02*
X60Y305D01*
X62Y305D01*
X62Y299D01*
X64Y299D01*
X64Y295D01*
X66Y295D01*
X66Y289D01*
X68Y289D01*
X68Y285D01*
X70Y285D01*
X70Y279D01*
X72Y279D01*
X72Y275D01*
X74Y275D01*
X74Y271D01*
X76Y271D01*
X76Y265D01*
X78Y265D01*
X78Y261D01*
X80Y261D01*
X80Y257D01*
X82Y257D01*
X82Y253D01*
X84Y253D01*
X84Y249D01*
X86Y249D01*
X86Y247D01*
X88Y247D01*
X88Y243D01*
X90Y243D01*
X90Y239D01*
X92Y239D01*
X92Y235D01*
X94Y235D01*
X94Y233D01*
X96Y233D01*
X96Y229D01*
X98Y229D01*
X98Y225D01*
X100Y225D01*
X100Y223D01*
X102Y223D01*
X102Y219D01*
X104Y219D01*
X104Y217D01*
X106Y217D01*
X106Y213D01*
X108Y213D01*
X108Y211D01*
X110Y211D01*
X110Y207D01*
X112Y207D01*
X112Y205D01*
X114Y205D01*
X114Y201D01*
X116Y201D01*
X116Y199D01*
X118Y199D01*
X118Y197D01*
X120Y197D01*
X120Y193D01*
X122Y193D01*
X122Y191D01*
X124Y191D01*
X124Y189D01*
X126Y189D01*
X126Y187D01*
X128Y187D01*
X128Y183D01*
X130Y183D01*
X130Y181D01*
X132Y181D01*
X132Y179D01*
X134Y179D01*
X134Y177D01*
X136Y177D01*
X136Y175D01*
X138Y175D01*
X138Y173D01*
X140Y173D01*
X140Y171D01*
X142Y171D01*
X142Y167D01*
X144Y167D01*
X144Y165D01*
X146Y165D01*
X146Y163D01*
X148Y163D01*
X148Y161D01*
X150Y161D01*
X150Y159D01*
X152Y159D01*
X152Y157D01*
X154Y157D01*
X154Y155D01*
X156Y155D01*
X156Y153D01*
X158Y153D01*
X158Y151D01*
X160Y151D01*
X160Y149D01*
X162Y149D01*
X162Y147D01*
X164Y147D01*
X164Y145D01*
X166Y145D01*
X166Y143D01*
X170Y143D01*
X170Y141D01*
X172Y141D01*
X172Y139D01*
X174Y139D01*
X174Y137D01*
X176Y137D01*
X176Y135D01*
X178Y135D01*
X178Y133D01*
X180Y133D01*
X180Y131D01*
X184Y131D01*
X184Y129D01*
X186Y129D01*
X186Y127D01*
X188Y127D01*
X188Y125D01*
X190Y125D01*
X190Y123D01*
X194Y123D01*
X194Y121D01*
X196Y121D01*
X196Y119D01*
X198Y119D01*
X198Y117D01*
X202Y117D01*
X202Y115D01*
X204Y115D01*
X204Y113D01*
X208Y113D01*
X208Y111D01*
X210Y111D01*
X210Y109D01*
X556Y109D01*
X556Y111D01*
X546Y111D01*
X546Y113D01*
X540Y113D01*
X540Y115D01*
X536Y115D01*
X536Y117D01*
X532Y117D01*
X532Y119D01*
X528Y119D01*
X528Y121D01*
X524Y121D01*
X524Y123D01*
X522Y123D01*
X522Y125D01*
X520Y125D01*
X520Y127D01*
X518Y127D01*
X518Y129D01*
X516Y129D01*
X516Y131D01*
X514Y131D01*
X514Y133D01*
X512Y133D01*
X512Y135D01*
X510Y135D01*
X510Y137D01*
X508Y137D01*
X508Y139D01*
X506Y139D01*
X506Y143D01*
X504Y143D01*
X504Y147D01*
X502Y147D01*
X502Y149D01*
X498Y149D01*
X498Y151D01*
X496Y151D01*
X496Y153D01*
X492Y153D01*
X492Y155D01*
X490Y155D01*
X490Y157D01*
X488Y157D01*
X488Y159D01*
X486Y159D01*
X486Y161D01*
X484Y161D01*
X484Y163D01*
X482Y163D01*
X482Y165D01*
X480Y165D01*
X480Y167D01*
X478Y167D01*
X478Y169D01*
X476Y169D01*
X476Y173D01*
X474Y173D01*
X474Y177D01*
X472Y177D01*
X472Y181D01*
X470Y181D01*
X470Y185D01*
X468Y185D01*
X468Y191D01*
X466Y191D01*
X466Y203D01*
X464Y203D01*
X464Y215D01*
X466Y215D01*
X466Y227D01*
X468Y227D01*
X468Y233D01*
X470Y233D01*
X470Y239D01*
X472Y239D01*
X472Y243D01*
X474Y243D01*
X474Y245D01*
X476Y245D01*
X476Y249D01*
X478Y249D01*
X478Y251D01*
X480Y251D01*
X480Y255D01*
X482Y255D01*
X482Y257D01*
X484Y257D01*
X484Y259D01*
X486Y259D01*
X486Y261D01*
X488Y261D01*
X488Y263D01*
X492Y263D01*
X492Y265D01*
X494Y265D01*
X494Y267D01*
X496Y267D01*
X496Y269D01*
X500Y269D01*
X500Y271D01*
X502Y271D01*
X502Y273D01*
X504Y273D01*
X504Y275D01*
X506Y275D01*
X506Y279D01*
X508Y279D01*
X508Y281D01*
X510Y281D01*
X510Y285D01*
X512Y285D01*
X512Y287D01*
X514Y287D01*
X514Y289D01*
X516Y289D01*
X516Y291D01*
X518Y291D01*
X518Y293D01*
X522Y293D01*
X522Y295D01*
X524Y295D01*
X524Y297D01*
X526Y297D01*
X526Y299D01*
X530Y299D01*
X530Y301D01*
X534Y301D01*
X534Y303D01*
X538Y303D01*
X538Y305D01*
X544Y305D01*
X544Y307D01*
X550Y307D01*
X550Y309D01*
X60Y309D01*
G37*
D02*
G36*
X1058Y279D02*
X1058Y133D01*
X1144Y133D01*
X1144Y135D01*
X1136Y135D01*
X1136Y137D01*
X1130Y137D01*
X1130Y139D01*
X1126Y139D01*
X1126Y141D01*
X1122Y141D01*
X1122Y143D01*
X1118Y143D01*
X1118Y145D01*
X1116Y145D01*
X1116Y147D01*
X1114Y147D01*
X1114Y149D01*
X1112Y149D01*
X1112Y151D01*
X1108Y151D01*
X1108Y153D01*
X1106Y153D01*
X1106Y155D01*
X1104Y155D01*
X1104Y159D01*
X1102Y159D01*
X1102Y161D01*
X1100Y161D01*
X1100Y163D01*
X1098Y163D01*
X1098Y167D01*
X1096Y167D01*
X1096Y169D01*
X1094Y169D01*
X1094Y173D01*
X1092Y173D01*
X1092Y179D01*
X1090Y179D01*
X1090Y185D01*
X1088Y185D01*
X1088Y195D01*
X1086Y195D01*
X1086Y219D01*
X1088Y219D01*
X1088Y229D01*
X1090Y229D01*
X1090Y235D01*
X1092Y235D01*
X1092Y239D01*
X1094Y239D01*
X1094Y243D01*
X1096Y243D01*
X1096Y247D01*
X1098Y247D01*
X1098Y249D01*
X1100Y249D01*
X1100Y253D01*
X1102Y253D01*
X1102Y255D01*
X1104Y255D01*
X1104Y257D01*
X1106Y257D01*
X1106Y259D01*
X1108Y259D01*
X1108Y261D01*
X1110Y261D01*
X1110Y263D01*
X1112Y263D01*
X1112Y265D01*
X1116Y265D01*
X1116Y267D01*
X1118Y267D01*
X1118Y269D01*
X1122Y269D01*
X1122Y271D01*
X1124Y271D01*
X1124Y273D01*
X1128Y273D01*
X1128Y275D01*
X1134Y275D01*
X1134Y277D01*
X1140Y277D01*
X1140Y279D01*
X1058Y279D01*
G37*
D02*
G36*
X662Y195D02*
X662Y187D01*
X660Y187D01*
X660Y181D01*
X658Y181D01*
X658Y177D01*
X656Y177D01*
X656Y175D01*
X654Y175D01*
X654Y171D01*
X652Y171D01*
X652Y169D01*
X650Y169D01*
X650Y165D01*
X648Y165D01*
X648Y163D01*
X646Y163D01*
X646Y161D01*
X644Y161D01*
X644Y159D01*
X642Y159D01*
X642Y157D01*
X640Y157D01*
X640Y155D01*
X638Y155D01*
X638Y153D01*
X634Y153D01*
X634Y151D01*
X632Y151D01*
X632Y149D01*
X628Y149D01*
X628Y147D01*
X626Y147D01*
X626Y143D01*
X624Y143D01*
X624Y141D01*
X622Y141D01*
X622Y137D01*
X620Y137D01*
X620Y135D01*
X618Y135D01*
X618Y133D01*
X616Y133D01*
X616Y131D01*
X614Y131D01*
X614Y129D01*
X760Y129D01*
X760Y131D01*
X748Y131D01*
X748Y133D01*
X742Y133D01*
X742Y135D01*
X736Y135D01*
X736Y137D01*
X732Y137D01*
X732Y139D01*
X726Y139D01*
X726Y141D01*
X724Y141D01*
X724Y143D01*
X720Y143D01*
X720Y145D01*
X718Y145D01*
X718Y147D01*
X714Y147D01*
X714Y149D01*
X712Y149D01*
X712Y151D01*
X710Y151D01*
X710Y153D01*
X708Y153D01*
X708Y155D01*
X706Y155D01*
X706Y157D01*
X704Y157D01*
X704Y159D01*
X702Y159D01*
X702Y161D01*
X700Y161D01*
X700Y163D01*
X698Y163D01*
X698Y165D01*
X696Y165D01*
X696Y169D01*
X694Y169D01*
X694Y171D01*
X692Y171D01*
X692Y175D01*
X690Y175D01*
X690Y177D01*
X688Y177D01*
X688Y183D01*
X686Y183D01*
X686Y187D01*
X684Y187D01*
X684Y193D01*
X682Y193D01*
X682Y195D01*
X662Y195D01*
G37*
D02*
G36*
X856Y193D02*
X856Y187D01*
X854Y187D01*
X854Y183D01*
X852Y183D01*
X852Y179D01*
X850Y179D01*
X850Y175D01*
X848Y175D01*
X848Y171D01*
X846Y171D01*
X846Y169D01*
X844Y169D01*
X844Y167D01*
X842Y167D01*
X842Y163D01*
X840Y163D01*
X840Y161D01*
X838Y161D01*
X838Y159D01*
X836Y159D01*
X836Y157D01*
X834Y157D01*
X834Y155D01*
X832Y155D01*
X832Y153D01*
X830Y153D01*
X830Y151D01*
X828Y151D01*
X828Y149D01*
X826Y149D01*
X826Y147D01*
X822Y147D01*
X822Y145D01*
X820Y145D01*
X820Y143D01*
X816Y143D01*
X816Y141D01*
X812Y141D01*
X812Y139D01*
X808Y139D01*
X808Y137D01*
X804Y137D01*
X804Y135D01*
X798Y135D01*
X798Y133D01*
X792Y133D01*
X792Y131D01*
X780Y131D01*
X780Y129D01*
X876Y129D01*
X876Y193D01*
X856Y193D01*
G37*
D02*
G36*
X1058Y133D02*
X1058Y131D01*
X1732Y131D01*
X1732Y133D01*
X1058Y133D01*
G37*
D02*
G36*
X1058Y133D02*
X1058Y131D01*
X1732Y131D01*
X1732Y133D01*
X1058Y133D01*
G37*
D02*
G36*
X1058Y131D02*
X1058Y129D01*
X1730Y129D01*
X1730Y131D01*
X1058Y131D01*
G37*
D02*
G36*
X612Y129D02*
X612Y127D01*
X1728Y127D01*
X1728Y129D01*
X612Y129D01*
G37*
D02*
G36*
X612Y129D02*
X612Y127D01*
X1728Y127D01*
X1728Y129D01*
X612Y129D01*
G37*
D02*
G36*
X612Y129D02*
X612Y127D01*
X1728Y127D01*
X1728Y129D01*
X612Y129D01*
G37*
D02*
G36*
X610Y127D02*
X610Y125D01*
X608Y125D01*
X608Y123D01*
X604Y123D01*
X604Y121D01*
X602Y121D01*
X602Y119D01*
X598Y119D01*
X598Y117D01*
X594Y117D01*
X594Y115D01*
X590Y115D01*
X590Y113D01*
X584Y113D01*
X584Y111D01*
X574Y111D01*
X574Y109D01*
X1704Y109D01*
X1704Y111D01*
X1706Y111D01*
X1706Y113D01*
X1710Y113D01*
X1710Y115D01*
X1712Y115D01*
X1712Y117D01*
X1714Y117D01*
X1714Y119D01*
X1718Y119D01*
X1718Y121D01*
X1720Y121D01*
X1720Y123D01*
X1722Y123D01*
X1722Y125D01*
X1726Y125D01*
X1726Y127D01*
X610Y127D01*
G37*
D02*
G36*
X212Y109D02*
X212Y107D01*
X1700Y107D01*
X1700Y109D01*
X212Y109D01*
G37*
D02*
G36*
X212Y109D02*
X212Y107D01*
X1700Y107D01*
X1700Y109D01*
X212Y109D01*
G37*
D02*
G36*
X216Y107D02*
X216Y105D01*
X218Y105D01*
X218Y103D01*
X222Y103D01*
X222Y101D01*
X226Y101D01*
X226Y99D01*
X228Y99D01*
X228Y97D01*
X232Y97D01*
X232Y95D01*
X236Y95D01*
X236Y93D01*
X238Y93D01*
X238Y91D01*
X242Y91D01*
X242Y89D01*
X246Y89D01*
X246Y87D01*
X250Y87D01*
X250Y85D01*
X254Y85D01*
X254Y83D01*
X258Y83D01*
X258Y81D01*
X262Y81D01*
X262Y79D01*
X266Y79D01*
X266Y77D01*
X270Y77D01*
X270Y75D01*
X274Y75D01*
X274Y73D01*
X280Y73D01*
X280Y71D01*
X284Y71D01*
X284Y69D01*
X290Y69D01*
X290Y67D01*
X294Y67D01*
X294Y65D01*
X300Y65D01*
X300Y63D01*
X306Y63D01*
X306Y61D01*
X312Y61D01*
X312Y59D01*
X318Y59D01*
X318Y57D01*
X324Y57D01*
X324Y55D01*
X332Y55D01*
X332Y53D01*
X340Y53D01*
X340Y51D01*
X348Y51D01*
X348Y49D01*
X358Y49D01*
X358Y47D01*
X368Y47D01*
X368Y45D01*
X382Y45D01*
X382Y43D01*
X400Y43D01*
X400Y41D01*
X1514Y41D01*
X1514Y43D01*
X1532Y43D01*
X1532Y45D01*
X1544Y45D01*
X1544Y47D01*
X1556Y47D01*
X1556Y49D01*
X1566Y49D01*
X1566Y51D01*
X1574Y51D01*
X1574Y53D01*
X1582Y53D01*
X1582Y55D01*
X1588Y55D01*
X1588Y57D01*
X1596Y57D01*
X1596Y59D01*
X1602Y59D01*
X1602Y61D01*
X1608Y61D01*
X1608Y63D01*
X1614Y63D01*
X1614Y65D01*
X1620Y65D01*
X1620Y67D01*
X1624Y67D01*
X1624Y69D01*
X1630Y69D01*
X1630Y71D01*
X1634Y71D01*
X1634Y73D01*
X1638Y73D01*
X1638Y75D01*
X1644Y75D01*
X1644Y77D01*
X1648Y77D01*
X1648Y79D01*
X1652Y79D01*
X1652Y81D01*
X1656Y81D01*
X1656Y83D01*
X1660Y83D01*
X1660Y85D01*
X1664Y85D01*
X1664Y87D01*
X1668Y87D01*
X1668Y89D01*
X1672Y89D01*
X1672Y91D01*
X1674Y91D01*
X1674Y93D01*
X1678Y93D01*
X1678Y95D01*
X1682Y95D01*
X1682Y97D01*
X1686Y97D01*
X1686Y99D01*
X1688Y99D01*
X1688Y101D01*
X1692Y101D01*
X1692Y103D01*
X1694Y103D01*
X1694Y105D01*
X1698Y105D01*
X1698Y107D01*
X216Y107D01*
G37*
D02*
G36*
X846Y331D02*
X846Y307D01*
X844Y307D01*
X844Y299D01*
X842Y299D01*
X842Y275D01*
X844Y275D01*
X844Y273D01*
X846Y273D01*
X846Y269D01*
X848Y269D01*
X848Y267D01*
X850Y267D01*
X850Y263D01*
X852Y263D01*
X852Y259D01*
X854Y259D01*
X854Y253D01*
X856Y253D01*
X856Y249D01*
X876Y249D01*
X876Y319D01*
X874Y319D01*
X874Y321D01*
X872Y321D01*
X872Y323D01*
X870Y323D01*
X870Y327D01*
X868Y327D01*
X868Y329D01*
X866Y329D01*
X866Y331D01*
X846Y331D01*
G37*
D02*
G54D20*
X432Y554D02*
X445Y554D01*
X430Y553D02*
X446Y553D01*
X429Y552D02*
X447Y552D01*
X1541Y552D02*
X1568Y552D01*
X1810Y552D02*
X1816Y552D01*
X428Y551D02*
X448Y551D01*
X1539Y551D02*
X1571Y551D01*
X1808Y551D02*
X1817Y551D01*
X428Y550D02*
X448Y550D01*
X1538Y550D02*
X1573Y550D01*
X1807Y550D02*
X1818Y550D01*
X428Y549D02*
X449Y549D01*
X1538Y549D02*
X1575Y549D01*
X1807Y549D02*
X1819Y549D01*
X246Y548D02*
X250Y548D01*
X427Y548D02*
X449Y548D01*
X524Y548D02*
X579Y548D01*
X1537Y548D02*
X1576Y548D01*
X1806Y548D02*
X1819Y548D01*
X244Y547D02*
X252Y547D01*
X427Y547D02*
X449Y547D01*
X520Y547D02*
X579Y547D01*
X1537Y547D02*
X1577Y547D01*
X1806Y547D02*
X1819Y547D01*
X243Y546D02*
X253Y546D01*
X427Y546D02*
X449Y546D01*
X518Y546D02*
X579Y546D01*
X1474Y546D02*
X1479Y546D01*
X1537Y546D02*
X1579Y546D01*
X1806Y546D02*
X1820Y546D01*
X242Y545D02*
X254Y545D01*
X427Y545D02*
X449Y545D01*
X516Y545D02*
X579Y545D01*
X1473Y545D02*
X1481Y545D01*
X1537Y545D02*
X1580Y545D01*
X1806Y545D02*
X1820Y545D01*
X241Y544D02*
X254Y544D01*
X427Y544D02*
X449Y544D01*
X515Y544D02*
X579Y544D01*
X1472Y544D02*
X1482Y544D01*
X1537Y544D02*
X1581Y544D01*
X1806Y544D02*
X1820Y544D01*
X241Y543D02*
X254Y543D01*
X427Y543D02*
X449Y543D01*
X514Y543D02*
X579Y543D01*
X1471Y543D02*
X1483Y543D01*
X1537Y543D02*
X1581Y543D01*
X1806Y543D02*
X1820Y543D01*
X124Y542D02*
X126Y542D01*
X241Y542D02*
X255Y542D01*
X427Y542D02*
X449Y542D01*
X513Y542D02*
X579Y542D01*
X1470Y542D02*
X1483Y542D01*
X1537Y542D02*
X1582Y542D01*
X1806Y542D02*
X1820Y542D01*
X121Y541D02*
X128Y541D01*
X241Y541D02*
X255Y541D01*
X427Y541D02*
X449Y541D01*
X512Y541D02*
X579Y541D01*
X1470Y541D02*
X1484Y541D01*
X1538Y541D02*
X1583Y541D01*
X1806Y541D02*
X1820Y541D01*
X120Y540D02*
X130Y540D01*
X241Y540D02*
X255Y540D01*
X427Y540D02*
X449Y540D01*
X511Y540D02*
X579Y540D01*
X1470Y540D02*
X1484Y540D01*
X1539Y540D02*
X1584Y540D01*
X1806Y540D02*
X1820Y540D01*
X119Y539D02*
X130Y539D01*
X241Y539D02*
X255Y539D01*
X428Y539D02*
X449Y539D01*
X510Y539D02*
X579Y539D01*
X1470Y539D02*
X1484Y539D01*
X1540Y539D02*
X1584Y539D01*
X1806Y539D02*
X1820Y539D01*
X119Y538D02*
X131Y538D01*
X241Y538D02*
X255Y538D01*
X428Y538D02*
X448Y538D01*
X509Y538D02*
X579Y538D01*
X1470Y538D02*
X1484Y538D01*
X1544Y538D02*
X1585Y538D01*
X1806Y538D02*
X1820Y538D01*
X118Y537D02*
X131Y537D01*
X241Y537D02*
X255Y537D01*
X428Y537D02*
X448Y537D01*
X509Y537D02*
X579Y537D01*
X1470Y537D02*
X1484Y537D01*
X1566Y537D02*
X1585Y537D01*
X1806Y537D02*
X1820Y537D01*
X118Y536D02*
X132Y536D01*
X241Y536D02*
X255Y536D01*
X429Y536D02*
X447Y536D01*
X508Y536D02*
X579Y536D01*
X1470Y536D02*
X1484Y536D01*
X1568Y536D02*
X1586Y536D01*
X1806Y536D02*
X1820Y536D01*
X118Y535D02*
X132Y535D01*
X241Y535D02*
X255Y535D01*
X430Y535D02*
X446Y535D01*
X508Y535D02*
X579Y535D01*
X1470Y535D02*
X1484Y535D01*
X1570Y535D02*
X1586Y535D01*
X1806Y535D02*
X1820Y535D01*
X118Y534D02*
X132Y534D01*
X241Y534D02*
X255Y534D01*
X432Y534D02*
X444Y534D01*
X507Y534D02*
X579Y534D01*
X1470Y534D02*
X1484Y534D01*
X1571Y534D02*
X1586Y534D01*
X1806Y534D02*
X1820Y534D01*
X118Y533D02*
X132Y533D01*
X241Y533D02*
X255Y533D01*
X507Y533D02*
X525Y533D01*
X565Y533D02*
X579Y533D01*
X1470Y533D02*
X1484Y533D01*
X1571Y533D02*
X1587Y533D01*
X1806Y533D02*
X1820Y533D01*
X118Y532D02*
X132Y532D01*
X241Y532D02*
X255Y532D01*
X507Y532D02*
X523Y532D01*
X565Y532D02*
X579Y532D01*
X1470Y532D02*
X1484Y532D01*
X1572Y532D02*
X1587Y532D01*
X1806Y532D02*
X1820Y532D01*
X118Y531D02*
X132Y531D01*
X241Y531D02*
X255Y531D01*
X506Y531D02*
X522Y531D01*
X565Y531D02*
X579Y531D01*
X1470Y531D02*
X1484Y531D01*
X1572Y531D02*
X1587Y531D01*
X1806Y531D02*
X1820Y531D01*
X118Y530D02*
X132Y530D01*
X241Y530D02*
X255Y530D01*
X506Y530D02*
X521Y530D01*
X565Y530D02*
X579Y530D01*
X1470Y530D02*
X1484Y530D01*
X1573Y530D02*
X1587Y530D01*
X1806Y530D02*
X1820Y530D01*
X118Y529D02*
X132Y529D01*
X241Y529D02*
X255Y529D01*
X506Y529D02*
X521Y529D01*
X565Y529D02*
X579Y529D01*
X1470Y529D02*
X1484Y529D01*
X1573Y529D02*
X1587Y529D01*
X1806Y529D02*
X1820Y529D01*
X118Y528D02*
X132Y528D01*
X241Y528D02*
X255Y528D01*
X506Y528D02*
X520Y528D01*
X565Y528D02*
X579Y528D01*
X1470Y528D02*
X1484Y528D01*
X1573Y528D02*
X1587Y528D01*
X1806Y528D02*
X1820Y528D01*
X118Y527D02*
X132Y527D01*
X241Y527D02*
X255Y527D01*
X506Y527D02*
X520Y527D01*
X565Y527D02*
X579Y527D01*
X1470Y527D02*
X1484Y527D01*
X1573Y527D02*
X1587Y527D01*
X1806Y527D02*
X1820Y527D01*
X118Y526D02*
X132Y526D01*
X241Y526D02*
X255Y526D01*
X506Y526D02*
X520Y526D01*
X565Y526D02*
X579Y526D01*
X1470Y526D02*
X1484Y526D01*
X1573Y526D02*
X1587Y526D01*
X1806Y526D02*
X1820Y526D01*
X118Y525D02*
X132Y525D01*
X241Y525D02*
X255Y525D01*
X506Y525D02*
X520Y525D01*
X565Y525D02*
X579Y525D01*
X1470Y525D02*
X1484Y525D01*
X1573Y525D02*
X1587Y525D01*
X1806Y525D02*
X1820Y525D01*
X118Y524D02*
X132Y524D01*
X241Y524D02*
X255Y524D01*
X506Y524D02*
X520Y524D01*
X565Y524D02*
X579Y524D01*
X1470Y524D02*
X1484Y524D01*
X1573Y524D02*
X1587Y524D01*
X1806Y524D02*
X1820Y524D01*
X118Y523D02*
X132Y523D01*
X241Y523D02*
X255Y523D01*
X506Y523D02*
X520Y523D01*
X565Y523D02*
X579Y523D01*
X1470Y523D02*
X1484Y523D01*
X1573Y523D02*
X1587Y523D01*
X1806Y523D02*
X1820Y523D01*
X118Y522D02*
X132Y522D01*
X241Y522D02*
X255Y522D01*
X506Y522D02*
X520Y522D01*
X565Y522D02*
X579Y522D01*
X1470Y522D02*
X1484Y522D01*
X1573Y522D02*
X1587Y522D01*
X1806Y522D02*
X1820Y522D01*
X118Y521D02*
X132Y521D01*
X241Y521D02*
X255Y521D01*
X506Y521D02*
X520Y521D01*
X565Y521D02*
X579Y521D01*
X1438Y521D02*
X1494Y521D01*
X1556Y521D02*
X1597Y521D01*
X1663Y521D02*
X1690Y521D01*
X1806Y521D02*
X1820Y521D01*
X118Y520D02*
X132Y520D01*
X241Y520D02*
X255Y520D01*
X506Y520D02*
X520Y520D01*
X565Y520D02*
X579Y520D01*
X1436Y520D02*
X1495Y520D01*
X1554Y520D02*
X1599Y520D01*
X1659Y520D02*
X1693Y520D01*
X1806Y520D02*
X1820Y520D01*
X118Y519D02*
X132Y519D01*
X241Y519D02*
X255Y519D01*
X506Y519D02*
X520Y519D01*
X565Y519D02*
X579Y519D01*
X1435Y519D02*
X1497Y519D01*
X1553Y519D02*
X1600Y519D01*
X1657Y519D02*
X1695Y519D01*
X1806Y519D02*
X1820Y519D01*
X118Y518D02*
X132Y518D01*
X241Y518D02*
X255Y518D01*
X506Y518D02*
X520Y518D01*
X565Y518D02*
X579Y518D01*
X1434Y518D02*
X1497Y518D01*
X1552Y518D02*
X1601Y518D01*
X1656Y518D02*
X1697Y518D01*
X1806Y518D02*
X1820Y518D01*
X118Y517D02*
X132Y517D01*
X241Y517D02*
X255Y517D01*
X506Y517D02*
X520Y517D01*
X565Y517D02*
X579Y517D01*
X1434Y517D02*
X1498Y517D01*
X1552Y517D02*
X1601Y517D01*
X1654Y517D02*
X1698Y517D01*
X1806Y517D02*
X1820Y517D01*
X85Y516D02*
X142Y516D01*
X200Y516D02*
X219Y516D01*
X241Y516D02*
X255Y516D01*
X294Y516D02*
X299Y516D01*
X319Y516D02*
X341Y516D01*
X432Y516D02*
X459Y516D01*
X506Y516D02*
X520Y516D01*
X565Y516D02*
X579Y516D01*
X1434Y516D02*
X1498Y516D01*
X1552Y516D02*
X1602Y516D01*
X1653Y516D02*
X1700Y516D01*
X1806Y516D02*
X1820Y516D01*
X83Y515D02*
X144Y515D01*
X197Y515D02*
X222Y515D01*
X241Y515D02*
X255Y515D01*
X292Y515D02*
X301Y515D01*
X316Y515D02*
X344Y515D01*
X430Y515D02*
X461Y515D01*
X506Y515D02*
X520Y515D01*
X565Y515D02*
X579Y515D01*
X1433Y515D02*
X1498Y515D01*
X1551Y515D02*
X1602Y515D01*
X1652Y515D02*
X1701Y515D01*
X1806Y515D02*
X1820Y515D01*
X83Y514D02*
X145Y514D01*
X195Y514D02*
X224Y514D01*
X241Y514D02*
X255Y514D01*
X291Y514D02*
X302Y514D01*
X314Y514D02*
X346Y514D01*
X429Y514D02*
X462Y514D01*
X506Y514D02*
X521Y514D01*
X565Y514D02*
X579Y514D01*
X1433Y514D02*
X1498Y514D01*
X1551Y514D02*
X1602Y514D01*
X1650Y514D02*
X1702Y514D01*
X1806Y514D02*
X1820Y514D01*
X82Y513D02*
X146Y513D01*
X193Y513D02*
X226Y513D01*
X241Y513D02*
X255Y513D01*
X290Y513D02*
X302Y513D01*
X313Y513D02*
X347Y513D01*
X428Y513D02*
X463Y513D01*
X506Y513D02*
X522Y513D01*
X565Y513D02*
X579Y513D01*
X1433Y513D02*
X1498Y513D01*
X1551Y513D02*
X1602Y513D01*
X1649Y513D02*
X1703Y513D01*
X1806Y513D02*
X1820Y513D01*
X81Y512D02*
X146Y512D01*
X192Y512D02*
X227Y512D01*
X241Y512D02*
X255Y512D01*
X290Y512D02*
X303Y512D01*
X311Y512D02*
X349Y512D01*
X428Y512D02*
X463Y512D01*
X507Y512D02*
X523Y512D01*
X565Y512D02*
X579Y512D01*
X1434Y512D02*
X1498Y512D01*
X1552Y512D02*
X1602Y512D01*
X1648Y512D02*
X1704Y512D01*
X1806Y512D02*
X1820Y512D01*
X81Y511D02*
X146Y511D01*
X191Y511D02*
X229Y511D01*
X241Y511D02*
X255Y511D01*
X290Y511D02*
X303Y511D01*
X310Y511D02*
X350Y511D01*
X428Y511D02*
X463Y511D01*
X507Y511D02*
X525Y511D01*
X565Y511D02*
X579Y511D01*
X1434Y511D02*
X1498Y511D01*
X1552Y511D02*
X1601Y511D01*
X1647Y511D02*
X1705Y511D01*
X1806Y511D02*
X1820Y511D01*
X81Y510D02*
X147Y510D01*
X190Y510D02*
X230Y510D01*
X241Y510D02*
X255Y510D01*
X289Y510D02*
X303Y510D01*
X309Y510D02*
X351Y510D01*
X427Y510D02*
X464Y510D01*
X507Y510D02*
X579Y510D01*
X1434Y510D02*
X1497Y510D01*
X1552Y510D02*
X1601Y510D01*
X1646Y510D02*
X1706Y510D01*
X1806Y510D02*
X1820Y510D01*
X81Y509D02*
X147Y509D01*
X189Y509D02*
X232Y509D01*
X241Y509D02*
X255Y509D01*
X289Y509D02*
X304Y509D01*
X307Y509D02*
X352Y509D01*
X427Y509D02*
X464Y509D01*
X508Y509D02*
X579Y509D01*
X1435Y509D02*
X1497Y509D01*
X1553Y509D02*
X1600Y509D01*
X1645Y509D02*
X1707Y509D01*
X1806Y509D02*
X1820Y509D01*
X81Y508D02*
X147Y508D01*
X188Y508D02*
X233Y508D01*
X241Y508D02*
X255Y508D01*
X289Y508D02*
X304Y508D01*
X306Y508D02*
X354Y508D01*
X427Y508D02*
X464Y508D01*
X508Y508D02*
X579Y508D01*
X1436Y508D02*
X1495Y508D01*
X1554Y508D02*
X1599Y508D01*
X1644Y508D02*
X1708Y508D01*
X1806Y508D02*
X1820Y508D01*
X81Y507D02*
X146Y507D01*
X187Y507D02*
X235Y507D01*
X241Y507D02*
X255Y507D01*
X289Y507D02*
X355Y507D01*
X427Y507D02*
X463Y507D01*
X509Y507D02*
X579Y507D01*
X1438Y507D02*
X1494Y507D01*
X1556Y507D02*
X1597Y507D01*
X1644Y507D02*
X1709Y507D01*
X1806Y507D02*
X1820Y507D01*
X81Y506D02*
X146Y506D01*
X187Y506D02*
X237Y506D01*
X241Y506D02*
X255Y506D01*
X289Y506D02*
X356Y506D01*
X427Y506D02*
X463Y506D01*
X509Y506D02*
X579Y506D01*
X1470Y506D02*
X1484Y506D01*
X1573Y506D02*
X1587Y506D01*
X1643Y506D02*
X1664Y506D01*
X1689Y506D02*
X1709Y506D01*
X1806Y506D02*
X1820Y506D01*
X82Y505D02*
X145Y505D01*
X186Y505D02*
X238Y505D01*
X241Y505D02*
X255Y505D01*
X289Y505D02*
X357Y505D01*
X427Y505D02*
X462Y505D01*
X510Y505D02*
X579Y505D01*
X1470Y505D02*
X1484Y505D01*
X1573Y505D02*
X1587Y505D01*
X1642Y505D02*
X1662Y505D01*
X1691Y505D02*
X1710Y505D01*
X1806Y505D02*
X1820Y505D01*
X83Y504D02*
X145Y504D01*
X185Y504D02*
X255Y504D01*
X289Y504D02*
X358Y504D01*
X427Y504D02*
X462Y504D01*
X511Y504D02*
X579Y504D01*
X1470Y504D02*
X1484Y504D01*
X1573Y504D02*
X1587Y504D01*
X1642Y504D02*
X1660Y504D01*
X1692Y504D02*
X1710Y504D01*
X1806Y504D02*
X1820Y504D01*
X84Y503D02*
X143Y503D01*
X185Y503D02*
X255Y503D01*
X289Y503D02*
X359Y503D01*
X427Y503D02*
X460Y503D01*
X512Y503D02*
X579Y503D01*
X1470Y503D02*
X1484Y503D01*
X1573Y503D02*
X1587Y503D01*
X1641Y503D02*
X1659Y503D01*
X1693Y503D02*
X1711Y503D01*
X1806Y503D02*
X1820Y503D01*
X86Y502D02*
X141Y502D01*
X185Y502D02*
X255Y502D01*
X289Y502D02*
X359Y502D01*
X427Y502D02*
X458Y502D01*
X513Y502D02*
X579Y502D01*
X1470Y502D02*
X1484Y502D01*
X1573Y502D02*
X1587Y502D01*
X1641Y502D02*
X1658Y502D01*
X1694Y502D02*
X1711Y502D01*
X1806Y502D02*
X1820Y502D01*
X118Y501D02*
X132Y501D01*
X184Y501D02*
X202Y501D01*
X217Y501D02*
X255Y501D01*
X289Y501D02*
X321Y501D01*
X339Y501D02*
X360Y501D01*
X427Y501D02*
X441Y501D01*
X514Y501D02*
X579Y501D01*
X1470Y501D02*
X1484Y501D01*
X1573Y501D02*
X1587Y501D01*
X1641Y501D02*
X1657Y501D01*
X1695Y501D02*
X1712Y501D01*
X1806Y501D02*
X1820Y501D01*
X118Y500D02*
X132Y500D01*
X184Y500D02*
X200Y500D01*
X219Y500D02*
X255Y500D01*
X289Y500D02*
X319Y500D01*
X341Y500D02*
X360Y500D01*
X427Y500D02*
X441Y500D01*
X515Y500D02*
X579Y500D01*
X1470Y500D02*
X1484Y500D01*
X1573Y500D02*
X1587Y500D01*
X1640Y500D02*
X1656Y500D01*
X1696Y500D02*
X1712Y500D01*
X1806Y500D02*
X1820Y500D01*
X118Y499D02*
X132Y499D01*
X184Y499D02*
X199Y499D01*
X220Y499D02*
X255Y499D01*
X289Y499D02*
X318Y499D01*
X342Y499D02*
X361Y499D01*
X427Y499D02*
X441Y499D01*
X516Y499D02*
X579Y499D01*
X1470Y499D02*
X1484Y499D01*
X1573Y499D02*
X1587Y499D01*
X1640Y499D02*
X1655Y499D01*
X1697Y499D02*
X1712Y499D01*
X1806Y499D02*
X1820Y499D01*
X118Y498D02*
X132Y498D01*
X184Y498D02*
X199Y498D01*
X222Y498D02*
X255Y498D01*
X289Y498D02*
X317Y498D01*
X343Y498D02*
X361Y498D01*
X427Y498D02*
X441Y498D01*
X518Y498D02*
X579Y498D01*
X1470Y498D02*
X1484Y498D01*
X1573Y498D02*
X1587Y498D01*
X1640Y498D02*
X1655Y498D01*
X1698Y498D02*
X1712Y498D01*
X1806Y498D02*
X1820Y498D01*
X118Y497D02*
X132Y497D01*
X183Y497D02*
X198Y497D01*
X224Y497D02*
X255Y497D01*
X289Y497D02*
X316Y497D01*
X344Y497D02*
X362Y497D01*
X427Y497D02*
X441Y497D01*
X520Y497D02*
X579Y497D01*
X1470Y497D02*
X1484Y497D01*
X1573Y497D02*
X1587Y497D01*
X1640Y497D02*
X1654Y497D01*
X1698Y497D02*
X1712Y497D01*
X1806Y497D02*
X1820Y497D01*
X118Y496D02*
X132Y496D01*
X183Y496D02*
X198Y496D01*
X225Y496D02*
X255Y496D01*
X289Y496D02*
X315Y496D01*
X346Y496D02*
X362Y496D01*
X427Y496D02*
X441Y496D01*
X523Y496D02*
X579Y496D01*
X1470Y496D02*
X1484Y496D01*
X1573Y496D02*
X1587Y496D01*
X1640Y496D02*
X1654Y496D01*
X1698Y496D02*
X1712Y496D01*
X1806Y496D02*
X1820Y496D01*
X118Y495D02*
X132Y495D01*
X183Y495D02*
X197Y495D01*
X227Y495D02*
X255Y495D01*
X289Y495D02*
X313Y495D01*
X347Y495D02*
X362Y495D01*
X427Y495D02*
X441Y495D01*
X537Y495D02*
X554Y495D01*
X565Y495D02*
X579Y495D01*
X1470Y495D02*
X1484Y495D01*
X1573Y495D02*
X1587Y495D01*
X1640Y495D02*
X1654Y495D01*
X1699Y495D02*
X1712Y495D01*
X1806Y495D02*
X1820Y495D01*
X118Y494D02*
X132Y494D01*
X183Y494D02*
X197Y494D01*
X228Y494D02*
X255Y494D01*
X289Y494D02*
X312Y494D01*
X347Y494D02*
X363Y494D01*
X427Y494D02*
X441Y494D01*
X536Y494D02*
X553Y494D01*
X565Y494D02*
X579Y494D01*
X1470Y494D02*
X1484Y494D01*
X1573Y494D02*
X1587Y494D01*
X1640Y494D02*
X1654Y494D01*
X1699Y494D02*
X1713Y494D01*
X1806Y494D02*
X1820Y494D01*
X118Y493D02*
X132Y493D01*
X183Y493D02*
X197Y493D01*
X230Y493D02*
X255Y493D01*
X289Y493D02*
X311Y493D01*
X348Y493D02*
X363Y493D01*
X427Y493D02*
X441Y493D01*
X536Y493D02*
X552Y493D01*
X565Y493D02*
X579Y493D01*
X1470Y493D02*
X1484Y493D01*
X1573Y493D02*
X1587Y493D01*
X1640Y493D02*
X1654Y493D01*
X1699Y493D02*
X1713Y493D01*
X1806Y493D02*
X1820Y493D01*
X118Y492D02*
X132Y492D01*
X183Y492D02*
X197Y492D01*
X231Y492D02*
X255Y492D01*
X289Y492D02*
X310Y492D01*
X348Y492D02*
X363Y492D01*
X427Y492D02*
X441Y492D01*
X535Y492D02*
X552Y492D01*
X565Y492D02*
X579Y492D01*
X1470Y492D02*
X1484Y492D01*
X1573Y492D02*
X1587Y492D01*
X1640Y492D02*
X1654Y492D01*
X1699Y492D02*
X1713Y492D01*
X1806Y492D02*
X1820Y492D01*
X118Y491D02*
X132Y491D01*
X183Y491D02*
X197Y491D01*
X233Y491D02*
X255Y491D01*
X289Y491D02*
X309Y491D01*
X349Y491D02*
X363Y491D01*
X427Y491D02*
X441Y491D01*
X535Y491D02*
X551Y491D01*
X565Y491D02*
X579Y491D01*
X1470Y491D02*
X1484Y491D01*
X1573Y491D02*
X1587Y491D01*
X1640Y491D02*
X1654Y491D01*
X1699Y491D02*
X1713Y491D01*
X1806Y491D02*
X1820Y491D01*
X118Y490D02*
X132Y490D01*
X183Y490D02*
X197Y490D01*
X234Y490D02*
X255Y490D01*
X289Y490D02*
X308Y490D01*
X349Y490D02*
X363Y490D01*
X427Y490D02*
X441Y490D01*
X534Y490D02*
X551Y490D01*
X565Y490D02*
X579Y490D01*
X1470Y490D02*
X1484Y490D01*
X1573Y490D02*
X1587Y490D01*
X1640Y490D02*
X1654Y490D01*
X1699Y490D02*
X1713Y490D01*
X1806Y490D02*
X1820Y490D01*
X118Y489D02*
X132Y489D01*
X183Y489D02*
X197Y489D01*
X236Y489D02*
X255Y489D01*
X289Y489D02*
X306Y489D01*
X349Y489D02*
X363Y489D01*
X427Y489D02*
X441Y489D01*
X533Y489D02*
X550Y489D01*
X565Y489D02*
X579Y489D01*
X1470Y489D02*
X1484Y489D01*
X1573Y489D02*
X1587Y489D01*
X1640Y489D02*
X1654Y489D01*
X1699Y489D02*
X1713Y489D01*
X1806Y489D02*
X1820Y489D01*
X118Y488D02*
X132Y488D01*
X183Y488D02*
X197Y488D01*
X238Y488D02*
X255Y488D01*
X289Y488D02*
X305Y488D01*
X349Y488D02*
X363Y488D01*
X427Y488D02*
X441Y488D01*
X533Y488D02*
X549Y488D01*
X565Y488D02*
X579Y488D01*
X1470Y488D02*
X1484Y488D01*
X1573Y488D02*
X1587Y488D01*
X1640Y488D02*
X1654Y488D01*
X1699Y488D02*
X1713Y488D01*
X1806Y488D02*
X1820Y488D01*
X118Y487D02*
X132Y487D01*
X183Y487D02*
X197Y487D01*
X239Y487D02*
X255Y487D01*
X289Y487D02*
X305Y487D01*
X349Y487D02*
X363Y487D01*
X427Y487D02*
X441Y487D01*
X532Y487D02*
X549Y487D01*
X565Y487D02*
X579Y487D01*
X1470Y487D02*
X1484Y487D01*
X1573Y487D02*
X1587Y487D01*
X1640Y487D02*
X1654Y487D01*
X1699Y487D02*
X1713Y487D01*
X1806Y487D02*
X1820Y487D01*
X118Y486D02*
X132Y486D01*
X183Y486D02*
X197Y486D01*
X240Y486D02*
X255Y486D01*
X289Y486D02*
X304Y486D01*
X349Y486D02*
X363Y486D01*
X427Y486D02*
X441Y486D01*
X532Y486D02*
X548Y486D01*
X565Y486D02*
X579Y486D01*
X1470Y486D02*
X1484Y486D01*
X1573Y486D02*
X1587Y486D01*
X1640Y486D02*
X1654Y486D01*
X1699Y486D02*
X1713Y486D01*
X1806Y486D02*
X1820Y486D01*
X118Y485D02*
X132Y485D01*
X183Y485D02*
X197Y485D01*
X241Y485D02*
X255Y485D01*
X289Y485D02*
X304Y485D01*
X349Y485D02*
X363Y485D01*
X427Y485D02*
X441Y485D01*
X531Y485D02*
X548Y485D01*
X565Y485D02*
X579Y485D01*
X1470Y485D02*
X1484Y485D01*
X1573Y485D02*
X1587Y485D01*
X1640Y485D02*
X1654Y485D01*
X1699Y485D02*
X1713Y485D01*
X1806Y485D02*
X1820Y485D01*
X118Y484D02*
X132Y484D01*
X183Y484D02*
X197Y484D01*
X241Y484D02*
X255Y484D01*
X289Y484D02*
X304Y484D01*
X349Y484D02*
X363Y484D01*
X427Y484D02*
X441Y484D01*
X531Y484D02*
X547Y484D01*
X565Y484D02*
X579Y484D01*
X1470Y484D02*
X1484Y484D01*
X1573Y484D02*
X1587Y484D01*
X1640Y484D02*
X1654Y484D01*
X1698Y484D02*
X1713Y484D01*
X1806Y484D02*
X1820Y484D01*
X118Y483D02*
X132Y483D01*
X183Y483D02*
X197Y483D01*
X241Y483D02*
X255Y483D01*
X289Y483D02*
X304Y483D01*
X349Y483D02*
X363Y483D01*
X427Y483D02*
X441Y483D01*
X530Y483D02*
X547Y483D01*
X565Y483D02*
X579Y483D01*
X1470Y483D02*
X1484Y483D01*
X1573Y483D02*
X1587Y483D01*
X1640Y483D02*
X1713Y483D01*
X1806Y483D02*
X1820Y483D01*
X118Y482D02*
X132Y482D01*
X183Y482D02*
X197Y482D01*
X241Y482D02*
X255Y482D01*
X289Y482D02*
X304Y482D01*
X349Y482D02*
X363Y482D01*
X427Y482D02*
X441Y482D01*
X529Y482D02*
X546Y482D01*
X565Y482D02*
X579Y482D01*
X1470Y482D02*
X1484Y482D01*
X1573Y482D02*
X1587Y482D01*
X1640Y482D02*
X1713Y482D01*
X1806Y482D02*
X1820Y482D01*
X118Y481D02*
X132Y481D01*
X183Y481D02*
X197Y481D01*
X241Y481D02*
X255Y481D01*
X289Y481D02*
X304Y481D01*
X349Y481D02*
X363Y481D01*
X427Y481D02*
X441Y481D01*
X529Y481D02*
X545Y481D01*
X565Y481D02*
X579Y481D01*
X1470Y481D02*
X1484Y481D01*
X1573Y481D02*
X1587Y481D01*
X1640Y481D02*
X1713Y481D01*
X1806Y481D02*
X1820Y481D01*
X118Y480D02*
X132Y480D01*
X183Y480D02*
X197Y480D01*
X241Y480D02*
X255Y480D01*
X289Y480D02*
X304Y480D01*
X349Y480D02*
X363Y480D01*
X427Y480D02*
X441Y480D01*
X528Y480D02*
X545Y480D01*
X565Y480D02*
X579Y480D01*
X1470Y480D02*
X1484Y480D01*
X1573Y480D02*
X1587Y480D01*
X1640Y480D02*
X1713Y480D01*
X1806Y480D02*
X1820Y480D01*
X118Y479D02*
X132Y479D01*
X183Y479D02*
X197Y479D01*
X241Y479D02*
X255Y479D01*
X289Y479D02*
X304Y479D01*
X349Y479D02*
X363Y479D01*
X427Y479D02*
X441Y479D01*
X528Y479D02*
X544Y479D01*
X565Y479D02*
X579Y479D01*
X1470Y479D02*
X1484Y479D01*
X1573Y479D02*
X1587Y479D01*
X1640Y479D02*
X1713Y479D01*
X1806Y479D02*
X1820Y479D01*
X118Y478D02*
X132Y478D01*
X183Y478D02*
X197Y478D01*
X241Y478D02*
X255Y478D01*
X289Y478D02*
X304Y478D01*
X349Y478D02*
X363Y478D01*
X427Y478D02*
X441Y478D01*
X527Y478D02*
X544Y478D01*
X565Y478D02*
X579Y478D01*
X1470Y478D02*
X1484Y478D01*
X1573Y478D02*
X1587Y478D01*
X1640Y478D02*
X1713Y478D01*
X1806Y478D02*
X1820Y478D01*
X118Y477D02*
X132Y477D01*
X183Y477D02*
X197Y477D01*
X241Y477D02*
X255Y477D01*
X289Y477D02*
X304Y477D01*
X349Y477D02*
X363Y477D01*
X427Y477D02*
X441Y477D01*
X526Y477D02*
X543Y477D01*
X565Y477D02*
X579Y477D01*
X1470Y477D02*
X1484Y477D01*
X1573Y477D02*
X1587Y477D01*
X1640Y477D02*
X1713Y477D01*
X1806Y477D02*
X1820Y477D01*
X118Y476D02*
X132Y476D01*
X183Y476D02*
X197Y476D01*
X241Y476D02*
X255Y476D01*
X289Y476D02*
X304Y476D01*
X349Y476D02*
X363Y476D01*
X427Y476D02*
X441Y476D01*
X526Y476D02*
X542Y476D01*
X565Y476D02*
X579Y476D01*
X1470Y476D02*
X1484Y476D01*
X1573Y476D02*
X1587Y476D01*
X1640Y476D02*
X1713Y476D01*
X1806Y476D02*
X1820Y476D01*
X118Y475D02*
X132Y475D01*
X183Y475D02*
X197Y475D01*
X241Y475D02*
X255Y475D01*
X289Y475D02*
X304Y475D01*
X349Y475D02*
X363Y475D01*
X427Y475D02*
X441Y475D01*
X525Y475D02*
X542Y475D01*
X565Y475D02*
X579Y475D01*
X1470Y475D02*
X1484Y475D01*
X1573Y475D02*
X1587Y475D01*
X1640Y475D02*
X1713Y475D01*
X1806Y475D02*
X1820Y475D01*
X118Y474D02*
X132Y474D01*
X183Y474D02*
X197Y474D01*
X241Y474D02*
X255Y474D01*
X289Y474D02*
X304Y474D01*
X349Y474D02*
X363Y474D01*
X427Y474D02*
X441Y474D01*
X525Y474D02*
X541Y474D01*
X565Y474D02*
X579Y474D01*
X1470Y474D02*
X1484Y474D01*
X1573Y474D02*
X1587Y474D01*
X1640Y474D02*
X1713Y474D01*
X1806Y474D02*
X1820Y474D01*
X118Y473D02*
X132Y473D01*
X183Y473D02*
X197Y473D01*
X241Y473D02*
X255Y473D01*
X289Y473D02*
X304Y473D01*
X349Y473D02*
X363Y473D01*
X427Y473D02*
X441Y473D01*
X524Y473D02*
X541Y473D01*
X565Y473D02*
X579Y473D01*
X1470Y473D02*
X1484Y473D01*
X1573Y473D02*
X1587Y473D01*
X1641Y473D02*
X1713Y473D01*
X1806Y473D02*
X1820Y473D01*
X118Y472D02*
X132Y472D01*
X182Y472D02*
X197Y472D01*
X241Y472D02*
X255Y472D01*
X289Y472D02*
X304Y472D01*
X349Y472D02*
X363Y472D01*
X427Y472D02*
X441Y472D01*
X524Y472D02*
X540Y472D01*
X565Y472D02*
X579Y472D01*
X1470Y472D02*
X1484Y472D01*
X1573Y472D02*
X1587Y472D01*
X1641Y472D02*
X1713Y472D01*
X1806Y472D02*
X1820Y472D01*
X118Y471D02*
X132Y471D01*
X182Y471D02*
X197Y471D01*
X241Y471D02*
X255Y471D01*
X289Y471D02*
X304Y471D01*
X349Y471D02*
X363Y471D01*
X427Y471D02*
X441Y471D01*
X523Y471D02*
X540Y471D01*
X565Y471D02*
X579Y471D01*
X1470Y471D02*
X1484Y471D01*
X1573Y471D02*
X1587Y471D01*
X1642Y471D02*
X1713Y471D01*
X1806Y471D02*
X1820Y471D01*
X118Y470D02*
X132Y470D01*
X182Y470D02*
X196Y470D01*
X241Y470D02*
X255Y470D01*
X289Y470D02*
X304Y470D01*
X349Y470D02*
X363Y470D01*
X427Y470D02*
X441Y470D01*
X522Y470D02*
X539Y470D01*
X565Y470D02*
X579Y470D01*
X1470Y470D02*
X1484Y470D01*
X1573Y470D02*
X1587Y470D01*
X1643Y470D02*
X1713Y470D01*
X1806Y470D02*
X1820Y470D01*
X118Y469D02*
X132Y469D01*
X182Y469D02*
X196Y469D01*
X241Y469D02*
X255Y469D01*
X289Y469D02*
X304Y469D01*
X349Y469D02*
X363Y469D01*
X427Y469D02*
X441Y469D01*
X522Y469D02*
X538Y469D01*
X565Y469D02*
X579Y469D01*
X1470Y469D02*
X1484Y469D01*
X1573Y469D02*
X1587Y469D01*
X1646Y469D02*
X1713Y469D01*
X1806Y469D02*
X1820Y469D01*
X118Y468D02*
X132Y468D01*
X182Y468D02*
X196Y468D01*
X241Y468D02*
X255Y468D01*
X289Y468D02*
X305Y468D01*
X349Y468D02*
X363Y468D01*
X427Y468D02*
X441Y468D01*
X521Y468D02*
X538Y468D01*
X565Y468D02*
X579Y468D01*
X1470Y468D02*
X1484Y468D01*
X1573Y468D02*
X1587Y468D01*
X1699Y468D02*
X1713Y468D01*
X1806Y468D02*
X1820Y468D01*
X118Y467D02*
X132Y467D01*
X182Y467D02*
X196Y467D01*
X241Y467D02*
X255Y467D01*
X289Y467D02*
X305Y467D01*
X349Y467D02*
X363Y467D01*
X427Y467D02*
X441Y467D01*
X521Y467D02*
X537Y467D01*
X565Y467D02*
X579Y467D01*
X1470Y467D02*
X1484Y467D01*
X1573Y467D02*
X1587Y467D01*
X1699Y467D02*
X1713Y467D01*
X1806Y467D02*
X1820Y467D01*
X118Y466D02*
X132Y466D01*
X182Y466D02*
X196Y466D01*
X241Y466D02*
X255Y466D01*
X289Y466D02*
X306Y466D01*
X349Y466D02*
X363Y466D01*
X427Y466D02*
X441Y466D01*
X520Y466D02*
X537Y466D01*
X565Y466D02*
X579Y466D01*
X1470Y466D02*
X1484Y466D01*
X1573Y466D02*
X1587Y466D01*
X1699Y466D02*
X1713Y466D01*
X1806Y466D02*
X1820Y466D01*
X118Y465D02*
X132Y465D01*
X182Y465D02*
X196Y465D01*
X241Y465D02*
X255Y465D01*
X289Y465D02*
X307Y465D01*
X349Y465D02*
X363Y465D01*
X427Y465D02*
X441Y465D01*
X519Y465D02*
X536Y465D01*
X565Y465D02*
X579Y465D01*
X1470Y465D02*
X1484Y465D01*
X1573Y465D02*
X1587Y465D01*
X1699Y465D02*
X1713Y465D01*
X1806Y465D02*
X1820Y465D01*
X118Y464D02*
X132Y464D01*
X182Y464D02*
X196Y464D01*
X241Y464D02*
X255Y464D01*
X289Y464D02*
X309Y464D01*
X349Y464D02*
X363Y464D01*
X427Y464D02*
X441Y464D01*
X519Y464D02*
X535Y464D01*
X565Y464D02*
X579Y464D01*
X1430Y464D02*
X1436Y464D01*
X1470Y464D02*
X1484Y464D01*
X1573Y464D02*
X1587Y464D01*
X1699Y464D02*
X1713Y464D01*
X1806Y464D02*
X1820Y464D01*
X118Y463D02*
X132Y463D01*
X182Y463D02*
X196Y463D01*
X241Y463D02*
X255Y463D01*
X289Y463D02*
X310Y463D01*
X349Y463D02*
X363Y463D01*
X427Y463D02*
X441Y463D01*
X518Y463D02*
X535Y463D01*
X565Y463D02*
X579Y463D01*
X1428Y463D02*
X1437Y463D01*
X1470Y463D02*
X1484Y463D01*
X1573Y463D02*
X1587Y463D01*
X1698Y463D02*
X1712Y463D01*
X1806Y463D02*
X1820Y463D01*
X118Y462D02*
X132Y462D01*
X182Y462D02*
X196Y462D01*
X241Y462D02*
X255Y462D01*
X289Y462D02*
X311Y462D01*
X348Y462D02*
X363Y462D01*
X427Y462D02*
X441Y462D01*
X518Y462D02*
X534Y462D01*
X565Y462D02*
X579Y462D01*
X1427Y462D02*
X1438Y462D01*
X1470Y462D02*
X1484Y462D01*
X1573Y462D02*
X1587Y462D01*
X1698Y462D02*
X1712Y462D01*
X1806Y462D02*
X1820Y462D01*
X118Y461D02*
X132Y461D01*
X182Y461D02*
X196Y461D01*
X241Y461D02*
X255Y461D01*
X289Y461D02*
X312Y461D01*
X348Y461D02*
X362Y461D01*
X427Y461D02*
X441Y461D01*
X517Y461D02*
X534Y461D01*
X565Y461D02*
X579Y461D01*
X1427Y461D02*
X1439Y461D01*
X1470Y461D02*
X1484Y461D01*
X1573Y461D02*
X1587Y461D01*
X1698Y461D02*
X1712Y461D01*
X1806Y461D02*
X1820Y461D01*
X118Y460D02*
X132Y460D01*
X182Y460D02*
X196Y460D01*
X241Y460D02*
X255Y460D01*
X289Y460D02*
X313Y460D01*
X347Y460D02*
X362Y460D01*
X427Y460D02*
X441Y460D01*
X517Y460D02*
X533Y460D01*
X565Y460D02*
X579Y460D01*
X1426Y460D02*
X1439Y460D01*
X1470Y460D02*
X1484Y460D01*
X1573Y460D02*
X1587Y460D01*
X1697Y460D02*
X1712Y460D01*
X1806Y460D02*
X1820Y460D01*
X78Y459D02*
X83Y459D01*
X118Y459D02*
X132Y459D01*
X182Y459D02*
X196Y459D01*
X241Y459D02*
X255Y459D01*
X289Y459D02*
X314Y459D01*
X346Y459D02*
X362Y459D01*
X427Y459D02*
X441Y459D01*
X516Y459D02*
X533Y459D01*
X565Y459D02*
X579Y459D01*
X1426Y459D02*
X1439Y459D01*
X1470Y459D02*
X1484Y459D01*
X1573Y459D02*
X1587Y459D01*
X1696Y459D02*
X1712Y459D01*
X1806Y459D02*
X1820Y459D01*
X76Y458D02*
X84Y458D01*
X118Y458D02*
X132Y458D01*
X182Y458D02*
X196Y458D01*
X241Y458D02*
X255Y458D01*
X289Y458D02*
X316Y458D01*
X345Y458D02*
X362Y458D01*
X427Y458D02*
X441Y458D01*
X515Y458D02*
X532Y458D01*
X565Y458D02*
X579Y458D01*
X1426Y458D02*
X1440Y458D01*
X1470Y458D02*
X1484Y458D01*
X1573Y458D02*
X1587Y458D01*
X1695Y458D02*
X1712Y458D01*
X1806Y458D02*
X1820Y458D01*
X75Y457D02*
X85Y457D01*
X118Y457D02*
X132Y457D01*
X182Y457D02*
X196Y457D01*
X241Y457D02*
X255Y457D01*
X289Y457D02*
X317Y457D01*
X344Y457D02*
X361Y457D01*
X427Y457D02*
X441Y457D01*
X515Y457D02*
X531Y457D01*
X565Y457D02*
X579Y457D01*
X1426Y457D02*
X1440Y457D01*
X1469Y457D02*
X1484Y457D01*
X1573Y457D02*
X1587Y457D01*
X1694Y457D02*
X1711Y457D01*
X1806Y457D02*
X1820Y457D01*
X74Y456D02*
X86Y456D01*
X118Y456D02*
X132Y456D01*
X182Y456D02*
X196Y456D01*
X241Y456D02*
X255Y456D01*
X289Y456D02*
X318Y456D01*
X343Y456D02*
X361Y456D01*
X427Y456D02*
X441Y456D01*
X514Y456D02*
X531Y456D01*
X565Y456D02*
X579Y456D01*
X1426Y456D02*
X1441Y456D01*
X1469Y456D02*
X1483Y456D01*
X1573Y456D02*
X1587Y456D01*
X1693Y456D02*
X1711Y456D01*
X1806Y456D02*
X1820Y456D01*
X74Y455D02*
X86Y455D01*
X118Y455D02*
X132Y455D01*
X182Y455D02*
X196Y455D01*
X241Y455D02*
X255Y455D01*
X289Y455D02*
X319Y455D01*
X341Y455D02*
X360Y455D01*
X427Y455D02*
X441Y455D01*
X514Y455D02*
X530Y455D01*
X565Y455D02*
X579Y455D01*
X1426Y455D02*
X1442Y455D01*
X1468Y455D02*
X1483Y455D01*
X1573Y455D02*
X1587Y455D01*
X1692Y455D02*
X1711Y455D01*
X1806Y455D02*
X1820Y455D01*
X73Y454D02*
X87Y454D01*
X118Y454D02*
X132Y454D01*
X182Y454D02*
X196Y454D01*
X241Y454D02*
X255Y454D01*
X289Y454D02*
X321Y454D01*
X340Y454D02*
X360Y454D01*
X427Y454D02*
X441Y454D01*
X513Y454D02*
X530Y454D01*
X565Y454D02*
X579Y454D01*
X1426Y454D02*
X1443Y454D01*
X1467Y454D02*
X1483Y454D01*
X1573Y454D02*
X1587Y454D01*
X1690Y454D02*
X1710Y454D01*
X1806Y454D02*
X1820Y454D01*
X73Y453D02*
X87Y453D01*
X118Y453D02*
X132Y453D01*
X182Y453D02*
X196Y453D01*
X241Y453D02*
X255Y453D01*
X289Y453D02*
X359Y453D01*
X427Y453D02*
X441Y453D01*
X512Y453D02*
X529Y453D01*
X565Y453D02*
X579Y453D01*
X1427Y453D02*
X1444Y453D01*
X1466Y453D02*
X1483Y453D01*
X1573Y453D02*
X1587Y453D01*
X1689Y453D02*
X1710Y453D01*
X1806Y453D02*
X1820Y453D01*
X73Y452D02*
X88Y452D01*
X117Y452D02*
X132Y452D01*
X182Y452D02*
X196Y452D01*
X241Y452D02*
X255Y452D01*
X289Y452D02*
X359Y452D01*
X427Y452D02*
X441Y452D01*
X512Y452D02*
X528Y452D01*
X565Y452D02*
X579Y452D01*
X1427Y452D02*
X1482Y452D01*
X1573Y452D02*
X1587Y452D01*
X1645Y452D02*
X1709Y452D01*
X1752Y452D02*
X1820Y452D01*
X73Y451D02*
X88Y451D01*
X117Y451D02*
X132Y451D01*
X182Y451D02*
X196Y451D01*
X241Y451D02*
X255Y451D01*
X289Y451D02*
X358Y451D01*
X427Y451D02*
X441Y451D01*
X511Y451D02*
X528Y451D01*
X565Y451D02*
X579Y451D01*
X1427Y451D02*
X1482Y451D01*
X1573Y451D02*
X1587Y451D01*
X1643Y451D02*
X1708Y451D01*
X1750Y451D02*
X1820Y451D01*
X73Y450D02*
X89Y450D01*
X116Y450D02*
X131Y450D01*
X182Y450D02*
X196Y450D01*
X241Y450D02*
X255Y450D01*
X289Y450D02*
X357Y450D01*
X427Y450D02*
X441Y450D01*
X511Y450D02*
X527Y450D01*
X565Y450D02*
X579Y450D01*
X1428Y450D02*
X1482Y450D01*
X1573Y450D02*
X1587Y450D01*
X1642Y450D02*
X1707Y450D01*
X1749Y450D02*
X1820Y450D01*
X74Y449D02*
X90Y449D01*
X115Y449D02*
X131Y449D01*
X182Y449D02*
X196Y449D01*
X241Y449D02*
X255Y449D01*
X289Y449D02*
X356Y449D01*
X427Y449D02*
X441Y449D01*
X510Y449D02*
X527Y449D01*
X565Y449D02*
X579Y449D01*
X1428Y449D02*
X1481Y449D01*
X1573Y449D02*
X1587Y449D01*
X1641Y449D02*
X1706Y449D01*
X1748Y449D02*
X1820Y449D01*
X74Y448D02*
X91Y448D01*
X114Y448D02*
X131Y448D01*
X182Y448D02*
X196Y448D01*
X241Y448D02*
X255Y448D01*
X289Y448D02*
X355Y448D01*
X427Y448D02*
X441Y448D01*
X510Y448D02*
X526Y448D01*
X565Y448D02*
X579Y448D01*
X1429Y448D02*
X1480Y448D01*
X1573Y448D02*
X1587Y448D01*
X1640Y448D02*
X1705Y448D01*
X1748Y448D02*
X1820Y448D01*
X74Y447D02*
X94Y447D01*
X111Y447D02*
X131Y447D01*
X182Y447D02*
X196Y447D01*
X241Y447D02*
X255Y447D01*
X289Y447D02*
X304Y447D01*
X306Y447D02*
X354Y447D01*
X427Y447D02*
X442Y447D01*
X509Y447D02*
X526Y447D01*
X565Y447D02*
X579Y447D01*
X1430Y447D02*
X1480Y447D01*
X1573Y447D02*
X1587Y447D01*
X1640Y447D02*
X1704Y447D01*
X1747Y447D02*
X1820Y447D01*
X75Y446D02*
X130Y446D01*
X182Y446D02*
X196Y446D01*
X241Y446D02*
X255Y446D01*
X289Y446D02*
X304Y446D01*
X307Y446D02*
X352Y446D01*
X409Y446D02*
X460Y446D01*
X508Y446D02*
X525Y446D01*
X565Y446D02*
X579Y446D01*
X1431Y446D02*
X1479Y446D01*
X1573Y446D02*
X1587Y446D01*
X1640Y446D02*
X1703Y446D01*
X1747Y446D02*
X1820Y446D01*
X75Y445D02*
X130Y445D01*
X182Y445D02*
X196Y445D01*
X241Y445D02*
X255Y445D01*
X289Y445D02*
X304Y445D01*
X308Y445D02*
X351Y445D01*
X408Y445D02*
X461Y445D01*
X508Y445D02*
X524Y445D01*
X565Y445D02*
X579Y445D01*
X1432Y445D02*
X1478Y445D01*
X1573Y445D02*
X1587Y445D01*
X1640Y445D02*
X1702Y445D01*
X1747Y445D02*
X1820Y445D01*
X76Y444D02*
X129Y444D01*
X182Y444D02*
X196Y444D01*
X241Y444D02*
X255Y444D01*
X289Y444D02*
X304Y444D01*
X309Y444D02*
X350Y444D01*
X407Y444D02*
X462Y444D01*
X507Y444D02*
X524Y444D01*
X565Y444D02*
X579Y444D01*
X1432Y444D02*
X1477Y444D01*
X1573Y444D02*
X1587Y444D01*
X1640Y444D02*
X1701Y444D01*
X1747Y444D02*
X1820Y444D01*
X76Y443D02*
X129Y443D01*
X182Y443D02*
X196Y443D01*
X241Y443D02*
X255Y443D01*
X289Y443D02*
X304Y443D01*
X311Y443D02*
X349Y443D01*
X406Y443D02*
X463Y443D01*
X507Y443D02*
X523Y443D01*
X565Y443D02*
X579Y443D01*
X1434Y443D02*
X1476Y443D01*
X1574Y443D02*
X1587Y443D01*
X1640Y443D02*
X1700Y443D01*
X1747Y443D02*
X1820Y443D01*
X77Y442D02*
X128Y442D01*
X182Y442D02*
X195Y442D01*
X241Y442D02*
X255Y442D01*
X289Y442D02*
X304Y442D01*
X312Y442D02*
X347Y442D01*
X405Y442D02*
X463Y442D01*
X506Y442D02*
X523Y442D01*
X565Y442D02*
X579Y442D01*
X1435Y442D02*
X1475Y442D01*
X1574Y442D02*
X1587Y442D01*
X1640Y442D02*
X1699Y442D01*
X1747Y442D02*
X1820Y442D01*
X78Y441D02*
X127Y441D01*
X181Y441D02*
X195Y441D01*
X241Y441D02*
X255Y441D01*
X289Y441D02*
X304Y441D01*
X314Y441D02*
X346Y441D01*
X405Y441D02*
X464Y441D01*
X506Y441D02*
X522Y441D01*
X565Y441D02*
X579Y441D01*
X1436Y441D02*
X1474Y441D01*
X1574Y441D02*
X1586Y441D01*
X1641Y441D02*
X1697Y441D01*
X1748Y441D02*
X1820Y441D01*
X79Y440D02*
X126Y440D01*
X181Y440D02*
X195Y440D01*
X241Y440D02*
X255Y440D01*
X289Y440D02*
X304Y440D01*
X316Y440D02*
X344Y440D01*
X405Y440D02*
X464Y440D01*
X506Y440D02*
X521Y440D01*
X565Y440D02*
X579Y440D01*
X1438Y440D02*
X1472Y440D01*
X1575Y440D02*
X1585Y440D01*
X1642Y440D02*
X1695Y440D01*
X1749Y440D02*
X1820Y440D01*
X79Y439D02*
X126Y439D01*
X181Y439D02*
X195Y439D01*
X241Y439D02*
X255Y439D01*
X289Y439D02*
X304Y439D01*
X319Y439D02*
X341Y439D01*
X405Y439D02*
X464Y439D01*
X506Y439D02*
X521Y439D01*
X565Y439D02*
X579Y439D01*
X1440Y439D02*
X1470Y439D01*
X1576Y439D02*
X1584Y439D01*
X1643Y439D02*
X1693Y439D01*
X1750Y439D02*
X1820Y439D01*
X80Y438D02*
X125Y438D01*
X182Y438D02*
X195Y438D01*
X241Y438D02*
X255Y438D01*
X289Y438D02*
X304Y438D01*
X405Y438D02*
X464Y438D01*
X506Y438D02*
X520Y438D01*
X565Y438D02*
X579Y438D01*
X1443Y438D02*
X1467Y438D01*
X1578Y438D02*
X1583Y438D01*
X1644Y438D02*
X1690Y438D01*
X1752Y438D02*
X1820Y438D01*
X82Y437D02*
X123Y437D01*
X182Y437D02*
X195Y437D01*
X241Y437D02*
X254Y437D01*
X289Y437D02*
X304Y437D01*
X405Y437D02*
X463Y437D01*
X506Y437D02*
X520Y437D01*
X565Y437D02*
X579Y437D01*
X83Y436D02*
X122Y436D01*
X182Y436D02*
X195Y436D01*
X242Y436D02*
X254Y436D01*
X289Y436D02*
X304Y436D01*
X406Y436D02*
X463Y436D01*
X507Y436D02*
X519Y436D01*
X566Y436D02*
X578Y436D01*
X84Y435D02*
X121Y435D01*
X183Y435D02*
X194Y435D01*
X242Y435D02*
X253Y435D01*
X289Y435D02*
X304Y435D01*
X407Y435D02*
X462Y435D01*
X507Y435D02*
X518Y435D01*
X567Y435D02*
X578Y435D01*
X86Y434D02*
X119Y434D01*
X184Y434D02*
X193Y434D01*
X243Y434D02*
X252Y434D01*
X289Y434D02*
X304Y434D01*
X407Y434D02*
X461Y434D01*
X508Y434D02*
X518Y434D01*
X567Y434D02*
X577Y434D01*
X89Y433D02*
X116Y433D01*
X185Y433D02*
X192Y433D01*
X244Y433D02*
X251Y433D01*
X289Y433D02*
X304Y433D01*
X409Y433D02*
X460Y433D01*
X509Y433D02*
X516Y433D01*
X569Y433D02*
X576Y433D01*
X94Y432D02*
X112Y432D01*
X187Y432D02*
X189Y432D01*
X247Y432D02*
X249Y432D01*
X289Y432D02*
X304Y432D01*
X411Y432D02*
X458Y432D01*
X512Y432D02*
X514Y432D01*
X571Y432D02*
X573Y432D01*
X289Y431D02*
X304Y431D01*
X289Y430D02*
X304Y430D01*
X289Y429D02*
X304Y429D01*
X289Y428D02*
X304Y428D01*
X289Y427D02*
X304Y427D01*
X290Y426D02*
X304Y426D01*
X290Y425D02*
X304Y425D01*
X290Y424D02*
X304Y424D01*
X290Y423D02*
X305Y423D01*
X290Y422D02*
X306Y422D01*
X290Y421D02*
X307Y421D01*
X291Y420D02*
X308Y420D01*
X291Y419D02*
X309Y419D01*
X291Y418D02*
X310Y418D01*
X292Y417D02*
X312Y417D01*
X293Y416D02*
X313Y416D01*
X293Y415D02*
X350Y415D01*
X294Y414D02*
X352Y414D01*
X295Y413D02*
X353Y413D01*
X296Y412D02*
X354Y412D01*
X297Y411D02*
X355Y411D01*
X298Y410D02*
X355Y410D01*
X299Y409D02*
X355Y409D01*
X300Y408D02*
X356Y408D01*
X301Y407D02*
X356Y407D01*
X302Y406D02*
X355Y406D01*
X304Y405D02*
X355Y405D01*
X305Y404D02*
X355Y404D01*
X306Y403D02*
X354Y403D01*
X308Y402D02*
X353Y402D01*
X311Y401D02*
X351Y401D01*
X562Y247D02*
X567Y247D01*
X560Y246D02*
X568Y246D01*
X559Y245D02*
X569Y245D01*
X558Y244D02*
X570Y244D01*
X558Y243D02*
X571Y243D01*
X557Y242D02*
X571Y242D01*
X557Y241D02*
X571Y241D01*
X557Y240D02*
X571Y240D01*
X557Y239D02*
X571Y239D01*
X557Y238D02*
X571Y238D01*
X557Y237D02*
X571Y237D01*
X557Y236D02*
X571Y236D01*
X557Y235D02*
X571Y235D01*
X557Y234D02*
X571Y234D01*
X557Y233D02*
X571Y233D01*
X557Y232D02*
X571Y232D01*
X557Y231D02*
X571Y231D01*
X557Y230D02*
X571Y230D01*
X557Y229D02*
X571Y229D01*
X557Y228D02*
X571Y228D01*
X557Y227D02*
X571Y227D01*
X557Y226D02*
X571Y226D01*
X557Y225D02*
X571Y225D01*
X557Y224D02*
X571Y224D01*
X557Y223D02*
X571Y223D01*
X557Y222D02*
X571Y222D01*
X557Y221D02*
X571Y221D01*
X557Y220D02*
X571Y220D01*
X557Y219D02*
X571Y219D01*
X534Y218D02*
X594Y218D01*
X1156Y218D02*
X1216Y218D01*
X531Y217D02*
X597Y217D01*
X1153Y217D02*
X1219Y217D01*
X530Y216D02*
X598Y216D01*
X1151Y216D02*
X1220Y216D01*
X529Y215D02*
X599Y215D01*
X1150Y215D02*
X1221Y215D01*
X528Y214D02*
X600Y214D01*
X1150Y214D02*
X1222Y214D01*
X528Y213D02*
X600Y213D01*
X1149Y213D02*
X1222Y213D01*
X528Y212D02*
X601Y212D01*
X1149Y212D02*
X1222Y212D01*
X527Y211D02*
X601Y211D01*
X1149Y211D02*
X1222Y211D01*
X527Y210D02*
X601Y210D01*
X1149Y210D02*
X1222Y210D01*
X528Y209D02*
X601Y209D01*
X1149Y209D02*
X1222Y209D01*
X528Y208D02*
X600Y208D01*
X1149Y208D02*
X1222Y208D01*
X528Y207D02*
X600Y207D01*
X1149Y207D02*
X1222Y207D01*
X529Y206D02*
X599Y206D01*
X1149Y206D02*
X1222Y206D01*
X530Y205D02*
X598Y205D01*
X1149Y205D02*
X1222Y205D01*
X531Y204D02*
X597Y204D01*
X1149Y204D02*
X1222Y204D01*
X535Y203D02*
X593Y203D01*
X1149Y203D02*
X1222Y203D01*
X557Y202D02*
X571Y202D01*
X1149Y202D02*
X1222Y202D01*
X557Y201D02*
X571Y201D01*
X1150Y201D02*
X1222Y201D01*
X557Y200D02*
X571Y200D01*
X1150Y200D02*
X1221Y200D01*
X557Y199D02*
X571Y199D01*
X1151Y199D02*
X1220Y199D01*
X557Y198D02*
X571Y198D01*
X1152Y198D02*
X1219Y198D01*
X557Y197D02*
X571Y197D01*
X1154Y197D02*
X1217Y197D01*
X557Y196D02*
X571Y196D01*
X557Y195D02*
X571Y195D01*
X557Y194D02*
X571Y194D01*
X557Y193D02*
X571Y193D01*
X557Y192D02*
X571Y192D01*
X557Y191D02*
X571Y191D01*
X557Y190D02*
X571Y190D01*
X557Y189D02*
X571Y189D01*
X557Y188D02*
X571Y188D01*
X557Y187D02*
X571Y187D01*
X557Y186D02*
X571Y186D01*
X557Y185D02*
X571Y185D01*
X557Y184D02*
X571Y184D01*
X557Y183D02*
X571Y183D01*
X557Y182D02*
X571Y182D01*
X557Y181D02*
X571Y181D01*
X557Y180D02*
X571Y180D01*
X557Y179D02*
X571Y179D01*
X558Y178D02*
X571Y178D01*
X558Y177D02*
X570Y177D01*
X559Y176D02*
X569Y176D01*
X560Y175D02*
X568Y175D01*
X561Y174D02*
X567Y174D01*
D02*
G04 End of Copper0*
M02*