; NON-PLATED HOLES START AT T1
; THROUGH (PLATED) HOLES START AT T100
M48
INCH
T100C0.035000
T101C0.059055
T102C0.035433
T103C0.038000
%
T100
X010166Y005203
X007166Y010203
X007166Y007203
X010166Y006203
X007166Y011203
X010166Y010203
X007166Y008203
X010166Y007203
X007166Y012203
X010166Y011203
X007166Y009203
X010166Y008203
X010166Y012203
X010166Y009203
X007166Y005203
X007166Y006203
T101
X003666Y007735
X015666Y009703
X015666Y007735
X009166Y002203
X007198Y002203
X003666Y009703
T102
X009166Y003203
X005166Y007203
X005166Y008703
X007666Y003203
X012666Y007203
X012666Y008703
T103
X008166Y014703
X006166Y014703
X004166Y014703
X009166Y014703
X007166Y014703
X005166Y014703
X013166Y014703
X011166Y014703
X014166Y014703
X012166Y014703
X010166Y014703
X015166Y014703
X003166Y015703
X004166Y015703
X006166Y015703
X008166Y015703
X005166Y015703
X007166Y015703
X009166Y015703
X011166Y015703
X013166Y015703
X010166Y015703
X012166Y015703
X014166Y015703
X015166Y015703
X003166Y014703
T00
M30
