; NON-PLATED HOLES START AT T1
; THROUGH (PLATED) HOLES START AT T100
M48
INCH
T100C0.035000
T101C0.035433
T102C0.049213
T103C0.038000
%
T100
X007166Y009203
X010166Y008203
X010166Y012203
X010166Y009203
X007166Y005203
X007166Y006203
X010166Y005203
X007166Y010203
X007166Y007203
X010166Y006203
X007166Y011203
X010166Y010203
X007166Y008203
X010166Y007203
X007166Y012203
X010166Y011203
T101
X005166Y007703
X012666Y009703
X009666Y003203
X012666Y007703
X005166Y009703
X007666Y003203
T102
X017166Y009703
X009666Y002203
X002666Y009703
X007698Y002203
X017166Y007735
X002666Y007735
T103
X014166Y014703
X012166Y014703
X010166Y014703
X015166Y014703
X003166Y015703
X004166Y015703
X006166Y015703
X008166Y015703
X005166Y015703
X007166Y015703
X009166Y015703
X011166Y015703
X013166Y015703
X010166Y015703
X012166Y015703
X014166Y015703
X015166Y015703
X003166Y014703
X008166Y014703
X006166Y014703
X004166Y014703
X009166Y014703
X007166Y014703
X005166Y014703
X013166Y014703
X011166Y014703
T00
M30
