G04 MADE WITH FRITZING*
G04 WWW.FRITZING.ORG*
G04 DOUBLE SIDED*
G04 HOLES PLATED*
G04 CONTOUR ON CENTER OF CONTOUR VECTOR*
%ASAXBY*%
%FSLAX23Y23*%
%MOIN*%
%OFA0B0*%
%SFA1.0B1.0*%
%ADD10C,0.008*%
%LNCONTOUR*%
G90*
G70*
G54D10*
X375Y1893D02*
X376Y1893D01*
X377Y1893D01*
X378Y1893D01*
X379Y1893D01*
X380Y1893D01*
X381Y1893D01*
X382Y1893D01*
X383Y1893D01*
X384Y1893D01*
X385Y1893D01*
X386Y1893D01*
X387Y1893D01*
X388Y1893D01*
X389Y1893D01*
X390Y1893D01*
X391Y1893D01*
X392Y1893D01*
X393Y1893D01*
X394Y1893D01*
X395Y1893D01*
X396Y1893D01*
X397Y1893D01*
X398Y1893D01*
X399Y1893D01*
X400Y1893D01*
X401Y1893D01*
X402Y1893D01*
X403Y1893D01*
X404Y1893D01*
X405Y1893D01*
X406Y1893D01*
X407Y1893D01*
X408Y1893D01*
X409Y1893D01*
X410Y1893D01*
X411Y1893D01*
X412Y1893D01*
X413Y1893D01*
X414Y1893D01*
X415Y1893D01*
X416Y1893D01*
X417Y1893D01*
X418Y1893D01*
X419Y1893D01*
X420Y1893D01*
X421Y1893D01*
X422Y1893D01*
X423Y1893D01*
X424Y1893D01*
X425Y1893D01*
X426Y1893D01*
X427Y1893D01*
X428Y1893D01*
X429Y1893D01*
X430Y1893D01*
X431Y1893D01*
X432Y1893D01*
X433Y1893D01*
X434Y1893D01*
X435Y1893D01*
X436Y1893D01*
X437Y1893D01*
X438Y1893D01*
X439Y1893D01*
X440Y1893D01*
X441Y1893D01*
X442Y1893D01*
X443Y1893D01*
X444Y1893D01*
X445Y1893D01*
X446Y1893D01*
X447Y1893D01*
X448Y1893D01*
X449Y1893D01*
X450Y1893D01*
X451Y1893D01*
X452Y1893D01*
X453Y1893D01*
X454Y1893D01*
X455Y1893D01*
X456Y1893D01*
X457Y1893D01*
X458Y1893D01*
X459Y1893D01*
X460Y1893D01*
X461Y1893D01*
X462Y1893D01*
X463Y1893D01*
X464Y1893D01*
X465Y1893D01*
X466Y1893D01*
X467Y1893D01*
X468Y1893D01*
X469Y1893D01*
X470Y1893D01*
X471Y1893D01*
X472Y1893D01*
X473Y1893D01*
X474Y1893D01*
X475Y1893D01*
X476Y1893D01*
X477Y1893D01*
X478Y1893D01*
X479Y1893D01*
X480Y1893D01*
X481Y1893D01*
X482Y1893D01*
X483Y1893D01*
X484Y1893D01*
X485Y1893D01*
X486Y1893D01*
X487Y1893D01*
X488Y1893D01*
X489Y1893D01*
X490Y1893D01*
X491Y1893D01*
X492Y1893D01*
X493Y1893D01*
X494Y1893D01*
X495Y1893D01*
X496Y1893D01*
X497Y1893D01*
X498Y1893D01*
X499Y1893D01*
X500Y1893D01*
X501Y1893D01*
X502Y1893D01*
X503Y1893D01*
X504Y1893D01*
X505Y1893D01*
X506Y1893D01*
X507Y1893D01*
X508Y1893D01*
X509Y1893D01*
X510Y1893D01*
X511Y1893D01*
X512Y1893D01*
X513Y1893D01*
X514Y1893D01*
X515Y1893D01*
X516Y1893D01*
X517Y1893D01*
X518Y1893D01*
X519Y1893D01*
X520Y1893D01*
X521Y1893D01*
X522Y1893D01*
X523Y1893D01*
X524Y1893D01*
X525Y1893D01*
X526Y1893D01*
X527Y1893D01*
X528Y1893D01*
X529Y1893D01*
X530Y1893D01*
X531Y1893D01*
X532Y1893D01*
X533Y1893D01*
X534Y1893D01*
X535Y1893D01*
X536Y1893D01*
X537Y1893D01*
X538Y1893D01*
X539Y1893D01*
X540Y1893D01*
X541Y1893D01*
X542Y1893D01*
X543Y1893D01*
X544Y1893D01*
X545Y1893D01*
X546Y1893D01*
X547Y1893D01*
X548Y1893D01*
X549Y1893D01*
X550Y1893D01*
X551Y1893D01*
X552Y1893D01*
X553Y1893D01*
X554Y1893D01*
X555Y1893D01*
X556Y1893D01*
X557Y1893D01*
X558Y1893D01*
X559Y1893D01*
X560Y1893D01*
X561Y1893D01*
X562Y1893D01*
X563Y1893D01*
X564Y1893D01*
X565Y1893D01*
X566Y1893D01*
X567Y1893D01*
X568Y1893D01*
X569Y1893D01*
X570Y1893D01*
X571Y1893D01*
X572Y1893D01*
X573Y1893D01*
X574Y1893D01*
X575Y1893D01*
X576Y1893D01*
X577Y1893D01*
X578Y1893D01*
X579Y1893D01*
X580Y1893D01*
X581Y1893D01*
X582Y1893D01*
X583Y1893D01*
X584Y1893D01*
X585Y1893D01*
X586Y1893D01*
X587Y1893D01*
X588Y1893D01*
X589Y1893D01*
X590Y1893D01*
X591Y1893D01*
X592Y1893D01*
X593Y1893D01*
X594Y1893D01*
X595Y1893D01*
X596Y1893D01*
X597Y1893D01*
X598Y1893D01*
X599Y1893D01*
X600Y1893D01*
X601Y1893D01*
X602Y1893D01*
X603Y1893D01*
X604Y1893D01*
X605Y1893D01*
X606Y1893D01*
X607Y1893D01*
X608Y1893D01*
X609Y1893D01*
X610Y1893D01*
X611Y1893D01*
X612Y1893D01*
X613Y1893D01*
X614Y1893D01*
X615Y1893D01*
X616Y1893D01*
X617Y1893D01*
X618Y1893D01*
X619Y1893D01*
X620Y1893D01*
X621Y1893D01*
X622Y1893D01*
X623Y1893D01*
X624Y1893D01*
X625Y1893D01*
X626Y1893D01*
X627Y1893D01*
X628Y1893D01*
X629Y1893D01*
X630Y1893D01*
X631Y1893D01*
X632Y1893D01*
X633Y1893D01*
X634Y1893D01*
X635Y1893D01*
X636Y1893D01*
X637Y1893D01*
X638Y1893D01*
X639Y1893D01*
X640Y1893D01*
X641Y1893D01*
X642Y1893D01*
X643Y1893D01*
X644Y1893D01*
X645Y1893D01*
X646Y1893D01*
X647Y1893D01*
X648Y1893D01*
X649Y1893D01*
X650Y1893D01*
X651Y1893D01*
X652Y1893D01*
X653Y1893D01*
X654Y1893D01*
X655Y1893D01*
X656Y1893D01*
X657Y1893D01*
X658Y1893D01*
X659Y1893D01*
X660Y1893D01*
X661Y1893D01*
X662Y1893D01*
X663Y1893D01*
X664Y1893D01*
X665Y1893D01*
X666Y1893D01*
X667Y1893D01*
X668Y1893D01*
X669Y1893D01*
X670Y1893D01*
X671Y1893D01*
X672Y1893D01*
X673Y1893D01*
X674Y1893D01*
X675Y1893D01*
X676Y1893D01*
X677Y1893D01*
X678Y1893D01*
X679Y1893D01*
X680Y1893D01*
X681Y1893D01*
X682Y1893D01*
X683Y1893D01*
X684Y1893D01*
X685Y1893D01*
X686Y1893D01*
X687Y1893D01*
X688Y1893D01*
X689Y1893D01*
X690Y1893D01*
X691Y1893D01*
X692Y1893D01*
X693Y1893D01*
X694Y1893D01*
X695Y1893D01*
X696Y1893D01*
X697Y1893D01*
X698Y1893D01*
X699Y1893D01*
X700Y1893D01*
X701Y1893D01*
X702Y1893D01*
X703Y1893D01*
X704Y1893D01*
X705Y1893D01*
X706Y1893D01*
X707Y1893D01*
X708Y1893D01*
X709Y1893D01*
X710Y1893D01*
X711Y1893D01*
X712Y1893D01*
X713Y1893D01*
X714Y1893D01*
X715Y1893D01*
X716Y1893D01*
X717Y1893D01*
X718Y1893D01*
X719Y1893D01*
X720Y1893D01*
X721Y1893D01*
X722Y1893D01*
X723Y1893D01*
X724Y1893D01*
X725Y1893D01*
X726Y1893D01*
X727Y1893D01*
X728Y1893D01*
X729Y1893D01*
X730Y1893D01*
X731Y1893D01*
X732Y1893D01*
X733Y1893D01*
X734Y1893D01*
X735Y1893D01*
X736Y1893D01*
X737Y1893D01*
X738Y1893D01*
X739Y1893D01*
X740Y1893D01*
X741Y1893D01*
X742Y1893D01*
X743Y1893D01*
X744Y1893D01*
X745Y1893D01*
X746Y1893D01*
X747Y1893D01*
X748Y1893D01*
X749Y1893D01*
X750Y1893D01*
X751Y1893D01*
X752Y1893D01*
X753Y1893D01*
X754Y1893D01*
X755Y1893D01*
X756Y1893D01*
X757Y1893D01*
X758Y1893D01*
X759Y1893D01*
X760Y1893D01*
X761Y1893D01*
X762Y1893D01*
X763Y1893D01*
X764Y1893D01*
X765Y1893D01*
X766Y1893D01*
X767Y1893D01*
X768Y1893D01*
X769Y1893D01*
X770Y1893D01*
X771Y1893D01*
X772Y1893D01*
X773Y1893D01*
X774Y1893D01*
X775Y1893D01*
X776Y1893D01*
X777Y1893D01*
X778Y1893D01*
X779Y1893D01*
X780Y1893D01*
X781Y1893D01*
X782Y1893D01*
X783Y1893D01*
X784Y1893D01*
X785Y1893D01*
X786Y1893D01*
X787Y1893D01*
X788Y1893D01*
X789Y1893D01*
X790Y1893D01*
X791Y1893D01*
X792Y1893D01*
X793Y1893D01*
X794Y1893D01*
X795Y1893D01*
X796Y1893D01*
X797Y1893D01*
X798Y1893D01*
X799Y1893D01*
X800Y1893D01*
X801Y1893D01*
X802Y1893D01*
X803Y1893D01*
X804Y1893D01*
X805Y1893D01*
X806Y1893D01*
X807Y1893D01*
X808Y1893D01*
X809Y1893D01*
X810Y1893D01*
X811Y1893D01*
X812Y1893D01*
X813Y1893D01*
X814Y1893D01*
X815Y1893D01*
X816Y1893D01*
X817Y1893D01*
X818Y1893D01*
X819Y1893D01*
X820Y1893D01*
X821Y1893D01*
X822Y1893D01*
X823Y1893D01*
X824Y1893D01*
X825Y1893D01*
X826Y1893D01*
X827Y1893D01*
X828Y1893D01*
X829Y1893D01*
X830Y1893D01*
X831Y1893D01*
X832Y1893D01*
X833Y1893D01*
X834Y1893D01*
X835Y1893D01*
X836Y1893D01*
X837Y1893D01*
X838Y1893D01*
X839Y1893D01*
X840Y1893D01*
X841Y1893D01*
X842Y1893D01*
X843Y1893D01*
X844Y1893D01*
X845Y1893D01*
X846Y1893D01*
X847Y1893D01*
X848Y1893D01*
X849Y1893D01*
X850Y1893D01*
X851Y1893D01*
X852Y1893D01*
X853Y1893D01*
X854Y1893D01*
X855Y1893D01*
X856Y1893D01*
X857Y1893D01*
X858Y1893D01*
X859Y1893D01*
X860Y1893D01*
X861Y1893D01*
X862Y1893D01*
X863Y1893D01*
X864Y1893D01*
X865Y1893D01*
X866Y1893D01*
X867Y1893D01*
X868Y1893D01*
X869Y1893D01*
X870Y1893D01*
X871Y1893D01*
X872Y1893D01*
X873Y1893D01*
X874Y1893D01*
X875Y1893D01*
X876Y1893D01*
X877Y1893D01*
X878Y1893D01*
X879Y1893D01*
X880Y1893D01*
X881Y1893D01*
X882Y1893D01*
X883Y1893D01*
X884Y1893D01*
X885Y1893D01*
X886Y1893D01*
X887Y1893D01*
X888Y1893D01*
X889Y1893D01*
X890Y1893D01*
X891Y1893D01*
X892Y1893D01*
X893Y1893D01*
X894Y1893D01*
X895Y1893D01*
X896Y1893D01*
X897Y1893D01*
X898Y1893D01*
X899Y1893D01*
X900Y1893D01*
X901Y1893D01*
X902Y1893D01*
X903Y1893D01*
X904Y1893D01*
X905Y1893D01*
X906Y1893D01*
X907Y1893D01*
X908Y1893D01*
X909Y1893D01*
X910Y1893D01*
X911Y1893D01*
X912Y1893D01*
X913Y1893D01*
X914Y1893D01*
X915Y1893D01*
X916Y1893D01*
X917Y1893D01*
X918Y1893D01*
X919Y1893D01*
X920Y1893D01*
X921Y1893D01*
X922Y1893D01*
X923Y1893D01*
X924Y1893D01*
X925Y1893D01*
X926Y1893D01*
X927Y1893D01*
X928Y1893D01*
X929Y1893D01*
X930Y1893D01*
X931Y1893D01*
X932Y1893D01*
X933Y1893D01*
X934Y1893D01*
X935Y1893D01*
X936Y1893D01*
X937Y1893D01*
X938Y1893D01*
X939Y1893D01*
X940Y1893D01*
X941Y1893D01*
X942Y1893D01*
X943Y1893D01*
X944Y1893D01*
X945Y1893D01*
X946Y1893D01*
X947Y1893D01*
X948Y1893D01*
X949Y1893D01*
X950Y1893D01*
X951Y1893D01*
X952Y1893D01*
X953Y1893D01*
X954Y1893D01*
X955Y1893D01*
X956Y1893D01*
X957Y1893D01*
X958Y1893D01*
X959Y1893D01*
X960Y1893D01*
X961Y1893D01*
X962Y1893D01*
X963Y1893D01*
X964Y1893D01*
X965Y1893D01*
X966Y1893D01*
X967Y1893D01*
X968Y1893D01*
X969Y1893D01*
X970Y1893D01*
X971Y1893D01*
X972Y1893D01*
X973Y1893D01*
X974Y1893D01*
X975Y1893D01*
X976Y1893D01*
X977Y1893D01*
X978Y1893D01*
X979Y1893D01*
X980Y1893D01*
X981Y1893D01*
X982Y1893D01*
X983Y1893D01*
X984Y1893D01*
X985Y1893D01*
X986Y1893D01*
X987Y1893D01*
X988Y1893D01*
X989Y1893D01*
X990Y1893D01*
X991Y1893D01*
X992Y1893D01*
X993Y1893D01*
X994Y1893D01*
X995Y1893D01*
X996Y1893D01*
X997Y1893D01*
X998Y1893D01*
X999Y1893D01*
X1000Y1893D01*
X1001Y1893D01*
X1002Y1893D01*
X1003Y1893D01*
X1004Y1893D01*
X1005Y1893D01*
X1006Y1893D01*
X1007Y1893D01*
X1008Y1893D01*
X1009Y1893D01*
X1010Y1893D01*
X1011Y1893D01*
X1012Y1893D01*
X1013Y1893D01*
X1014Y1893D01*
X1015Y1893D01*
X1016Y1893D01*
X1017Y1893D01*
X1018Y1893D01*
X1019Y1893D01*
X1020Y1893D01*
X1021Y1893D01*
X1022Y1893D01*
X1023Y1893D01*
X1024Y1893D01*
X1025Y1893D01*
X1026Y1893D01*
X1027Y1893D01*
X1028Y1893D01*
X1029Y1893D01*
X1030Y1893D01*
X1031Y1893D01*
X1032Y1893D01*
X1033Y1893D01*
X1034Y1893D01*
X1035Y1893D01*
X1036Y1893D01*
X1037Y1893D01*
X1038Y1893D01*
X1039Y1893D01*
X1040Y1893D01*
X1041Y1893D01*
X1042Y1893D01*
X1043Y1893D01*
X1044Y1893D01*
X1045Y1893D01*
X1046Y1893D01*
X1047Y1893D01*
X1048Y1893D01*
X1049Y1893D01*
X1050Y1893D01*
X1051Y1893D01*
X1052Y1893D01*
X1053Y1893D01*
X1054Y1893D01*
X1055Y1893D01*
X1056Y1893D01*
X1057Y1893D01*
X1058Y1893D01*
X1059Y1893D01*
X1060Y1893D01*
X1061Y1893D01*
X1062Y1893D01*
X1063Y1893D01*
X1064Y1893D01*
X1065Y1893D01*
X1066Y1893D01*
X1067Y1893D01*
X1068Y1893D01*
X1069Y1893D01*
X1070Y1893D01*
X1071Y1893D01*
X1072Y1893D01*
X1073Y1893D01*
X1074Y1893D01*
X1075Y1893D01*
X1076Y1893D01*
X1077Y1893D01*
X1078Y1893D01*
X1079Y1893D01*
X1080Y1893D01*
X1081Y1893D01*
X1082Y1893D01*
X1083Y1893D01*
X1084Y1893D01*
X1085Y1893D01*
X1086Y1893D01*
X1087Y1893D01*
X1088Y1893D01*
X1089Y1893D01*
X1090Y1893D01*
X1091Y1893D01*
X1092Y1893D01*
X1093Y1893D01*
X1094Y1893D01*
X1095Y1893D01*
X1096Y1893D01*
X1097Y1893D01*
X1098Y1893D01*
X1099Y1893D01*
X1100Y1893D01*
X1101Y1893D01*
X1102Y1893D01*
X1103Y1893D01*
X1104Y1893D01*
X1105Y1893D01*
X1106Y1893D01*
X1107Y1893D01*
X1108Y1893D01*
X1109Y1893D01*
X1110Y1893D01*
X1111Y1893D01*
X1112Y1893D01*
X1113Y1893D01*
X1114Y1893D01*
X1115Y1893D01*
X1116Y1893D01*
X1117Y1893D01*
X1118Y1893D01*
X1119Y1893D01*
X1120Y1893D01*
X1121Y1893D01*
X1122Y1893D01*
X1123Y1893D01*
X1124Y1893D01*
X1125Y1893D01*
X1126Y1893D01*
X1127Y1893D01*
X1128Y1893D01*
X1129Y1893D01*
X1130Y1893D01*
X1131Y1893D01*
X1132Y1893D01*
X1133Y1893D01*
X1134Y1893D01*
X1135Y1893D01*
X1136Y1893D01*
X1137Y1893D01*
X1138Y1893D01*
X1139Y1893D01*
X1140Y1893D01*
X1141Y1893D01*
X1142Y1893D01*
X1143Y1893D01*
X1144Y1893D01*
X1145Y1893D01*
X1146Y1893D01*
X1147Y1893D01*
X1148Y1893D01*
X1149Y1893D01*
X1150Y1893D01*
X1151Y1893D01*
X1152Y1893D01*
X1153Y1893D01*
X1154Y1893D01*
X1155Y1893D01*
X1156Y1893D01*
X1157Y1893D01*
X1158Y1893D01*
X1159Y1893D01*
X1160Y1893D01*
X1161Y1893D01*
X1162Y1893D01*
X1163Y1893D01*
X1164Y1893D01*
X1165Y1893D01*
X1166Y1893D01*
X1167Y1893D01*
X1168Y1893D01*
X1169Y1893D01*
X1170Y1893D01*
X1171Y1893D01*
X1172Y1893D01*
X1173Y1893D01*
X1174Y1893D01*
X1175Y1893D01*
X1176Y1893D01*
X1177Y1893D01*
X1178Y1893D01*
X1179Y1893D01*
X1180Y1893D01*
X1181Y1893D01*
X1182Y1893D01*
X1183Y1893D01*
X1184Y1893D01*
X1185Y1893D01*
X1186Y1893D01*
X1187Y1893D01*
X1188Y1893D01*
X1189Y1893D01*
X1190Y1893D01*
X1191Y1893D01*
X1192Y1893D01*
X1193Y1893D01*
X1194Y1893D01*
X1195Y1893D01*
X1196Y1893D01*
X1197Y1893D01*
X1198Y1893D01*
X1199Y1893D01*
X1200Y1893D01*
X1201Y1893D01*
X1202Y1893D01*
X1203Y1893D01*
X1204Y1893D01*
X1205Y1893D01*
X1206Y1893D01*
X1207Y1893D01*
X1208Y1893D01*
X1209Y1893D01*
X1210Y1893D01*
X1211Y1893D01*
X1212Y1893D01*
X1213Y1893D01*
X1214Y1893D01*
X1215Y1893D01*
X1216Y1893D01*
X1217Y1893D01*
X1218Y1893D01*
X1219Y1893D01*
X1220Y1893D01*
X1221Y1893D01*
X1222Y1893D01*
X1223Y1893D01*
X1224Y1893D01*
X1225Y1893D01*
X1226Y1893D01*
X1227Y1893D01*
X1228Y1893D01*
X1229Y1893D01*
X1230Y1893D01*
X1231Y1893D01*
X1232Y1893D01*
X1233Y1893D01*
X1234Y1893D01*
X1235Y1893D01*
X1236Y1893D01*
X1237Y1893D01*
X1238Y1893D01*
X1239Y1893D01*
X1240Y1893D01*
X1241Y1893D01*
X1242Y1893D01*
X1243Y1893D01*
X1244Y1893D01*
X1245Y1893D01*
X1246Y1893D01*
X1247Y1893D01*
X1248Y1893D01*
X1249Y1893D01*
X1250Y1893D01*
X1251Y1893D01*
X1252Y1893D01*
X1253Y1893D01*
X1254Y1893D01*
X1255Y1893D01*
X1256Y1893D01*
X1257Y1893D01*
X1258Y1893D01*
X1259Y1893D01*
X1260Y1893D01*
X1261Y1893D01*
X1262Y1893D01*
X1263Y1893D01*
X1264Y1893D01*
X1265Y1893D01*
X1266Y1893D01*
X1267Y1893D01*
X1268Y1893D01*
X1269Y1893D01*
X1270Y1893D01*
X1271Y1893D01*
X1272Y1893D01*
X1273Y1893D01*
X1274Y1893D01*
X1275Y1893D01*
X1276Y1893D01*
X1277Y1893D01*
X1278Y1893D01*
X1279Y1893D01*
X1280Y1893D01*
X1281Y1893D01*
X1282Y1893D01*
X1283Y1893D01*
X1284Y1893D01*
X1285Y1893D01*
X1286Y1893D01*
X1287Y1893D01*
X1288Y1893D01*
X1289Y1893D01*
X1290Y1893D01*
X1291Y1893D01*
X1292Y1893D01*
X1293Y1893D01*
X1294Y1893D01*
X1295Y1893D01*
X1296Y1893D01*
X1297Y1893D01*
X1298Y1893D01*
X1299Y1893D01*
X1300Y1893D01*
X1301Y1893D01*
X1302Y1893D01*
X1303Y1893D01*
X1304Y1893D01*
X1305Y1893D01*
X1306Y1893D01*
X1307Y1893D01*
X1308Y1893D01*
X1309Y1893D01*
X1310Y1893D01*
X1311Y1893D01*
X1312Y1893D01*
X1313Y1893D01*
X1314Y1893D01*
X1315Y1893D01*
X1316Y1893D01*
X1317Y1893D01*
X1318Y1893D01*
X1319Y1893D01*
X1320Y1893D01*
X1321Y1893D01*
X1322Y1893D01*
X1323Y1893D01*
X1324Y1893D01*
X1325Y1893D01*
X1326Y1893D01*
X1327Y1893D01*
X1328Y1893D01*
X1329Y1893D01*
X1330Y1893D01*
X1331Y1893D01*
X1332Y1893D01*
X1333Y1893D01*
X1334Y1893D01*
X1335Y1893D01*
X1336Y1893D01*
X1337Y1893D01*
X1338Y1893D01*
X1339Y1893D01*
X1340Y1893D01*
X1341Y1893D01*
X1342Y1893D01*
X1343Y1893D01*
X1344Y1893D01*
X1345Y1893D01*
X1346Y1893D01*
X1347Y1893D01*
X1348Y1893D01*
X1349Y1893D01*
X1350Y1893D01*
X1351Y1893D01*
X1352Y1893D01*
X1353Y1893D01*
X1354Y1893D01*
X1355Y1893D01*
X1356Y1893D01*
X1357Y1893D01*
X1358Y1893D01*
X1359Y1893D01*
X1360Y1893D01*
X1361Y1893D01*
X1362Y1893D01*
X1363Y1893D01*
X1364Y1893D01*
X1365Y1893D01*
X1366Y1893D01*
X1367Y1893D01*
X1368Y1893D01*
X1369Y1893D01*
X1370Y1893D01*
X1371Y1893D01*
X1372Y1893D01*
X1373Y1893D01*
X1374Y1893D01*
X1375Y1893D01*
X1376Y1893D01*
X1377Y1893D01*
X1378Y1893D01*
X1379Y1893D01*
X1380Y1893D01*
X1381Y1893D01*
X1382Y1893D01*
X1383Y1893D01*
X1384Y1893D01*
X1385Y1893D01*
X1386Y1893D01*
X1387Y1893D01*
X1388Y1893D01*
X1389Y1893D01*
X1390Y1893D01*
X1391Y1893D01*
X1392Y1893D01*
X1393Y1893D01*
X1394Y1893D01*
X1395Y1893D01*
X1396Y1893D01*
X1397Y1893D01*
X1398Y1893D01*
X1399Y1893D01*
X1400Y1893D01*
X1401Y1893D01*
X1402Y1893D01*
X1403Y1893D01*
X1404Y1893D01*
X1405Y1893D01*
X1406Y1893D01*
X1407Y1893D01*
X1408Y1893D01*
X1409Y1893D01*
X1410Y1893D01*
X1411Y1893D01*
X1412Y1893D01*
X1413Y1893D01*
X1414Y1893D01*
X1415Y1893D01*
X1416Y1893D01*
X1417Y1893D01*
X1418Y1893D01*
X1419Y1893D01*
X1420Y1893D01*
X1421Y1893D01*
X1422Y1893D01*
X1423Y1893D01*
X1424Y1893D01*
X1425Y1893D01*
X1426Y1893D01*
X1427Y1893D01*
X1428Y1893D01*
X1429Y1893D01*
X1430Y1893D01*
X1431Y1893D01*
X1432Y1893D01*
X1433Y1893D01*
X1434Y1893D01*
X1435Y1893D01*
X1436Y1893D01*
X1437Y1893D01*
X1438Y1893D01*
X1439Y1893D01*
X1440Y1893D01*
X1441Y1893D01*
X1442Y1893D01*
X1443Y1893D01*
X1444Y1893D01*
X1445Y1893D01*
X1446Y1893D01*
X1447Y1893D01*
X1448Y1893D01*
X1449Y1893D01*
X1450Y1893D01*
X1451Y1893D01*
X1452Y1893D01*
X1453Y1893D01*
X1454Y1893D01*
X1455Y1893D01*
X1456Y1893D01*
X1457Y1893D01*
X1458Y1893D01*
X1459Y1893D01*
X1460Y1893D01*
X1461Y1893D01*
X1462Y1893D01*
X1463Y1893D01*
X1464Y1893D01*
X1465Y1893D01*
X1466Y1893D01*
X1467Y1893D01*
X1468Y1893D01*
X1469Y1893D01*
X1470Y1893D01*
X1471Y1893D01*
X1472Y1893D01*
X1473Y1893D01*
X1474Y1893D01*
X1475Y1893D01*
X1476Y1893D01*
X1477Y1893D01*
X1478Y1893D01*
X1479Y1893D01*
X1480Y1893D01*
X1481Y1893D01*
X1482Y1893D01*
X1483Y1893D01*
X1484Y1893D01*
X1485Y1893D01*
X1486Y1893D01*
X1487Y1893D01*
X1488Y1893D01*
X1489Y1893D01*
X1490Y1893D01*
X1491Y1893D01*
X1492Y1893D01*
X1493Y1893D01*
X1494Y1893D01*
X1495Y1893D01*
X1496Y1893D01*
X1497Y1893D01*
X1498Y1893D01*
X1499Y1893D01*
X1500Y1893D01*
X1501Y1893D01*
X1502Y1893D01*
X1503Y1893D01*
X1504Y1893D01*
X1505Y1893D01*
X1506Y1893D01*
X1507Y1893D01*
X1508Y1893D01*
X1509Y1893D01*
X1510Y1893D01*
X1511Y1893D01*
X1512Y1893D01*
X1513Y1893D01*
X1514Y1893D01*
X1515Y1893D01*
X1516Y1893D01*
X1517Y1893D01*
X1518Y1893D01*
X1519Y1893D01*
X1520Y1893D01*
X1521Y1893D01*
X1522Y1893D01*
X1523Y1893D01*
X1524Y1893D01*
X1525Y1893D01*
X1526Y1893D01*
X1527Y1893D01*
X1528Y1893D01*
X1529Y1893D01*
X1530Y1893D01*
X1531Y1893D01*
X1532Y1893D01*
X1533Y1893D01*
X1534Y1893D01*
X1535Y1893D01*
X1536Y1893D01*
X1537Y1893D01*
X1538Y1892D01*
X1539Y1892D01*
X1540Y1892D01*
X1541Y1892D01*
X1542Y1892D01*
X1543Y1892D01*
X1544Y1892D01*
X1545Y1892D01*
X1546Y1892D01*
X1547Y1892D01*
X1548Y1892D01*
X1549Y1892D01*
X1550Y1892D01*
X1551Y1892D01*
X1552Y1892D01*
X1553Y1891D01*
X1554Y1891D01*
X1555Y1891D01*
X1556Y1891D01*
X1557Y1891D01*
X1558Y1891D01*
X1559Y1891D01*
X1560Y1891D01*
X1561Y1891D01*
X1562Y1891D01*
X1563Y1890D01*
X1564Y1890D01*
X1565Y1890D01*
X1566Y1890D01*
X1567Y1890D01*
X1568Y1890D01*
X1569Y1890D01*
X1570Y1890D01*
X1571Y1889D01*
X1572Y1889D01*
X1573Y1889D01*
X1574Y1889D01*
X1575Y1889D01*
X1576Y1889D01*
X1577Y1889D01*
X1578Y1888D01*
X1579Y1888D01*
X1580Y1888D01*
X1581Y1888D01*
X1582Y1888D01*
X1583Y1888D01*
X1584Y1888D01*
X1585Y1887D01*
X1586Y1887D01*
X1587Y1887D01*
X1588Y1887D01*
X1589Y1887D01*
X1590Y1886D01*
X1591Y1886D01*
X1592Y1886D01*
X1593Y1886D01*
X1594Y1886D01*
X1595Y1886D01*
X1596Y1885D01*
X1597Y1885D01*
X1598Y1885D01*
X1599Y1885D01*
X1600Y1884D01*
X1601Y1884D01*
X1602Y1884D01*
X1603Y1884D01*
X1604Y1884D01*
X1605Y1883D01*
X1606Y1883D01*
X1607Y1883D01*
X1608Y1883D01*
X1609Y1882D01*
X1610Y1882D01*
X1611Y1882D01*
X1612Y1882D01*
X1613Y1882D01*
X1614Y1881D01*
X1615Y1881D01*
X1616Y1881D01*
X1617Y1881D01*
X1618Y1880D01*
X1619Y1880D01*
X1620Y1880D01*
X1621Y1879D01*
X1622Y1879D01*
X1623Y1879D01*
X1624Y1879D01*
X1625Y1878D01*
X1626Y1878D01*
X1627Y1878D01*
X1628Y1878D01*
X1629Y1877D01*
X1630Y1877D01*
X1631Y1877D01*
X1632Y1876D01*
X1633Y1876D01*
X1634Y1876D01*
X1635Y1875D01*
X1636Y1875D01*
X1637Y1875D01*
X1638Y1874D01*
X1639Y1874D01*
X1640Y1874D01*
X1641Y1873D01*
X1642Y1873D01*
X1643Y1873D01*
X1644Y1872D01*
X1645Y1872D01*
X1646Y1872D01*
X1647Y1871D01*
X1648Y1871D01*
X1649Y1871D01*
X1650Y1870D01*
X1651Y1870D01*
X1652Y1870D01*
X1653Y1869D01*
X1654Y1869D01*
X1655Y1869D01*
X1656Y1868D01*
X1657Y1868D01*
X1658Y1868D01*
X1659Y1867D01*
X1660Y1867D01*
X1661Y1866D01*
X1662Y1866D01*
X1663Y1866D01*
X1664Y1865D01*
X1665Y1865D01*
X1666Y1864D01*
X1667Y1864D01*
X1668Y1864D01*
X1669Y1863D01*
X1670Y1863D01*
X1671Y1862D01*
X1672Y1862D01*
X1673Y1862D01*
X1674Y1861D01*
X1675Y1861D01*
X1676Y1860D01*
X1677Y1860D01*
X1678Y1859D01*
X1679Y1859D01*
X1680Y1858D01*
X1681Y1858D01*
X1682Y1858D01*
X1683Y1857D01*
X1684Y1857D01*
X1685Y1856D01*
X1686Y1856D01*
X1687Y1855D01*
X1688Y1855D01*
X1689Y1854D01*
X1690Y1854D01*
X1691Y1853D01*
X1692Y1853D01*
X1693Y1852D01*
X1694Y1852D01*
X1695Y1851D01*
X1696Y1851D01*
X1697Y1850D01*
X1698Y1850D01*
X1699Y1849D01*
X1700Y1849D01*
X1701Y1848D01*
X1702Y1848D01*
X1703Y1847D01*
X1704Y1847D01*
X1705Y1846D01*
X1706Y1846D01*
X1707Y1845D01*
X1708Y1845D01*
X1709Y1844D01*
X1710Y1844D01*
X1711Y1843D01*
X1712Y1842D01*
X1713Y1842D01*
X1714Y1841D01*
X1715Y1841D01*
X1716Y1840D01*
X1717Y1840D01*
X1718Y1839D01*
X1719Y1838D01*
X1720Y1838D01*
X1721Y1837D01*
X1722Y1837D01*
X1723Y1836D01*
X1724Y1836D01*
X1725Y1835D01*
X1726Y1834D01*
X1727Y1834D01*
X1728Y1833D01*
X1729Y1832D01*
X1730Y1832D01*
X1731Y1831D01*
X1732Y1830D01*
X1733Y1830D01*
X1734Y1829D01*
X1735Y1829D01*
X1736Y1828D01*
X1737Y1827D01*
X1738Y1827D01*
X1739Y1826D01*
X1740Y1825D01*
X1741Y1825D01*
X1742Y1824D01*
X1743Y1823D01*
X1744Y1822D01*
X1745Y1822D01*
X1746Y1821D01*
X1747Y1820D01*
X1748Y1820D01*
X1749Y1819D01*
X1750Y1818D01*
X1751Y1818D01*
X1752Y1817D01*
X1753Y1816D01*
X1754Y1815D01*
X1755Y1815D01*
X1756Y1814D01*
X1757Y1813D01*
X1758Y1812D01*
X1759Y1812D01*
X1760Y1811D01*
X1761Y1810D01*
X1762Y1809D01*
X1763Y1808D01*
X1764Y1808D01*
X1765Y1807D01*
X1766Y1806D01*
X1767Y1805D01*
X1768Y1805D01*
X1769Y1804D01*
X1770Y1803D01*
X1771Y1802D01*
X1772Y1801D01*
X1773Y1800D01*
X1774Y1800D01*
X1775Y1799D01*
X1776Y1798D01*
X1777Y1797D01*
X1778Y1796D01*
X1779Y1795D01*
X1780Y1794D01*
X1781Y1794D01*
X1782Y1793D01*
X1783Y1792D01*
X1784Y1791D01*
X1785Y1790D01*
X1786Y1789D01*
X1787Y1788D01*
X1788Y1787D01*
X1789Y1786D01*
X1790Y1785D01*
X1791Y1784D01*
X1792Y1783D01*
X1793Y1782D01*
X1794Y1781D01*
X1795Y1781D01*
X1796Y1780D01*
X1797Y1779D01*
X1798Y1778D01*
X1799Y1777D01*
X1800Y1776D01*
X1801Y1775D01*
X1801Y1774D01*
X1802Y1773D01*
X1803Y1772D01*
X1804Y1771D01*
X1805Y1770D01*
X1806Y1769D01*
X1807Y1768D01*
X1808Y1767D01*
X1809Y1766D01*
X1810Y1765D01*
X1811Y1764D01*
X1812Y1763D01*
X1813Y1762D01*
X1814Y1761D01*
X1814Y1760D01*
X1815Y1759D01*
X1816Y1758D01*
X1817Y1757D01*
X1818Y1756D01*
X1819Y1755D01*
X1820Y1754D01*
X1821Y1753D01*
X1821Y1752D01*
X1822Y1751D01*
X1823Y1750D01*
X1824Y1749D01*
X1825Y1748D01*
X1825Y1747D01*
X1826Y1746D01*
X1827Y1745D01*
X1828Y1744D01*
X1829Y1743D01*
X1829Y1742D01*
X1830Y1741D01*
X1831Y1740D01*
X1832Y1739D01*
X1833Y1738D01*
X1833Y1737D01*
X1834Y1736D01*
X1835Y1735D01*
X1836Y1734D01*
X1836Y1733D01*
X1837Y1732D01*
X1838Y1731D01*
X1838Y1730D01*
X1839Y1729D01*
X1840Y1728D01*
X1841Y1727D01*
X1841Y1726D01*
X1842Y1725D01*
X1843Y1724D01*
X1843Y1723D01*
X1844Y1722D01*
X1845Y1721D01*
X1846Y1720D01*
X1846Y1719D01*
X1847Y1718D01*
X1847Y1717D01*
X1848Y1716D01*
X1849Y1715D01*
X1849Y1714D01*
X1850Y1713D01*
X1851Y1712D01*
X1851Y1711D01*
X1852Y1710D01*
X1853Y1709D01*
X1853Y1708D01*
X1854Y1707D01*
X1855Y1706D01*
X1855Y1705D01*
X1856Y1704D01*
X1856Y1703D01*
X1857Y1702D01*
X1857Y1701D01*
X1858Y1700D01*
X1859Y1699D01*
X1859Y1698D01*
X1860Y1697D01*
X1860Y1696D01*
X1861Y1695D01*
X1862Y1694D01*
X1862Y1693D01*
X1863Y1692D01*
X1863Y1691D01*
X1864Y1690D01*
X1864Y1689D01*
X1865Y1688D01*
X1865Y1687D01*
X1866Y1686D01*
X1867Y1685D01*
X1867Y1684D01*
X1868Y1683D01*
X1868Y1682D01*
X1869Y1681D01*
X1869Y1680D01*
X1870Y1679D01*
X1870Y1678D01*
X1871Y1677D01*
X1871Y1676D01*
X1872Y1675D01*
X1872Y1674D01*
X1873Y1673D01*
X1873Y1672D01*
X1874Y1671D01*
X1874Y1670D01*
X1875Y1669D01*
X1875Y1668D01*
X1876Y1667D01*
X1876Y1665D01*
X1877Y1664D01*
X1877Y1663D01*
X1878Y1662D01*
X1878Y1661D01*
X1879Y1660D01*
X1879Y1659D01*
X1880Y1658D01*
X1880Y1657D01*
X1881Y1656D01*
X1881Y1654D01*
X1882Y1653D01*
X1882Y1652D01*
X1883Y1651D01*
X1883Y1649D01*
X1884Y1648D01*
X1884Y1647D01*
X1885Y1646D01*
X1885Y1644D01*
X1886Y1643D01*
X1886Y1642D01*
X1887Y1641D01*
X1887Y1639D01*
X1888Y1638D01*
X1888Y1636D01*
X1889Y1635D01*
X1889Y1634D01*
X1890Y1633D01*
X1890Y1631D01*
X1891Y1630D01*
X1891Y1628D01*
X1892Y1627D01*
X1892Y1625D01*
X1893Y1624D01*
X1893Y1622D01*
X1894Y1621D01*
X1894Y1619D01*
X1895Y1618D01*
X1895Y1615D01*
X1896Y1614D01*
X1896Y1612D01*
X1897Y1611D01*
X1897Y1609D01*
X1898Y1608D01*
X1898Y1605D01*
X1899Y1604D01*
X1899Y1601D01*
X1900Y1600D01*
X1900Y1597D01*
X1901Y1596D01*
X1901Y1593D01*
X1902Y1592D01*
X1902Y1589D01*
X1903Y1588D01*
X1903Y1584D01*
X1904Y1583D01*
X1904Y1580D01*
X1905Y1579D01*
X1905Y1574D01*
X1906Y1573D01*
X1906Y1569D01*
X1907Y1568D01*
X1907Y1563D01*
X1908Y1562D01*
X1908Y1556D01*
X1909Y1555D01*
X1909Y1548D01*
X1910Y1547D01*
X1910Y1538D01*
X1911Y1537D01*
X1911Y1524D01*
X1912Y1523D01*
X1912Y372D01*
X1911Y371D01*
X1911Y358D01*
X1910Y357D01*
X1910Y348D01*
X1909Y347D01*
X1909Y340D01*
X1908Y339D01*
X1908Y333D01*
X1907Y332D01*
X1907Y327D01*
X1906Y326D01*
X1906Y322D01*
X1905Y321D01*
X1905Y316D01*
X1904Y315D01*
X1904Y312D01*
X1903Y311D01*
X1903Y307D01*
X1902Y306D01*
X1902Y303D01*
X1901Y302D01*
X1901Y299D01*
X1900Y298D01*
X1900Y295D01*
X1899Y294D01*
X1899Y291D01*
X1898Y290D01*
X1898Y287D01*
X1897Y286D01*
X1897Y284D01*
X1896Y283D01*
X1896Y281D01*
X1895Y280D01*
X1895Y277D01*
X1894Y276D01*
X1894Y274D01*
X1893Y273D01*
X1893Y271D01*
X1892Y270D01*
X1892Y268D01*
X1891Y267D01*
X1891Y265D01*
X1890Y264D01*
X1890Y262D01*
X1889Y261D01*
X1889Y260D01*
X1888Y259D01*
X1888Y257D01*
X1887Y256D01*
X1887Y254D01*
X1886Y253D01*
X1886Y252D01*
X1885Y251D01*
X1885Y249D01*
X1884Y248D01*
X1884Y247D01*
X1883Y246D01*
X1883Y244D01*
X1882Y243D01*
X1882Y242D01*
X1881Y241D01*
X1881Y239D01*
X1880Y238D01*
X1880Y237D01*
X1879Y236D01*
X1879Y235D01*
X1878Y234D01*
X1878Y233D01*
X1877Y232D01*
X1877Y231D01*
X1876Y230D01*
X1876Y228D01*
X1875Y227D01*
X1875Y226D01*
X1874Y225D01*
X1874Y224D01*
X1873Y223D01*
X1873Y222D01*
X1872Y221D01*
X1872Y220D01*
X1871Y219D01*
X1871Y218D01*
X1870Y217D01*
X1870Y216D01*
X1869Y215D01*
X1869Y214D01*
X1868Y213D01*
X1868Y212D01*
X1867Y211D01*
X1867Y210D01*
X1866Y209D01*
X1865Y208D01*
X1865Y207D01*
X1864Y206D01*
X1864Y205D01*
X1863Y204D01*
X1863Y203D01*
X1862Y202D01*
X1862Y201D01*
X1861Y200D01*
X1860Y199D01*
X1860Y198D01*
X1859Y197D01*
X1859Y196D01*
X1858Y195D01*
X1857Y194D01*
X1857Y193D01*
X1856Y192D01*
X1856Y191D01*
X1855Y190D01*
X1855Y189D01*
X1854Y188D01*
X1853Y187D01*
X1853Y186D01*
X1852Y185D01*
X1851Y184D01*
X1851Y183D01*
X1850Y182D01*
X1849Y181D01*
X1849Y180D01*
X1848Y179D01*
X1847Y178D01*
X1847Y177D01*
X1846Y176D01*
X1846Y175D01*
X1845Y174D01*
X1844Y173D01*
X1843Y172D01*
X1843Y171D01*
X1842Y170D01*
X1841Y169D01*
X1841Y168D01*
X1840Y167D01*
X1839Y166D01*
X1838Y165D01*
X1838Y164D01*
X1837Y163D01*
X1836Y162D01*
X1836Y161D01*
X1835Y160D01*
X1834Y159D01*
X1833Y158D01*
X1833Y157D01*
X1832Y156D01*
X1831Y155D01*
X1830Y154D01*
X1829Y153D01*
X1829Y152D01*
X1828Y151D01*
X1827Y150D01*
X1826Y149D01*
X1825Y148D01*
X1825Y147D01*
X1824Y146D01*
X1823Y145D01*
X1822Y144D01*
X1821Y143D01*
X1821Y142D01*
X1820Y141D01*
X1819Y140D01*
X1818Y139D01*
X1817Y138D01*
X1816Y137D01*
X1815Y136D01*
X1814Y135D01*
X1814Y134D01*
X1813Y133D01*
X1812Y132D01*
X1811Y131D01*
X1810Y130D01*
X1809Y129D01*
X1808Y128D01*
X1807Y127D01*
X1806Y126D01*
X1805Y125D01*
X1804Y124D01*
X1803Y123D01*
X1802Y122D01*
X1801Y121D01*
X1801Y120D01*
X1800Y119D01*
X1799Y118D01*
X1798Y117D01*
X1797Y116D01*
X1796Y115D01*
X1795Y114D01*
X1794Y114D01*
X1793Y113D01*
X1792Y112D01*
X1791Y111D01*
X1790Y110D01*
X1789Y109D01*
X1788Y108D01*
X1787Y107D01*
X1786Y106D01*
X1785Y105D01*
X1784Y104D01*
X1783Y103D01*
X1782Y102D01*
X1781Y101D01*
X1780Y101D01*
X1779Y100D01*
X1778Y99D01*
X1777Y98D01*
X1776Y97D01*
X1775Y96D01*
X1774Y95D01*
X1773Y95D01*
X1772Y94D01*
X1771Y93D01*
X1770Y92D01*
X1769Y91D01*
X1768Y90D01*
X1767Y90D01*
X1766Y89D01*
X1765Y88D01*
X1764Y87D01*
X1763Y87D01*
X1762Y86D01*
X1761Y85D01*
X1760Y84D01*
X1759Y83D01*
X1758Y83D01*
X1757Y82D01*
X1756Y81D01*
X1755Y80D01*
X1754Y80D01*
X1753Y79D01*
X1752Y78D01*
X1751Y77D01*
X1750Y77D01*
X1749Y76D01*
X1748Y75D01*
X1747Y75D01*
X1746Y74D01*
X1745Y73D01*
X1744Y73D01*
X1743Y72D01*
X1742Y71D01*
X1741Y70D01*
X1740Y70D01*
X1739Y69D01*
X1738Y68D01*
X1737Y68D01*
X1736Y67D01*
X1735Y66D01*
X1734Y66D01*
X1733Y65D01*
X1732Y65D01*
X1731Y64D01*
X1730Y63D01*
X1729Y63D01*
X1728Y62D01*
X1727Y61D01*
X1726Y61D01*
X1725Y60D01*
X1724Y59D01*
X1723Y59D01*
X1722Y58D01*
X1721Y58D01*
X1720Y57D01*
X1719Y57D01*
X1718Y56D01*
X1717Y55D01*
X1716Y55D01*
X1715Y54D01*
X1714Y54D01*
X1713Y53D01*
X1712Y53D01*
X1711Y52D01*
X1710Y51D01*
X1709Y51D01*
X1708Y50D01*
X1707Y50D01*
X1706Y49D01*
X1705Y49D01*
X1704Y48D01*
X1703Y48D01*
X1702Y47D01*
X1701Y47D01*
X1700Y46D01*
X1699Y46D01*
X1698Y45D01*
X1697Y45D01*
X1696Y44D01*
X1695Y44D01*
X1694Y43D01*
X1693Y43D01*
X1692Y42D01*
X1691Y42D01*
X1690Y41D01*
X1689Y41D01*
X1688Y40D01*
X1687Y40D01*
X1686Y39D01*
X1685Y39D01*
X1684Y38D01*
X1683Y38D01*
X1682Y37D01*
X1681Y37D01*
X1680Y37D01*
X1679Y36D01*
X1678Y36D01*
X1677Y35D01*
X1676Y35D01*
X1675Y34D01*
X1674Y34D01*
X1673Y33D01*
X1672Y33D01*
X1671Y33D01*
X1670Y32D01*
X1669Y32D01*
X1668Y31D01*
X1667Y31D01*
X1666Y31D01*
X1665Y30D01*
X1664Y30D01*
X1663Y29D01*
X1662Y29D01*
X1661Y29D01*
X1660Y28D01*
X1659Y28D01*
X1658Y27D01*
X1657Y27D01*
X1656Y27D01*
X1655Y26D01*
X1654Y26D01*
X1653Y26D01*
X1652Y25D01*
X1651Y25D01*
X1650Y25D01*
X1649Y24D01*
X1648Y24D01*
X1647Y24D01*
X1646Y23D01*
X1645Y23D01*
X1644Y23D01*
X1643Y22D01*
X1642Y22D01*
X1641Y22D01*
X1640Y21D01*
X1639Y21D01*
X1638Y21D01*
X1637Y20D01*
X1636Y20D01*
X1635Y20D01*
X1634Y19D01*
X1633Y19D01*
X1632Y19D01*
X1631Y18D01*
X1630Y18D01*
X1629Y18D01*
X1628Y17D01*
X1627Y17D01*
X1626Y17D01*
X1625Y17D01*
X1624Y16D01*
X1623Y16D01*
X1622Y16D01*
X1621Y16D01*
X1620Y15D01*
X1619Y15D01*
X1618Y15D01*
X1617Y14D01*
X1616Y14D01*
X1615Y14D01*
X1614Y14D01*
X1613Y13D01*
X1612Y13D01*
X1611Y13D01*
X1610Y13D01*
X1609Y13D01*
X1608Y12D01*
X1607Y12D01*
X1606Y12D01*
X1605Y12D01*
X1604Y11D01*
X1603Y11D01*
X1602Y11D01*
X1601Y11D01*
X1600Y11D01*
X1599Y10D01*
X1598Y10D01*
X1597Y10D01*
X1596Y10D01*
X1595Y9D01*
X1594Y9D01*
X1593Y9D01*
X1592Y9D01*
X1591Y9D01*
X1590Y9D01*
X1589Y8D01*
X1588Y8D01*
X1587Y8D01*
X1586Y8D01*
X1585Y8D01*
X1584Y7D01*
X1583Y7D01*
X1582Y7D01*
X1581Y7D01*
X1580Y7D01*
X1579Y7D01*
X1578Y7D01*
X1577Y6D01*
X1576Y6D01*
X1575Y6D01*
X1574Y6D01*
X1573Y6D01*
X1572Y6D01*
X1571Y6D01*
X1570Y5D01*
X1569Y5D01*
X1568Y5D01*
X1567Y5D01*
X1566Y5D01*
X1565Y5D01*
X1564Y5D01*
X1563Y5D01*
X1562Y4D01*
X1561Y4D01*
X1560Y4D01*
X1559Y4D01*
X1558Y4D01*
X1557Y4D01*
X1556Y4D01*
X1555Y4D01*
X1554Y4D01*
X1553Y4D01*
X1552Y3D01*
X1551Y3D01*
X1550Y3D01*
X1549Y3D01*
X1548Y3D01*
X1547Y3D01*
X1546Y3D01*
X1545Y3D01*
X1544Y3D01*
X1543Y3D01*
X1542Y3D01*
X1541Y3D01*
X1540Y3D01*
X1539Y3D01*
X1538Y3D01*
X1537Y2D01*
X1536Y2D01*
X1535Y2D01*
X1534Y2D01*
X1533Y2D01*
X1532Y2D01*
X1531Y2D01*
X1530Y2D01*
X1529Y2D01*
X1528Y2D01*
X1527Y2D01*
X1526Y2D01*
X1525Y2D01*
X1524Y2D01*
X1523Y2D01*
X1522Y2D01*
X1521Y2D01*
X1520Y2D01*
X1519Y2D01*
X1518Y2D01*
X1517Y2D01*
X1516Y2D01*
X1515Y2D01*
X1514Y2D01*
X1513Y2D01*
X1512Y2D01*
X1511Y2D01*
X1510Y2D01*
X1509Y2D01*
X1508Y2D01*
X1507Y2D01*
X1506Y2D01*
X1505Y2D01*
X1504Y2D01*
X1503Y2D01*
X1502Y2D01*
X1501Y2D01*
X1500Y2D01*
X1499Y2D01*
X1498Y2D01*
X1497Y2D01*
X1496Y2D01*
X1495Y2D01*
X1494Y2D01*
X1493Y2D01*
X1492Y2D01*
X1491Y2D01*
X1490Y2D01*
X1489Y2D01*
X1488Y2D01*
X1487Y2D01*
X1486Y2D01*
X1485Y2D01*
X1484Y2D01*
X1483Y2D01*
X1482Y2D01*
X1481Y2D01*
X1480Y2D01*
X1479Y2D01*
X1478Y2D01*
X1477Y2D01*
X1476Y2D01*
X1475Y2D01*
X1474Y2D01*
X1473Y2D01*
X1472Y2D01*
X1471Y2D01*
X1470Y2D01*
X1469Y2D01*
X1468Y2D01*
X1467Y2D01*
X1466Y2D01*
X1465Y2D01*
X1464Y2D01*
X1463Y2D01*
X1462Y2D01*
X1461Y2D01*
X1460Y2D01*
X1459Y2D01*
X1458Y2D01*
X1457Y2D01*
X1456Y2D01*
X1455Y2D01*
X1454Y2D01*
X1453Y2D01*
X1452Y2D01*
X1451Y2D01*
X1450Y2D01*
X1449Y2D01*
X1448Y2D01*
X1447Y2D01*
X1446Y2D01*
X1445Y2D01*
X1444Y2D01*
X1443Y2D01*
X1442Y2D01*
X1441Y2D01*
X1440Y2D01*
X1439Y2D01*
X1438Y2D01*
X1437Y2D01*
X1436Y2D01*
X1435Y2D01*
X1434Y2D01*
X1433Y2D01*
X1432Y2D01*
X1431Y2D01*
X1430Y2D01*
X1429Y2D01*
X1428Y2D01*
X1427Y2D01*
X1426Y2D01*
X1425Y2D01*
X1424Y2D01*
X1423Y2D01*
X1422Y2D01*
X1421Y2D01*
X1420Y2D01*
X1419Y2D01*
X1418Y2D01*
X1417Y2D01*
X1416Y2D01*
X1415Y2D01*
X1414Y2D01*
X1413Y2D01*
X1412Y2D01*
X1411Y2D01*
X1410Y2D01*
X1409Y2D01*
X1408Y2D01*
X1407Y2D01*
X1406Y2D01*
X1405Y2D01*
X1404Y2D01*
X1403Y2D01*
X1402Y2D01*
X1401Y2D01*
X1400Y2D01*
X1399Y2D01*
X1398Y2D01*
X1397Y2D01*
X1396Y2D01*
X1395Y2D01*
X1394Y2D01*
X1393Y2D01*
X1392Y2D01*
X1391Y2D01*
X1390Y2D01*
X1389Y2D01*
X1388Y2D01*
X1387Y2D01*
X1386Y2D01*
X1385Y2D01*
X1384Y2D01*
X1383Y2D01*
X1382Y2D01*
X1381Y2D01*
X1380Y2D01*
X1379Y2D01*
X1378Y2D01*
X1377Y2D01*
X1376Y2D01*
X1375Y2D01*
X1374Y2D01*
X1373Y2D01*
X1372Y2D01*
X1371Y2D01*
X1370Y2D01*
X1369Y2D01*
X1368Y2D01*
X1367Y2D01*
X1366Y2D01*
X1365Y2D01*
X1364Y2D01*
X1363Y2D01*
X1362Y2D01*
X1361Y2D01*
X1360Y2D01*
X1359Y2D01*
X1358Y2D01*
X1357Y2D01*
X1356Y2D01*
X1355Y2D01*
X1354Y2D01*
X1353Y2D01*
X1352Y2D01*
X1351Y2D01*
X1350Y2D01*
X1349Y2D01*
X1348Y2D01*
X1347Y2D01*
X1346Y2D01*
X1345Y2D01*
X1344Y2D01*
X1343Y2D01*
X1342Y2D01*
X1341Y2D01*
X1340Y2D01*
X1339Y2D01*
X1338Y2D01*
X1337Y2D01*
X1336Y2D01*
X1335Y2D01*
X1334Y2D01*
X1333Y2D01*
X1332Y2D01*
X1331Y2D01*
X1330Y2D01*
X1329Y2D01*
X1328Y2D01*
X1327Y2D01*
X1326Y2D01*
X1325Y2D01*
X1324Y2D01*
X1323Y2D01*
X1322Y2D01*
X1321Y2D01*
X1320Y2D01*
X1319Y2D01*
X1318Y2D01*
X1317Y2D01*
X1316Y2D01*
X1315Y2D01*
X1314Y2D01*
X1313Y2D01*
X1312Y2D01*
X1311Y2D01*
X1310Y2D01*
X1309Y2D01*
X1308Y2D01*
X1307Y2D01*
X1306Y2D01*
X1305Y2D01*
X1304Y2D01*
X1303Y2D01*
X1302Y2D01*
X1301Y2D01*
X1300Y2D01*
X1299Y2D01*
X1298Y2D01*
X1297Y2D01*
X1296Y2D01*
X1295Y2D01*
X1294Y2D01*
X1293Y2D01*
X1292Y2D01*
X1291Y2D01*
X1290Y2D01*
X1289Y2D01*
X1288Y2D01*
X1287Y2D01*
X1286Y2D01*
X1285Y2D01*
X1284Y2D01*
X1283Y2D01*
X1282Y2D01*
X1281Y2D01*
X1280Y2D01*
X1279Y2D01*
X1278Y2D01*
X1277Y2D01*
X1276Y2D01*
X1275Y2D01*
X1274Y2D01*
X1273Y2D01*
X1272Y2D01*
X1271Y2D01*
X1270Y2D01*
X1269Y2D01*
X1268Y2D01*
X1267Y2D01*
X1266Y2D01*
X1265Y2D01*
X1264Y2D01*
X1263Y2D01*
X1262Y2D01*
X1261Y2D01*
X1260Y2D01*
X1259Y2D01*
X1258Y2D01*
X1257Y2D01*
X1256Y2D01*
X1255Y2D01*
X1254Y2D01*
X1253Y2D01*
X1252Y2D01*
X1251Y2D01*
X1250Y2D01*
X1249Y2D01*
X1248Y2D01*
X1247Y2D01*
X1246Y2D01*
X1245Y2D01*
X1244Y2D01*
X1243Y2D01*
X1242Y2D01*
X1241Y2D01*
X1240Y2D01*
X1239Y2D01*
X1238Y2D01*
X1237Y2D01*
X1236Y2D01*
X1235Y2D01*
X1234Y2D01*
X1233Y2D01*
X1232Y2D01*
X1231Y2D01*
X1230Y2D01*
X1229Y2D01*
X1228Y2D01*
X1227Y2D01*
X1226Y2D01*
X1225Y2D01*
X1224Y2D01*
X1223Y2D01*
X1222Y2D01*
X1221Y2D01*
X1220Y2D01*
X1219Y2D01*
X1218Y2D01*
X1217Y2D01*
X1216Y2D01*
X1215Y2D01*
X1214Y2D01*
X1213Y2D01*
X1212Y2D01*
X1211Y2D01*
X1210Y2D01*
X1209Y2D01*
X1208Y2D01*
X1207Y2D01*
X1206Y2D01*
X1205Y2D01*
X1204Y2D01*
X1203Y2D01*
X1202Y2D01*
X1201Y2D01*
X1200Y2D01*
X1199Y2D01*
X1198Y2D01*
X1197Y2D01*
X1196Y2D01*
X1195Y2D01*
X1194Y2D01*
X1193Y2D01*
X1192Y2D01*
X1191Y2D01*
X1190Y2D01*
X1189Y2D01*
X1188Y2D01*
X1187Y2D01*
X1186Y2D01*
X1185Y2D01*
X1184Y2D01*
X1183Y2D01*
X1182Y2D01*
X1181Y2D01*
X1180Y2D01*
X1179Y2D01*
X1178Y2D01*
X1177Y2D01*
X1176Y2D01*
X1175Y2D01*
X1174Y2D01*
X1173Y2D01*
X1172Y2D01*
X1171Y2D01*
X1170Y2D01*
X1169Y2D01*
X1168Y2D01*
X1167Y2D01*
X1166Y2D01*
X1165Y2D01*
X1164Y2D01*
X1163Y2D01*
X1162Y2D01*
X1161Y2D01*
X1160Y2D01*
X1159Y2D01*
X1158Y2D01*
X1157Y2D01*
X1156Y2D01*
X1155Y2D01*
X1154Y2D01*
X1153Y2D01*
X1152Y2D01*
X1151Y2D01*
X1150Y2D01*
X1149Y2D01*
X1148Y2D01*
X1147Y2D01*
X1146Y2D01*
X1145Y2D01*
X1144Y2D01*
X1143Y2D01*
X1142Y2D01*
X1141Y2D01*
X1140Y2D01*
X1139Y2D01*
X1138Y2D01*
X1137Y2D01*
X1136Y2D01*
X1135Y2D01*
X1134Y2D01*
X1133Y2D01*
X1132Y2D01*
X1131Y2D01*
X1130Y2D01*
X1129Y2D01*
X1128Y2D01*
X1127Y2D01*
X1126Y2D01*
X1125Y2D01*
X1124Y2D01*
X1123Y2D01*
X1122Y2D01*
X1121Y2D01*
X1120Y2D01*
X1119Y2D01*
X1118Y2D01*
X1117Y2D01*
X1116Y2D01*
X1115Y2D01*
X1114Y2D01*
X1113Y2D01*
X1112Y2D01*
X1111Y2D01*
X1110Y2D01*
X1109Y2D01*
X1108Y2D01*
X1107Y2D01*
X1106Y2D01*
X1105Y2D01*
X1104Y2D01*
X1103Y2D01*
X1102Y2D01*
X1101Y2D01*
X1100Y2D01*
X1099Y2D01*
X1098Y2D01*
X1097Y2D01*
X1096Y2D01*
X1095Y2D01*
X1094Y2D01*
X1093Y2D01*
X1092Y2D01*
X1091Y2D01*
X1090Y2D01*
X1089Y2D01*
X1088Y2D01*
X1087Y2D01*
X1086Y2D01*
X1085Y2D01*
X1084Y2D01*
X1083Y2D01*
X1082Y2D01*
X1081Y2D01*
X1080Y2D01*
X1079Y2D01*
X1078Y2D01*
X1077Y2D01*
X1076Y2D01*
X1075Y2D01*
X1074Y2D01*
X1073Y2D01*
X1072Y2D01*
X1071Y2D01*
X1070Y2D01*
X1069Y2D01*
X1068Y2D01*
X1067Y2D01*
X1066Y2D01*
X1065Y2D01*
X1064Y2D01*
X1063Y2D01*
X1062Y2D01*
X1061Y2D01*
X1060Y2D01*
X1059Y2D01*
X1058Y2D01*
X1057Y2D01*
X1056Y2D01*
X1055Y2D01*
X1054Y2D01*
X1053Y2D01*
X1052Y2D01*
X1051Y2D01*
X1050Y2D01*
X1049Y2D01*
X1048Y2D01*
X1047Y2D01*
X1046Y2D01*
X1045Y2D01*
X1044Y2D01*
X1043Y2D01*
X1042Y2D01*
X1041Y2D01*
X1040Y2D01*
X1039Y2D01*
X1038Y2D01*
X1037Y2D01*
X1036Y2D01*
X1035Y2D01*
X1034Y2D01*
X1033Y2D01*
X1032Y2D01*
X1031Y2D01*
X1030Y2D01*
X1029Y2D01*
X1028Y2D01*
X1027Y2D01*
X1026Y2D01*
X1025Y2D01*
X1024Y2D01*
X1023Y2D01*
X1022Y2D01*
X1021Y2D01*
X1020Y2D01*
X1019Y2D01*
X1018Y2D01*
X1017Y2D01*
X1016Y2D01*
X1015Y2D01*
X1014Y2D01*
X1013Y2D01*
X1012Y2D01*
X1011Y2D01*
X1010Y2D01*
X1009Y2D01*
X1008Y2D01*
X1007Y2D01*
X1006Y2D01*
X1005Y2D01*
X1004Y2D01*
X1003Y2D01*
X1002Y2D01*
X1001Y2D01*
X1000Y2D01*
X999Y2D01*
X998Y2D01*
X997Y2D01*
X996Y2D01*
X995Y2D01*
X994Y2D01*
X993Y2D01*
X992Y2D01*
X991Y2D01*
X990Y2D01*
X989Y2D01*
X988Y2D01*
X987Y2D01*
X986Y2D01*
X985Y2D01*
X984Y2D01*
X983Y2D01*
X982Y2D01*
X981Y2D01*
X980Y2D01*
X979Y2D01*
X978Y2D01*
X977Y2D01*
X976Y2D01*
X975Y2D01*
X974Y2D01*
X973Y2D01*
X972Y2D01*
X971Y2D01*
X970Y2D01*
X969Y2D01*
X968Y2D01*
X967Y2D01*
X966Y2D01*
X965Y2D01*
X964Y2D01*
X963Y2D01*
X962Y2D01*
X961Y2D01*
X960Y2D01*
X959Y2D01*
X958Y2D01*
X957Y2D01*
X956Y2D01*
X955Y2D01*
X954Y2D01*
X953Y2D01*
X952Y2D01*
X951Y2D01*
X950Y2D01*
X949Y2D01*
X948Y2D01*
X947Y2D01*
X946Y2D01*
X945Y2D01*
X944Y2D01*
X943Y2D01*
X942Y2D01*
X941Y2D01*
X940Y2D01*
X939Y2D01*
X938Y2D01*
X937Y2D01*
X936Y2D01*
X935Y2D01*
X934Y2D01*
X933Y2D01*
X932Y2D01*
X931Y2D01*
X930Y2D01*
X929Y2D01*
X928Y2D01*
X927Y2D01*
X926Y2D01*
X925Y2D01*
X924Y2D01*
X923Y2D01*
X922Y2D01*
X921Y2D01*
X920Y2D01*
X919Y2D01*
X918Y2D01*
X917Y2D01*
X916Y2D01*
X915Y2D01*
X914Y2D01*
X913Y2D01*
X912Y2D01*
X911Y2D01*
X910Y2D01*
X909Y2D01*
X908Y2D01*
X907Y2D01*
X906Y2D01*
X905Y2D01*
X904Y2D01*
X903Y2D01*
X902Y2D01*
X901Y2D01*
X900Y2D01*
X899Y2D01*
X898Y2D01*
X897Y2D01*
X896Y2D01*
X895Y2D01*
X894Y2D01*
X893Y2D01*
X892Y2D01*
X891Y2D01*
X890Y2D01*
X889Y2D01*
X888Y2D01*
X887Y2D01*
X886Y2D01*
X885Y2D01*
X884Y2D01*
X883Y2D01*
X882Y2D01*
X881Y2D01*
X880Y2D01*
X879Y2D01*
X878Y2D01*
X877Y2D01*
X876Y2D01*
X875Y2D01*
X874Y2D01*
X873Y2D01*
X872Y2D01*
X871Y2D01*
X870Y2D01*
X869Y2D01*
X868Y2D01*
X867Y2D01*
X866Y2D01*
X865Y2D01*
X864Y2D01*
X863Y2D01*
X862Y2D01*
X861Y2D01*
X860Y2D01*
X859Y2D01*
X858Y2D01*
X857Y2D01*
X856Y2D01*
X855Y2D01*
X854Y2D01*
X853Y2D01*
X852Y2D01*
X851Y2D01*
X850Y2D01*
X849Y2D01*
X848Y2D01*
X847Y2D01*
X846Y2D01*
X845Y2D01*
X844Y2D01*
X843Y2D01*
X842Y2D01*
X841Y2D01*
X840Y2D01*
X839Y2D01*
X838Y2D01*
X837Y2D01*
X836Y2D01*
X835Y2D01*
X834Y2D01*
X833Y2D01*
X832Y2D01*
X831Y2D01*
X830Y2D01*
X829Y2D01*
X828Y2D01*
X827Y2D01*
X826Y2D01*
X825Y2D01*
X824Y2D01*
X823Y2D01*
X822Y2D01*
X821Y2D01*
X820Y2D01*
X819Y2D01*
X818Y2D01*
X817Y2D01*
X816Y2D01*
X815Y2D01*
X814Y2D01*
X813Y2D01*
X812Y2D01*
X811Y2D01*
X810Y2D01*
X809Y2D01*
X808Y2D01*
X807Y2D01*
X806Y2D01*
X805Y2D01*
X804Y2D01*
X803Y2D01*
X802Y2D01*
X801Y2D01*
X800Y2D01*
X799Y2D01*
X798Y2D01*
X797Y2D01*
X796Y2D01*
X795Y2D01*
X794Y2D01*
X793Y2D01*
X792Y2D01*
X791Y2D01*
X790Y2D01*
X789Y2D01*
X788Y2D01*
X787Y2D01*
X786Y2D01*
X785Y2D01*
X784Y2D01*
X783Y2D01*
X782Y2D01*
X781Y2D01*
X780Y2D01*
X779Y2D01*
X778Y2D01*
X777Y2D01*
X776Y2D01*
X775Y2D01*
X774Y2D01*
X773Y2D01*
X772Y2D01*
X771Y2D01*
X770Y2D01*
X769Y2D01*
X768Y2D01*
X767Y2D01*
X766Y2D01*
X765Y2D01*
X764Y2D01*
X763Y2D01*
X762Y2D01*
X761Y2D01*
X760Y2D01*
X759Y2D01*
X758Y2D01*
X757Y2D01*
X756Y2D01*
X755Y2D01*
X754Y2D01*
X753Y2D01*
X752Y2D01*
X751Y2D01*
X750Y2D01*
X749Y2D01*
X748Y2D01*
X747Y2D01*
X746Y2D01*
X745Y2D01*
X744Y2D01*
X743Y2D01*
X742Y2D01*
X741Y2D01*
X740Y2D01*
X739Y2D01*
X738Y2D01*
X737Y2D01*
X736Y2D01*
X735Y2D01*
X734Y2D01*
X733Y2D01*
X732Y2D01*
X731Y2D01*
X730Y2D01*
X729Y2D01*
X728Y2D01*
X727Y2D01*
X726Y2D01*
X725Y2D01*
X724Y2D01*
X723Y2D01*
X722Y2D01*
X721Y2D01*
X720Y2D01*
X719Y2D01*
X718Y2D01*
X717Y2D01*
X716Y2D01*
X715Y2D01*
X714Y2D01*
X713Y2D01*
X712Y2D01*
X711Y2D01*
X710Y2D01*
X709Y2D01*
X708Y2D01*
X707Y2D01*
X706Y2D01*
X705Y2D01*
X704Y2D01*
X703Y2D01*
X702Y2D01*
X701Y2D01*
X700Y2D01*
X699Y2D01*
X698Y2D01*
X697Y2D01*
X696Y2D01*
X695Y2D01*
X694Y2D01*
X693Y2D01*
X692Y2D01*
X691Y2D01*
X690Y2D01*
X689Y2D01*
X688Y2D01*
X687Y2D01*
X686Y2D01*
X685Y2D01*
X684Y2D01*
X683Y2D01*
X682Y2D01*
X681Y2D01*
X680Y2D01*
X679Y2D01*
X678Y2D01*
X677Y2D01*
X676Y2D01*
X675Y2D01*
X674Y2D01*
X673Y2D01*
X672Y2D01*
X671Y2D01*
X670Y2D01*
X669Y2D01*
X668Y2D01*
X667Y2D01*
X666Y2D01*
X665Y2D01*
X664Y2D01*
X663Y2D01*
X662Y2D01*
X661Y2D01*
X660Y2D01*
X659Y2D01*
X658Y2D01*
X657Y2D01*
X656Y2D01*
X655Y2D01*
X654Y2D01*
X653Y2D01*
X652Y2D01*
X651Y2D01*
X650Y2D01*
X649Y2D01*
X648Y2D01*
X647Y2D01*
X646Y2D01*
X645Y2D01*
X644Y2D01*
X643Y2D01*
X642Y2D01*
X641Y2D01*
X640Y2D01*
X639Y2D01*
X638Y2D01*
X637Y2D01*
X636Y2D01*
X635Y2D01*
X634Y2D01*
X633Y2D01*
X632Y2D01*
X631Y2D01*
X630Y2D01*
X629Y2D01*
X628Y2D01*
X627Y2D01*
X626Y2D01*
X625Y2D01*
X624Y2D01*
X623Y2D01*
X622Y2D01*
X621Y2D01*
X620Y2D01*
X619Y2D01*
X618Y2D01*
X617Y2D01*
X616Y2D01*
X615Y2D01*
X614Y2D01*
X613Y2D01*
X612Y2D01*
X611Y2D01*
X610Y2D01*
X609Y2D01*
X608Y2D01*
X607Y2D01*
X606Y2D01*
X605Y2D01*
X604Y2D01*
X603Y2D01*
X602Y2D01*
X601Y2D01*
X600Y2D01*
X599Y2D01*
X598Y2D01*
X597Y2D01*
X596Y2D01*
X595Y2D01*
X594Y2D01*
X593Y2D01*
X592Y2D01*
X591Y2D01*
X590Y2D01*
X589Y2D01*
X588Y2D01*
X587Y2D01*
X586Y2D01*
X585Y2D01*
X584Y2D01*
X583Y2D01*
X582Y2D01*
X581Y2D01*
X580Y2D01*
X579Y2D01*
X578Y2D01*
X577Y2D01*
X576Y2D01*
X575Y2D01*
X574Y2D01*
X573Y2D01*
X572Y2D01*
X571Y2D01*
X570Y2D01*
X569Y2D01*
X568Y2D01*
X567Y2D01*
X566Y2D01*
X565Y2D01*
X564Y2D01*
X563Y2D01*
X562Y2D01*
X561Y2D01*
X560Y2D01*
X559Y2D01*
X558Y2D01*
X557Y2D01*
X556Y2D01*
X555Y2D01*
X554Y2D01*
X553Y2D01*
X552Y2D01*
X551Y2D01*
X550Y2D01*
X549Y2D01*
X548Y2D01*
X547Y2D01*
X546Y2D01*
X545Y2D01*
X544Y2D01*
X543Y2D01*
X542Y2D01*
X541Y2D01*
X540Y2D01*
X539Y2D01*
X538Y2D01*
X537Y2D01*
X536Y2D01*
X535Y2D01*
X534Y2D01*
X533Y2D01*
X532Y2D01*
X531Y2D01*
X530Y2D01*
X529Y2D01*
X528Y2D01*
X527Y2D01*
X526Y2D01*
X525Y2D01*
X524Y2D01*
X523Y2D01*
X522Y2D01*
X521Y2D01*
X520Y2D01*
X519Y2D01*
X518Y2D01*
X517Y2D01*
X516Y2D01*
X515Y2D01*
X514Y2D01*
X513Y2D01*
X512Y2D01*
X511Y2D01*
X510Y2D01*
X509Y2D01*
X508Y2D01*
X507Y2D01*
X506Y2D01*
X505Y2D01*
X504Y2D01*
X503Y2D01*
X502Y2D01*
X501Y2D01*
X500Y2D01*
X499Y2D01*
X498Y2D01*
X497Y2D01*
X496Y2D01*
X495Y2D01*
X494Y2D01*
X493Y2D01*
X492Y2D01*
X491Y2D01*
X490Y2D01*
X489Y2D01*
X488Y2D01*
X487Y2D01*
X486Y2D01*
X485Y2D01*
X484Y2D01*
X483Y2D01*
X482Y2D01*
X481Y2D01*
X480Y2D01*
X479Y2D01*
X478Y2D01*
X477Y2D01*
X476Y2D01*
X475Y2D01*
X474Y2D01*
X473Y2D01*
X472Y2D01*
X471Y2D01*
X470Y2D01*
X469Y2D01*
X468Y2D01*
X467Y2D01*
X466Y2D01*
X465Y2D01*
X464Y2D01*
X463Y2D01*
X462Y2D01*
X461Y2D01*
X460Y2D01*
X459Y2D01*
X458Y2D01*
X457Y2D01*
X456Y2D01*
X455Y2D01*
X454Y2D01*
X453Y2D01*
X452Y2D01*
X451Y2D01*
X450Y2D01*
X449Y2D01*
X448Y2D01*
X447Y2D01*
X446Y2D01*
X445Y2D01*
X444Y2D01*
X443Y2D01*
X442Y2D01*
X441Y2D01*
X440Y2D01*
X439Y2D01*
X438Y2D01*
X437Y2D01*
X436Y2D01*
X435Y2D01*
X434Y2D01*
X433Y2D01*
X432Y2D01*
X431Y2D01*
X430Y2D01*
X429Y2D01*
X428Y2D01*
X427Y2D01*
X426Y2D01*
X425Y2D01*
X424Y2D01*
X423Y2D01*
X422Y2D01*
X421Y2D01*
X420Y2D01*
X419Y2D01*
X418Y2D01*
X417Y2D01*
X416Y2D01*
X415Y2D01*
X414Y2D01*
X413Y2D01*
X412Y2D01*
X411Y2D01*
X410Y2D01*
X409Y2D01*
X408Y2D01*
X407Y2D01*
X406Y2D01*
X405Y2D01*
X404Y2D01*
X403Y2D01*
X402Y2D01*
X401Y2D01*
X400Y2D01*
X399Y2D01*
X398Y2D01*
X397Y2D01*
X396Y2D01*
X395Y2D01*
X394Y2D01*
X393Y2D01*
X392Y2D01*
X391Y2D01*
X390Y2D01*
X389Y2D01*
X388Y2D01*
X387Y2D01*
X386Y2D01*
X385Y2D01*
X384Y2D01*
X383Y2D01*
X382Y2D01*
X381Y2D01*
X380Y2D01*
X379Y2D01*
X378Y2D01*
X377Y2D01*
X376Y2D01*
X375Y2D01*
X374Y3D01*
X373Y3D01*
X372Y3D01*
X371Y3D01*
X370Y3D01*
X369Y3D01*
X368Y3D01*
X367Y3D01*
X366Y3D01*
X365Y3D01*
X364Y3D01*
X363Y3D01*
X362Y3D01*
X361Y3D01*
X360Y3D01*
X359Y4D01*
X358Y4D01*
X357Y4D01*
X356Y4D01*
X355Y4D01*
X354Y4D01*
X353Y4D01*
X352Y4D01*
X351Y4D01*
X350Y4D01*
X349Y5D01*
X348Y5D01*
X347Y5D01*
X346Y5D01*
X345Y5D01*
X344Y5D01*
X343Y5D01*
X342Y5D01*
X341Y6D01*
X340Y6D01*
X339Y6D01*
X338Y6D01*
X337Y6D01*
X336Y6D01*
X335Y6D01*
X334Y7D01*
X333Y7D01*
X332Y7D01*
X331Y7D01*
X330Y7D01*
X329Y7D01*
X328Y7D01*
X327Y8D01*
X326Y8D01*
X325Y8D01*
X324Y8D01*
X323Y8D01*
X322Y9D01*
X321Y9D01*
X320Y9D01*
X319Y9D01*
X318Y9D01*
X317Y9D01*
X316Y10D01*
X315Y10D01*
X314Y10D01*
X313Y10D01*
X312Y11D01*
X311Y11D01*
X310Y11D01*
X309Y11D01*
X308Y11D01*
X307Y12D01*
X306Y12D01*
X305Y12D01*
X304Y12D01*
X303Y13D01*
X302Y13D01*
X301Y13D01*
X300Y13D01*
X299Y13D01*
X298Y14D01*
X297Y14D01*
X296Y14D01*
X295Y14D01*
X294Y15D01*
X293Y15D01*
X292Y15D01*
X291Y16D01*
X290Y16D01*
X289Y16D01*
X288Y16D01*
X287Y17D01*
X286Y17D01*
X285Y17D01*
X284Y17D01*
X283Y18D01*
X282Y18D01*
X281Y18D01*
X280Y19D01*
X279Y19D01*
X278Y19D01*
X277Y20D01*
X276Y20D01*
X275Y20D01*
X274Y21D01*
X273Y21D01*
X272Y21D01*
X271Y22D01*
X270Y22D01*
X269Y22D01*
X268Y23D01*
X267Y23D01*
X266Y23D01*
X265Y24D01*
X264Y24D01*
X263Y24D01*
X262Y25D01*
X261Y25D01*
X260Y25D01*
X259Y26D01*
X258Y26D01*
X257Y26D01*
X256Y27D01*
X255Y27D01*
X254Y27D01*
X253Y28D01*
X252Y28D01*
X251Y29D01*
X250Y29D01*
X249Y29D01*
X248Y30D01*
X247Y30D01*
X246Y31D01*
X245Y31D01*
X244Y31D01*
X243Y32D01*
X242Y32D01*
X241Y33D01*
X240Y33D01*
X239Y33D01*
X238Y34D01*
X237Y34D01*
X236Y35D01*
X235Y35D01*
X234Y36D01*
X233Y36D01*
X232Y37D01*
X231Y37D01*
X230Y37D01*
X229Y38D01*
X228Y38D01*
X227Y39D01*
X226Y39D01*
X225Y40D01*
X224Y40D01*
X223Y41D01*
X222Y41D01*
X221Y42D01*
X220Y42D01*
X219Y43D01*
X218Y43D01*
X217Y44D01*
X216Y44D01*
X215Y45D01*
X214Y45D01*
X213Y46D01*
X212Y46D01*
X211Y47D01*
X210Y47D01*
X209Y48D01*
X208Y48D01*
X207Y49D01*
X206Y49D01*
X205Y50D01*
X204Y50D01*
X203Y51D01*
X202Y51D01*
X201Y52D01*
X200Y53D01*
X199Y53D01*
X198Y54D01*
X197Y54D01*
X196Y55D01*
X195Y55D01*
X194Y56D01*
X193Y57D01*
X192Y57D01*
X191Y58D01*
X190Y58D01*
X189Y59D01*
X188Y59D01*
X187Y60D01*
X186Y61D01*
X185Y61D01*
X184Y62D01*
X183Y63D01*
X182Y63D01*
X181Y64D01*
X180Y65D01*
X179Y65D01*
X178Y66D01*
X177Y66D01*
X176Y67D01*
X175Y68D01*
X174Y68D01*
X173Y69D01*
X172Y70D01*
X171Y70D01*
X170Y71D01*
X169Y72D01*
X168Y73D01*
X167Y73D01*
X166Y74D01*
X165Y75D01*
X164Y75D01*
X163Y76D01*
X162Y77D01*
X161Y77D01*
X160Y78D01*
X159Y79D01*
X158Y80D01*
X157Y80D01*
X156Y81D01*
X155Y82D01*
X154Y83D01*
X153Y83D01*
X152Y84D01*
X151Y85D01*
X150Y86D01*
X149Y87D01*
X148Y87D01*
X147Y88D01*
X146Y89D01*
X145Y90D01*
X144Y90D01*
X143Y91D01*
X142Y92D01*
X141Y93D01*
X140Y94D01*
X139Y95D01*
X138Y95D01*
X137Y96D01*
X136Y97D01*
X135Y98D01*
X134Y99D01*
X133Y100D01*
X132Y101D01*
X131Y101D01*
X130Y102D01*
X129Y103D01*
X128Y104D01*
X127Y105D01*
X126Y106D01*
X125Y107D01*
X124Y108D01*
X123Y109D01*
X122Y110D01*
X121Y111D01*
X120Y112D01*
X119Y113D01*
X118Y114D01*
X117Y114D01*
X116Y115D01*
X115Y116D01*
X114Y117D01*
X113Y118D01*
X112Y119D01*
X111Y120D01*
X111Y121D01*
X110Y122D01*
X109Y123D01*
X108Y124D01*
X107Y125D01*
X106Y126D01*
X105Y127D01*
X104Y128D01*
X103Y129D01*
X102Y130D01*
X101Y131D01*
X100Y132D01*
X99Y133D01*
X98Y134D01*
X98Y135D01*
X97Y136D01*
X96Y137D01*
X95Y138D01*
X94Y139D01*
X93Y140D01*
X92Y141D01*
X91Y142D01*
X91Y143D01*
X90Y144D01*
X89Y145D01*
X88Y146D01*
X87Y147D01*
X87Y148D01*
X86Y149D01*
X85Y150D01*
X84Y151D01*
X83Y152D01*
X83Y153D01*
X82Y154D01*
X81Y155D01*
X80Y156D01*
X79Y157D01*
X79Y158D01*
X78Y159D01*
X77Y160D01*
X76Y161D01*
X76Y162D01*
X75Y163D01*
X74Y164D01*
X74Y165D01*
X73Y166D01*
X72Y167D01*
X71Y168D01*
X71Y169D01*
X70Y170D01*
X69Y171D01*
X69Y172D01*
X68Y173D01*
X67Y174D01*
X66Y175D01*
X66Y176D01*
X65Y177D01*
X65Y178D01*
X64Y179D01*
X63Y180D01*
X63Y181D01*
X62Y182D01*
X61Y183D01*
X61Y184D01*
X60Y185D01*
X59Y186D01*
X59Y187D01*
X58Y188D01*
X57Y189D01*
X57Y190D01*
X56Y191D01*
X56Y192D01*
X55Y193D01*
X55Y194D01*
X54Y195D01*
X53Y196D01*
X53Y197D01*
X52Y198D01*
X52Y199D01*
X51Y200D01*
X50Y201D01*
X50Y202D01*
X49Y203D01*
X49Y204D01*
X48Y205D01*
X48Y206D01*
X47Y207D01*
X47Y208D01*
X46Y209D01*
X45Y210D01*
X45Y211D01*
X44Y212D01*
X44Y213D01*
X43Y214D01*
X43Y215D01*
X42Y216D01*
X42Y217D01*
X41Y218D01*
X41Y219D01*
X40Y220D01*
X40Y221D01*
X39Y222D01*
X39Y223D01*
X38Y224D01*
X38Y225D01*
X37Y226D01*
X37Y227D01*
X36Y228D01*
X36Y230D01*
X35Y231D01*
X35Y232D01*
X34Y233D01*
X34Y234D01*
X33Y235D01*
X33Y236D01*
X32Y237D01*
X32Y238D01*
X31Y239D01*
X31Y241D01*
X30Y242D01*
X30Y243D01*
X29Y244D01*
X29Y246D01*
X28Y247D01*
X28Y248D01*
X27Y249D01*
X27Y251D01*
X26Y252D01*
X26Y253D01*
X25Y254D01*
X25Y256D01*
X24Y257D01*
X24Y259D01*
X23Y260D01*
X23Y261D01*
X22Y262D01*
X22Y264D01*
X21Y265D01*
X21Y267D01*
X20Y268D01*
X20Y270D01*
X19Y271D01*
X19Y273D01*
X18Y274D01*
X18Y276D01*
X17Y277D01*
X17Y280D01*
X16Y281D01*
X16Y283D01*
X15Y284D01*
X15Y286D01*
X14Y287D01*
X14Y290D01*
X13Y291D01*
X13Y294D01*
X12Y295D01*
X12Y298D01*
X11Y299D01*
X11Y302D01*
X10Y303D01*
X10Y306D01*
X9Y307D01*
X9Y311D01*
X8Y312D01*
X8Y315D01*
X7Y316D01*
X7Y321D01*
X6Y322D01*
X6Y326D01*
X5Y327D01*
X5Y332D01*
X4Y333D01*
X4Y339D01*
X3Y340D01*
X3Y347D01*
X2Y348D01*
X2Y357D01*
X1Y358D01*
X1Y371D01*
X0Y372D01*
X0Y1523D01*
X1Y1524D01*
X1Y1537D01*
X2Y1538D01*
X2Y1547D01*
X3Y1548D01*
X3Y1555D01*
X4Y1556D01*
X4Y1562D01*
X5Y1563D01*
X5Y1568D01*
X6Y1569D01*
X6Y1573D01*
X7Y1574D01*
X7Y1579D01*
X8Y1580D01*
X8Y1583D01*
X9Y1584D01*
X9Y1588D01*
X10Y1589D01*
X10Y1592D01*
X11Y1593D01*
X11Y1596D01*
X12Y1597D01*
X12Y1600D01*
X13Y1601D01*
X13Y1604D01*
X14Y1605D01*
X14Y1608D01*
X15Y1609D01*
X15Y1611D01*
X16Y1612D01*
X16Y1614D01*
X17Y1615D01*
X17Y1618D01*
X18Y1619D01*
X18Y1621D01*
X19Y1622D01*
X19Y1624D01*
X20Y1625D01*
X20Y1627D01*
X21Y1628D01*
X21Y1630D01*
X22Y1631D01*
X22Y1633D01*
X23Y1634D01*
X23Y1635D01*
X24Y1636D01*
X24Y1638D01*
X25Y1639D01*
X25Y1641D01*
X26Y1642D01*
X26Y1643D01*
X27Y1644D01*
X27Y1646D01*
X28Y1647D01*
X28Y1648D01*
X29Y1649D01*
X29Y1651D01*
X30Y1652D01*
X30Y1653D01*
X31Y1654D01*
X31Y1656D01*
X32Y1657D01*
X32Y1658D01*
X33Y1659D01*
X33Y1660D01*
X34Y1661D01*
X34Y1662D01*
X35Y1663D01*
X35Y1664D01*
X36Y1665D01*
X36Y1667D01*
X37Y1668D01*
X37Y1669D01*
X38Y1670D01*
X38Y1671D01*
X39Y1672D01*
X39Y1673D01*
X40Y1674D01*
X40Y1675D01*
X41Y1676D01*
X41Y1677D01*
X42Y1678D01*
X42Y1679D01*
X43Y1680D01*
X43Y1681D01*
X44Y1682D01*
X44Y1683D01*
X45Y1684D01*
X45Y1685D01*
X46Y1686D01*
X47Y1687D01*
X47Y1688D01*
X48Y1689D01*
X48Y1690D01*
X49Y1691D01*
X49Y1692D01*
X50Y1693D01*
X50Y1694D01*
X51Y1695D01*
X52Y1696D01*
X52Y1697D01*
X53Y1698D01*
X53Y1699D01*
X54Y1700D01*
X55Y1701D01*
X55Y1702D01*
X56Y1703D01*
X56Y1704D01*
X57Y1705D01*
X57Y1706D01*
X58Y1707D01*
X59Y1708D01*
X59Y1709D01*
X60Y1710D01*
X61Y1711D01*
X61Y1712D01*
X62Y1713D01*
X63Y1714D01*
X63Y1715D01*
X64Y1716D01*
X65Y1717D01*
X65Y1718D01*
X66Y1719D01*
X66Y1720D01*
X67Y1721D01*
X68Y1722D01*
X69Y1723D01*
X69Y1724D01*
X70Y1725D01*
X71Y1726D01*
X71Y1727D01*
X72Y1728D01*
X73Y1729D01*
X74Y1730D01*
X74Y1731D01*
X75Y1732D01*
X76Y1733D01*
X76Y1734D01*
X77Y1735D01*
X78Y1736D01*
X79Y1737D01*
X79Y1738D01*
X80Y1739D01*
X81Y1740D01*
X82Y1741D01*
X83Y1742D01*
X83Y1743D01*
X84Y1744D01*
X85Y1745D01*
X86Y1746D01*
X87Y1747D01*
X87Y1748D01*
X88Y1749D01*
X89Y1750D01*
X90Y1751D01*
X91Y1752D01*
X91Y1753D01*
X92Y1754D01*
X93Y1755D01*
X94Y1756D01*
X95Y1757D01*
X96Y1758D01*
X97Y1759D01*
X98Y1760D01*
X98Y1761D01*
X99Y1762D01*
X100Y1763D01*
X101Y1764D01*
X102Y1765D01*
X103Y1766D01*
X104Y1767D01*
X105Y1768D01*
X106Y1769D01*
X107Y1770D01*
X108Y1771D01*
X109Y1772D01*
X110Y1773D01*
X111Y1774D01*
X111Y1775D01*
X112Y1776D01*
X113Y1777D01*
X114Y1778D01*
X115Y1779D01*
X116Y1780D01*
X117Y1781D01*
X118Y1781D01*
X119Y1782D01*
X120Y1783D01*
X121Y1784D01*
X122Y1785D01*
X123Y1786D01*
X124Y1787D01*
X125Y1788D01*
X126Y1789D01*
X127Y1790D01*
X128Y1791D01*
X129Y1792D01*
X130Y1793D01*
X131Y1794D01*
X132Y1794D01*
X133Y1795D01*
X134Y1796D01*
X135Y1797D01*
X136Y1798D01*
X137Y1799D01*
X138Y1800D01*
X139Y1800D01*
X140Y1801D01*
X141Y1802D01*
X142Y1803D01*
X143Y1804D01*
X144Y1805D01*
X145Y1805D01*
X146Y1806D01*
X147Y1807D01*
X148Y1808D01*
X149Y1808D01*
X150Y1809D01*
X151Y1810D01*
X152Y1811D01*
X153Y1812D01*
X154Y1812D01*
X155Y1813D01*
X156Y1814D01*
X157Y1815D01*
X158Y1815D01*
X159Y1816D01*
X160Y1817D01*
X161Y1818D01*
X162Y1818D01*
X163Y1819D01*
X164Y1820D01*
X165Y1820D01*
X166Y1821D01*
X167Y1822D01*
X168Y1822D01*
X169Y1823D01*
X170Y1824D01*
X171Y1825D01*
X172Y1825D01*
X173Y1826D01*
X174Y1827D01*
X175Y1827D01*
X176Y1828D01*
X177Y1829D01*
X178Y1829D01*
X179Y1830D01*
X180Y1830D01*
X181Y1831D01*
X182Y1832D01*
X183Y1832D01*
X184Y1833D01*
X185Y1834D01*
X186Y1834D01*
X187Y1835D01*
X188Y1836D01*
X189Y1836D01*
X190Y1837D01*
X191Y1837D01*
X192Y1838D01*
X193Y1838D01*
X194Y1839D01*
X195Y1840D01*
X196Y1840D01*
X197Y1841D01*
X198Y1841D01*
X199Y1842D01*
X200Y1842D01*
X201Y1843D01*
X202Y1844D01*
X203Y1844D01*
X204Y1845D01*
X205Y1845D01*
X206Y1846D01*
X207Y1846D01*
X208Y1847D01*
X209Y1847D01*
X210Y1848D01*
X211Y1848D01*
X212Y1849D01*
X213Y1849D01*
X214Y1850D01*
X215Y1850D01*
X216Y1851D01*
X217Y1851D01*
X218Y1852D01*
X219Y1852D01*
X220Y1853D01*
X221Y1853D01*
X222Y1854D01*
X223Y1854D01*
X224Y1855D01*
X225Y1855D01*
X226Y1856D01*
X227Y1856D01*
X228Y1857D01*
X229Y1857D01*
X230Y1858D01*
X231Y1858D01*
X232Y1858D01*
X233Y1859D01*
X234Y1859D01*
X235Y1860D01*
X236Y1860D01*
X237Y1861D01*
X238Y1861D01*
X239Y1862D01*
X240Y1862D01*
X241Y1862D01*
X242Y1863D01*
X243Y1863D01*
X244Y1864D01*
X245Y1864D01*
X246Y1864D01*
X247Y1865D01*
X248Y1865D01*
X249Y1866D01*
X250Y1866D01*
X251Y1866D01*
X252Y1867D01*
X253Y1867D01*
X254Y1868D01*
X255Y1868D01*
X256Y1868D01*
X257Y1869D01*
X258Y1869D01*
X259Y1869D01*
X260Y1870D01*
X261Y1870D01*
X262Y1870D01*
X263Y1871D01*
X264Y1871D01*
X265Y1871D01*
X266Y1872D01*
X267Y1872D01*
X268Y1872D01*
X269Y1873D01*
X270Y1873D01*
X271Y1873D01*
X272Y1874D01*
X273Y1874D01*
X274Y1874D01*
X275Y1875D01*
X276Y1875D01*
X277Y1875D01*
X278Y1876D01*
X279Y1876D01*
X280Y1876D01*
X281Y1877D01*
X282Y1877D01*
X283Y1877D01*
X284Y1878D01*
X285Y1878D01*
X286Y1878D01*
X287Y1878D01*
X288Y1879D01*
X289Y1879D01*
X290Y1879D01*
X291Y1879D01*
X292Y1880D01*
X293Y1880D01*
X294Y1880D01*
X295Y1881D01*
X296Y1881D01*
X297Y1881D01*
X298Y1881D01*
X299Y1882D01*
X300Y1882D01*
X301Y1882D01*
X302Y1882D01*
X303Y1882D01*
X304Y1883D01*
X305Y1883D01*
X306Y1883D01*
X307Y1883D01*
X308Y1884D01*
X309Y1884D01*
X310Y1884D01*
X311Y1884D01*
X312Y1884D01*
X313Y1885D01*
X314Y1885D01*
X315Y1885D01*
X316Y1885D01*
X317Y1886D01*
X318Y1886D01*
X319Y1886D01*
X320Y1886D01*
X321Y1886D01*
X322Y1886D01*
X323Y1887D01*
X324Y1887D01*
X325Y1887D01*
X326Y1887D01*
X327Y1887D01*
X328Y1888D01*
X329Y1888D01*
X330Y1888D01*
X331Y1888D01*
X332Y1888D01*
X333Y1888D01*
X334Y1888D01*
X335Y1889D01*
X336Y1889D01*
X337Y1889D01*
X338Y1889D01*
X339Y1889D01*
X340Y1889D01*
X341Y1889D01*
X342Y1890D01*
X343Y1890D01*
X344Y1890D01*
X345Y1890D01*
X346Y1890D01*
X347Y1890D01*
X348Y1890D01*
X349Y1890D01*
X350Y1891D01*
X351Y1891D01*
X352Y1891D01*
X353Y1891D01*
X354Y1891D01*
X355Y1891D01*
X356Y1891D01*
X357Y1891D01*
X358Y1891D01*
X359Y1891D01*
X360Y1892D01*
X361Y1892D01*
X362Y1892D01*
X363Y1892D01*
X364Y1892D01*
X365Y1892D01*
X366Y1892D01*
X367Y1892D01*
X368Y1892D01*
X369Y1892D01*
X370Y1892D01*
X371Y1892D01*
X372Y1892D01*
X373Y1892D01*
X374Y1892D01*
X375Y1893D01*
D02*
G04 End of contour*
M02*